%TF.GenerationSoftware,KiCad,Pcbnew,6.0.3-a3aad9c10e~116~ubuntu21.10.1*%
%TF.CreationDate,2022-03-19T20:14:59+00:00*%
%TF.ProjectId,PCB,5043422e-6b69-4636-9164-5f7063625858,rev?*%
%TF.SameCoordinates,Original*%
%TF.FileFunction,Copper,L1,Top*%
%TF.FilePolarity,Positive*%
%FSLAX46Y46*%
G04 Gerber Fmt 4.6, Leading zero omitted, Abs format (unit mm)*
G04 Created by KiCad (PCBNEW 6.0.3-a3aad9c10e~116~ubuntu21.10.1) date 2022-03-19 20:14:59*
%MOMM*%
%LPD*%
G01*
G04 APERTURE LIST*
G04 Aperture macros list*
%AMFreePoly0*
4,1,13,0.125000,-3.005789,-0.543421,-3.005789,-0.543421,-1.668947,-4.553947,-1.668947,-4.553947,-1.000526,-0.543421,-1.000526,-0.543421,1.004737,-4.553947,1.004737,-4.553947,1.673158,-0.543421,1.673158,-0.543421,3.010000,0.125000,3.010000,0.125000,-3.005789,0.125000,-3.005789,$1*%
%AMFreePoly1*
4,1,13,4.553947,2.341579,0.543421,2.341579,0.543421,0.336316,4.553947,0.336316,4.553947,-0.332105,0.543421,-0.332105,0.543421,-2.337368,4.553947,-2.337368,4.553947,-3.005789,-0.125000,-3.005789,-0.125000,3.010000,4.553947,3.010000,4.553947,2.341579,4.553947,2.341579,$1*%
G04 Aperture macros list end*
%TA.AperFunction,ComponentPad*%
%ADD10C,4.000000*%
%TD*%
%TA.AperFunction,SMDPad,CuDef*%
%ADD11FreePoly0,0.000000*%
%TD*%
%TA.AperFunction,SMDPad,CuDef*%
%ADD12FreePoly1,0.000000*%
%TD*%
%TA.AperFunction,ComponentPad*%
%ADD13R,1.600000X1.600000*%
%TD*%
%TA.AperFunction,ComponentPad*%
%ADD14C,1.600000*%
%TD*%
%TA.AperFunction,ViaPad*%
%ADD15C,0.800000*%
%TD*%
%TA.AperFunction,Conductor*%
%ADD16C,0.250000*%
%TD*%
G04 APERTURE END LIST*
D10*
%TO.P,HOLE_M3,1*%
%TO.N,N/C*%
X255020000Y-82440000D03*
%TD*%
D11*
%TO.P,K2,1*%
%TO.N,/col2*%
X67902474Y-70942106D03*
D12*
%TO.P,K2,2*%
%TO.N,Net-(D2-Pad2)*%
X62137527Y-70942106D03*
%TD*%
D11*
%TO.P,K40,1*%
%TO.N,/col4*%
X105902474Y-127942106D03*
D12*
%TO.P,K40,2*%
%TO.N,Net-(D40-Pad2)*%
X100137527Y-127942106D03*
%TD*%
D11*
%TO.P,K42,1*%
%TO.N,/col6*%
X143902474Y-127942106D03*
D12*
%TO.P,K42,2*%
%TO.N,Net-(D42-Pad2)*%
X138137527Y-127942106D03*
%TD*%
D11*
%TO.P,K35,1*%
%TO.N,/col11*%
X238902474Y-108942106D03*
D12*
%TO.P,K35,2*%
%TO.N,Net-(D35-Pad2)*%
X233137527Y-108942106D03*
%TD*%
D10*
%TO.P,HOLE_M3,1*%
%TO.N,N/C*%
X46020000Y-120440000D03*
%TD*%
D11*
%TO.P,K25,1*%
%TO.N,/col1*%
X48902474Y-108942106D03*
D12*
%TO.P,K25,2*%
%TO.N,Net-(D25-Pad2)*%
X43137527Y-108942106D03*
%TD*%
D11*
%TO.P,K32,1*%
%TO.N,/col8*%
X181902474Y-108942106D03*
D12*
%TO.P,K32,2*%
%TO.N,Net-(D32-Pad2)*%
X176137527Y-108942106D03*
%TD*%
D11*
%TO.P,K27,1*%
%TO.N,/col3*%
X86902474Y-108942106D03*
D12*
%TO.P,K27,2*%
%TO.N,Net-(D27-Pad2)*%
X81137527Y-108942106D03*
%TD*%
D11*
%TO.P,K12,1*%
%TO.N,/col12*%
X257902474Y-70942106D03*
D12*
%TO.P,K12,2*%
%TO.N,Net-(D12-Pad2)*%
X252137527Y-70942106D03*
%TD*%
D11*
%TO.P,K5,1*%
%TO.N,/col5*%
X124902474Y-70942106D03*
D12*
%TO.P,K5,2*%
%TO.N,Net-(D5-Pad2)*%
X119137527Y-70942106D03*
%TD*%
D11*
%TO.P,K7,1*%
%TO.N,/col7*%
X162902474Y-70942106D03*
D12*
%TO.P,K7,2*%
%TO.N,Net-(D7-Pad2)*%
X157137527Y-70942106D03*
%TD*%
D11*
%TO.P,K17,1*%
%TO.N,/col5*%
X124902474Y-89942106D03*
D12*
%TO.P,K17,2*%
%TO.N,Net-(D17-Pad2)*%
X119137527Y-89942106D03*
%TD*%
D11*
%TO.P,K19,1*%
%TO.N,/col7*%
X162902474Y-89942106D03*
D12*
%TO.P,K19,2*%
%TO.N,Net-(D19-Pad2)*%
X157137527Y-89942106D03*
%TD*%
D11*
%TO.P,K4,1*%
%TO.N,/col4*%
X105902474Y-70942106D03*
D12*
%TO.P,K4,2*%
%TO.N,Net-(D4-Pad2)*%
X100137527Y-70942106D03*
%TD*%
D11*
%TO.P,K23,1*%
%TO.N,/col11*%
X238902474Y-89942106D03*
D12*
%TO.P,K23,2*%
%TO.N,Net-(D23-Pad2)*%
X233137527Y-89942106D03*
%TD*%
D11*
%TO.P,K43,1*%
%TO.N,/col7*%
X162902474Y-127942106D03*
D12*
%TO.P,K43,2*%
%TO.N,Net-(D43-Pad2)*%
X157137527Y-127942106D03*
%TD*%
D11*
%TO.P,K10,1*%
%TO.N,/col10*%
X219902474Y-70942106D03*
D12*
%TO.P,K10,2*%
%TO.N,Net-(D10-Pad2)*%
X214137527Y-70942106D03*
%TD*%
D11*
%TO.P,K1,1*%
%TO.N,/col1*%
X48902474Y-70942106D03*
D12*
%TO.P,K1,2*%
%TO.N,Net-(D1-Pad2)*%
X43137527Y-70942106D03*
%TD*%
D11*
%TO.P,K44,1*%
%TO.N,/col8*%
X181902474Y-127942106D03*
D12*
%TO.P,K44,2*%
%TO.N,Net-(D44-Pad2)*%
X176137527Y-127942106D03*
%TD*%
D11*
%TO.P,K18,1*%
%TO.N,/col6*%
X143902474Y-89942106D03*
D12*
%TO.P,K18,2*%
%TO.N,Net-(D18-Pad2)*%
X138137527Y-89942106D03*
%TD*%
D11*
%TO.P,K24,1*%
%TO.N,/col12*%
X257902474Y-89942106D03*
D12*
%TO.P,K24,2*%
%TO.N,Net-(D24-Pad2)*%
X252137527Y-89942106D03*
%TD*%
D11*
%TO.P,K22,1*%
%TO.N,/col10*%
X219902474Y-89942106D03*
D12*
%TO.P,K22,2*%
%TO.N,Net-(D22-Pad2)*%
X214137527Y-89942106D03*
%TD*%
D11*
%TO.P,K46,1*%
%TO.N,/col10*%
X219902474Y-127942106D03*
D12*
%TO.P,K46,2*%
%TO.N,Net-(D46-Pad2)*%
X214137527Y-127942106D03*
%TD*%
D11*
%TO.P,K28,1*%
%TO.N,/col4*%
X105902474Y-108942106D03*
D12*
%TO.P,K28,2*%
%TO.N,Net-(D28-Pad2)*%
X100137527Y-108942106D03*
%TD*%
D11*
%TO.P,K3,1*%
%TO.N,/col3*%
X86902474Y-70942106D03*
D12*
%TO.P,K3,2*%
%TO.N,Net-(D3-Pad2)*%
X81137527Y-70942106D03*
%TD*%
D11*
%TO.P,K9,1*%
%TO.N,/col9*%
X200902474Y-70942106D03*
D12*
%TO.P,K9,2*%
%TO.N,Net-(D9-Pad2)*%
X195137527Y-70942106D03*
%TD*%
D11*
%TO.P,K8,1*%
%TO.N,/col8*%
X181902474Y-70942106D03*
D12*
%TO.P,K8,2*%
%TO.N,Net-(D8-Pad2)*%
X176137527Y-70942106D03*
%TD*%
D11*
%TO.P,K21,1*%
%TO.N,/col9*%
X200902474Y-89942106D03*
D12*
%TO.P,K21,2*%
%TO.N,Net-(D21-Pad2)*%
X195137527Y-89942106D03*
%TD*%
D11*
%TO.P,K29,1*%
%TO.N,/col5*%
X124902474Y-108942106D03*
D12*
%TO.P,K29,2*%
%TO.N,Net-(D29-Pad2)*%
X119137527Y-108942106D03*
%TD*%
D11*
%TO.P,K14,1*%
%TO.N,/col2*%
X67902474Y-89942106D03*
D12*
%TO.P,K14,2*%
%TO.N,Net-(D14-Pad2)*%
X62137527Y-89942106D03*
%TD*%
D11*
%TO.P,K39,1*%
%TO.N,/col3*%
X86902474Y-127942106D03*
D12*
%TO.P,K39,2*%
%TO.N,Net-(D39-Pad2)*%
X81137527Y-127942106D03*
%TD*%
D11*
%TO.P,K6,1*%
%TO.N,/col6*%
X143902474Y-70942106D03*
D12*
%TO.P,K6,2*%
%TO.N,Net-(D6-Pad2)*%
X138137527Y-70942106D03*
%TD*%
D11*
%TO.P,K45,1*%
%TO.N,/col9*%
X200902474Y-127942106D03*
D12*
%TO.P,K45,2*%
%TO.N,Net-(D45-Pad2)*%
X195137527Y-127942106D03*
%TD*%
D11*
%TO.P,K31,1*%
%TO.N,/col7*%
X162902474Y-108942106D03*
D12*
%TO.P,K31,2*%
%TO.N,Net-(D31-Pad2)*%
X157137527Y-108942106D03*
%TD*%
D11*
%TO.P,K26,1*%
%TO.N,/col2*%
X67902474Y-108942106D03*
D12*
%TO.P,K26,2*%
%TO.N,Net-(D26-Pad2)*%
X62137527Y-108942106D03*
%TD*%
D10*
%TO.P,HOLE_M3,1*%
%TO.N,N/C*%
X46020000Y-82440000D03*
%TD*%
D11*
%TO.P,K15,1*%
%TO.N,/col3*%
X86902474Y-89942106D03*
D12*
%TO.P,K15,2*%
%TO.N,Net-(D15-Pad2)*%
X81137527Y-89942106D03*
%TD*%
D11*
%TO.P,K36,1*%
%TO.N,/col12*%
X257902474Y-108942106D03*
D12*
%TO.P,K36,2*%
%TO.N,Net-(D36-Pad2)*%
X252137527Y-108942106D03*
%TD*%
D11*
%TO.P,K30,1*%
%TO.N,/col6*%
X143902474Y-108942106D03*
D12*
%TO.P,K30,2*%
%TO.N,Net-(D30-Pad2)*%
X138137527Y-108942106D03*
%TD*%
D11*
%TO.P,K34,1*%
%TO.N,/col10*%
X219902474Y-108942106D03*
D12*
%TO.P,K34,2*%
%TO.N,Net-(D34-Pad2)*%
X214137527Y-108942106D03*
%TD*%
D11*
%TO.P,K48,1*%
%TO.N,/col12*%
X257902474Y-127942106D03*
D12*
%TO.P,K48,2*%
%TO.N,Net-(D48-Pad2)*%
X252137527Y-127942106D03*
%TD*%
D10*
%TO.P,HOLE_M3,1*%
%TO.N,N/C*%
X255020000Y-120440000D03*
%TD*%
D11*
%TO.P,K11,1*%
%TO.N,/col11*%
X238902474Y-70942106D03*
D12*
%TO.P,K11,2*%
%TO.N,Net-(D11-Pad2)*%
X233137527Y-70942106D03*
%TD*%
D11*
%TO.P,K20,1*%
%TO.N,/col8*%
X181902474Y-89942106D03*
D12*
%TO.P,K20,2*%
%TO.N,Net-(D20-Pad2)*%
X176137527Y-89942106D03*
%TD*%
D11*
%TO.P,K33,1*%
%TO.N,/col9*%
X200902474Y-108942106D03*
D12*
%TO.P,K33,2*%
%TO.N,Net-(D33-Pad2)*%
X195137527Y-108942106D03*
%TD*%
D11*
%TO.P,K41,1*%
%TO.N,/col5*%
X124902474Y-127942106D03*
D12*
%TO.P,K41,2*%
%TO.N,Net-(D41-Pad2)*%
X119137527Y-127942106D03*
%TD*%
D11*
%TO.P,K47,1*%
%TO.N,/col11*%
X238902474Y-127942106D03*
D12*
%TO.P,K47,2*%
%TO.N,Net-(D47-Pad2)*%
X233137527Y-127942106D03*
%TD*%
D11*
%TO.P,K37,1*%
%TO.N,/col1*%
X48902474Y-127942106D03*
D12*
%TO.P,K37,2*%
%TO.N,Net-(D37-Pad2)*%
X43137527Y-127942106D03*
%TD*%
D11*
%TO.P,K16,1*%
%TO.N,/col4*%
X105902474Y-89942106D03*
D12*
%TO.P,K16,2*%
%TO.N,Net-(D16-Pad2)*%
X100137527Y-89942106D03*
%TD*%
D11*
%TO.P,K38,1*%
%TO.N,/col2*%
X67902474Y-127942106D03*
D12*
%TO.P,K38,2*%
%TO.N,Net-(D38-Pad2)*%
X62137527Y-127942106D03*
%TD*%
D11*
%TO.P,K13,1*%
%TO.N,/col1*%
X48902474Y-89942106D03*
D12*
%TO.P,K13,2*%
%TO.N,Net-(D13-Pad2)*%
X43137527Y-89942106D03*
%TD*%
D13*
%TO.P,Pro-Micro1,1,TX*%
%TO.N,unconnected-(Pro-Micro1-Pad1)*%
X148640000Y-62975000D03*
D14*
%TO.P,Pro-Micro1,2,RX*%
%TO.N,unconnected-(Pro-Micro1-Pad2)*%
X148640000Y-65515000D03*
%TO.P,Pro-Micro1,3,GND*%
%TO.N,unconnected-(Pro-Micro1-Pad3)*%
X148640000Y-68055000D03*
%TO.P,Pro-Micro1,4,GND*%
%TO.N,unconnected-(Pro-Micro1-Pad4)*%
X148640000Y-70595000D03*
%TO.P,Pro-Micro1,5,SDA*%
%TO.N,/col12*%
X148640000Y-73135000D03*
%TO.P,Pro-Micro1,6,SCL*%
%TO.N,/col11*%
X148640000Y-75675000D03*
%TO.P,Pro-Micro1,7,D4*%
%TO.N,/col10*%
X148640000Y-78215000D03*
%TO.P,Pro-Micro1,8,C6*%
%TO.N,/col9*%
X148640000Y-80755000D03*
%TO.P,Pro-Micro1,9,D7*%
%TO.N,/col8*%
X148640000Y-83295000D03*
%TO.P,Pro-Micro1,10,E6*%
%TO.N,/col7*%
X148640000Y-85835000D03*
%TO.P,Pro-Micro1,11,B4*%
%TO.N,/row3*%
X148640000Y-88375000D03*
%TO.P,Pro-Micro1,12,B5*%
%TO.N,/row4*%
X148640000Y-90915000D03*
%TO.P,Pro-Micro1,13,B6*%
%TO.N,/col1*%
X133400000Y-90915000D03*
%TO.P,Pro-Micro1,14,B2*%
%TO.N,/col2*%
X133400000Y-88375000D03*
%TO.P,Pro-Micro1,15,B3*%
%TO.N,/col3*%
X133400000Y-85835000D03*
%TO.P,Pro-Micro1,16,B1*%
%TO.N,/col4*%
X133400000Y-83295000D03*
%TO.P,Pro-Micro1,17,F7*%
%TO.N,/col5*%
X133400000Y-80755000D03*
%TO.P,Pro-Micro1,18,F6*%
%TO.N,/col6*%
X133400000Y-78215000D03*
%TO.P,Pro-Micro1,19,F5*%
%TO.N,/row2*%
X133400000Y-75675000D03*
%TO.P,Pro-Micro1,20,F4*%
%TO.N,/row1*%
X133400000Y-73135000D03*
%TO.P,Pro-Micro1,21,VCC*%
%TO.N,unconnected-(Pro-Micro1-Pad21)*%
X133400000Y-70595000D03*
%TO.P,Pro-Micro1,22,RST*%
%TO.N,unconnected-(Pro-Micro1-Pad22)*%
X133400000Y-68055000D03*
%TO.P,Pro-Micro1,23,GND*%
%TO.N,unconnected-(Pro-Micro1-Pad23)*%
X133400000Y-65515000D03*
%TO.P,Pro-Micro1,24,RAW*%
%TO.N,unconnected-(Pro-Micro1-Pad24)*%
X133400000Y-62975000D03*
%TD*%
D13*
%TO.P,D39,1*%
%TO.N,/row4*%
X87920000Y-134240000D03*
D14*
%TO.P,D39,2*%
%TO.N,Net-(D39-Pad2)*%
X80120000Y-134240000D03*
%TD*%
D13*
%TO.P,D26,1*%
%TO.N,/row3*%
X68920000Y-115240000D03*
D14*
%TO.P,D26,2*%
%TO.N,Net-(D26-Pad2)*%
X61120000Y-115240000D03*
%TD*%
D13*
%TO.P,D11,1*%
%TO.N,/row1*%
X239920000Y-77240000D03*
D14*
%TO.P,D11,2*%
%TO.N,Net-(D11-Pad2)*%
X232120000Y-77240000D03*
%TD*%
D13*
%TO.P,D18,1*%
%TO.N,/row2*%
X144920000Y-96240000D03*
D14*
%TO.P,D18,2*%
%TO.N,Net-(D18-Pad2)*%
X137120000Y-96240000D03*
%TD*%
D13*
%TO.P,D10,1*%
%TO.N,/row1*%
X220920000Y-77240000D03*
D14*
%TO.P,D10,2*%
%TO.N,Net-(D10-Pad2)*%
X213120000Y-77240000D03*
%TD*%
D13*
%TO.P,D23,1*%
%TO.N,/row2*%
X239920000Y-96240000D03*
D14*
%TO.P,D23,2*%
%TO.N,Net-(D23-Pad2)*%
X232120000Y-96240000D03*
%TD*%
D13*
%TO.P,D28,1*%
%TO.N,/row3*%
X106920000Y-115240000D03*
D14*
%TO.P,D28,2*%
%TO.N,Net-(D28-Pad2)*%
X99120000Y-115240000D03*
%TD*%
D13*
%TO.P,D7,1*%
%TO.N,/row1*%
X163920000Y-77240000D03*
D14*
%TO.P,D7,2*%
%TO.N,Net-(D7-Pad2)*%
X156120000Y-77240000D03*
%TD*%
D13*
%TO.P,D37,1*%
%TO.N,/row4*%
X49920000Y-134240000D03*
D14*
%TO.P,D37,2*%
%TO.N,Net-(D37-Pad2)*%
X42120000Y-134240000D03*
%TD*%
D13*
%TO.P,D1,1*%
%TO.N,/row1*%
X49920000Y-77240000D03*
D14*
%TO.P,D1,2*%
%TO.N,Net-(D1-Pad2)*%
X42120000Y-77240000D03*
%TD*%
D13*
%TO.P,D48,1*%
%TO.N,/row4*%
X258920000Y-134240000D03*
D14*
%TO.P,D48,2*%
%TO.N,Net-(D48-Pad2)*%
X251120000Y-134240000D03*
%TD*%
D13*
%TO.P,D47,1*%
%TO.N,/row4*%
X239920000Y-134240000D03*
D14*
%TO.P,D47,2*%
%TO.N,Net-(D47-Pad2)*%
X232120000Y-134240000D03*
%TD*%
D13*
%TO.P,D21,1*%
%TO.N,/row2*%
X201920000Y-96240000D03*
D14*
%TO.P,D21,2*%
%TO.N,Net-(D21-Pad2)*%
X194120000Y-96240000D03*
%TD*%
D13*
%TO.P,D6,1*%
%TO.N,/row1*%
X144920000Y-77240000D03*
D14*
%TO.P,D6,2*%
%TO.N,Net-(D6-Pad2)*%
X137120000Y-77240000D03*
%TD*%
D13*
%TO.P,D31,1*%
%TO.N,/row3*%
X163920000Y-115240000D03*
D14*
%TO.P,D31,2*%
%TO.N,Net-(D31-Pad2)*%
X156120000Y-115240000D03*
%TD*%
D13*
%TO.P,D4,1*%
%TO.N,/row1*%
X106920000Y-77240000D03*
D14*
%TO.P,D4,2*%
%TO.N,Net-(D4-Pad2)*%
X99120000Y-77240000D03*
%TD*%
D13*
%TO.P,D36,1*%
%TO.N,/row3*%
X258920000Y-115240000D03*
D14*
%TO.P,D36,2*%
%TO.N,Net-(D36-Pad2)*%
X251120000Y-115240000D03*
%TD*%
D13*
%TO.P,D14,1*%
%TO.N,/row2*%
X68920000Y-96240000D03*
D14*
%TO.P,D14,2*%
%TO.N,Net-(D14-Pad2)*%
X61120000Y-96240000D03*
%TD*%
D13*
%TO.P,D29,1*%
%TO.N,/row3*%
X125920000Y-115240000D03*
D14*
%TO.P,D29,2*%
%TO.N,Net-(D29-Pad2)*%
X118120000Y-115240000D03*
%TD*%
D13*
%TO.P,D42,1*%
%TO.N,/row4*%
X144920000Y-134240000D03*
D14*
%TO.P,D42,2*%
%TO.N,Net-(D42-Pad2)*%
X137120000Y-134240000D03*
%TD*%
D13*
%TO.P,D41,1*%
%TO.N,/row4*%
X125920000Y-134240000D03*
D14*
%TO.P,D41,2*%
%TO.N,Net-(D41-Pad2)*%
X118120000Y-134240000D03*
%TD*%
D13*
%TO.P,D40,1*%
%TO.N,/row4*%
X106920000Y-134240000D03*
D14*
%TO.P,D40,2*%
%TO.N,Net-(D40-Pad2)*%
X99120000Y-134240000D03*
%TD*%
D13*
%TO.P,D8,1*%
%TO.N,/row1*%
X182920000Y-77240000D03*
D14*
%TO.P,D8,2*%
%TO.N,Net-(D8-Pad2)*%
X175120000Y-77240000D03*
%TD*%
D13*
%TO.P,D17,1*%
%TO.N,/row2*%
X125920000Y-96240000D03*
D14*
%TO.P,D17,2*%
%TO.N,Net-(D17-Pad2)*%
X118120000Y-96240000D03*
%TD*%
D13*
%TO.P,D2,1*%
%TO.N,/row1*%
X68920000Y-77240000D03*
D14*
%TO.P,D2,2*%
%TO.N,Net-(D2-Pad2)*%
X61120000Y-77240000D03*
%TD*%
D13*
%TO.P,D24,1*%
%TO.N,/row2*%
X258920000Y-96240000D03*
D14*
%TO.P,D24,2*%
%TO.N,Net-(D24-Pad2)*%
X251120000Y-96240000D03*
%TD*%
D13*
%TO.P,D9,1*%
%TO.N,/row1*%
X201920000Y-77240000D03*
D14*
%TO.P,D9,2*%
%TO.N,Net-(D9-Pad2)*%
X194120000Y-77240000D03*
%TD*%
D13*
%TO.P,D12,1*%
%TO.N,/row1*%
X258920000Y-77240000D03*
D14*
%TO.P,D12,2*%
%TO.N,Net-(D12-Pad2)*%
X251120000Y-77240000D03*
%TD*%
D13*
%TO.P,D13,1*%
%TO.N,/row2*%
X49920000Y-96240000D03*
D14*
%TO.P,D13,2*%
%TO.N,Net-(D13-Pad2)*%
X42120000Y-96240000D03*
%TD*%
D13*
%TO.P,D5,1*%
%TO.N,/row1*%
X125920000Y-77240000D03*
D14*
%TO.P,D5,2*%
%TO.N,Net-(D5-Pad2)*%
X118120000Y-77240000D03*
%TD*%
D13*
%TO.P,D33,1*%
%TO.N,/row3*%
X201920000Y-115240000D03*
D14*
%TO.P,D33,2*%
%TO.N,Net-(D33-Pad2)*%
X194120000Y-115240000D03*
%TD*%
D13*
%TO.P,D30,1*%
%TO.N,/row3*%
X144920000Y-115240000D03*
D14*
%TO.P,D30,2*%
%TO.N,Net-(D30-Pad2)*%
X137120000Y-115240000D03*
%TD*%
D13*
%TO.P,D27,1*%
%TO.N,/row3*%
X87920000Y-115240000D03*
D14*
%TO.P,D27,2*%
%TO.N,Net-(D27-Pad2)*%
X80120000Y-115240000D03*
%TD*%
D13*
%TO.P,D25,1*%
%TO.N,/row3*%
X49920000Y-115240000D03*
D14*
%TO.P,D25,2*%
%TO.N,Net-(D25-Pad2)*%
X42120000Y-115240000D03*
%TD*%
D13*
%TO.P,D45,1*%
%TO.N,/row4*%
X201920000Y-134240000D03*
D14*
%TO.P,D45,2*%
%TO.N,Net-(D45-Pad2)*%
X194120000Y-134240000D03*
%TD*%
D13*
%TO.P,D20,1*%
%TO.N,/row2*%
X182920000Y-96240000D03*
D14*
%TO.P,D20,2*%
%TO.N,Net-(D20-Pad2)*%
X175120000Y-96240000D03*
%TD*%
D13*
%TO.P,D38,1*%
%TO.N,/row4*%
X68920000Y-134240000D03*
D14*
%TO.P,D38,2*%
%TO.N,Net-(D38-Pad2)*%
X61120000Y-134240000D03*
%TD*%
D13*
%TO.P,D43,1*%
%TO.N,/row4*%
X163920000Y-134240000D03*
D14*
%TO.P,D43,2*%
%TO.N,Net-(D43-Pad2)*%
X156120000Y-134240000D03*
%TD*%
D13*
%TO.P,D44,1*%
%TO.N,/row4*%
X182920000Y-134240000D03*
D14*
%TO.P,D44,2*%
%TO.N,Net-(D44-Pad2)*%
X175120000Y-134240000D03*
%TD*%
D13*
%TO.P,D32,1*%
%TO.N,/row3*%
X182920000Y-115240000D03*
D14*
%TO.P,D32,2*%
%TO.N,Net-(D32-Pad2)*%
X175120000Y-115240000D03*
%TD*%
D13*
%TO.P,D22,1*%
%TO.N,/row2*%
X220920000Y-96240000D03*
D14*
%TO.P,D22,2*%
%TO.N,Net-(D22-Pad2)*%
X213120000Y-96240000D03*
%TD*%
D13*
%TO.P,D3,1*%
%TO.N,/row1*%
X87920000Y-77240000D03*
D14*
%TO.P,D3,2*%
%TO.N,Net-(D3-Pad2)*%
X80120000Y-77240000D03*
%TD*%
D13*
%TO.P,D15,1*%
%TO.N,/row2*%
X87920000Y-96240000D03*
D14*
%TO.P,D15,2*%
%TO.N,Net-(D15-Pad2)*%
X80120000Y-96240000D03*
%TD*%
D13*
%TO.P,D46,1*%
%TO.N,/row4*%
X220920000Y-134240000D03*
D14*
%TO.P,D46,2*%
%TO.N,Net-(D46-Pad2)*%
X213120000Y-134240000D03*
%TD*%
D13*
%TO.P,D16,1*%
%TO.N,/row2*%
X106920000Y-96240000D03*
D14*
%TO.P,D16,2*%
%TO.N,Net-(D16-Pad2)*%
X99120000Y-96240000D03*
%TD*%
D13*
%TO.P,D35,1*%
%TO.N,/row3*%
X239920000Y-115240000D03*
D14*
%TO.P,D35,2*%
%TO.N,Net-(D35-Pad2)*%
X232120000Y-115240000D03*
%TD*%
D13*
%TO.P,D34,1*%
%TO.N,/row3*%
X220920000Y-115240000D03*
D14*
%TO.P,D34,2*%
%TO.N,Net-(D34-Pad2)*%
X213120000Y-115240000D03*
%TD*%
D13*
%TO.P,D19,1*%
%TO.N,/row2*%
X163920000Y-96240000D03*
D14*
%TO.P,D19,2*%
%TO.N,Net-(D19-Pad2)*%
X156120000Y-96240000D03*
%TD*%
D15*
%TO.N,/col1*%
X55520000Y-108440000D03*
X55520000Y-89440000D03*
X55520000Y-71440000D03*
X55520000Y-127440000D03*
%TO.N,/col2*%
X74520000Y-108440000D03*
X74520000Y-127440000D03*
X74520000Y-71440000D03*
X74520000Y-89440000D03*
%TO.N,/col3*%
X93520000Y-89440000D03*
X93520000Y-127440000D03*
X93520000Y-108440000D03*
X93520000Y-71440000D03*
%TO.N,/col4*%
X112520000Y-89440000D03*
X112520000Y-108440000D03*
X112520000Y-71440000D03*
X112520000Y-127440000D03*
%TO.N,/col5*%
X128520000Y-71440000D03*
X128520000Y-89440000D03*
X128520000Y-108440000D03*
X128520000Y-127440000D03*
%TO.N,/col6*%
X146520000Y-71440000D03*
X146520000Y-89440000D03*
X146520000Y-108440000D03*
X146520000Y-127440000D03*
%TO.N,/col7*%
X169520000Y-108440000D03*
X169520000Y-71440000D03*
X169520000Y-127440000D03*
X169520000Y-89440000D03*
%TO.N,/col8*%
X188520000Y-108440000D03*
X188520000Y-127440000D03*
X188520000Y-89440000D03*
X188520000Y-71440000D03*
%TO.N,/row4*%
X148520000Y-118440000D03*
%TO.N,/row3*%
X150520000Y-99440000D03*
%TO.N,/col12*%
X261520000Y-89440000D03*
X261520000Y-127440000D03*
X261520000Y-108440000D03*
X261520000Y-71440000D03*
%TO.N,/col11*%
X245520000Y-71440000D03*
X245520000Y-89440000D03*
X245520000Y-127440000D03*
X245520000Y-108440000D03*
%TO.N,/col10*%
X226520000Y-108440000D03*
X226520000Y-71440000D03*
X226520000Y-89440000D03*
X226520000Y-127440000D03*
%TO.N,/col9*%
X207520000Y-89440000D03*
X207520000Y-108440000D03*
X207520000Y-127440000D03*
X207520000Y-71440000D03*
%TD*%
D16*
%TO.N,/col1*%
X55017894Y-89942106D02*
X55520000Y-89440000D01*
X55017894Y-108942106D02*
X55520000Y-108440000D01*
X55022106Y-70942106D02*
X55520000Y-71440000D01*
X48902474Y-89942106D02*
X55017894Y-89942106D01*
X48902474Y-108942106D02*
X55017894Y-108942106D01*
X49404580Y-127440000D02*
X55520000Y-127440000D01*
X48902474Y-70942106D02*
X55022106Y-70942106D01*
X48902474Y-127942106D02*
X49404580Y-127440000D01*
%TO.N,/col2*%
X67902474Y-108942106D02*
X74017894Y-108942106D01*
X74022106Y-70942106D02*
X74520000Y-71440000D01*
X74017894Y-108942106D02*
X74520000Y-108440000D01*
X74017894Y-127942106D02*
X74520000Y-127440000D01*
X67902474Y-89942106D02*
X74017894Y-89942106D01*
X67902474Y-70942106D02*
X74022106Y-70942106D01*
X74017894Y-89942106D02*
X74520000Y-89440000D01*
X67902474Y-127942106D02*
X74017894Y-127942106D01*
%TO.N,/col3*%
X86902474Y-70942106D02*
X93022106Y-70942106D01*
X93017894Y-89942106D02*
X93520000Y-89440000D01*
X93022106Y-70942106D02*
X93520000Y-71440000D01*
X86902474Y-108942106D02*
X93017894Y-108942106D01*
X86902474Y-89942106D02*
X93017894Y-89942106D01*
X86902474Y-127942106D02*
X93017894Y-127942106D01*
X93017894Y-108942106D02*
X93520000Y-108440000D01*
X93017894Y-127942106D02*
X93520000Y-127440000D01*
%TO.N,/col4*%
X112017894Y-89942106D02*
X112520000Y-89440000D01*
X105902474Y-70942106D02*
X112022106Y-70942106D01*
X112017894Y-108942106D02*
X105902474Y-108942106D01*
X105902474Y-89942106D02*
X112017894Y-89942106D01*
X112520000Y-108440000D02*
X112017894Y-108942106D01*
X112022106Y-70942106D02*
X112520000Y-71440000D01*
X112017894Y-127942106D02*
X112520000Y-127440000D01*
X105902474Y-127942106D02*
X112017894Y-127942106D01*
%TO.N,/col5*%
X128017894Y-127942106D02*
X128520000Y-127440000D01*
X124902474Y-127942106D02*
X128017894Y-127942106D01*
X128017894Y-89942106D02*
X128520000Y-89440000D01*
X124902474Y-70942106D02*
X128022106Y-70942106D01*
X128022106Y-70942106D02*
X128520000Y-71440000D01*
X124902474Y-89942106D02*
X128017894Y-89942106D01*
X124902474Y-108942106D02*
X128017894Y-108942106D01*
X128017894Y-108942106D02*
X128520000Y-108440000D01*
%TO.N,/col6*%
X146022106Y-70942106D02*
X146520000Y-71440000D01*
X143902474Y-89942106D02*
X146017894Y-89942106D01*
X146017894Y-108942106D02*
X146520000Y-108440000D01*
X146017894Y-89942106D02*
X146520000Y-89440000D01*
X143902474Y-70942106D02*
X146022106Y-70942106D01*
X143902474Y-108942106D02*
X146017894Y-108942106D01*
X146017894Y-127942106D02*
X146520000Y-127440000D01*
X143902474Y-127942106D02*
X146017894Y-127942106D01*
%TO.N,/col7*%
X169017894Y-108942106D02*
X169520000Y-108440000D01*
X169520000Y-89440000D02*
X165915000Y-85835000D01*
X165915000Y-85835000D02*
X148640000Y-85835000D01*
X162902474Y-127942106D02*
X169017894Y-127942106D01*
X162902474Y-108942106D02*
X169017894Y-108942106D01*
X169017894Y-89942106D02*
X169520000Y-89440000D01*
X169017894Y-127942106D02*
X169520000Y-127440000D01*
X169022106Y-70942106D02*
X169520000Y-71440000D01*
X162902474Y-70942106D02*
X169022106Y-70942106D01*
X162902474Y-89942106D02*
X169017894Y-89942106D01*
%TO.N,/col8*%
X188520000Y-71440000D02*
X188520000Y-66440000D01*
X181902474Y-127942106D02*
X188017894Y-127942106D01*
X188017894Y-127942106D02*
X188520000Y-127440000D01*
X154520000Y-66440000D02*
X154520000Y-77415000D01*
X188520000Y-66440000D02*
X154520000Y-66440000D01*
X188022106Y-70942106D02*
X188520000Y-71440000D01*
X181902474Y-89942106D02*
X188017894Y-89942106D01*
X188017894Y-89942106D02*
X188520000Y-89440000D01*
X181902474Y-108942106D02*
X188017894Y-108942106D01*
X188017894Y-108942106D02*
X188520000Y-108440000D01*
X181902474Y-70942106D02*
X188022106Y-70942106D01*
X154520000Y-77415000D02*
X148640000Y-83295000D01*
%TO.N,/row4*%
X165044511Y-135364511D02*
X181795489Y-135364511D01*
X51044511Y-135364511D02*
X67795489Y-135364511D01*
X239845489Y-135364511D02*
X222044511Y-135364511D01*
X162795489Y-135364511D02*
X163920000Y-134240000D01*
X203044511Y-135364511D02*
X201920000Y-134240000D01*
X108044511Y-135364511D02*
X124795489Y-135364511D01*
X86795489Y-135364511D02*
X87920000Y-134240000D01*
X184044511Y-135364511D02*
X182920000Y-134240000D01*
X200795489Y-135364511D02*
X184044511Y-135364511D01*
X163920000Y-134240000D02*
X165044511Y-135364511D01*
X222044511Y-135364511D02*
X220920000Y-134240000D01*
X127044511Y-135364511D02*
X132444511Y-135364511D01*
X124795489Y-135364511D02*
X125920000Y-134240000D01*
X68920000Y-134240000D02*
X70044511Y-135364511D01*
X181795489Y-135364511D02*
X182920000Y-134240000D01*
X87920000Y-134240000D02*
X89044511Y-135364511D01*
X49920000Y-134240000D02*
X51044511Y-135364511D01*
X144920000Y-134240000D02*
X146044511Y-135364511D01*
X258920000Y-134240000D02*
X257795489Y-135364511D01*
X148595489Y-118515489D02*
X148520000Y-118440000D01*
X241044511Y-135364511D02*
X239920000Y-134240000D01*
X257795489Y-135364511D02*
X241044511Y-135364511D01*
X106920000Y-134240000D02*
X108044511Y-135364511D01*
X125920000Y-134240000D02*
X127044511Y-135364511D01*
X143795489Y-135364511D02*
X144920000Y-134240000D01*
X70044511Y-135364511D02*
X86795489Y-135364511D01*
X201920000Y-134240000D02*
X200795489Y-135364511D01*
X220920000Y-134240000D02*
X219795489Y-135364511D01*
X146044511Y-135364511D02*
X148595489Y-135364511D01*
X239920000Y-135290000D02*
X239845489Y-135364511D01*
X148595489Y-135364511D02*
X162795489Y-135364511D01*
X132444511Y-135364511D02*
X143795489Y-135364511D01*
X89044511Y-135364511D02*
X105795489Y-135364511D01*
X67795489Y-135364511D02*
X68920000Y-134240000D01*
X239920000Y-134240000D02*
X239920000Y-135290000D01*
X105795489Y-135364511D02*
X106920000Y-134240000D01*
X148595489Y-135364511D02*
X148595489Y-118515489D01*
X219795489Y-135364511D02*
X203044511Y-135364511D01*
%TO.N,/row3*%
X184044511Y-116364511D02*
X200795489Y-116364511D01*
X49920000Y-115240000D02*
X51044511Y-116364511D01*
X200795489Y-116364511D02*
X201920000Y-115240000D01*
X68920000Y-115240000D02*
X70044511Y-116364511D01*
X220920000Y-115240000D02*
X222044511Y-116364511D01*
X241044511Y-116364511D02*
X257795489Y-116364511D01*
X163920000Y-115240000D02*
X165044511Y-116364511D01*
X150444511Y-116364511D02*
X150444511Y-99515489D01*
X124795489Y-116364511D02*
X125920000Y-115240000D01*
X201920000Y-115240000D02*
X203044511Y-116364511D01*
X125920000Y-115240000D02*
X127044511Y-116364511D01*
X87920000Y-115240000D02*
X89044511Y-116364511D01*
X222044511Y-116364511D02*
X238795489Y-116364511D01*
X257795489Y-116364511D02*
X258920000Y-115240000D01*
X67795489Y-116364511D02*
X68920000Y-115240000D01*
X165044511Y-116364511D02*
X181795489Y-116364511D01*
X89044511Y-116364511D02*
X105795489Y-116364511D01*
X219795489Y-116364511D02*
X220920000Y-115240000D01*
X150444511Y-116364511D02*
X162795489Y-116364511D01*
X105795489Y-116364511D02*
X106920000Y-115240000D01*
X150444511Y-99515489D02*
X150520000Y-99440000D01*
X162795489Y-116364511D02*
X163920000Y-115240000D01*
X238795489Y-116364511D02*
X239920000Y-115240000D01*
X70044511Y-116364511D02*
X86795489Y-116364511D01*
X108044511Y-116364511D02*
X124795489Y-116364511D01*
X181795489Y-116364511D02*
X182920000Y-115240000D01*
X127044511Y-116364511D02*
X130595489Y-116364511D01*
X143795489Y-116364511D02*
X144920000Y-115240000D01*
X86795489Y-116364511D02*
X87920000Y-115240000D01*
X146044511Y-116364511D02*
X150444511Y-116364511D01*
X239920000Y-115240000D02*
X241044511Y-116364511D01*
X182920000Y-115240000D02*
X184044511Y-116364511D01*
X130595489Y-116364511D02*
X143795489Y-116364511D01*
X106920000Y-115240000D02*
X108044511Y-116364511D01*
X144920000Y-115240000D02*
X146044511Y-116364511D01*
X51044511Y-116364511D02*
X67795489Y-116364511D01*
X203044511Y-116364511D02*
X219795489Y-116364511D01*
%TO.N,/row2*%
X162795489Y-97364511D02*
X163920000Y-96240000D01*
X222044511Y-97364511D02*
X220920000Y-96240000D01*
X130444511Y-97364511D02*
X143795489Y-97364511D01*
X146044511Y-97364511D02*
X162795489Y-97364511D01*
X200720000Y-97440000D02*
X184120000Y-97440000D01*
X219795489Y-97364511D02*
X203044511Y-97364511D01*
X51044511Y-97364511D02*
X67795489Y-97364511D01*
X129595489Y-79479511D02*
X129595489Y-97364511D01*
X238795489Y-97364511D02*
X222044511Y-97364511D01*
X67795489Y-97364511D02*
X68920000Y-96240000D01*
X108044511Y-97364511D02*
X124795489Y-97364511D01*
X163920000Y-96240000D02*
X165044511Y-97364511D01*
X89044511Y-97364511D02*
X105795489Y-97364511D01*
X124795489Y-97364511D02*
X125920000Y-96240000D01*
X105795489Y-97364511D02*
X106920000Y-96240000D01*
X70044511Y-97364511D02*
X86795489Y-97364511D01*
X125920000Y-96240000D02*
X127044511Y-97364511D01*
X133400000Y-75675000D02*
X129595489Y-79479511D01*
X181795489Y-97364511D02*
X182920000Y-96240000D01*
X144920000Y-96240000D02*
X146044511Y-97364511D01*
X106920000Y-96240000D02*
X108044511Y-97364511D01*
X127044511Y-97364511D02*
X129595489Y-97364511D01*
X184120000Y-97440000D02*
X182920000Y-96240000D01*
X257720000Y-97440000D02*
X241120000Y-97440000D01*
X86795489Y-97364511D02*
X87920000Y-96240000D01*
X258920000Y-96240000D02*
X257720000Y-97440000D01*
X241120000Y-97440000D02*
X239920000Y-96240000D01*
X143795489Y-97364511D02*
X144920000Y-96240000D01*
X49920000Y-96240000D02*
X51044511Y-97364511D01*
X201920000Y-96240000D02*
X200720000Y-97440000D01*
X87920000Y-96240000D02*
X89044511Y-97364511D01*
X220920000Y-96240000D02*
X219795489Y-97364511D01*
X239920000Y-96240000D02*
X238795489Y-97364511D01*
X129595489Y-97364511D02*
X130444511Y-97364511D01*
X165044511Y-97364511D02*
X181795489Y-97364511D01*
X203044511Y-97364511D02*
X201920000Y-96240000D01*
X68920000Y-96240000D02*
X70044511Y-97364511D01*
%TO.N,/row1*%
X108044511Y-78364511D02*
X124795489Y-78364511D01*
X89044511Y-78364511D02*
X105795489Y-78364511D01*
X257795489Y-78364511D02*
X258920000Y-77240000D01*
X87920000Y-77240000D02*
X89044511Y-78364511D01*
X68920000Y-77240000D02*
X70044511Y-78364511D01*
X125920000Y-75040000D02*
X127825000Y-73135000D01*
X49920000Y-77240000D02*
X51044511Y-78364511D01*
X181795489Y-78364511D02*
X182920000Y-77240000D01*
X125920000Y-77240000D02*
X125920000Y-75040000D01*
X238795489Y-78364511D02*
X239920000Y-77240000D01*
X144920000Y-77240000D02*
X144920000Y-81165300D01*
X127825000Y-73135000D02*
X133400000Y-73135000D01*
X143795489Y-78364511D02*
X144920000Y-77240000D01*
X67795489Y-78364511D02*
X68920000Y-77240000D01*
X184044511Y-78364511D02*
X200795489Y-78364511D01*
X144920000Y-81165300D02*
X148174211Y-84419511D01*
X165044511Y-78364511D02*
X181795489Y-78364511D01*
X163920000Y-77240000D02*
X165044511Y-78364511D01*
X51044511Y-78364511D02*
X67795489Y-78364511D01*
X133400000Y-73135000D02*
X135995489Y-75730489D01*
X135995489Y-75730489D02*
X135995489Y-77915489D01*
X239920000Y-77240000D02*
X241044511Y-78364511D01*
X106920000Y-77240000D02*
X108044511Y-78364511D01*
X136444511Y-78364511D02*
X143795489Y-78364511D01*
X70044511Y-78364511D02*
X86795489Y-78364511D01*
X105795489Y-78364511D02*
X106920000Y-77240000D01*
X241044511Y-78364511D02*
X257795489Y-78364511D01*
X86795489Y-78364511D02*
X87920000Y-77240000D01*
X182920000Y-77240000D02*
X184044511Y-78364511D01*
X159540489Y-84419511D02*
X163920000Y-80040000D01*
X200795489Y-78364511D02*
X201920000Y-77240000D01*
X124795489Y-78364511D02*
X125920000Y-77240000D01*
X135995489Y-77915489D02*
X136444511Y-78364511D01*
X163920000Y-80040000D02*
X163920000Y-77240000D01*
X219795489Y-78364511D02*
X220920000Y-77240000D01*
X201920000Y-77240000D02*
X203044511Y-78364511D01*
X203044511Y-78364511D02*
X219795489Y-78364511D01*
X222044511Y-78364511D02*
X238795489Y-78364511D01*
X220920000Y-77240000D02*
X222044511Y-78364511D01*
X148174211Y-84419511D02*
X159540489Y-84419511D01*
%TO.N,/col12*%
X150520000Y-62440000D02*
X150520000Y-71255000D01*
X257902474Y-127942106D02*
X261017894Y-127942106D01*
X257902474Y-70942106D02*
X261022106Y-70942106D01*
X261022106Y-70942106D02*
X261520000Y-71440000D01*
X257902474Y-89942106D02*
X261017894Y-89942106D01*
X150520000Y-71255000D02*
X148640000Y-73135000D01*
X261017894Y-108942106D02*
X261520000Y-108440000D01*
X261017894Y-127942106D02*
X261520000Y-127440000D01*
X261520000Y-62440000D02*
X150520000Y-62440000D01*
X261520000Y-71440000D02*
X261520000Y-62440000D01*
X261017894Y-89942106D02*
X261520000Y-89440000D01*
X257902474Y-108942106D02*
X261017894Y-108942106D01*
%TO.N,/col11*%
X238902474Y-89942106D02*
X245017894Y-89942106D01*
X151520000Y-72795000D02*
X148640000Y-75675000D01*
X238902474Y-108942106D02*
X245017894Y-108942106D01*
X245017894Y-108942106D02*
X245520000Y-108440000D01*
X245017894Y-127942106D02*
X245520000Y-127440000D01*
X245022106Y-70942106D02*
X245520000Y-71440000D01*
X245017894Y-89942106D02*
X245520000Y-89440000D01*
X238902474Y-70942106D02*
X245022106Y-70942106D01*
X151520000Y-63440000D02*
X151520000Y-72795000D01*
X245520000Y-63440000D02*
X151520000Y-63440000D01*
X245520000Y-71440000D02*
X245520000Y-63440000D01*
X238902474Y-127942106D02*
X245017894Y-127942106D01*
%TO.N,/col10*%
X226520000Y-64440000D02*
X152520000Y-64440000D01*
X226017894Y-89942106D02*
X226520000Y-89440000D01*
X219902474Y-108942106D02*
X226017894Y-108942106D01*
X219902474Y-70942106D02*
X226022106Y-70942106D01*
X152520000Y-64440000D02*
X152520000Y-74335000D01*
X226520000Y-71440000D02*
X226520000Y-64440000D01*
X219902474Y-127942106D02*
X226017894Y-127942106D01*
X219902474Y-89942106D02*
X226017894Y-89942106D01*
X226017894Y-127942106D02*
X226520000Y-127440000D01*
X226017894Y-108942106D02*
X226520000Y-108440000D01*
X226022106Y-70942106D02*
X226520000Y-71440000D01*
X152520000Y-74335000D02*
X148640000Y-78215000D01*
%TO.N,/col9*%
X207017894Y-89942106D02*
X207520000Y-89440000D01*
X200902474Y-89942106D02*
X207017894Y-89942106D01*
X153520000Y-65440000D02*
X153520000Y-75875000D01*
X207022106Y-70942106D02*
X207520000Y-71440000D01*
X200902474Y-70942106D02*
X207022106Y-70942106D01*
X207017894Y-108942106D02*
X207520000Y-108440000D01*
X207520000Y-71440000D02*
X207520000Y-65440000D01*
X200902474Y-127942106D02*
X207017894Y-127942106D01*
X207520000Y-65440000D02*
X153520000Y-65440000D01*
X153520000Y-75875000D02*
X148640000Y-80755000D01*
X200902474Y-108942106D02*
X207017894Y-108942106D01*
X207017894Y-127942106D02*
X207520000Y-127440000D01*
%TO.N,Net-(D26-Pad2)*%
X62137527Y-108942106D02*
X61120000Y-109959633D01*
X61120000Y-109959633D02*
X61120000Y-115240000D01*
%TO.N,Net-(D2-Pad2)*%
X61120000Y-71959633D02*
X62137527Y-70942106D01*
X61120000Y-77240000D02*
X61120000Y-71959633D01*
%TO.N,Net-(D28-Pad2)*%
X100137527Y-108942106D02*
X99120000Y-109959633D01*
X99120000Y-109959633D02*
X99120000Y-115240000D01*
%TO.N,Net-(D29-Pad2)*%
X118120000Y-109959633D02*
X118120000Y-115240000D01*
X119137527Y-108942106D02*
X118120000Y-109959633D01*
%TO.N,Net-(D31-Pad2)*%
X156120000Y-109959633D02*
X156120000Y-115240000D01*
X157137527Y-108942106D02*
X156120000Y-109959633D01*
%TO.N,Net-(D32-Pad2)*%
X176137527Y-108942106D02*
X175120000Y-109959633D01*
X175120000Y-109959633D02*
X175120000Y-115240000D01*
%TO.N,Net-(D33-Pad2)*%
X194120000Y-109959633D02*
X194120000Y-115240000D01*
X195137527Y-108942106D02*
X194120000Y-109959633D01*
%TO.N,Net-(D34-Pad2)*%
X213120000Y-109959633D02*
X213120000Y-115240000D01*
X214137527Y-108942106D02*
X213120000Y-109959633D01*
%TO.N,Net-(D35-Pad2)*%
X232120000Y-109959633D02*
X232120000Y-115240000D01*
X233137527Y-108942106D02*
X232120000Y-109959633D01*
%TO.N,Net-(D37-Pad2)*%
X43137527Y-127942106D02*
X42120000Y-128959633D01*
X42120000Y-128959633D02*
X42120000Y-134240000D01*
%TO.N,Net-(D38-Pad2)*%
X62137527Y-127942106D02*
X61120000Y-128959633D01*
X61120000Y-128959633D02*
X61120000Y-134240000D01*
%TO.N,Net-(D39-Pad2)*%
X80120000Y-128959633D02*
X80120000Y-134240000D01*
X81137527Y-127942106D02*
X80120000Y-128959633D01*
%TO.N,Net-(D43-Pad2)*%
X157137527Y-127942106D02*
X156120000Y-128959633D01*
X156120000Y-128959633D02*
X156120000Y-134240000D01*
%TO.N,Net-(D44-Pad2)*%
X175120000Y-128959633D02*
X175120000Y-134240000D01*
X176137527Y-127942106D02*
X175120000Y-128959633D01*
%TO.N,Net-(D45-Pad2)*%
X194120000Y-128959633D02*
X194120000Y-134240000D01*
X195137527Y-127942106D02*
X194120000Y-128959633D01*
%TO.N,Net-(D47-Pad2)*%
X233137527Y-127942106D02*
X232120000Y-128959633D01*
X232120000Y-128959633D02*
X232120000Y-134240000D01*
%TO.N,Net-(D48-Pad2)*%
X252137527Y-127942106D02*
X251120000Y-128959633D01*
X251120000Y-128959633D02*
X251120000Y-134240000D01*
%TO.N,Net-(D24-Pad2)*%
X252137527Y-89942106D02*
X251120000Y-90959633D01*
X251120000Y-90959633D02*
X251120000Y-96240000D01*
%TO.N,Net-(D3-Pad2)*%
X80120000Y-71959633D02*
X80120000Y-77240000D01*
X81137527Y-70942106D02*
X80120000Y-71959633D01*
%TO.N,Net-(D4-Pad2)*%
X99120000Y-71959633D02*
X99120000Y-77240000D01*
X100137527Y-70942106D02*
X99120000Y-71959633D01*
%TO.N,Net-(D5-Pad2)*%
X119137527Y-70942106D02*
X118120000Y-71959633D01*
X118120000Y-71959633D02*
X118120000Y-77240000D01*
%TO.N,Net-(D6-Pad2)*%
X137120000Y-71959633D02*
X137120000Y-77240000D01*
X138137527Y-70942106D02*
X137120000Y-71959633D01*
%TO.N,Net-(D7-Pad2)*%
X157137527Y-70942106D02*
X156120000Y-71959633D01*
X156120000Y-71959633D02*
X156120000Y-77240000D01*
%TO.N,Net-(D9-Pad2)*%
X194120000Y-71959633D02*
X194120000Y-77240000D01*
X195137527Y-70942106D02*
X194120000Y-71959633D01*
%TO.N,Net-(D10-Pad2)*%
X214137527Y-70942106D02*
X213120000Y-71959633D01*
X213120000Y-71959633D02*
X213120000Y-77240000D01*
%TO.N,Net-(D11-Pad2)*%
X232120000Y-71959633D02*
X232120000Y-77240000D01*
X233137527Y-70942106D02*
X232120000Y-71959633D01*
%TO.N,Net-(D12-Pad2)*%
X251120000Y-71959633D02*
X251120000Y-77240000D01*
X252137527Y-70942106D02*
X251120000Y-71959633D01*
%TO.N,Net-(D14-Pad2)*%
X61120000Y-90959633D02*
X61120000Y-96240000D01*
X62137527Y-89942106D02*
X61120000Y-90959633D01*
%TO.N,Net-(D25-Pad2)*%
X43137527Y-108942106D02*
X42120000Y-109959633D01*
X42120000Y-109959633D02*
X42120000Y-115240000D01*
%TO.N,Net-(D23-Pad2)*%
X232120000Y-90959633D02*
X232120000Y-96240000D01*
X233137527Y-89942106D02*
X232120000Y-90959633D01*
%TO.N,Net-(D22-Pad2)*%
X213120000Y-90959633D02*
X213120000Y-96240000D01*
X214137527Y-89942106D02*
X213120000Y-90959633D01*
%TO.N,Net-(D20-Pad2)*%
X176137527Y-89942106D02*
X175120000Y-90959633D01*
X175120000Y-90959633D02*
X175120000Y-96240000D01*
%TO.N,Net-(D13-Pad2)*%
X43137527Y-89942106D02*
X42120000Y-90959633D01*
X42120000Y-90959633D02*
X42120000Y-96240000D01*
%TO.N,Net-(D15-Pad2)*%
X80120000Y-90959633D02*
X80120000Y-96240000D01*
X81137527Y-89942106D02*
X80120000Y-90959633D01*
%TO.N,Net-(D17-Pad2)*%
X118120000Y-90959633D02*
X118120000Y-96240000D01*
X119137527Y-89942106D02*
X118120000Y-90959633D01*
%TO.N,Net-(D19-Pad2)*%
X156120000Y-90959633D02*
X156120000Y-96240000D01*
X157137527Y-89942106D02*
X156120000Y-90959633D01*
%TO.N,Net-(D16-Pad2)*%
X100137527Y-89942106D02*
X99120000Y-90959633D01*
X99120000Y-90959633D02*
X99120000Y-96240000D01*
%TO.N,Net-(D18-Pad2)*%
X137120000Y-90959633D02*
X137120000Y-96240000D01*
X138137527Y-89942106D02*
X137120000Y-90959633D01*
%TO.N,Net-(D21-Pad2)*%
X195137527Y-89942106D02*
X194120000Y-90959633D01*
X194120000Y-90959633D02*
X194120000Y-96240000D01*
%TO.N,Net-(D27-Pad2)*%
X80120000Y-109959633D02*
X80120000Y-115240000D01*
X81137527Y-108942106D02*
X80120000Y-109959633D01*
%TO.N,Net-(D30-Pad2)*%
X138137527Y-108942106D02*
X137120000Y-109959633D01*
X137120000Y-109959633D02*
X137120000Y-115240000D01*
%TO.N,Net-(D36-Pad2)*%
X251120000Y-109959633D02*
X251120000Y-115240000D01*
X252137527Y-108942106D02*
X251120000Y-109959633D01*
%TO.N,Net-(D40-Pad2)*%
X99120000Y-128959633D02*
X99120000Y-134240000D01*
X100137527Y-127942106D02*
X99120000Y-128959633D01*
%TO.N,Net-(D41-Pad2)*%
X119137527Y-127942106D02*
X118120000Y-128959633D01*
X118120000Y-128959633D02*
X118120000Y-134240000D01*
%TO.N,Net-(D42-Pad2)*%
X138137527Y-127942106D02*
X137120000Y-128959633D01*
X137120000Y-128959633D02*
X137120000Y-134240000D01*
%TO.N,Net-(D46-Pad2)*%
X214137527Y-127942106D02*
X213120000Y-128959633D01*
X213120000Y-128959633D02*
X213120000Y-134240000D01*
%TO.N,Net-(D1-Pad2)*%
X43137527Y-70942106D02*
X42120000Y-71959633D01*
X42120000Y-71959633D02*
X42120000Y-77240000D01*
%TO.N,Net-(D8-Pad2)*%
X176137527Y-70942106D02*
X175120000Y-71959633D01*
X175120000Y-71959633D02*
X175120000Y-77240000D01*
%TD*%
M02*
