%TF.GenerationSoftware,KiCad,Pcbnew,6.0.3-a3aad9c10e~116~ubuntu21.10.1*%
%TF.CreationDate,2022-03-19T20:14:59+00:00*%
%TF.ProjectId,PCB,5043422e-6b69-4636-9164-5f7063625858,rev?*%
%TF.SameCoordinates,Original*%
%TF.FileFunction,Copper,L2,Bot*%
%TF.FilePolarity,Positive*%
%FSLAX46Y46*%
G04 Gerber Fmt 4.6, Leading zero omitted, Abs format (unit mm)*
G04 Created by KiCad (PCBNEW 6.0.3-a3aad9c10e~116~ubuntu21.10.1) date 2022-03-19 20:14:59*
%MOMM*%
%LPD*%
G01*
G04 APERTURE LIST*
%TA.AperFunction,ComponentPad*%
%ADD10C,4.000000*%
%TD*%
%TA.AperFunction,ComponentPad*%
%ADD11R,1.600000X1.600000*%
%TD*%
%TA.AperFunction,ComponentPad*%
%ADD12C,1.600000*%
%TD*%
%TA.AperFunction,SMDPad,CuDef*%
%ADD13R,2.500000X0.500000*%
%TD*%
%TA.AperFunction,SMDPad,CuDef*%
%ADD14R,1.200000X1.200000*%
%TD*%
%TA.AperFunction,ViaPad*%
%ADD15C,0.800000*%
%TD*%
%TA.AperFunction,Conductor*%
%ADD16C,0.250000*%
%TD*%
G04 APERTURE END LIST*
D10*
%TO.P,HOLE_M3,1*%
%TO.N,N/C*%
X255020000Y-82440000D03*
%TD*%
%TO.P,HOLE_M3,1*%
%TO.N,N/C*%
X46020000Y-120440000D03*
%TD*%
%TO.P,HOLE_M3,1*%
%TO.N,N/C*%
X46020000Y-82440000D03*
%TD*%
%TO.P,HOLE_M3,1*%
%TO.N,N/C*%
X255020000Y-120440000D03*
%TD*%
D11*
%TO.P,Pro-Micro1,1,TX*%
%TO.N,unconnected-(Pro-Micro1-Pad1)*%
X148640000Y-62975000D03*
D12*
%TO.P,Pro-Micro1,2,RX*%
%TO.N,unconnected-(Pro-Micro1-Pad2)*%
X148640000Y-65515000D03*
%TO.P,Pro-Micro1,3,GND*%
%TO.N,unconnected-(Pro-Micro1-Pad3)*%
X148640000Y-68055000D03*
%TO.P,Pro-Micro1,4,GND*%
%TO.N,unconnected-(Pro-Micro1-Pad4)*%
X148640000Y-70595000D03*
%TO.P,Pro-Micro1,5,SDA*%
%TO.N,/col12*%
X148640000Y-73135000D03*
%TO.P,Pro-Micro1,6,SCL*%
%TO.N,/col11*%
X148640000Y-75675000D03*
%TO.P,Pro-Micro1,7,D4*%
%TO.N,/col10*%
X148640000Y-78215000D03*
%TO.P,Pro-Micro1,8,C6*%
%TO.N,/col9*%
X148640000Y-80755000D03*
%TO.P,Pro-Micro1,9,D7*%
%TO.N,/col8*%
X148640000Y-83295000D03*
%TO.P,Pro-Micro1,10,E6*%
%TO.N,/col7*%
X148640000Y-85835000D03*
%TO.P,Pro-Micro1,11,B4*%
%TO.N,/row3*%
X148640000Y-88375000D03*
%TO.P,Pro-Micro1,12,B5*%
%TO.N,/row4*%
X148640000Y-90915000D03*
%TO.P,Pro-Micro1,13,B6*%
%TO.N,/col1*%
X133400000Y-90915000D03*
%TO.P,Pro-Micro1,14,B2*%
%TO.N,/col2*%
X133400000Y-88375000D03*
%TO.P,Pro-Micro1,15,B3*%
%TO.N,/col3*%
X133400000Y-85835000D03*
%TO.P,Pro-Micro1,16,B1*%
%TO.N,/col4*%
X133400000Y-83295000D03*
%TO.P,Pro-Micro1,17,F7*%
%TO.N,/col5*%
X133400000Y-80755000D03*
%TO.P,Pro-Micro1,18,F6*%
%TO.N,/col6*%
X133400000Y-78215000D03*
%TO.P,Pro-Micro1,19,F5*%
%TO.N,/row2*%
X133400000Y-75675000D03*
%TO.P,Pro-Micro1,20,F4*%
%TO.N,/row1*%
X133400000Y-73135000D03*
%TO.P,Pro-Micro1,21,VCC*%
%TO.N,unconnected-(Pro-Micro1-Pad21)*%
X133400000Y-70595000D03*
%TO.P,Pro-Micro1,22,RST*%
%TO.N,unconnected-(Pro-Micro1-Pad22)*%
X133400000Y-68055000D03*
%TO.P,Pro-Micro1,23,GND*%
%TO.N,unconnected-(Pro-Micro1-Pad23)*%
X133400000Y-65515000D03*
%TO.P,Pro-Micro1,24,RAW*%
%TO.N,unconnected-(Pro-Micro1-Pad24)*%
X133400000Y-62975000D03*
%TD*%
D11*
%TO.P,D39,1*%
%TO.N,/row4*%
X87920000Y-134240000D03*
D13*
X86720000Y-134240000D03*
D14*
X85595000Y-134240000D03*
%TO.P,D39,2*%
%TO.N,Net-(D39-Pad2)*%
X82445000Y-134240000D03*
D12*
X80120000Y-134240000D03*
D13*
X81320000Y-134240000D03*
%TD*%
D14*
%TO.P,D26,1*%
%TO.N,/row3*%
X66595000Y-115240000D03*
D11*
X68920000Y-115240000D03*
D13*
X67720000Y-115240000D03*
D14*
%TO.P,D26,2*%
%TO.N,Net-(D26-Pad2)*%
X63445000Y-115240000D03*
D13*
X62320000Y-115240000D03*
D12*
X61120000Y-115240000D03*
%TD*%
D13*
%TO.P,D11,1*%
%TO.N,/row1*%
X238720000Y-77240000D03*
D11*
X239920000Y-77240000D03*
D14*
X237595000Y-77240000D03*
D12*
%TO.P,D11,2*%
%TO.N,Net-(D11-Pad2)*%
X232120000Y-77240000D03*
D14*
X234445000Y-77240000D03*
D13*
X233320000Y-77240000D03*
%TD*%
D11*
%TO.P,D18,1*%
%TO.N,/row2*%
X144920000Y-96240000D03*
D14*
X142595000Y-96240000D03*
D13*
X143720000Y-96240000D03*
%TO.P,D18,2*%
%TO.N,Net-(D18-Pad2)*%
X138320000Y-96240000D03*
D12*
X137120000Y-96240000D03*
D14*
X139445000Y-96240000D03*
%TD*%
%TO.P,D10,1*%
%TO.N,/row1*%
X218595000Y-77240000D03*
D11*
X220920000Y-77240000D03*
D13*
X219720000Y-77240000D03*
D14*
%TO.P,D10,2*%
%TO.N,Net-(D10-Pad2)*%
X215445000Y-77240000D03*
D13*
X214320000Y-77240000D03*
D12*
X213120000Y-77240000D03*
%TD*%
D14*
%TO.P,D23,1*%
%TO.N,/row2*%
X237595000Y-96240000D03*
D13*
X238720000Y-96240000D03*
D11*
X239920000Y-96240000D03*
D12*
%TO.P,D23,2*%
%TO.N,Net-(D23-Pad2)*%
X232120000Y-96240000D03*
D13*
X233320000Y-96240000D03*
D14*
X234445000Y-96240000D03*
%TD*%
%TO.P,D28,1*%
%TO.N,/row3*%
X104595000Y-115240000D03*
D13*
X105720000Y-115240000D03*
D11*
X106920000Y-115240000D03*
D12*
%TO.P,D28,2*%
%TO.N,Net-(D28-Pad2)*%
X99120000Y-115240000D03*
D13*
X100320000Y-115240000D03*
D14*
X101445000Y-115240000D03*
%TD*%
%TO.P,D7,1*%
%TO.N,/row1*%
X161595000Y-77240000D03*
D13*
X162720000Y-77240000D03*
D11*
X163920000Y-77240000D03*
D12*
%TO.P,D7,2*%
%TO.N,Net-(D7-Pad2)*%
X156120000Y-77240000D03*
D14*
X158445000Y-77240000D03*
D13*
X157320000Y-77240000D03*
%TD*%
D11*
%TO.P,D37,1*%
%TO.N,/row4*%
X49920000Y-134240000D03*
D13*
X48720000Y-134240000D03*
D14*
X47595000Y-134240000D03*
D13*
%TO.P,D37,2*%
%TO.N,Net-(D37-Pad2)*%
X43320000Y-134240000D03*
D14*
X44445000Y-134240000D03*
D12*
X42120000Y-134240000D03*
%TD*%
D14*
%TO.P,D1,1*%
%TO.N,/row1*%
X47595000Y-77240000D03*
D13*
X48720000Y-77240000D03*
D11*
X49920000Y-77240000D03*
D12*
%TO.P,D1,2*%
%TO.N,Net-(D1-Pad2)*%
X42120000Y-77240000D03*
D14*
X44445000Y-77240000D03*
D13*
X43320000Y-77240000D03*
%TD*%
%TO.P,D48,1*%
%TO.N,/row4*%
X257720000Y-134240000D03*
D11*
X258920000Y-134240000D03*
D14*
X256595000Y-134240000D03*
D12*
%TO.P,D48,2*%
%TO.N,Net-(D48-Pad2)*%
X251120000Y-134240000D03*
D13*
X252320000Y-134240000D03*
D14*
X253445000Y-134240000D03*
%TD*%
D13*
%TO.P,D47,1*%
%TO.N,/row4*%
X238720000Y-134240000D03*
D11*
X239920000Y-134240000D03*
D14*
X237595000Y-134240000D03*
D13*
%TO.P,D47,2*%
%TO.N,Net-(D47-Pad2)*%
X233320000Y-134240000D03*
D14*
X234445000Y-134240000D03*
D12*
X232120000Y-134240000D03*
%TD*%
D14*
%TO.P,D21,1*%
%TO.N,/row2*%
X199595000Y-96240000D03*
D11*
X201920000Y-96240000D03*
D13*
X200720000Y-96240000D03*
D12*
%TO.P,D21,2*%
%TO.N,Net-(D21-Pad2)*%
X194120000Y-96240000D03*
D13*
X195320000Y-96240000D03*
D14*
X196445000Y-96240000D03*
%TD*%
D11*
%TO.P,D6,1*%
%TO.N,/row1*%
X144920000Y-77240000D03*
D13*
X143720000Y-77240000D03*
D14*
X142595000Y-77240000D03*
%TO.P,D6,2*%
%TO.N,Net-(D6-Pad2)*%
X139445000Y-77240000D03*
D12*
X137120000Y-77240000D03*
D13*
X138320000Y-77240000D03*
%TD*%
D11*
%TO.P,D31,1*%
%TO.N,/row3*%
X163920000Y-115240000D03*
D13*
X162720000Y-115240000D03*
D14*
X161595000Y-115240000D03*
%TO.P,D31,2*%
%TO.N,Net-(D31-Pad2)*%
X158445000Y-115240000D03*
D12*
X156120000Y-115240000D03*
D13*
X157320000Y-115240000D03*
%TD*%
D11*
%TO.P,D4,1*%
%TO.N,/row1*%
X106920000Y-77240000D03*
D14*
X104595000Y-77240000D03*
D13*
X105720000Y-77240000D03*
%TO.P,D4,2*%
%TO.N,Net-(D4-Pad2)*%
X100320000Y-77240000D03*
D14*
X101445000Y-77240000D03*
D12*
X99120000Y-77240000D03*
%TD*%
D13*
%TO.P,D36,1*%
%TO.N,/row3*%
X257720000Y-115240000D03*
D11*
X258920000Y-115240000D03*
D14*
X256595000Y-115240000D03*
D13*
%TO.P,D36,2*%
%TO.N,Net-(D36-Pad2)*%
X252320000Y-115240000D03*
D12*
X251120000Y-115240000D03*
D14*
X253445000Y-115240000D03*
%TD*%
D11*
%TO.P,D14,1*%
%TO.N,/row2*%
X68920000Y-96240000D03*
D13*
X67720000Y-96240000D03*
D14*
X66595000Y-96240000D03*
%TO.P,D14,2*%
%TO.N,Net-(D14-Pad2)*%
X63445000Y-96240000D03*
D13*
X62320000Y-96240000D03*
D12*
X61120000Y-96240000D03*
%TD*%
D13*
%TO.P,D29,1*%
%TO.N,/row3*%
X124720000Y-115240000D03*
D11*
X125920000Y-115240000D03*
D14*
X123595000Y-115240000D03*
D13*
%TO.P,D29,2*%
%TO.N,Net-(D29-Pad2)*%
X119320000Y-115240000D03*
D12*
X118120000Y-115240000D03*
D14*
X120445000Y-115240000D03*
%TD*%
D11*
%TO.P,D42,1*%
%TO.N,/row4*%
X144920000Y-134240000D03*
D13*
X143720000Y-134240000D03*
D14*
X142595000Y-134240000D03*
D12*
%TO.P,D42,2*%
%TO.N,Net-(D42-Pad2)*%
X137120000Y-134240000D03*
D13*
X138320000Y-134240000D03*
D14*
X139445000Y-134240000D03*
%TD*%
%TO.P,D41,1*%
%TO.N,/row4*%
X123595000Y-134240000D03*
D11*
X125920000Y-134240000D03*
D13*
X124720000Y-134240000D03*
%TO.P,D41,2*%
%TO.N,Net-(D41-Pad2)*%
X119320000Y-134240000D03*
D12*
X118120000Y-134240000D03*
D14*
X120445000Y-134240000D03*
%TD*%
D11*
%TO.P,D40,1*%
%TO.N,/row4*%
X106920000Y-134240000D03*
D14*
X104595000Y-134240000D03*
D13*
X105720000Y-134240000D03*
D14*
%TO.P,D40,2*%
%TO.N,Net-(D40-Pad2)*%
X101445000Y-134240000D03*
D12*
X99120000Y-134240000D03*
D13*
X100320000Y-134240000D03*
%TD*%
D14*
%TO.P,D8,1*%
%TO.N,/row1*%
X180595000Y-77240000D03*
D11*
X182920000Y-77240000D03*
D13*
X181720000Y-77240000D03*
%TO.P,D8,2*%
%TO.N,Net-(D8-Pad2)*%
X176320000Y-77240000D03*
D14*
X177445000Y-77240000D03*
D12*
X175120000Y-77240000D03*
%TD*%
D14*
%TO.P,D17,1*%
%TO.N,/row2*%
X123595000Y-96240000D03*
D13*
X124720000Y-96240000D03*
D11*
X125920000Y-96240000D03*
D13*
%TO.P,D17,2*%
%TO.N,Net-(D17-Pad2)*%
X119320000Y-96240000D03*
D12*
X118120000Y-96240000D03*
D14*
X120445000Y-96240000D03*
%TD*%
D11*
%TO.P,D2,1*%
%TO.N,/row1*%
X68920000Y-77240000D03*
D14*
X66595000Y-77240000D03*
D13*
X67720000Y-77240000D03*
%TO.P,D2,2*%
%TO.N,Net-(D2-Pad2)*%
X62320000Y-77240000D03*
D14*
X63445000Y-77240000D03*
D12*
X61120000Y-77240000D03*
%TD*%
D13*
%TO.P,D24,1*%
%TO.N,/row2*%
X257720000Y-96240000D03*
D14*
X256595000Y-96240000D03*
D11*
X258920000Y-96240000D03*
D13*
%TO.P,D24,2*%
%TO.N,Net-(D24-Pad2)*%
X252320000Y-96240000D03*
D14*
X253445000Y-96240000D03*
D12*
X251120000Y-96240000D03*
%TD*%
D11*
%TO.P,D9,1*%
%TO.N,/row1*%
X201920000Y-77240000D03*
D13*
X200720000Y-77240000D03*
D14*
X199595000Y-77240000D03*
D12*
%TO.P,D9,2*%
%TO.N,Net-(D9-Pad2)*%
X194120000Y-77240000D03*
D13*
X195320000Y-77240000D03*
D14*
X196445000Y-77240000D03*
%TD*%
D11*
%TO.P,D12,1*%
%TO.N,/row1*%
X258920000Y-77240000D03*
D13*
X257720000Y-77240000D03*
D14*
X256595000Y-77240000D03*
D13*
%TO.P,D12,2*%
%TO.N,Net-(D12-Pad2)*%
X252320000Y-77240000D03*
D14*
X253445000Y-77240000D03*
D12*
X251120000Y-77240000D03*
%TD*%
D14*
%TO.P,D13,1*%
%TO.N,/row2*%
X47595000Y-96240000D03*
D13*
X48720000Y-96240000D03*
D11*
X49920000Y-96240000D03*
D13*
%TO.P,D13,2*%
%TO.N,Net-(D13-Pad2)*%
X43320000Y-96240000D03*
D12*
X42120000Y-96240000D03*
D14*
X44445000Y-96240000D03*
%TD*%
D13*
%TO.P,D5,1*%
%TO.N,/row1*%
X124720000Y-77240000D03*
D14*
X123595000Y-77240000D03*
D11*
X125920000Y-77240000D03*
D12*
%TO.P,D5,2*%
%TO.N,Net-(D5-Pad2)*%
X118120000Y-77240000D03*
D13*
X119320000Y-77240000D03*
D14*
X120445000Y-77240000D03*
%TD*%
%TO.P,D33,1*%
%TO.N,/row3*%
X199595000Y-115240000D03*
D11*
X201920000Y-115240000D03*
D13*
X200720000Y-115240000D03*
D14*
%TO.P,D33,2*%
%TO.N,Net-(D33-Pad2)*%
X196445000Y-115240000D03*
D12*
X194120000Y-115240000D03*
D13*
X195320000Y-115240000D03*
%TD*%
D14*
%TO.P,D30,1*%
%TO.N,/row3*%
X142595000Y-115240000D03*
D11*
X144920000Y-115240000D03*
D13*
X143720000Y-115240000D03*
D14*
%TO.P,D30,2*%
%TO.N,Net-(D30-Pad2)*%
X139445000Y-115240000D03*
D13*
X138320000Y-115240000D03*
D12*
X137120000Y-115240000D03*
%TD*%
D11*
%TO.P,D27,1*%
%TO.N,/row3*%
X87920000Y-115240000D03*
D13*
X86720000Y-115240000D03*
D14*
X85595000Y-115240000D03*
D13*
%TO.P,D27,2*%
%TO.N,Net-(D27-Pad2)*%
X81320000Y-115240000D03*
D14*
X82445000Y-115240000D03*
D12*
X80120000Y-115240000D03*
%TD*%
D14*
%TO.P,D25,1*%
%TO.N,/row3*%
X47595000Y-115240000D03*
D11*
X49920000Y-115240000D03*
D13*
X48720000Y-115240000D03*
D12*
%TO.P,D25,2*%
%TO.N,Net-(D25-Pad2)*%
X42120000Y-115240000D03*
D13*
X43320000Y-115240000D03*
D14*
X44445000Y-115240000D03*
%TD*%
%TO.P,D45,1*%
%TO.N,/row4*%
X199595000Y-134240000D03*
D11*
X201920000Y-134240000D03*
D13*
X200720000Y-134240000D03*
%TO.P,D45,2*%
%TO.N,Net-(D45-Pad2)*%
X195320000Y-134240000D03*
D12*
X194120000Y-134240000D03*
D14*
X196445000Y-134240000D03*
%TD*%
D11*
%TO.P,D20,1*%
%TO.N,/row2*%
X182920000Y-96240000D03*
D14*
X180595000Y-96240000D03*
D13*
X181720000Y-96240000D03*
%TO.P,D20,2*%
%TO.N,Net-(D20-Pad2)*%
X176320000Y-96240000D03*
D14*
X177445000Y-96240000D03*
D12*
X175120000Y-96240000D03*
%TD*%
D13*
%TO.P,D38,1*%
%TO.N,/row4*%
X67720000Y-134240000D03*
D14*
X66595000Y-134240000D03*
D11*
X68920000Y-134240000D03*
D13*
%TO.P,D38,2*%
%TO.N,Net-(D38-Pad2)*%
X62320000Y-134240000D03*
D12*
X61120000Y-134240000D03*
D14*
X63445000Y-134240000D03*
%TD*%
D13*
%TO.P,D43,1*%
%TO.N,/row4*%
X162720000Y-134240000D03*
D11*
X163920000Y-134240000D03*
D14*
X161595000Y-134240000D03*
D13*
%TO.P,D43,2*%
%TO.N,Net-(D43-Pad2)*%
X157320000Y-134240000D03*
D14*
X158445000Y-134240000D03*
D12*
X156120000Y-134240000D03*
%TD*%
D11*
%TO.P,D44,1*%
%TO.N,/row4*%
X182920000Y-134240000D03*
D14*
X180595000Y-134240000D03*
D13*
X181720000Y-134240000D03*
D12*
%TO.P,D44,2*%
%TO.N,Net-(D44-Pad2)*%
X175120000Y-134240000D03*
D13*
X176320000Y-134240000D03*
D14*
X177445000Y-134240000D03*
%TD*%
D11*
%TO.P,D32,1*%
%TO.N,/row3*%
X182920000Y-115240000D03*
D13*
X181720000Y-115240000D03*
D14*
X180595000Y-115240000D03*
%TO.P,D32,2*%
%TO.N,Net-(D32-Pad2)*%
X177445000Y-115240000D03*
D12*
X175120000Y-115240000D03*
D13*
X176320000Y-115240000D03*
%TD*%
D11*
%TO.P,D22,1*%
%TO.N,/row2*%
X220920000Y-96240000D03*
D13*
X219720000Y-96240000D03*
D14*
X218595000Y-96240000D03*
%TO.P,D22,2*%
%TO.N,Net-(D22-Pad2)*%
X215445000Y-96240000D03*
D12*
X213120000Y-96240000D03*
D13*
X214320000Y-96240000D03*
%TD*%
D11*
%TO.P,D3,1*%
%TO.N,/row1*%
X87920000Y-77240000D03*
D13*
X86720000Y-77240000D03*
D14*
X85595000Y-77240000D03*
D12*
%TO.P,D3,2*%
%TO.N,Net-(D3-Pad2)*%
X80120000Y-77240000D03*
D13*
X81320000Y-77240000D03*
D14*
X82445000Y-77240000D03*
%TD*%
%TO.P,D15,1*%
%TO.N,/row2*%
X85595000Y-96240000D03*
D11*
X87920000Y-96240000D03*
D13*
X86720000Y-96240000D03*
D14*
%TO.P,D15,2*%
%TO.N,Net-(D15-Pad2)*%
X82445000Y-96240000D03*
D12*
X80120000Y-96240000D03*
D13*
X81320000Y-96240000D03*
%TD*%
%TO.P,D46,1*%
%TO.N,/row4*%
X219720000Y-134240000D03*
D11*
X220920000Y-134240000D03*
D14*
X218595000Y-134240000D03*
%TO.P,D46,2*%
%TO.N,Net-(D46-Pad2)*%
X215445000Y-134240000D03*
D12*
X213120000Y-134240000D03*
D13*
X214320000Y-134240000D03*
%TD*%
%TO.P,D16,1*%
%TO.N,/row2*%
X105720000Y-96240000D03*
D11*
X106920000Y-96240000D03*
D14*
X104595000Y-96240000D03*
%TO.P,D16,2*%
%TO.N,Net-(D16-Pad2)*%
X101445000Y-96240000D03*
D13*
X100320000Y-96240000D03*
D12*
X99120000Y-96240000D03*
%TD*%
D13*
%TO.P,D35,1*%
%TO.N,/row3*%
X238720000Y-115240000D03*
D14*
X237595000Y-115240000D03*
D11*
X239920000Y-115240000D03*
D13*
%TO.P,D35,2*%
%TO.N,Net-(D35-Pad2)*%
X233320000Y-115240000D03*
D14*
X234445000Y-115240000D03*
D12*
X232120000Y-115240000D03*
%TD*%
D11*
%TO.P,D34,1*%
%TO.N,/row3*%
X220920000Y-115240000D03*
D14*
X218595000Y-115240000D03*
D13*
X219720000Y-115240000D03*
D12*
%TO.P,D34,2*%
%TO.N,Net-(D34-Pad2)*%
X213120000Y-115240000D03*
D13*
X214320000Y-115240000D03*
D14*
X215445000Y-115240000D03*
%TD*%
%TO.P,D19,1*%
%TO.N,/row2*%
X161595000Y-96240000D03*
D13*
X162720000Y-96240000D03*
D11*
X163920000Y-96240000D03*
D13*
%TO.P,D19,2*%
%TO.N,Net-(D19-Pad2)*%
X157320000Y-96240000D03*
D14*
X158445000Y-96240000D03*
D12*
X156120000Y-96240000D03*
%TD*%
D15*
%TO.N,/col1*%
X55520000Y-108440000D03*
X55520000Y-89440000D03*
X55520000Y-71440000D03*
X55520000Y-127440000D03*
%TO.N,/col2*%
X74520000Y-108440000D03*
X74520000Y-127440000D03*
X74520000Y-71440000D03*
X74520000Y-89440000D03*
%TO.N,/col3*%
X93520000Y-89440000D03*
X93520000Y-127440000D03*
X93520000Y-108440000D03*
X93520000Y-71440000D03*
%TO.N,/col4*%
X112520000Y-89440000D03*
X112520000Y-108440000D03*
X112520000Y-71440000D03*
X112520000Y-127440000D03*
%TO.N,/col5*%
X128520000Y-71440000D03*
X128520000Y-89440000D03*
X128520000Y-108440000D03*
X128520000Y-127440000D03*
%TO.N,/col6*%
X146520000Y-71440000D03*
X146520000Y-89440000D03*
X146520000Y-108440000D03*
X146520000Y-127440000D03*
%TO.N,/col7*%
X169520000Y-108440000D03*
X169520000Y-71440000D03*
X169520000Y-127440000D03*
X169520000Y-89440000D03*
%TO.N,/col8*%
X188520000Y-108440000D03*
X188520000Y-127440000D03*
X188520000Y-89440000D03*
X188520000Y-71440000D03*
%TO.N,/row4*%
X148520000Y-118440000D03*
%TO.N,/row3*%
X150520000Y-99440000D03*
%TO.N,/col12*%
X261520000Y-89440000D03*
X261520000Y-127440000D03*
X261520000Y-108440000D03*
X261520000Y-71440000D03*
%TO.N,/col11*%
X245520000Y-71440000D03*
X245520000Y-89440000D03*
X245520000Y-127440000D03*
X245520000Y-108440000D03*
%TO.N,/col10*%
X226520000Y-108440000D03*
X226520000Y-71440000D03*
X226520000Y-89440000D03*
X226520000Y-127440000D03*
%TO.N,/col9*%
X207520000Y-89440000D03*
X207520000Y-108440000D03*
X207520000Y-127440000D03*
X207520000Y-71440000D03*
%TD*%
D16*
%TO.N,/col1*%
X55520000Y-108440000D02*
X55520000Y-124440000D01*
X55520000Y-124440000D02*
X55520000Y-127440000D01*
X55520000Y-132440000D02*
X133400000Y-132440000D01*
X55520000Y-89440000D02*
X55520000Y-108440000D01*
X55520000Y-71440000D02*
X55520000Y-89440000D01*
X133400000Y-132440000D02*
X133400000Y-90915000D01*
X55520000Y-127440000D02*
X55520000Y-132440000D01*
%TO.N,/col2*%
X74520000Y-131440000D02*
X132520000Y-131440000D01*
X74520000Y-108440000D02*
X74520000Y-124440000D01*
X132520000Y-131440000D02*
X132275489Y-131195489D01*
X74520000Y-89440000D02*
X74520000Y-108440000D01*
X132275489Y-89499511D02*
X133400000Y-88375000D01*
X132275489Y-131195489D02*
X132275489Y-89499511D01*
X74520000Y-71440000D02*
X74520000Y-89440000D01*
X74520000Y-127440000D02*
X74520000Y-131440000D01*
X74520000Y-124440000D02*
X74520000Y-127440000D01*
%TO.N,/col3*%
X131520000Y-87715000D02*
X133400000Y-85835000D01*
X93520000Y-108440000D02*
X93520000Y-127440000D01*
X93520000Y-130440000D02*
X131520000Y-130440000D01*
X93520000Y-71440000D02*
X93520000Y-89440000D01*
X93520000Y-127440000D02*
X93520000Y-130440000D01*
X131520000Y-130440000D02*
X131520000Y-87715000D01*
X93520000Y-89440000D02*
X93520000Y-108440000D01*
%TO.N,/col4*%
X112520000Y-89440000D02*
X112520000Y-108440000D01*
X112520000Y-127440000D02*
X112520000Y-129440000D01*
X130520000Y-129440000D02*
X130520000Y-86175000D01*
X112520000Y-71440000D02*
X112520000Y-89440000D01*
X112520000Y-129440000D02*
X130520000Y-129440000D01*
X112520000Y-124440000D02*
X112520000Y-127440000D01*
X112520000Y-108440000D02*
X112520000Y-124440000D01*
X130520000Y-86175000D02*
X133400000Y-83295000D01*
%TO.N,/col5*%
X128520000Y-71440000D02*
X128520000Y-86440000D01*
X133400000Y-80755000D02*
X128520000Y-85635000D01*
X128520000Y-89440000D02*
X128520000Y-108440000D01*
X128520000Y-86440000D02*
X128520000Y-89440000D01*
X128520000Y-108440000D02*
X128520000Y-124440000D01*
X128520000Y-124440000D02*
X128520000Y-127440000D01*
X128520000Y-85635000D02*
X128520000Y-86440000D01*
%TO.N,/col6*%
X135520000Y-76095000D02*
X133400000Y-78215000D01*
X146520000Y-108440000D02*
X146520000Y-127440000D01*
X135520000Y-66440000D02*
X135520000Y-76095000D01*
X146520000Y-66440000D02*
X135520000Y-66440000D01*
X146520000Y-71440000D02*
X146520000Y-66440000D01*
X146520000Y-71440000D02*
X146520000Y-89440000D01*
X146520000Y-89440000D02*
X146520000Y-108440000D01*
%TO.N,/col7*%
X169520000Y-71440000D02*
X169520000Y-89440000D01*
X169520000Y-89440000D02*
X169520000Y-108440000D01*
X169520000Y-108440000D02*
X169520000Y-127440000D01*
%TO.N,/col8*%
X188520000Y-89440000D02*
X188520000Y-108440000D01*
X188520000Y-108440000D02*
X188520000Y-127440000D01*
X188520000Y-71440000D02*
X188520000Y-89440000D01*
%TO.N,/row4*%
X148520000Y-118440000D02*
X148640000Y-118320000D01*
X148640000Y-118320000D02*
X148640000Y-90915000D01*
%TO.N,/row3*%
X150520000Y-88440000D02*
X150455000Y-88375000D01*
X150520000Y-99440000D02*
X150520000Y-88440000D01*
X150455000Y-88375000D02*
X148640000Y-88375000D01*
%TO.N,/col12*%
X261520000Y-89440000D02*
X261520000Y-108440000D01*
X261520000Y-71440000D02*
X261520000Y-89440000D01*
X261520000Y-108440000D02*
X261520000Y-127440000D01*
%TO.N,/col11*%
X245520000Y-71440000D02*
X245520000Y-89440000D01*
X245520000Y-108440000D02*
X245520000Y-127440000D01*
X245520000Y-89440000D02*
X245520000Y-108440000D01*
%TO.N,/col10*%
X226520000Y-71440000D02*
X226520000Y-89440000D01*
X226520000Y-108440000D02*
X226520000Y-127440000D01*
X226520000Y-89440000D02*
X226520000Y-108440000D01*
%TO.N,/col9*%
X207520000Y-108440000D02*
X207520000Y-127440000D01*
X207520000Y-71440000D02*
X207520000Y-89440000D01*
X207520000Y-89440000D02*
X207520000Y-108440000D01*
%TD*%
M02*
