%TF.GenerationSoftware,KiCad,Pcbnew,6.0.3-a3aad9c10e~116~ubuntu21.10.1*%
%TF.CreationDate,2022-04-17T15:15:34+01:00*%
%TF.ProjectId,PCB,5043422e-6b69-4636-9164-5f7063625858,rev?*%
%TF.SameCoordinates,Original*%
%TF.FileFunction,Soldermask,Top*%
%TF.FilePolarity,Negative*%
%FSLAX46Y46*%
G04 Gerber Fmt 4.6, Leading zero omitted, Abs format (unit mm)*
G04 Created by KiCad (PCBNEW 6.0.3-a3aad9c10e~116~ubuntu21.10.1) date 2022-04-17 15:15:34*
%MOMM*%
%LPD*%
G01*
G04 APERTURE LIST*
G04 Aperture macros list*
%AMFreePoly0*
4,1,13,0.142022,-1.501900,-0.191750,-1.501900,-0.191750,-0.834357,-2.194378,-0.834357,-2.194378,-0.500586,-0.191750,-0.500586,-0.191750,0.500728,-2.194378,0.500728,-2.194378,0.834500,-0.191750,0.834500,-0.191750,1.502042,0.142022,1.502042,0.142022,-1.501900,0.142022,-1.501900,$1*%
%AMFreePoly1*
4,1,13,2.154428,1.148229,0.151800,1.148229,0.151800,0.146915,2.154428,0.146915,2.154428,-0.186856,0.151800,-0.186856,0.151800,-1.188170,2.154428,-1.188170,2.154428,-1.521942,-0.181971,-1.521942,-0.181971,1.482000,2.154428,1.482000,2.154428,1.148229,2.154428,1.148229,$1*%
G04 Aperture macros list end*
%ADD10C,4.000000*%
%ADD11FreePoly0,0.000000*%
%ADD12FreePoly1,0.000000*%
%ADD13R,1.600000X1.600000*%
%ADD14C,1.600000*%
G04 APERTURE END LIST*
D10*
%TO.C,HOLE_M3*%
X255020000Y-80440000D03*
%TD*%
D11*
%TO.C,K2*%
X66380000Y-70940000D03*
D12*
X63700000Y-70920000D03*
%TD*%
D11*
%TO.C,K40*%
X104380000Y-127940000D03*
D12*
X101700000Y-127920000D03*
%TD*%
D11*
%TO.C,K42*%
X142380000Y-127940000D03*
D12*
X139700000Y-127920000D03*
%TD*%
D11*
%TO.C,K35*%
X237380000Y-108940000D03*
D12*
X234700000Y-108920000D03*
%TD*%
D10*
%TO.C,HOLE_M3*%
X46020000Y-118440000D03*
%TD*%
D11*
%TO.C,K25*%
X47380000Y-108940000D03*
D12*
X44700000Y-108920000D03*
%TD*%
D11*
%TO.C,K32*%
X180380000Y-108940000D03*
D12*
X177700000Y-108920000D03*
%TD*%
D11*
%TO.C,K27*%
X85380000Y-108940000D03*
D12*
X82700000Y-108920000D03*
%TD*%
D11*
%TO.C,K12*%
X256380000Y-70940000D03*
D12*
X253700000Y-70920000D03*
%TD*%
D11*
%TO.C,K5*%
X123380000Y-70940000D03*
D12*
X120700000Y-70920000D03*
%TD*%
D11*
%TO.C,K7*%
X161380000Y-70940000D03*
D12*
X158700000Y-70920000D03*
%TD*%
D11*
%TO.C,K17*%
X123380000Y-89940000D03*
D12*
X120700000Y-89920000D03*
%TD*%
D11*
%TO.C,K19*%
X161380000Y-89940000D03*
D12*
X158700000Y-89920000D03*
%TD*%
D11*
%TO.C,K4*%
X104380000Y-70940000D03*
D12*
X101700000Y-70920000D03*
%TD*%
D11*
%TO.C,K23*%
X237380000Y-89940000D03*
D12*
X234700000Y-89920000D03*
%TD*%
D11*
%TO.C,K43*%
X161380000Y-127940000D03*
D12*
X158700000Y-127920000D03*
%TD*%
D11*
%TO.C,K10*%
X218380000Y-70940000D03*
D12*
X215700000Y-70920000D03*
%TD*%
D11*
%TO.C,K1*%
X47380000Y-70940000D03*
D12*
X44700000Y-70920000D03*
%TD*%
D11*
%TO.C,K44*%
X180380000Y-127940000D03*
D12*
X177700000Y-127920000D03*
%TD*%
D11*
%TO.C,K18*%
X142380000Y-89940000D03*
D12*
X139700000Y-89920000D03*
%TD*%
D11*
%TO.C,K24*%
X256380000Y-89940000D03*
D12*
X253700000Y-89920000D03*
%TD*%
D11*
%TO.C,K22*%
X218380000Y-89940000D03*
D12*
X215700000Y-89920000D03*
%TD*%
D11*
%TO.C,K46*%
X218380000Y-127940000D03*
D12*
X215700000Y-127920000D03*
%TD*%
D11*
%TO.C,K28*%
X104380000Y-108940000D03*
D12*
X101700000Y-108920000D03*
%TD*%
D11*
%TO.C,K3*%
X85380000Y-70940000D03*
D12*
X82700000Y-70920000D03*
%TD*%
D11*
%TO.C,K9*%
X199380000Y-70940000D03*
D12*
X196700000Y-70920000D03*
%TD*%
D11*
%TO.C,K8*%
X180380000Y-70940000D03*
D12*
X177700000Y-70920000D03*
%TD*%
D11*
%TO.C,K21*%
X199380000Y-89940000D03*
D12*
X196700000Y-89920000D03*
%TD*%
D11*
%TO.C,K29*%
X123380000Y-108940000D03*
D12*
X120700000Y-108920000D03*
%TD*%
D11*
%TO.C,K14*%
X66380000Y-89940000D03*
D12*
X63700000Y-89920000D03*
%TD*%
D11*
%TO.C,K39*%
X85380000Y-127940000D03*
D12*
X82700000Y-127920000D03*
%TD*%
D11*
%TO.C,K6*%
X142380000Y-70940000D03*
D12*
X139700000Y-70920000D03*
%TD*%
D11*
%TO.C,K45*%
X199380000Y-127940000D03*
D12*
X196700000Y-127920000D03*
%TD*%
D11*
%TO.C,K31*%
X161380000Y-108940000D03*
D12*
X158700000Y-108920000D03*
%TD*%
D11*
%TO.C,K26*%
X66380000Y-108940000D03*
D12*
X63700000Y-108920000D03*
%TD*%
D10*
%TO.C,HOLE_M3*%
X46020000Y-80440000D03*
%TD*%
D11*
%TO.C,K15*%
X85380000Y-89940000D03*
D12*
X82700000Y-89920000D03*
%TD*%
D11*
%TO.C,K36*%
X256380000Y-108940000D03*
D12*
X253700000Y-108920000D03*
%TD*%
D11*
%TO.C,K30*%
X142380000Y-108940000D03*
D12*
X139700000Y-108920000D03*
%TD*%
D11*
%TO.C,K34*%
X218380000Y-108940000D03*
D12*
X215700000Y-108920000D03*
%TD*%
D11*
%TO.C,K48*%
X256380000Y-127940000D03*
D12*
X253700000Y-127920000D03*
%TD*%
D10*
%TO.C,HOLE_M3*%
X255020000Y-118440000D03*
%TD*%
D11*
%TO.C,K11*%
X237380000Y-70940000D03*
D12*
X234700000Y-70920000D03*
%TD*%
D11*
%TO.C,K20*%
X180380000Y-89940000D03*
D12*
X177700000Y-89920000D03*
%TD*%
D11*
%TO.C,K33*%
X199380000Y-108940000D03*
D12*
X196700000Y-108920000D03*
%TD*%
D11*
%TO.C,K41*%
X123380000Y-127940000D03*
D12*
X120700000Y-127920000D03*
%TD*%
D11*
%TO.C,K47*%
X237380000Y-127940000D03*
D12*
X234700000Y-127920000D03*
%TD*%
D11*
%TO.C,K37*%
X47380000Y-127940000D03*
D12*
X44700000Y-127920000D03*
%TD*%
D11*
%TO.C,K16*%
X104380000Y-89940000D03*
D12*
X101700000Y-89920000D03*
%TD*%
D11*
%TO.C,K38*%
X66380000Y-127940000D03*
D12*
X63700000Y-127920000D03*
%TD*%
D11*
%TO.C,K13*%
X47380000Y-89940000D03*
D12*
X44700000Y-89920000D03*
%TD*%
D13*
%TO.C,Pro-Micro1*%
X148640000Y-62975000D03*
D14*
X148640000Y-65515000D03*
X148640000Y-68055000D03*
X148640000Y-70595000D03*
X148640000Y-73135000D03*
X148640000Y-75675000D03*
X148640000Y-78215000D03*
X148640000Y-80755000D03*
X148640000Y-83295000D03*
X148640000Y-85835000D03*
X148640000Y-88375000D03*
X148640000Y-90915000D03*
X133400000Y-90915000D03*
X133400000Y-88375000D03*
X133400000Y-85835000D03*
X133400000Y-83295000D03*
X133400000Y-80755000D03*
X133400000Y-78215000D03*
X133400000Y-75675000D03*
X133400000Y-73135000D03*
X133400000Y-70595000D03*
X133400000Y-68055000D03*
X133400000Y-65515000D03*
X133400000Y-62975000D03*
%TD*%
D13*
%TO.C,D39*%
X87920000Y-132240000D03*
D14*
X80120000Y-132240000D03*
%TD*%
D13*
%TO.C,D26*%
X68920000Y-113240000D03*
D14*
X61120000Y-113240000D03*
%TD*%
D13*
%TO.C,D11*%
X239920000Y-75240000D03*
D14*
X232120000Y-75240000D03*
%TD*%
D13*
%TO.C,D18*%
X144920000Y-94240000D03*
D14*
X137120000Y-94240000D03*
%TD*%
D13*
%TO.C,D10*%
X220920000Y-75240000D03*
D14*
X213120000Y-75240000D03*
%TD*%
D13*
%TO.C,D23*%
X239920000Y-94240000D03*
D14*
X232120000Y-94240000D03*
%TD*%
D13*
%TO.C,D28*%
X106920000Y-113240000D03*
D14*
X99120000Y-113240000D03*
%TD*%
D13*
%TO.C,D7*%
X163920000Y-75240000D03*
D14*
X156120000Y-75240000D03*
%TD*%
D13*
%TO.C,D37*%
X49920000Y-132240000D03*
D14*
X42120000Y-132240000D03*
%TD*%
D13*
%TO.C,D1*%
X49920000Y-75240000D03*
D14*
X42120000Y-75240000D03*
%TD*%
D13*
%TO.C,D48*%
X258920000Y-132240000D03*
D14*
X251120000Y-132240000D03*
%TD*%
D13*
%TO.C,D47*%
X239920000Y-132240000D03*
D14*
X232120000Y-132240000D03*
%TD*%
D13*
%TO.C,D21*%
X201920000Y-94240000D03*
D14*
X194120000Y-94240000D03*
%TD*%
D13*
%TO.C,D6*%
X144920000Y-75240000D03*
D14*
X137120000Y-75240000D03*
%TD*%
D13*
%TO.C,D31*%
X163920000Y-113240000D03*
D14*
X156120000Y-113240000D03*
%TD*%
D13*
%TO.C,D4*%
X106920000Y-75240000D03*
D14*
X99120000Y-75240000D03*
%TD*%
D13*
%TO.C,D36*%
X258920000Y-113240000D03*
D14*
X251120000Y-113240000D03*
%TD*%
D13*
%TO.C,D14*%
X68920000Y-94240000D03*
D14*
X61120000Y-94240000D03*
%TD*%
D13*
%TO.C,D29*%
X125920000Y-113240000D03*
D14*
X118120000Y-113240000D03*
%TD*%
D13*
%TO.C,D42*%
X144920000Y-132240000D03*
D14*
X137120000Y-132240000D03*
%TD*%
D13*
%TO.C,D41*%
X125920000Y-132240000D03*
D14*
X118120000Y-132240000D03*
%TD*%
D13*
%TO.C,D40*%
X106920000Y-132240000D03*
D14*
X99120000Y-132240000D03*
%TD*%
D13*
%TO.C,D8*%
X182920000Y-75240000D03*
D14*
X175120000Y-75240000D03*
%TD*%
D13*
%TO.C,D17*%
X125920000Y-94240000D03*
D14*
X118120000Y-94240000D03*
%TD*%
D13*
%TO.C,D2*%
X68920000Y-75240000D03*
D14*
X61120000Y-75240000D03*
%TD*%
D13*
%TO.C,D24*%
X258920000Y-94240000D03*
D14*
X251120000Y-94240000D03*
%TD*%
D13*
%TO.C,D9*%
X201920000Y-75240000D03*
D14*
X194120000Y-75240000D03*
%TD*%
D13*
%TO.C,D12*%
X258920000Y-75240000D03*
D14*
X251120000Y-75240000D03*
%TD*%
D13*
%TO.C,D13*%
X49920000Y-94240000D03*
D14*
X42120000Y-94240000D03*
%TD*%
D13*
%TO.C,D5*%
X125920000Y-75240000D03*
D14*
X118120000Y-75240000D03*
%TD*%
D13*
%TO.C,D33*%
X201920000Y-113240000D03*
D14*
X194120000Y-113240000D03*
%TD*%
D13*
%TO.C,D30*%
X144920000Y-113240000D03*
D14*
X137120000Y-113240000D03*
%TD*%
D13*
%TO.C,D27*%
X87920000Y-113240000D03*
D14*
X80120000Y-113240000D03*
%TD*%
D13*
%TO.C,D25*%
X49920000Y-113240000D03*
D14*
X42120000Y-113240000D03*
%TD*%
D13*
%TO.C,D45*%
X201920000Y-132240000D03*
D14*
X194120000Y-132240000D03*
%TD*%
D13*
%TO.C,D20*%
X182920000Y-94240000D03*
D14*
X175120000Y-94240000D03*
%TD*%
D13*
%TO.C,D38*%
X68920000Y-132240000D03*
D14*
X61120000Y-132240000D03*
%TD*%
D13*
%TO.C,D43*%
X163920000Y-132240000D03*
D14*
X156120000Y-132240000D03*
%TD*%
D13*
%TO.C,D44*%
X182920000Y-132240000D03*
D14*
X175120000Y-132240000D03*
%TD*%
D13*
%TO.C,D32*%
X182920000Y-113240000D03*
D14*
X175120000Y-113240000D03*
%TD*%
D13*
%TO.C,D22*%
X220920000Y-94240000D03*
D14*
X213120000Y-94240000D03*
%TD*%
D13*
%TO.C,D3*%
X87920000Y-75240000D03*
D14*
X80120000Y-75240000D03*
%TD*%
D13*
%TO.C,D15*%
X87920000Y-94240000D03*
D14*
X80120000Y-94240000D03*
%TD*%
D13*
%TO.C,D46*%
X220920000Y-132240000D03*
D14*
X213120000Y-132240000D03*
%TD*%
D13*
%TO.C,D16*%
X106920000Y-94240000D03*
D14*
X99120000Y-94240000D03*
%TD*%
D13*
%TO.C,D35*%
X239920000Y-113240000D03*
D14*
X232120000Y-113240000D03*
%TD*%
D13*
%TO.C,D34*%
X220920000Y-113240000D03*
D14*
X213120000Y-113240000D03*
%TD*%
D13*
%TO.C,D19*%
X163920000Y-94240000D03*
D14*
X156120000Y-94240000D03*
%TD*%
M02*
