%TF.GenerationSoftware,KiCad,Pcbnew,6.0.3-a3aad9c10e~116~ubuntu21.10.1*%
%TF.CreationDate,2022-04-17T15:15:34+01:00*%
%TF.ProjectId,PCB,5043422e-6b69-4636-9164-5f7063625858,rev?*%
%TF.SameCoordinates,Original*%
%TF.FileFunction,Legend,Bot*%
%TF.FilePolarity,Positive*%
%FSLAX46Y46*%
G04 Gerber Fmt 4.6, Leading zero omitted, Abs format (unit mm)*
G04 Created by KiCad (PCBNEW 6.0.3-a3aad9c10e~116~ubuntu21.10.1) date 2022-04-17 15:15:34*
%MOMM*%
%LPD*%
G01*
G04 APERTURE LIST*
%ADD10C,0.150000*%
%ADD11C,0.200000*%
%ADD12R,1.600000X1.600000*%
%ADD13C,1.600000*%
G04 APERTURE END LIST*
D10*
%TO.C,D39*%
X84991428Y-134526904D02*
X84991428Y-133726904D01*
X84800952Y-133726904D01*
X84686666Y-133765000D01*
X84610476Y-133841190D01*
X84572380Y-133917380D01*
X84534285Y-134069761D01*
X84534285Y-134184047D01*
X84572380Y-134336428D01*
X84610476Y-134412619D01*
X84686666Y-134488809D01*
X84800952Y-134526904D01*
X84991428Y-134526904D01*
X84267619Y-133726904D02*
X83772380Y-133726904D01*
X84039047Y-134031666D01*
X83924761Y-134031666D01*
X83848571Y-134069761D01*
X83810476Y-134107857D01*
X83772380Y-134184047D01*
X83772380Y-134374523D01*
X83810476Y-134450714D01*
X83848571Y-134488809D01*
X83924761Y-134526904D01*
X84153333Y-134526904D01*
X84229523Y-134488809D01*
X84267619Y-134450714D01*
X83391428Y-134526904D02*
X83239047Y-134526904D01*
X83162857Y-134488809D01*
X83124761Y-134450714D01*
X83048571Y-134336428D01*
X83010476Y-134184047D01*
X83010476Y-133879285D01*
X83048571Y-133803095D01*
X83086666Y-133765000D01*
X83162857Y-133726904D01*
X83315238Y-133726904D01*
X83391428Y-133765000D01*
X83429523Y-133803095D01*
X83467619Y-133879285D01*
X83467619Y-134069761D01*
X83429523Y-134145952D01*
X83391428Y-134184047D01*
X83315238Y-134222142D01*
X83162857Y-134222142D01*
X83086666Y-134184047D01*
X83048571Y-134145952D01*
X83010476Y-134069761D01*
%TO.C,D26*%
X65991428Y-115526904D02*
X65991428Y-114726904D01*
X65800952Y-114726904D01*
X65686666Y-114765000D01*
X65610476Y-114841190D01*
X65572380Y-114917380D01*
X65534285Y-115069761D01*
X65534285Y-115184047D01*
X65572380Y-115336428D01*
X65610476Y-115412619D01*
X65686666Y-115488809D01*
X65800952Y-115526904D01*
X65991428Y-115526904D01*
X65229523Y-114803095D02*
X65191428Y-114765000D01*
X65115238Y-114726904D01*
X64924761Y-114726904D01*
X64848571Y-114765000D01*
X64810476Y-114803095D01*
X64772380Y-114879285D01*
X64772380Y-114955476D01*
X64810476Y-115069761D01*
X65267619Y-115526904D01*
X64772380Y-115526904D01*
X64086666Y-114726904D02*
X64239047Y-114726904D01*
X64315238Y-114765000D01*
X64353333Y-114803095D01*
X64429523Y-114917380D01*
X64467619Y-115069761D01*
X64467619Y-115374523D01*
X64429523Y-115450714D01*
X64391428Y-115488809D01*
X64315238Y-115526904D01*
X64162857Y-115526904D01*
X64086666Y-115488809D01*
X64048571Y-115450714D01*
X64010476Y-115374523D01*
X64010476Y-115184047D01*
X64048571Y-115107857D01*
X64086666Y-115069761D01*
X64162857Y-115031666D01*
X64315238Y-115031666D01*
X64391428Y-115069761D01*
X64429523Y-115107857D01*
X64467619Y-115184047D01*
%TO.C,D11*%
X236991428Y-77526904D02*
X236991428Y-76726904D01*
X236800952Y-76726904D01*
X236686666Y-76765000D01*
X236610476Y-76841190D01*
X236572380Y-76917380D01*
X236534285Y-77069761D01*
X236534285Y-77184047D01*
X236572380Y-77336428D01*
X236610476Y-77412619D01*
X236686666Y-77488809D01*
X236800952Y-77526904D01*
X236991428Y-77526904D01*
X235772380Y-77526904D02*
X236229523Y-77526904D01*
X236000952Y-77526904D02*
X236000952Y-76726904D01*
X236077142Y-76841190D01*
X236153333Y-76917380D01*
X236229523Y-76955476D01*
X235010476Y-77526904D02*
X235467619Y-77526904D01*
X235239047Y-77526904D02*
X235239047Y-76726904D01*
X235315238Y-76841190D01*
X235391428Y-76917380D01*
X235467619Y-76955476D01*
%TO.C,D18*%
X141991428Y-96526904D02*
X141991428Y-95726904D01*
X141800952Y-95726904D01*
X141686666Y-95765000D01*
X141610476Y-95841190D01*
X141572380Y-95917380D01*
X141534285Y-96069761D01*
X141534285Y-96184047D01*
X141572380Y-96336428D01*
X141610476Y-96412619D01*
X141686666Y-96488809D01*
X141800952Y-96526904D01*
X141991428Y-96526904D01*
X140772380Y-96526904D02*
X141229523Y-96526904D01*
X141000952Y-96526904D02*
X141000952Y-95726904D01*
X141077142Y-95841190D01*
X141153333Y-95917380D01*
X141229523Y-95955476D01*
X140315238Y-96069761D02*
X140391428Y-96031666D01*
X140429523Y-95993571D01*
X140467619Y-95917380D01*
X140467619Y-95879285D01*
X140429523Y-95803095D01*
X140391428Y-95765000D01*
X140315238Y-95726904D01*
X140162857Y-95726904D01*
X140086666Y-95765000D01*
X140048571Y-95803095D01*
X140010476Y-95879285D01*
X140010476Y-95917380D01*
X140048571Y-95993571D01*
X140086666Y-96031666D01*
X140162857Y-96069761D01*
X140315238Y-96069761D01*
X140391428Y-96107857D01*
X140429523Y-96145952D01*
X140467619Y-96222142D01*
X140467619Y-96374523D01*
X140429523Y-96450714D01*
X140391428Y-96488809D01*
X140315238Y-96526904D01*
X140162857Y-96526904D01*
X140086666Y-96488809D01*
X140048571Y-96450714D01*
X140010476Y-96374523D01*
X140010476Y-96222142D01*
X140048571Y-96145952D01*
X140086666Y-96107857D01*
X140162857Y-96069761D01*
%TO.C,D10*%
X217991428Y-77526904D02*
X217991428Y-76726904D01*
X217800952Y-76726904D01*
X217686666Y-76765000D01*
X217610476Y-76841190D01*
X217572380Y-76917380D01*
X217534285Y-77069761D01*
X217534285Y-77184047D01*
X217572380Y-77336428D01*
X217610476Y-77412619D01*
X217686666Y-77488809D01*
X217800952Y-77526904D01*
X217991428Y-77526904D01*
X216772380Y-77526904D02*
X217229523Y-77526904D01*
X217000952Y-77526904D02*
X217000952Y-76726904D01*
X217077142Y-76841190D01*
X217153333Y-76917380D01*
X217229523Y-76955476D01*
X216277142Y-76726904D02*
X216200952Y-76726904D01*
X216124761Y-76765000D01*
X216086666Y-76803095D01*
X216048571Y-76879285D01*
X216010476Y-77031666D01*
X216010476Y-77222142D01*
X216048571Y-77374523D01*
X216086666Y-77450714D01*
X216124761Y-77488809D01*
X216200952Y-77526904D01*
X216277142Y-77526904D01*
X216353333Y-77488809D01*
X216391428Y-77450714D01*
X216429523Y-77374523D01*
X216467619Y-77222142D01*
X216467619Y-77031666D01*
X216429523Y-76879285D01*
X216391428Y-76803095D01*
X216353333Y-76765000D01*
X216277142Y-76726904D01*
%TO.C,D23*%
X236991428Y-96526904D02*
X236991428Y-95726904D01*
X236800952Y-95726904D01*
X236686666Y-95765000D01*
X236610476Y-95841190D01*
X236572380Y-95917380D01*
X236534285Y-96069761D01*
X236534285Y-96184047D01*
X236572380Y-96336428D01*
X236610476Y-96412619D01*
X236686666Y-96488809D01*
X236800952Y-96526904D01*
X236991428Y-96526904D01*
X236229523Y-95803095D02*
X236191428Y-95765000D01*
X236115238Y-95726904D01*
X235924761Y-95726904D01*
X235848571Y-95765000D01*
X235810476Y-95803095D01*
X235772380Y-95879285D01*
X235772380Y-95955476D01*
X235810476Y-96069761D01*
X236267619Y-96526904D01*
X235772380Y-96526904D01*
X235505714Y-95726904D02*
X235010476Y-95726904D01*
X235277142Y-96031666D01*
X235162857Y-96031666D01*
X235086666Y-96069761D01*
X235048571Y-96107857D01*
X235010476Y-96184047D01*
X235010476Y-96374523D01*
X235048571Y-96450714D01*
X235086666Y-96488809D01*
X235162857Y-96526904D01*
X235391428Y-96526904D01*
X235467619Y-96488809D01*
X235505714Y-96450714D01*
%TO.C,D28*%
X103991428Y-115526904D02*
X103991428Y-114726904D01*
X103800952Y-114726904D01*
X103686666Y-114765000D01*
X103610476Y-114841190D01*
X103572380Y-114917380D01*
X103534285Y-115069761D01*
X103534285Y-115184047D01*
X103572380Y-115336428D01*
X103610476Y-115412619D01*
X103686666Y-115488809D01*
X103800952Y-115526904D01*
X103991428Y-115526904D01*
X103229523Y-114803095D02*
X103191428Y-114765000D01*
X103115238Y-114726904D01*
X102924761Y-114726904D01*
X102848571Y-114765000D01*
X102810476Y-114803095D01*
X102772380Y-114879285D01*
X102772380Y-114955476D01*
X102810476Y-115069761D01*
X103267619Y-115526904D01*
X102772380Y-115526904D01*
X102315238Y-115069761D02*
X102391428Y-115031666D01*
X102429523Y-114993571D01*
X102467619Y-114917380D01*
X102467619Y-114879285D01*
X102429523Y-114803095D01*
X102391428Y-114765000D01*
X102315238Y-114726904D01*
X102162857Y-114726904D01*
X102086666Y-114765000D01*
X102048571Y-114803095D01*
X102010476Y-114879285D01*
X102010476Y-114917380D01*
X102048571Y-114993571D01*
X102086666Y-115031666D01*
X102162857Y-115069761D01*
X102315238Y-115069761D01*
X102391428Y-115107857D01*
X102429523Y-115145952D01*
X102467619Y-115222142D01*
X102467619Y-115374523D01*
X102429523Y-115450714D01*
X102391428Y-115488809D01*
X102315238Y-115526904D01*
X102162857Y-115526904D01*
X102086666Y-115488809D01*
X102048571Y-115450714D01*
X102010476Y-115374523D01*
X102010476Y-115222142D01*
X102048571Y-115145952D01*
X102086666Y-115107857D01*
X102162857Y-115069761D01*
%TO.C,D7*%
X160610476Y-77526904D02*
X160610476Y-76726904D01*
X160420000Y-76726904D01*
X160305714Y-76765000D01*
X160229523Y-76841190D01*
X160191428Y-76917380D01*
X160153333Y-77069761D01*
X160153333Y-77184047D01*
X160191428Y-77336428D01*
X160229523Y-77412619D01*
X160305714Y-77488809D01*
X160420000Y-77526904D01*
X160610476Y-77526904D01*
X159886666Y-76726904D02*
X159353333Y-76726904D01*
X159696190Y-77526904D01*
%TO.C,D37*%
X46991428Y-134526904D02*
X46991428Y-133726904D01*
X46800952Y-133726904D01*
X46686666Y-133765000D01*
X46610476Y-133841190D01*
X46572380Y-133917380D01*
X46534285Y-134069761D01*
X46534285Y-134184047D01*
X46572380Y-134336428D01*
X46610476Y-134412619D01*
X46686666Y-134488809D01*
X46800952Y-134526904D01*
X46991428Y-134526904D01*
X46267619Y-133726904D02*
X45772380Y-133726904D01*
X46039047Y-134031666D01*
X45924761Y-134031666D01*
X45848571Y-134069761D01*
X45810476Y-134107857D01*
X45772380Y-134184047D01*
X45772380Y-134374523D01*
X45810476Y-134450714D01*
X45848571Y-134488809D01*
X45924761Y-134526904D01*
X46153333Y-134526904D01*
X46229523Y-134488809D01*
X46267619Y-134450714D01*
X45505714Y-133726904D02*
X44972380Y-133726904D01*
X45315238Y-134526904D01*
%TO.C,D1*%
X46610476Y-77526904D02*
X46610476Y-76726904D01*
X46420000Y-76726904D01*
X46305714Y-76765000D01*
X46229523Y-76841190D01*
X46191428Y-76917380D01*
X46153333Y-77069761D01*
X46153333Y-77184047D01*
X46191428Y-77336428D01*
X46229523Y-77412619D01*
X46305714Y-77488809D01*
X46420000Y-77526904D01*
X46610476Y-77526904D01*
X45391428Y-77526904D02*
X45848571Y-77526904D01*
X45620000Y-77526904D02*
X45620000Y-76726904D01*
X45696190Y-76841190D01*
X45772380Y-76917380D01*
X45848571Y-76955476D01*
%TO.C,D48*%
X255991428Y-134526904D02*
X255991428Y-133726904D01*
X255800952Y-133726904D01*
X255686666Y-133765000D01*
X255610476Y-133841190D01*
X255572380Y-133917380D01*
X255534285Y-134069761D01*
X255534285Y-134184047D01*
X255572380Y-134336428D01*
X255610476Y-134412619D01*
X255686666Y-134488809D01*
X255800952Y-134526904D01*
X255991428Y-134526904D01*
X254848571Y-133993571D02*
X254848571Y-134526904D01*
X255039047Y-133688809D02*
X255229523Y-134260238D01*
X254734285Y-134260238D01*
X254315238Y-134069761D02*
X254391428Y-134031666D01*
X254429523Y-133993571D01*
X254467619Y-133917380D01*
X254467619Y-133879285D01*
X254429523Y-133803095D01*
X254391428Y-133765000D01*
X254315238Y-133726904D01*
X254162857Y-133726904D01*
X254086666Y-133765000D01*
X254048571Y-133803095D01*
X254010476Y-133879285D01*
X254010476Y-133917380D01*
X254048571Y-133993571D01*
X254086666Y-134031666D01*
X254162857Y-134069761D01*
X254315238Y-134069761D01*
X254391428Y-134107857D01*
X254429523Y-134145952D01*
X254467619Y-134222142D01*
X254467619Y-134374523D01*
X254429523Y-134450714D01*
X254391428Y-134488809D01*
X254315238Y-134526904D01*
X254162857Y-134526904D01*
X254086666Y-134488809D01*
X254048571Y-134450714D01*
X254010476Y-134374523D01*
X254010476Y-134222142D01*
X254048571Y-134145952D01*
X254086666Y-134107857D01*
X254162857Y-134069761D01*
%TO.C,D47*%
X236991428Y-134526904D02*
X236991428Y-133726904D01*
X236800952Y-133726904D01*
X236686666Y-133765000D01*
X236610476Y-133841190D01*
X236572380Y-133917380D01*
X236534285Y-134069761D01*
X236534285Y-134184047D01*
X236572380Y-134336428D01*
X236610476Y-134412619D01*
X236686666Y-134488809D01*
X236800952Y-134526904D01*
X236991428Y-134526904D01*
X235848571Y-133993571D02*
X235848571Y-134526904D01*
X236039047Y-133688809D02*
X236229523Y-134260238D01*
X235734285Y-134260238D01*
X235505714Y-133726904D02*
X234972380Y-133726904D01*
X235315238Y-134526904D01*
%TO.C,D21*%
X198991428Y-96526904D02*
X198991428Y-95726904D01*
X198800952Y-95726904D01*
X198686666Y-95765000D01*
X198610476Y-95841190D01*
X198572380Y-95917380D01*
X198534285Y-96069761D01*
X198534285Y-96184047D01*
X198572380Y-96336428D01*
X198610476Y-96412619D01*
X198686666Y-96488809D01*
X198800952Y-96526904D01*
X198991428Y-96526904D01*
X198229523Y-95803095D02*
X198191428Y-95765000D01*
X198115238Y-95726904D01*
X197924761Y-95726904D01*
X197848571Y-95765000D01*
X197810476Y-95803095D01*
X197772380Y-95879285D01*
X197772380Y-95955476D01*
X197810476Y-96069761D01*
X198267619Y-96526904D01*
X197772380Y-96526904D01*
X197010476Y-96526904D02*
X197467619Y-96526904D01*
X197239047Y-96526904D02*
X197239047Y-95726904D01*
X197315238Y-95841190D01*
X197391428Y-95917380D01*
X197467619Y-95955476D01*
%TO.C,D6*%
X141610476Y-77526904D02*
X141610476Y-76726904D01*
X141420000Y-76726904D01*
X141305714Y-76765000D01*
X141229523Y-76841190D01*
X141191428Y-76917380D01*
X141153333Y-77069761D01*
X141153333Y-77184047D01*
X141191428Y-77336428D01*
X141229523Y-77412619D01*
X141305714Y-77488809D01*
X141420000Y-77526904D01*
X141610476Y-77526904D01*
X140467619Y-76726904D02*
X140620000Y-76726904D01*
X140696190Y-76765000D01*
X140734285Y-76803095D01*
X140810476Y-76917380D01*
X140848571Y-77069761D01*
X140848571Y-77374523D01*
X140810476Y-77450714D01*
X140772380Y-77488809D01*
X140696190Y-77526904D01*
X140543809Y-77526904D01*
X140467619Y-77488809D01*
X140429523Y-77450714D01*
X140391428Y-77374523D01*
X140391428Y-77184047D01*
X140429523Y-77107857D01*
X140467619Y-77069761D01*
X140543809Y-77031666D01*
X140696190Y-77031666D01*
X140772380Y-77069761D01*
X140810476Y-77107857D01*
X140848571Y-77184047D01*
%TO.C,D31*%
X160991428Y-115526904D02*
X160991428Y-114726904D01*
X160800952Y-114726904D01*
X160686666Y-114765000D01*
X160610476Y-114841190D01*
X160572380Y-114917380D01*
X160534285Y-115069761D01*
X160534285Y-115184047D01*
X160572380Y-115336428D01*
X160610476Y-115412619D01*
X160686666Y-115488809D01*
X160800952Y-115526904D01*
X160991428Y-115526904D01*
X160267619Y-114726904D02*
X159772380Y-114726904D01*
X160039047Y-115031666D01*
X159924761Y-115031666D01*
X159848571Y-115069761D01*
X159810476Y-115107857D01*
X159772380Y-115184047D01*
X159772380Y-115374523D01*
X159810476Y-115450714D01*
X159848571Y-115488809D01*
X159924761Y-115526904D01*
X160153333Y-115526904D01*
X160229523Y-115488809D01*
X160267619Y-115450714D01*
X159010476Y-115526904D02*
X159467619Y-115526904D01*
X159239047Y-115526904D02*
X159239047Y-114726904D01*
X159315238Y-114841190D01*
X159391428Y-114917380D01*
X159467619Y-114955476D01*
%TO.C,D4*%
X103610476Y-77526904D02*
X103610476Y-76726904D01*
X103420000Y-76726904D01*
X103305714Y-76765000D01*
X103229523Y-76841190D01*
X103191428Y-76917380D01*
X103153333Y-77069761D01*
X103153333Y-77184047D01*
X103191428Y-77336428D01*
X103229523Y-77412619D01*
X103305714Y-77488809D01*
X103420000Y-77526904D01*
X103610476Y-77526904D01*
X102467619Y-76993571D02*
X102467619Y-77526904D01*
X102658095Y-76688809D02*
X102848571Y-77260238D01*
X102353333Y-77260238D01*
%TO.C,D36*%
X255991428Y-115526904D02*
X255991428Y-114726904D01*
X255800952Y-114726904D01*
X255686666Y-114765000D01*
X255610476Y-114841190D01*
X255572380Y-114917380D01*
X255534285Y-115069761D01*
X255534285Y-115184047D01*
X255572380Y-115336428D01*
X255610476Y-115412619D01*
X255686666Y-115488809D01*
X255800952Y-115526904D01*
X255991428Y-115526904D01*
X255267619Y-114726904D02*
X254772380Y-114726904D01*
X255039047Y-115031666D01*
X254924761Y-115031666D01*
X254848571Y-115069761D01*
X254810476Y-115107857D01*
X254772380Y-115184047D01*
X254772380Y-115374523D01*
X254810476Y-115450714D01*
X254848571Y-115488809D01*
X254924761Y-115526904D01*
X255153333Y-115526904D01*
X255229523Y-115488809D01*
X255267619Y-115450714D01*
X254086666Y-114726904D02*
X254239047Y-114726904D01*
X254315238Y-114765000D01*
X254353333Y-114803095D01*
X254429523Y-114917380D01*
X254467619Y-115069761D01*
X254467619Y-115374523D01*
X254429523Y-115450714D01*
X254391428Y-115488809D01*
X254315238Y-115526904D01*
X254162857Y-115526904D01*
X254086666Y-115488809D01*
X254048571Y-115450714D01*
X254010476Y-115374523D01*
X254010476Y-115184047D01*
X254048571Y-115107857D01*
X254086666Y-115069761D01*
X254162857Y-115031666D01*
X254315238Y-115031666D01*
X254391428Y-115069761D01*
X254429523Y-115107857D01*
X254467619Y-115184047D01*
%TO.C,D14*%
X65991428Y-96526904D02*
X65991428Y-95726904D01*
X65800952Y-95726904D01*
X65686666Y-95765000D01*
X65610476Y-95841190D01*
X65572380Y-95917380D01*
X65534285Y-96069761D01*
X65534285Y-96184047D01*
X65572380Y-96336428D01*
X65610476Y-96412619D01*
X65686666Y-96488809D01*
X65800952Y-96526904D01*
X65991428Y-96526904D01*
X64772380Y-96526904D02*
X65229523Y-96526904D01*
X65000952Y-96526904D02*
X65000952Y-95726904D01*
X65077142Y-95841190D01*
X65153333Y-95917380D01*
X65229523Y-95955476D01*
X64086666Y-95993571D02*
X64086666Y-96526904D01*
X64277142Y-95688809D02*
X64467619Y-96260238D01*
X63972380Y-96260238D01*
%TO.C,D29*%
X122991428Y-115526904D02*
X122991428Y-114726904D01*
X122800952Y-114726904D01*
X122686666Y-114765000D01*
X122610476Y-114841190D01*
X122572380Y-114917380D01*
X122534285Y-115069761D01*
X122534285Y-115184047D01*
X122572380Y-115336428D01*
X122610476Y-115412619D01*
X122686666Y-115488809D01*
X122800952Y-115526904D01*
X122991428Y-115526904D01*
X122229523Y-114803095D02*
X122191428Y-114765000D01*
X122115238Y-114726904D01*
X121924761Y-114726904D01*
X121848571Y-114765000D01*
X121810476Y-114803095D01*
X121772380Y-114879285D01*
X121772380Y-114955476D01*
X121810476Y-115069761D01*
X122267619Y-115526904D01*
X121772380Y-115526904D01*
X121391428Y-115526904D02*
X121239047Y-115526904D01*
X121162857Y-115488809D01*
X121124761Y-115450714D01*
X121048571Y-115336428D01*
X121010476Y-115184047D01*
X121010476Y-114879285D01*
X121048571Y-114803095D01*
X121086666Y-114765000D01*
X121162857Y-114726904D01*
X121315238Y-114726904D01*
X121391428Y-114765000D01*
X121429523Y-114803095D01*
X121467619Y-114879285D01*
X121467619Y-115069761D01*
X121429523Y-115145952D01*
X121391428Y-115184047D01*
X121315238Y-115222142D01*
X121162857Y-115222142D01*
X121086666Y-115184047D01*
X121048571Y-115145952D01*
X121010476Y-115069761D01*
%TO.C,D42*%
X141991428Y-134526904D02*
X141991428Y-133726904D01*
X141800952Y-133726904D01*
X141686666Y-133765000D01*
X141610476Y-133841190D01*
X141572380Y-133917380D01*
X141534285Y-134069761D01*
X141534285Y-134184047D01*
X141572380Y-134336428D01*
X141610476Y-134412619D01*
X141686666Y-134488809D01*
X141800952Y-134526904D01*
X141991428Y-134526904D01*
X140848571Y-133993571D02*
X140848571Y-134526904D01*
X141039047Y-133688809D02*
X141229523Y-134260238D01*
X140734285Y-134260238D01*
X140467619Y-133803095D02*
X140429523Y-133765000D01*
X140353333Y-133726904D01*
X140162857Y-133726904D01*
X140086666Y-133765000D01*
X140048571Y-133803095D01*
X140010476Y-133879285D01*
X140010476Y-133955476D01*
X140048571Y-134069761D01*
X140505714Y-134526904D01*
X140010476Y-134526904D01*
%TO.C,D41*%
X122991428Y-134526904D02*
X122991428Y-133726904D01*
X122800952Y-133726904D01*
X122686666Y-133765000D01*
X122610476Y-133841190D01*
X122572380Y-133917380D01*
X122534285Y-134069761D01*
X122534285Y-134184047D01*
X122572380Y-134336428D01*
X122610476Y-134412619D01*
X122686666Y-134488809D01*
X122800952Y-134526904D01*
X122991428Y-134526904D01*
X121848571Y-133993571D02*
X121848571Y-134526904D01*
X122039047Y-133688809D02*
X122229523Y-134260238D01*
X121734285Y-134260238D01*
X121010476Y-134526904D02*
X121467619Y-134526904D01*
X121239047Y-134526904D02*
X121239047Y-133726904D01*
X121315238Y-133841190D01*
X121391428Y-133917380D01*
X121467619Y-133955476D01*
%TO.C,D40*%
X103991428Y-134526904D02*
X103991428Y-133726904D01*
X103800952Y-133726904D01*
X103686666Y-133765000D01*
X103610476Y-133841190D01*
X103572380Y-133917380D01*
X103534285Y-134069761D01*
X103534285Y-134184047D01*
X103572380Y-134336428D01*
X103610476Y-134412619D01*
X103686666Y-134488809D01*
X103800952Y-134526904D01*
X103991428Y-134526904D01*
X102848571Y-133993571D02*
X102848571Y-134526904D01*
X103039047Y-133688809D02*
X103229523Y-134260238D01*
X102734285Y-134260238D01*
X102277142Y-133726904D02*
X102200952Y-133726904D01*
X102124761Y-133765000D01*
X102086666Y-133803095D01*
X102048571Y-133879285D01*
X102010476Y-134031666D01*
X102010476Y-134222142D01*
X102048571Y-134374523D01*
X102086666Y-134450714D01*
X102124761Y-134488809D01*
X102200952Y-134526904D01*
X102277142Y-134526904D01*
X102353333Y-134488809D01*
X102391428Y-134450714D01*
X102429523Y-134374523D01*
X102467619Y-134222142D01*
X102467619Y-134031666D01*
X102429523Y-133879285D01*
X102391428Y-133803095D01*
X102353333Y-133765000D01*
X102277142Y-133726904D01*
%TO.C,D8*%
X179610476Y-77526904D02*
X179610476Y-76726904D01*
X179420000Y-76726904D01*
X179305714Y-76765000D01*
X179229523Y-76841190D01*
X179191428Y-76917380D01*
X179153333Y-77069761D01*
X179153333Y-77184047D01*
X179191428Y-77336428D01*
X179229523Y-77412619D01*
X179305714Y-77488809D01*
X179420000Y-77526904D01*
X179610476Y-77526904D01*
X178696190Y-77069761D02*
X178772380Y-77031666D01*
X178810476Y-76993571D01*
X178848571Y-76917380D01*
X178848571Y-76879285D01*
X178810476Y-76803095D01*
X178772380Y-76765000D01*
X178696190Y-76726904D01*
X178543809Y-76726904D01*
X178467619Y-76765000D01*
X178429523Y-76803095D01*
X178391428Y-76879285D01*
X178391428Y-76917380D01*
X178429523Y-76993571D01*
X178467619Y-77031666D01*
X178543809Y-77069761D01*
X178696190Y-77069761D01*
X178772380Y-77107857D01*
X178810476Y-77145952D01*
X178848571Y-77222142D01*
X178848571Y-77374523D01*
X178810476Y-77450714D01*
X178772380Y-77488809D01*
X178696190Y-77526904D01*
X178543809Y-77526904D01*
X178467619Y-77488809D01*
X178429523Y-77450714D01*
X178391428Y-77374523D01*
X178391428Y-77222142D01*
X178429523Y-77145952D01*
X178467619Y-77107857D01*
X178543809Y-77069761D01*
%TO.C,D17*%
X122991428Y-96526904D02*
X122991428Y-95726904D01*
X122800952Y-95726904D01*
X122686666Y-95765000D01*
X122610476Y-95841190D01*
X122572380Y-95917380D01*
X122534285Y-96069761D01*
X122534285Y-96184047D01*
X122572380Y-96336428D01*
X122610476Y-96412619D01*
X122686666Y-96488809D01*
X122800952Y-96526904D01*
X122991428Y-96526904D01*
X121772380Y-96526904D02*
X122229523Y-96526904D01*
X122000952Y-96526904D02*
X122000952Y-95726904D01*
X122077142Y-95841190D01*
X122153333Y-95917380D01*
X122229523Y-95955476D01*
X121505714Y-95726904D02*
X120972380Y-95726904D01*
X121315238Y-96526904D01*
%TO.C,D2*%
X65610476Y-77526904D02*
X65610476Y-76726904D01*
X65420000Y-76726904D01*
X65305714Y-76765000D01*
X65229523Y-76841190D01*
X65191428Y-76917380D01*
X65153333Y-77069761D01*
X65153333Y-77184047D01*
X65191428Y-77336428D01*
X65229523Y-77412619D01*
X65305714Y-77488809D01*
X65420000Y-77526904D01*
X65610476Y-77526904D01*
X64848571Y-76803095D02*
X64810476Y-76765000D01*
X64734285Y-76726904D01*
X64543809Y-76726904D01*
X64467619Y-76765000D01*
X64429523Y-76803095D01*
X64391428Y-76879285D01*
X64391428Y-76955476D01*
X64429523Y-77069761D01*
X64886666Y-77526904D01*
X64391428Y-77526904D01*
%TO.C,D24*%
X255991428Y-96526904D02*
X255991428Y-95726904D01*
X255800952Y-95726904D01*
X255686666Y-95765000D01*
X255610476Y-95841190D01*
X255572380Y-95917380D01*
X255534285Y-96069761D01*
X255534285Y-96184047D01*
X255572380Y-96336428D01*
X255610476Y-96412619D01*
X255686666Y-96488809D01*
X255800952Y-96526904D01*
X255991428Y-96526904D01*
X255229523Y-95803095D02*
X255191428Y-95765000D01*
X255115238Y-95726904D01*
X254924761Y-95726904D01*
X254848571Y-95765000D01*
X254810476Y-95803095D01*
X254772380Y-95879285D01*
X254772380Y-95955476D01*
X254810476Y-96069761D01*
X255267619Y-96526904D01*
X254772380Y-96526904D01*
X254086666Y-95993571D02*
X254086666Y-96526904D01*
X254277142Y-95688809D02*
X254467619Y-96260238D01*
X253972380Y-96260238D01*
%TO.C,D9*%
X198610476Y-77526904D02*
X198610476Y-76726904D01*
X198420000Y-76726904D01*
X198305714Y-76765000D01*
X198229523Y-76841190D01*
X198191428Y-76917380D01*
X198153333Y-77069761D01*
X198153333Y-77184047D01*
X198191428Y-77336428D01*
X198229523Y-77412619D01*
X198305714Y-77488809D01*
X198420000Y-77526904D01*
X198610476Y-77526904D01*
X197772380Y-77526904D02*
X197620000Y-77526904D01*
X197543809Y-77488809D01*
X197505714Y-77450714D01*
X197429523Y-77336428D01*
X197391428Y-77184047D01*
X197391428Y-76879285D01*
X197429523Y-76803095D01*
X197467619Y-76765000D01*
X197543809Y-76726904D01*
X197696190Y-76726904D01*
X197772380Y-76765000D01*
X197810476Y-76803095D01*
X197848571Y-76879285D01*
X197848571Y-77069761D01*
X197810476Y-77145952D01*
X197772380Y-77184047D01*
X197696190Y-77222142D01*
X197543809Y-77222142D01*
X197467619Y-77184047D01*
X197429523Y-77145952D01*
X197391428Y-77069761D01*
%TO.C,D12*%
X255991428Y-77526904D02*
X255991428Y-76726904D01*
X255800952Y-76726904D01*
X255686666Y-76765000D01*
X255610476Y-76841190D01*
X255572380Y-76917380D01*
X255534285Y-77069761D01*
X255534285Y-77184047D01*
X255572380Y-77336428D01*
X255610476Y-77412619D01*
X255686666Y-77488809D01*
X255800952Y-77526904D01*
X255991428Y-77526904D01*
X254772380Y-77526904D02*
X255229523Y-77526904D01*
X255000952Y-77526904D02*
X255000952Y-76726904D01*
X255077142Y-76841190D01*
X255153333Y-76917380D01*
X255229523Y-76955476D01*
X254467619Y-76803095D02*
X254429523Y-76765000D01*
X254353333Y-76726904D01*
X254162857Y-76726904D01*
X254086666Y-76765000D01*
X254048571Y-76803095D01*
X254010476Y-76879285D01*
X254010476Y-76955476D01*
X254048571Y-77069761D01*
X254505714Y-77526904D01*
X254010476Y-77526904D01*
%TO.C,D13*%
X46991428Y-96526904D02*
X46991428Y-95726904D01*
X46800952Y-95726904D01*
X46686666Y-95765000D01*
X46610476Y-95841190D01*
X46572380Y-95917380D01*
X46534285Y-96069761D01*
X46534285Y-96184047D01*
X46572380Y-96336428D01*
X46610476Y-96412619D01*
X46686666Y-96488809D01*
X46800952Y-96526904D01*
X46991428Y-96526904D01*
X45772380Y-96526904D02*
X46229523Y-96526904D01*
X46000952Y-96526904D02*
X46000952Y-95726904D01*
X46077142Y-95841190D01*
X46153333Y-95917380D01*
X46229523Y-95955476D01*
X45505714Y-95726904D02*
X45010476Y-95726904D01*
X45277142Y-96031666D01*
X45162857Y-96031666D01*
X45086666Y-96069761D01*
X45048571Y-96107857D01*
X45010476Y-96184047D01*
X45010476Y-96374523D01*
X45048571Y-96450714D01*
X45086666Y-96488809D01*
X45162857Y-96526904D01*
X45391428Y-96526904D01*
X45467619Y-96488809D01*
X45505714Y-96450714D01*
%TO.C,D5*%
X122610476Y-77526904D02*
X122610476Y-76726904D01*
X122420000Y-76726904D01*
X122305714Y-76765000D01*
X122229523Y-76841190D01*
X122191428Y-76917380D01*
X122153333Y-77069761D01*
X122153333Y-77184047D01*
X122191428Y-77336428D01*
X122229523Y-77412619D01*
X122305714Y-77488809D01*
X122420000Y-77526904D01*
X122610476Y-77526904D01*
X121429523Y-76726904D02*
X121810476Y-76726904D01*
X121848571Y-77107857D01*
X121810476Y-77069761D01*
X121734285Y-77031666D01*
X121543809Y-77031666D01*
X121467619Y-77069761D01*
X121429523Y-77107857D01*
X121391428Y-77184047D01*
X121391428Y-77374523D01*
X121429523Y-77450714D01*
X121467619Y-77488809D01*
X121543809Y-77526904D01*
X121734285Y-77526904D01*
X121810476Y-77488809D01*
X121848571Y-77450714D01*
%TO.C,D33*%
X198991428Y-115526904D02*
X198991428Y-114726904D01*
X198800952Y-114726904D01*
X198686666Y-114765000D01*
X198610476Y-114841190D01*
X198572380Y-114917380D01*
X198534285Y-115069761D01*
X198534285Y-115184047D01*
X198572380Y-115336428D01*
X198610476Y-115412619D01*
X198686666Y-115488809D01*
X198800952Y-115526904D01*
X198991428Y-115526904D01*
X198267619Y-114726904D02*
X197772380Y-114726904D01*
X198039047Y-115031666D01*
X197924761Y-115031666D01*
X197848571Y-115069761D01*
X197810476Y-115107857D01*
X197772380Y-115184047D01*
X197772380Y-115374523D01*
X197810476Y-115450714D01*
X197848571Y-115488809D01*
X197924761Y-115526904D01*
X198153333Y-115526904D01*
X198229523Y-115488809D01*
X198267619Y-115450714D01*
X197505714Y-114726904D02*
X197010476Y-114726904D01*
X197277142Y-115031666D01*
X197162857Y-115031666D01*
X197086666Y-115069761D01*
X197048571Y-115107857D01*
X197010476Y-115184047D01*
X197010476Y-115374523D01*
X197048571Y-115450714D01*
X197086666Y-115488809D01*
X197162857Y-115526904D01*
X197391428Y-115526904D01*
X197467619Y-115488809D01*
X197505714Y-115450714D01*
%TO.C,D30*%
X141991428Y-115526904D02*
X141991428Y-114726904D01*
X141800952Y-114726904D01*
X141686666Y-114765000D01*
X141610476Y-114841190D01*
X141572380Y-114917380D01*
X141534285Y-115069761D01*
X141534285Y-115184047D01*
X141572380Y-115336428D01*
X141610476Y-115412619D01*
X141686666Y-115488809D01*
X141800952Y-115526904D01*
X141991428Y-115526904D01*
X141267619Y-114726904D02*
X140772380Y-114726904D01*
X141039047Y-115031666D01*
X140924761Y-115031666D01*
X140848571Y-115069761D01*
X140810476Y-115107857D01*
X140772380Y-115184047D01*
X140772380Y-115374523D01*
X140810476Y-115450714D01*
X140848571Y-115488809D01*
X140924761Y-115526904D01*
X141153333Y-115526904D01*
X141229523Y-115488809D01*
X141267619Y-115450714D01*
X140277142Y-114726904D02*
X140200952Y-114726904D01*
X140124761Y-114765000D01*
X140086666Y-114803095D01*
X140048571Y-114879285D01*
X140010476Y-115031666D01*
X140010476Y-115222142D01*
X140048571Y-115374523D01*
X140086666Y-115450714D01*
X140124761Y-115488809D01*
X140200952Y-115526904D01*
X140277142Y-115526904D01*
X140353333Y-115488809D01*
X140391428Y-115450714D01*
X140429523Y-115374523D01*
X140467619Y-115222142D01*
X140467619Y-115031666D01*
X140429523Y-114879285D01*
X140391428Y-114803095D01*
X140353333Y-114765000D01*
X140277142Y-114726904D01*
%TO.C,D27*%
X84991428Y-115526904D02*
X84991428Y-114726904D01*
X84800952Y-114726904D01*
X84686666Y-114765000D01*
X84610476Y-114841190D01*
X84572380Y-114917380D01*
X84534285Y-115069761D01*
X84534285Y-115184047D01*
X84572380Y-115336428D01*
X84610476Y-115412619D01*
X84686666Y-115488809D01*
X84800952Y-115526904D01*
X84991428Y-115526904D01*
X84229523Y-114803095D02*
X84191428Y-114765000D01*
X84115238Y-114726904D01*
X83924761Y-114726904D01*
X83848571Y-114765000D01*
X83810476Y-114803095D01*
X83772380Y-114879285D01*
X83772380Y-114955476D01*
X83810476Y-115069761D01*
X84267619Y-115526904D01*
X83772380Y-115526904D01*
X83505714Y-114726904D02*
X82972380Y-114726904D01*
X83315238Y-115526904D01*
%TO.C,D25*%
X46991428Y-115526904D02*
X46991428Y-114726904D01*
X46800952Y-114726904D01*
X46686666Y-114765000D01*
X46610476Y-114841190D01*
X46572380Y-114917380D01*
X46534285Y-115069761D01*
X46534285Y-115184047D01*
X46572380Y-115336428D01*
X46610476Y-115412619D01*
X46686666Y-115488809D01*
X46800952Y-115526904D01*
X46991428Y-115526904D01*
X46229523Y-114803095D02*
X46191428Y-114765000D01*
X46115238Y-114726904D01*
X45924761Y-114726904D01*
X45848571Y-114765000D01*
X45810476Y-114803095D01*
X45772380Y-114879285D01*
X45772380Y-114955476D01*
X45810476Y-115069761D01*
X46267619Y-115526904D01*
X45772380Y-115526904D01*
X45048571Y-114726904D02*
X45429523Y-114726904D01*
X45467619Y-115107857D01*
X45429523Y-115069761D01*
X45353333Y-115031666D01*
X45162857Y-115031666D01*
X45086666Y-115069761D01*
X45048571Y-115107857D01*
X45010476Y-115184047D01*
X45010476Y-115374523D01*
X45048571Y-115450714D01*
X45086666Y-115488809D01*
X45162857Y-115526904D01*
X45353333Y-115526904D01*
X45429523Y-115488809D01*
X45467619Y-115450714D01*
%TO.C,D45*%
X198991428Y-134526904D02*
X198991428Y-133726904D01*
X198800952Y-133726904D01*
X198686666Y-133765000D01*
X198610476Y-133841190D01*
X198572380Y-133917380D01*
X198534285Y-134069761D01*
X198534285Y-134184047D01*
X198572380Y-134336428D01*
X198610476Y-134412619D01*
X198686666Y-134488809D01*
X198800952Y-134526904D01*
X198991428Y-134526904D01*
X197848571Y-133993571D02*
X197848571Y-134526904D01*
X198039047Y-133688809D02*
X198229523Y-134260238D01*
X197734285Y-134260238D01*
X197048571Y-133726904D02*
X197429523Y-133726904D01*
X197467619Y-134107857D01*
X197429523Y-134069761D01*
X197353333Y-134031666D01*
X197162857Y-134031666D01*
X197086666Y-134069761D01*
X197048571Y-134107857D01*
X197010476Y-134184047D01*
X197010476Y-134374523D01*
X197048571Y-134450714D01*
X197086666Y-134488809D01*
X197162857Y-134526904D01*
X197353333Y-134526904D01*
X197429523Y-134488809D01*
X197467619Y-134450714D01*
%TO.C,D20*%
X179991428Y-96526904D02*
X179991428Y-95726904D01*
X179800952Y-95726904D01*
X179686666Y-95765000D01*
X179610476Y-95841190D01*
X179572380Y-95917380D01*
X179534285Y-96069761D01*
X179534285Y-96184047D01*
X179572380Y-96336428D01*
X179610476Y-96412619D01*
X179686666Y-96488809D01*
X179800952Y-96526904D01*
X179991428Y-96526904D01*
X179229523Y-95803095D02*
X179191428Y-95765000D01*
X179115238Y-95726904D01*
X178924761Y-95726904D01*
X178848571Y-95765000D01*
X178810476Y-95803095D01*
X178772380Y-95879285D01*
X178772380Y-95955476D01*
X178810476Y-96069761D01*
X179267619Y-96526904D01*
X178772380Y-96526904D01*
X178277142Y-95726904D02*
X178200952Y-95726904D01*
X178124761Y-95765000D01*
X178086666Y-95803095D01*
X178048571Y-95879285D01*
X178010476Y-96031666D01*
X178010476Y-96222142D01*
X178048571Y-96374523D01*
X178086666Y-96450714D01*
X178124761Y-96488809D01*
X178200952Y-96526904D01*
X178277142Y-96526904D01*
X178353333Y-96488809D01*
X178391428Y-96450714D01*
X178429523Y-96374523D01*
X178467619Y-96222142D01*
X178467619Y-96031666D01*
X178429523Y-95879285D01*
X178391428Y-95803095D01*
X178353333Y-95765000D01*
X178277142Y-95726904D01*
%TO.C,D38*%
X65991428Y-134526904D02*
X65991428Y-133726904D01*
X65800952Y-133726904D01*
X65686666Y-133765000D01*
X65610476Y-133841190D01*
X65572380Y-133917380D01*
X65534285Y-134069761D01*
X65534285Y-134184047D01*
X65572380Y-134336428D01*
X65610476Y-134412619D01*
X65686666Y-134488809D01*
X65800952Y-134526904D01*
X65991428Y-134526904D01*
X65267619Y-133726904D02*
X64772380Y-133726904D01*
X65039047Y-134031666D01*
X64924761Y-134031666D01*
X64848571Y-134069761D01*
X64810476Y-134107857D01*
X64772380Y-134184047D01*
X64772380Y-134374523D01*
X64810476Y-134450714D01*
X64848571Y-134488809D01*
X64924761Y-134526904D01*
X65153333Y-134526904D01*
X65229523Y-134488809D01*
X65267619Y-134450714D01*
X64315238Y-134069761D02*
X64391428Y-134031666D01*
X64429523Y-133993571D01*
X64467619Y-133917380D01*
X64467619Y-133879285D01*
X64429523Y-133803095D01*
X64391428Y-133765000D01*
X64315238Y-133726904D01*
X64162857Y-133726904D01*
X64086666Y-133765000D01*
X64048571Y-133803095D01*
X64010476Y-133879285D01*
X64010476Y-133917380D01*
X64048571Y-133993571D01*
X64086666Y-134031666D01*
X64162857Y-134069761D01*
X64315238Y-134069761D01*
X64391428Y-134107857D01*
X64429523Y-134145952D01*
X64467619Y-134222142D01*
X64467619Y-134374523D01*
X64429523Y-134450714D01*
X64391428Y-134488809D01*
X64315238Y-134526904D01*
X64162857Y-134526904D01*
X64086666Y-134488809D01*
X64048571Y-134450714D01*
X64010476Y-134374523D01*
X64010476Y-134222142D01*
X64048571Y-134145952D01*
X64086666Y-134107857D01*
X64162857Y-134069761D01*
%TO.C,D43*%
X160991428Y-134526904D02*
X160991428Y-133726904D01*
X160800952Y-133726904D01*
X160686666Y-133765000D01*
X160610476Y-133841190D01*
X160572380Y-133917380D01*
X160534285Y-134069761D01*
X160534285Y-134184047D01*
X160572380Y-134336428D01*
X160610476Y-134412619D01*
X160686666Y-134488809D01*
X160800952Y-134526904D01*
X160991428Y-134526904D01*
X159848571Y-133993571D02*
X159848571Y-134526904D01*
X160039047Y-133688809D02*
X160229523Y-134260238D01*
X159734285Y-134260238D01*
X159505714Y-133726904D02*
X159010476Y-133726904D01*
X159277142Y-134031666D01*
X159162857Y-134031666D01*
X159086666Y-134069761D01*
X159048571Y-134107857D01*
X159010476Y-134184047D01*
X159010476Y-134374523D01*
X159048571Y-134450714D01*
X159086666Y-134488809D01*
X159162857Y-134526904D01*
X159391428Y-134526904D01*
X159467619Y-134488809D01*
X159505714Y-134450714D01*
%TO.C,D44*%
X179991428Y-134526904D02*
X179991428Y-133726904D01*
X179800952Y-133726904D01*
X179686666Y-133765000D01*
X179610476Y-133841190D01*
X179572380Y-133917380D01*
X179534285Y-134069761D01*
X179534285Y-134184047D01*
X179572380Y-134336428D01*
X179610476Y-134412619D01*
X179686666Y-134488809D01*
X179800952Y-134526904D01*
X179991428Y-134526904D01*
X178848571Y-133993571D02*
X178848571Y-134526904D01*
X179039047Y-133688809D02*
X179229523Y-134260238D01*
X178734285Y-134260238D01*
X178086666Y-133993571D02*
X178086666Y-134526904D01*
X178277142Y-133688809D02*
X178467619Y-134260238D01*
X177972380Y-134260238D01*
%TO.C,D32*%
X179991428Y-115526904D02*
X179991428Y-114726904D01*
X179800952Y-114726904D01*
X179686666Y-114765000D01*
X179610476Y-114841190D01*
X179572380Y-114917380D01*
X179534285Y-115069761D01*
X179534285Y-115184047D01*
X179572380Y-115336428D01*
X179610476Y-115412619D01*
X179686666Y-115488809D01*
X179800952Y-115526904D01*
X179991428Y-115526904D01*
X179267619Y-114726904D02*
X178772380Y-114726904D01*
X179039047Y-115031666D01*
X178924761Y-115031666D01*
X178848571Y-115069761D01*
X178810476Y-115107857D01*
X178772380Y-115184047D01*
X178772380Y-115374523D01*
X178810476Y-115450714D01*
X178848571Y-115488809D01*
X178924761Y-115526904D01*
X179153333Y-115526904D01*
X179229523Y-115488809D01*
X179267619Y-115450714D01*
X178467619Y-114803095D02*
X178429523Y-114765000D01*
X178353333Y-114726904D01*
X178162857Y-114726904D01*
X178086666Y-114765000D01*
X178048571Y-114803095D01*
X178010476Y-114879285D01*
X178010476Y-114955476D01*
X178048571Y-115069761D01*
X178505714Y-115526904D01*
X178010476Y-115526904D01*
%TO.C,D22*%
X217991428Y-96526904D02*
X217991428Y-95726904D01*
X217800952Y-95726904D01*
X217686666Y-95765000D01*
X217610476Y-95841190D01*
X217572380Y-95917380D01*
X217534285Y-96069761D01*
X217534285Y-96184047D01*
X217572380Y-96336428D01*
X217610476Y-96412619D01*
X217686666Y-96488809D01*
X217800952Y-96526904D01*
X217991428Y-96526904D01*
X217229523Y-95803095D02*
X217191428Y-95765000D01*
X217115238Y-95726904D01*
X216924761Y-95726904D01*
X216848571Y-95765000D01*
X216810476Y-95803095D01*
X216772380Y-95879285D01*
X216772380Y-95955476D01*
X216810476Y-96069761D01*
X217267619Y-96526904D01*
X216772380Y-96526904D01*
X216467619Y-95803095D02*
X216429523Y-95765000D01*
X216353333Y-95726904D01*
X216162857Y-95726904D01*
X216086666Y-95765000D01*
X216048571Y-95803095D01*
X216010476Y-95879285D01*
X216010476Y-95955476D01*
X216048571Y-96069761D01*
X216505714Y-96526904D01*
X216010476Y-96526904D01*
%TO.C,D3*%
X84610476Y-77526904D02*
X84610476Y-76726904D01*
X84420000Y-76726904D01*
X84305714Y-76765000D01*
X84229523Y-76841190D01*
X84191428Y-76917380D01*
X84153333Y-77069761D01*
X84153333Y-77184047D01*
X84191428Y-77336428D01*
X84229523Y-77412619D01*
X84305714Y-77488809D01*
X84420000Y-77526904D01*
X84610476Y-77526904D01*
X83886666Y-76726904D02*
X83391428Y-76726904D01*
X83658095Y-77031666D01*
X83543809Y-77031666D01*
X83467619Y-77069761D01*
X83429523Y-77107857D01*
X83391428Y-77184047D01*
X83391428Y-77374523D01*
X83429523Y-77450714D01*
X83467619Y-77488809D01*
X83543809Y-77526904D01*
X83772380Y-77526904D01*
X83848571Y-77488809D01*
X83886666Y-77450714D01*
%TO.C,D15*%
X84991428Y-96526904D02*
X84991428Y-95726904D01*
X84800952Y-95726904D01*
X84686666Y-95765000D01*
X84610476Y-95841190D01*
X84572380Y-95917380D01*
X84534285Y-96069761D01*
X84534285Y-96184047D01*
X84572380Y-96336428D01*
X84610476Y-96412619D01*
X84686666Y-96488809D01*
X84800952Y-96526904D01*
X84991428Y-96526904D01*
X83772380Y-96526904D02*
X84229523Y-96526904D01*
X84000952Y-96526904D02*
X84000952Y-95726904D01*
X84077142Y-95841190D01*
X84153333Y-95917380D01*
X84229523Y-95955476D01*
X83048571Y-95726904D02*
X83429523Y-95726904D01*
X83467619Y-96107857D01*
X83429523Y-96069761D01*
X83353333Y-96031666D01*
X83162857Y-96031666D01*
X83086666Y-96069761D01*
X83048571Y-96107857D01*
X83010476Y-96184047D01*
X83010476Y-96374523D01*
X83048571Y-96450714D01*
X83086666Y-96488809D01*
X83162857Y-96526904D01*
X83353333Y-96526904D01*
X83429523Y-96488809D01*
X83467619Y-96450714D01*
%TO.C,D46*%
X217991428Y-134526904D02*
X217991428Y-133726904D01*
X217800952Y-133726904D01*
X217686666Y-133765000D01*
X217610476Y-133841190D01*
X217572380Y-133917380D01*
X217534285Y-134069761D01*
X217534285Y-134184047D01*
X217572380Y-134336428D01*
X217610476Y-134412619D01*
X217686666Y-134488809D01*
X217800952Y-134526904D01*
X217991428Y-134526904D01*
X216848571Y-133993571D02*
X216848571Y-134526904D01*
X217039047Y-133688809D02*
X217229523Y-134260238D01*
X216734285Y-134260238D01*
X216086666Y-133726904D02*
X216239047Y-133726904D01*
X216315238Y-133765000D01*
X216353333Y-133803095D01*
X216429523Y-133917380D01*
X216467619Y-134069761D01*
X216467619Y-134374523D01*
X216429523Y-134450714D01*
X216391428Y-134488809D01*
X216315238Y-134526904D01*
X216162857Y-134526904D01*
X216086666Y-134488809D01*
X216048571Y-134450714D01*
X216010476Y-134374523D01*
X216010476Y-134184047D01*
X216048571Y-134107857D01*
X216086666Y-134069761D01*
X216162857Y-134031666D01*
X216315238Y-134031666D01*
X216391428Y-134069761D01*
X216429523Y-134107857D01*
X216467619Y-134184047D01*
%TO.C,D16*%
X103991428Y-96526904D02*
X103991428Y-95726904D01*
X103800952Y-95726904D01*
X103686666Y-95765000D01*
X103610476Y-95841190D01*
X103572380Y-95917380D01*
X103534285Y-96069761D01*
X103534285Y-96184047D01*
X103572380Y-96336428D01*
X103610476Y-96412619D01*
X103686666Y-96488809D01*
X103800952Y-96526904D01*
X103991428Y-96526904D01*
X102772380Y-96526904D02*
X103229523Y-96526904D01*
X103000952Y-96526904D02*
X103000952Y-95726904D01*
X103077142Y-95841190D01*
X103153333Y-95917380D01*
X103229523Y-95955476D01*
X102086666Y-95726904D02*
X102239047Y-95726904D01*
X102315238Y-95765000D01*
X102353333Y-95803095D01*
X102429523Y-95917380D01*
X102467619Y-96069761D01*
X102467619Y-96374523D01*
X102429523Y-96450714D01*
X102391428Y-96488809D01*
X102315238Y-96526904D01*
X102162857Y-96526904D01*
X102086666Y-96488809D01*
X102048571Y-96450714D01*
X102010476Y-96374523D01*
X102010476Y-96184047D01*
X102048571Y-96107857D01*
X102086666Y-96069761D01*
X102162857Y-96031666D01*
X102315238Y-96031666D01*
X102391428Y-96069761D01*
X102429523Y-96107857D01*
X102467619Y-96184047D01*
%TO.C,D35*%
X236991428Y-115526904D02*
X236991428Y-114726904D01*
X236800952Y-114726904D01*
X236686666Y-114765000D01*
X236610476Y-114841190D01*
X236572380Y-114917380D01*
X236534285Y-115069761D01*
X236534285Y-115184047D01*
X236572380Y-115336428D01*
X236610476Y-115412619D01*
X236686666Y-115488809D01*
X236800952Y-115526904D01*
X236991428Y-115526904D01*
X236267619Y-114726904D02*
X235772380Y-114726904D01*
X236039047Y-115031666D01*
X235924761Y-115031666D01*
X235848571Y-115069761D01*
X235810476Y-115107857D01*
X235772380Y-115184047D01*
X235772380Y-115374523D01*
X235810476Y-115450714D01*
X235848571Y-115488809D01*
X235924761Y-115526904D01*
X236153333Y-115526904D01*
X236229523Y-115488809D01*
X236267619Y-115450714D01*
X235048571Y-114726904D02*
X235429523Y-114726904D01*
X235467619Y-115107857D01*
X235429523Y-115069761D01*
X235353333Y-115031666D01*
X235162857Y-115031666D01*
X235086666Y-115069761D01*
X235048571Y-115107857D01*
X235010476Y-115184047D01*
X235010476Y-115374523D01*
X235048571Y-115450714D01*
X235086666Y-115488809D01*
X235162857Y-115526904D01*
X235353333Y-115526904D01*
X235429523Y-115488809D01*
X235467619Y-115450714D01*
%TO.C,D34*%
X217991428Y-115526904D02*
X217991428Y-114726904D01*
X217800952Y-114726904D01*
X217686666Y-114765000D01*
X217610476Y-114841190D01*
X217572380Y-114917380D01*
X217534285Y-115069761D01*
X217534285Y-115184047D01*
X217572380Y-115336428D01*
X217610476Y-115412619D01*
X217686666Y-115488809D01*
X217800952Y-115526904D01*
X217991428Y-115526904D01*
X217267619Y-114726904D02*
X216772380Y-114726904D01*
X217039047Y-115031666D01*
X216924761Y-115031666D01*
X216848571Y-115069761D01*
X216810476Y-115107857D01*
X216772380Y-115184047D01*
X216772380Y-115374523D01*
X216810476Y-115450714D01*
X216848571Y-115488809D01*
X216924761Y-115526904D01*
X217153333Y-115526904D01*
X217229523Y-115488809D01*
X217267619Y-115450714D01*
X216086666Y-114993571D02*
X216086666Y-115526904D01*
X216277142Y-114688809D02*
X216467619Y-115260238D01*
X215972380Y-115260238D01*
%TO.C,D19*%
X160991428Y-96526904D02*
X160991428Y-95726904D01*
X160800952Y-95726904D01*
X160686666Y-95765000D01*
X160610476Y-95841190D01*
X160572380Y-95917380D01*
X160534285Y-96069761D01*
X160534285Y-96184047D01*
X160572380Y-96336428D01*
X160610476Y-96412619D01*
X160686666Y-96488809D01*
X160800952Y-96526904D01*
X160991428Y-96526904D01*
X159772380Y-96526904D02*
X160229523Y-96526904D01*
X160000952Y-96526904D02*
X160000952Y-95726904D01*
X160077142Y-95841190D01*
X160153333Y-95917380D01*
X160229523Y-95955476D01*
X159391428Y-96526904D02*
X159239047Y-96526904D01*
X159162857Y-96488809D01*
X159124761Y-96450714D01*
X159048571Y-96336428D01*
X159010476Y-96184047D01*
X159010476Y-95879285D01*
X159048571Y-95803095D01*
X159086666Y-95765000D01*
X159162857Y-95726904D01*
X159315238Y-95726904D01*
X159391428Y-95765000D01*
X159429523Y-95803095D01*
X159467619Y-95879285D01*
X159467619Y-96069761D01*
X159429523Y-96145952D01*
X159391428Y-96184047D01*
X159315238Y-96222142D01*
X159162857Y-96222142D01*
X159086666Y-96184047D01*
X159048571Y-96145952D01*
X159010476Y-96069761D01*
%TO.C,Pro-Micro1*%
X149910000Y-61705000D02*
X144830000Y-61705000D01*
X144830000Y-59165000D02*
X137210000Y-59165000D01*
X132130000Y-92185000D02*
X149910000Y-92185000D01*
X132130000Y-61705000D02*
X132130000Y-92185000D01*
X144830000Y-61705000D02*
X144830000Y-59165000D01*
X149910000Y-61705000D02*
X149910000Y-92185000D01*
X137210000Y-61705000D02*
X132130000Y-61705000D01*
X137210000Y-59165000D02*
X137210000Y-61705000D01*
D11*
%TO.C,D39*%
X81220000Y-133440000D02*
X87020000Y-133440000D01*
X81220000Y-131040000D02*
X81220000Y-133440000D01*
X86470000Y-131040000D02*
X86470000Y-133440000D01*
X87045000Y-133440000D02*
X87045000Y-131040000D01*
X87020000Y-131040000D02*
X81220000Y-131040000D01*
X86645000Y-131040000D02*
X86645000Y-133440000D01*
X86820000Y-131040000D02*
X86820000Y-133440000D01*
X86295000Y-131040000D02*
X86295000Y-133440000D01*
X86945000Y-131040000D02*
X86945000Y-133440000D01*
%TO.C,D26*%
X67645000Y-112040000D02*
X67645000Y-114440000D01*
X67945000Y-112040000D02*
X67945000Y-114440000D01*
X67295000Y-112040000D02*
X67295000Y-114440000D01*
X62220000Y-112040000D02*
X62220000Y-114440000D01*
X68045000Y-114440000D02*
X68045000Y-112040000D01*
X67820000Y-112040000D02*
X67820000Y-114440000D01*
X68020000Y-112040000D02*
X62220000Y-112040000D01*
X67470000Y-112040000D02*
X67470000Y-114440000D01*
X62220000Y-114440000D02*
X68020000Y-114440000D01*
%TO.C,D11*%
X233220000Y-74040000D02*
X233220000Y-76440000D01*
X239020000Y-74040000D02*
X233220000Y-74040000D01*
X239045000Y-76440000D02*
X239045000Y-74040000D01*
X238820000Y-74040000D02*
X238820000Y-76440000D01*
X238645000Y-74040000D02*
X238645000Y-76440000D01*
X238295000Y-74040000D02*
X238295000Y-76440000D01*
X238945000Y-74040000D02*
X238945000Y-76440000D01*
X238470000Y-74040000D02*
X238470000Y-76440000D01*
X233220000Y-76440000D02*
X239020000Y-76440000D01*
%TO.C,D18*%
X143945000Y-93040000D02*
X143945000Y-95440000D01*
X144020000Y-93040000D02*
X138220000Y-93040000D01*
X138220000Y-93040000D02*
X138220000Y-95440000D01*
X143820000Y-93040000D02*
X143820000Y-95440000D01*
X143470000Y-93040000D02*
X143470000Y-95440000D01*
X138220000Y-95440000D02*
X144020000Y-95440000D01*
X143645000Y-93040000D02*
X143645000Y-95440000D01*
X143295000Y-93040000D02*
X143295000Y-95440000D01*
X144045000Y-95440000D02*
X144045000Y-93040000D01*
%TO.C,D10*%
X220045000Y-76440000D02*
X220045000Y-74040000D01*
X220020000Y-74040000D02*
X214220000Y-74040000D01*
X219295000Y-74040000D02*
X219295000Y-76440000D01*
X219945000Y-74040000D02*
X219945000Y-76440000D01*
X214220000Y-76440000D02*
X220020000Y-76440000D01*
X214220000Y-74040000D02*
X214220000Y-76440000D01*
X219470000Y-74040000D02*
X219470000Y-76440000D01*
X219820000Y-74040000D02*
X219820000Y-76440000D01*
X219645000Y-74040000D02*
X219645000Y-76440000D01*
%TO.C,D23*%
X239020000Y-93040000D02*
X233220000Y-93040000D01*
X238645000Y-93040000D02*
X238645000Y-95440000D01*
X233220000Y-95440000D02*
X239020000Y-95440000D01*
X238295000Y-93040000D02*
X238295000Y-95440000D01*
X233220000Y-93040000D02*
X233220000Y-95440000D01*
X238470000Y-93040000D02*
X238470000Y-95440000D01*
X238820000Y-93040000D02*
X238820000Y-95440000D01*
X238945000Y-93040000D02*
X238945000Y-95440000D01*
X239045000Y-95440000D02*
X239045000Y-93040000D01*
%TO.C,D28*%
X100220000Y-112040000D02*
X100220000Y-114440000D01*
X105470000Y-112040000D02*
X105470000Y-114440000D01*
X100220000Y-114440000D02*
X106020000Y-114440000D01*
X105945000Y-112040000D02*
X105945000Y-114440000D01*
X105295000Y-112040000D02*
X105295000Y-114440000D01*
X105645000Y-112040000D02*
X105645000Y-114440000D01*
X106045000Y-114440000D02*
X106045000Y-112040000D01*
X106020000Y-112040000D02*
X100220000Y-112040000D01*
X105820000Y-112040000D02*
X105820000Y-114440000D01*
%TO.C,D7*%
X163045000Y-76440000D02*
X163045000Y-74040000D01*
X163020000Y-74040000D02*
X157220000Y-74040000D01*
X157220000Y-76440000D02*
X163020000Y-76440000D01*
X162470000Y-74040000D02*
X162470000Y-76440000D01*
X157220000Y-74040000D02*
X157220000Y-76440000D01*
X162945000Y-74040000D02*
X162945000Y-76440000D01*
X162820000Y-74040000D02*
X162820000Y-76440000D01*
X162645000Y-74040000D02*
X162645000Y-76440000D01*
X162295000Y-74040000D02*
X162295000Y-76440000D01*
%TO.C,D37*%
X48645000Y-131040000D02*
X48645000Y-133440000D01*
X48295000Y-131040000D02*
X48295000Y-133440000D01*
X48820000Y-131040000D02*
X48820000Y-133440000D01*
X43220000Y-133440000D02*
X49020000Y-133440000D01*
X49045000Y-133440000D02*
X49045000Y-131040000D01*
X48470000Y-131040000D02*
X48470000Y-133440000D01*
X49020000Y-131040000D02*
X43220000Y-131040000D01*
X43220000Y-131040000D02*
X43220000Y-133440000D01*
X48945000Y-131040000D02*
X48945000Y-133440000D01*
%TO.C,D1*%
X48470000Y-74040000D02*
X48470000Y-76440000D01*
X43220000Y-76440000D02*
X49020000Y-76440000D01*
X48295000Y-74040000D02*
X48295000Y-76440000D01*
X48945000Y-74040000D02*
X48945000Y-76440000D01*
X49045000Y-76440000D02*
X49045000Y-74040000D01*
X49020000Y-74040000D02*
X43220000Y-74040000D01*
X43220000Y-74040000D02*
X43220000Y-76440000D01*
X48820000Y-74040000D02*
X48820000Y-76440000D01*
X48645000Y-74040000D02*
X48645000Y-76440000D01*
%TO.C,D48*%
X257945000Y-131040000D02*
X257945000Y-133440000D01*
X257820000Y-131040000D02*
X257820000Y-133440000D01*
X252220000Y-133440000D02*
X258020000Y-133440000D01*
X258045000Y-133440000D02*
X258045000Y-131040000D01*
X258020000Y-131040000D02*
X252220000Y-131040000D01*
X252220000Y-131040000D02*
X252220000Y-133440000D01*
X257295000Y-131040000D02*
X257295000Y-133440000D01*
X257470000Y-131040000D02*
X257470000Y-133440000D01*
X257645000Y-131040000D02*
X257645000Y-133440000D01*
%TO.C,D47*%
X238295000Y-131040000D02*
X238295000Y-133440000D01*
X233220000Y-133440000D02*
X239020000Y-133440000D01*
X238470000Y-131040000D02*
X238470000Y-133440000D01*
X233220000Y-131040000D02*
X233220000Y-133440000D01*
X239045000Y-133440000D02*
X239045000Y-131040000D01*
X238945000Y-131040000D02*
X238945000Y-133440000D01*
X238645000Y-131040000D02*
X238645000Y-133440000D01*
X238820000Y-131040000D02*
X238820000Y-133440000D01*
X239020000Y-131040000D02*
X233220000Y-131040000D01*
%TO.C,D21*%
X200295000Y-93040000D02*
X200295000Y-95440000D01*
X195220000Y-93040000D02*
X195220000Y-95440000D01*
X200820000Y-93040000D02*
X200820000Y-95440000D01*
X200470000Y-93040000D02*
X200470000Y-95440000D01*
X201045000Y-95440000D02*
X201045000Y-93040000D01*
X195220000Y-95440000D02*
X201020000Y-95440000D01*
X200945000Y-93040000D02*
X200945000Y-95440000D01*
X201020000Y-93040000D02*
X195220000Y-93040000D01*
X200645000Y-93040000D02*
X200645000Y-95440000D01*
%TO.C,D6*%
X144020000Y-74040000D02*
X138220000Y-74040000D01*
X138220000Y-74040000D02*
X138220000Y-76440000D01*
X143945000Y-74040000D02*
X143945000Y-76440000D01*
X143820000Y-74040000D02*
X143820000Y-76440000D01*
X143295000Y-74040000D02*
X143295000Y-76440000D01*
X144045000Y-76440000D02*
X144045000Y-74040000D01*
X138220000Y-76440000D02*
X144020000Y-76440000D01*
X143645000Y-74040000D02*
X143645000Y-76440000D01*
X143470000Y-74040000D02*
X143470000Y-76440000D01*
%TO.C,D31*%
X162645000Y-112040000D02*
X162645000Y-114440000D01*
X162945000Y-112040000D02*
X162945000Y-114440000D01*
X162470000Y-112040000D02*
X162470000Y-114440000D01*
X162820000Y-112040000D02*
X162820000Y-114440000D01*
X157220000Y-114440000D02*
X163020000Y-114440000D01*
X157220000Y-112040000D02*
X157220000Y-114440000D01*
X162295000Y-112040000D02*
X162295000Y-114440000D01*
X163020000Y-112040000D02*
X157220000Y-112040000D01*
X163045000Y-114440000D02*
X163045000Y-112040000D01*
%TO.C,D4*%
X100220000Y-74040000D02*
X100220000Y-76440000D01*
X105470000Y-74040000D02*
X105470000Y-76440000D01*
X105820000Y-74040000D02*
X105820000Y-76440000D01*
X105645000Y-74040000D02*
X105645000Y-76440000D01*
X106020000Y-74040000D02*
X100220000Y-74040000D01*
X106045000Y-76440000D02*
X106045000Y-74040000D01*
X105945000Y-74040000D02*
X105945000Y-76440000D01*
X100220000Y-76440000D02*
X106020000Y-76440000D01*
X105295000Y-74040000D02*
X105295000Y-76440000D01*
%TO.C,D36*%
X257295000Y-112040000D02*
X257295000Y-114440000D01*
X257945000Y-112040000D02*
X257945000Y-114440000D01*
X257645000Y-112040000D02*
X257645000Y-114440000D01*
X258045000Y-114440000D02*
X258045000Y-112040000D01*
X258020000Y-112040000D02*
X252220000Y-112040000D01*
X252220000Y-112040000D02*
X252220000Y-114440000D01*
X257820000Y-112040000D02*
X257820000Y-114440000D01*
X257470000Y-112040000D02*
X257470000Y-114440000D01*
X252220000Y-114440000D02*
X258020000Y-114440000D01*
%TO.C,D14*%
X62220000Y-93040000D02*
X62220000Y-95440000D01*
X68020000Y-93040000D02*
X62220000Y-93040000D01*
X67295000Y-93040000D02*
X67295000Y-95440000D01*
X67945000Y-93040000D02*
X67945000Y-95440000D01*
X67470000Y-93040000D02*
X67470000Y-95440000D01*
X62220000Y-95440000D02*
X68020000Y-95440000D01*
X68045000Y-95440000D02*
X68045000Y-93040000D01*
X67645000Y-93040000D02*
X67645000Y-95440000D01*
X67820000Y-93040000D02*
X67820000Y-95440000D01*
%TO.C,D29*%
X124945000Y-112040000D02*
X124945000Y-114440000D01*
X125045000Y-114440000D02*
X125045000Y-112040000D01*
X124295000Y-112040000D02*
X124295000Y-114440000D01*
X119220000Y-112040000D02*
X119220000Y-114440000D01*
X124470000Y-112040000D02*
X124470000Y-114440000D01*
X124645000Y-112040000D02*
X124645000Y-114440000D01*
X125020000Y-112040000D02*
X119220000Y-112040000D01*
X119220000Y-114440000D02*
X125020000Y-114440000D01*
X124820000Y-112040000D02*
X124820000Y-114440000D01*
%TO.C,D42*%
X138220000Y-133440000D02*
X144020000Y-133440000D01*
X143820000Y-131040000D02*
X143820000Y-133440000D01*
X143470000Y-131040000D02*
X143470000Y-133440000D01*
X143295000Y-131040000D02*
X143295000Y-133440000D01*
X143945000Y-131040000D02*
X143945000Y-133440000D01*
X138220000Y-131040000D02*
X138220000Y-133440000D01*
X143645000Y-131040000D02*
X143645000Y-133440000D01*
X144020000Y-131040000D02*
X138220000Y-131040000D01*
X144045000Y-133440000D02*
X144045000Y-131040000D01*
%TO.C,D41*%
X124945000Y-131040000D02*
X124945000Y-133440000D01*
X125045000Y-133440000D02*
X125045000Y-131040000D01*
X124820000Y-131040000D02*
X124820000Y-133440000D01*
X124470000Y-131040000D02*
X124470000Y-133440000D01*
X125020000Y-131040000D02*
X119220000Y-131040000D01*
X124295000Y-131040000D02*
X124295000Y-133440000D01*
X124645000Y-131040000D02*
X124645000Y-133440000D01*
X119220000Y-133440000D02*
X125020000Y-133440000D01*
X119220000Y-131040000D02*
X119220000Y-133440000D01*
%TO.C,D40*%
X106020000Y-131040000D02*
X100220000Y-131040000D01*
X105470000Y-131040000D02*
X105470000Y-133440000D01*
X105820000Y-131040000D02*
X105820000Y-133440000D01*
X100220000Y-131040000D02*
X100220000Y-133440000D01*
X105945000Y-131040000D02*
X105945000Y-133440000D01*
X106045000Y-133440000D02*
X106045000Y-131040000D01*
X100220000Y-133440000D02*
X106020000Y-133440000D01*
X105645000Y-131040000D02*
X105645000Y-133440000D01*
X105295000Y-131040000D02*
X105295000Y-133440000D01*
%TO.C,D8*%
X181470000Y-74040000D02*
X181470000Y-76440000D01*
X182045000Y-76440000D02*
X182045000Y-74040000D01*
X181645000Y-74040000D02*
X181645000Y-76440000D01*
X181945000Y-74040000D02*
X181945000Y-76440000D01*
X181820000Y-74040000D02*
X181820000Y-76440000D01*
X176220000Y-74040000D02*
X176220000Y-76440000D01*
X176220000Y-76440000D02*
X182020000Y-76440000D01*
X181295000Y-74040000D02*
X181295000Y-76440000D01*
X182020000Y-74040000D02*
X176220000Y-74040000D01*
%TO.C,D17*%
X124295000Y-93040000D02*
X124295000Y-95440000D01*
X125020000Y-93040000D02*
X119220000Y-93040000D01*
X119220000Y-93040000D02*
X119220000Y-95440000D01*
X124945000Y-93040000D02*
X124945000Y-95440000D01*
X119220000Y-95440000D02*
X125020000Y-95440000D01*
X124470000Y-93040000D02*
X124470000Y-95440000D01*
X124645000Y-93040000D02*
X124645000Y-95440000D01*
X125045000Y-95440000D02*
X125045000Y-93040000D01*
X124820000Y-93040000D02*
X124820000Y-95440000D01*
%TO.C,D2*%
X67295000Y-74040000D02*
X67295000Y-76440000D01*
X67820000Y-74040000D02*
X67820000Y-76440000D01*
X67945000Y-74040000D02*
X67945000Y-76440000D01*
X62220000Y-74040000D02*
X62220000Y-76440000D01*
X67470000Y-74040000D02*
X67470000Y-76440000D01*
X67645000Y-74040000D02*
X67645000Y-76440000D01*
X68020000Y-74040000D02*
X62220000Y-74040000D01*
X62220000Y-76440000D02*
X68020000Y-76440000D01*
X68045000Y-76440000D02*
X68045000Y-74040000D01*
%TO.C,D24*%
X257295000Y-93040000D02*
X257295000Y-95440000D01*
X252220000Y-93040000D02*
X252220000Y-95440000D01*
X252220000Y-95440000D02*
X258020000Y-95440000D01*
X257470000Y-93040000D02*
X257470000Y-95440000D01*
X257820000Y-93040000D02*
X257820000Y-95440000D01*
X257645000Y-93040000D02*
X257645000Y-95440000D01*
X258045000Y-95440000D02*
X258045000Y-93040000D01*
X257945000Y-93040000D02*
X257945000Y-95440000D01*
X258020000Y-93040000D02*
X252220000Y-93040000D01*
%TO.C,D9*%
X200645000Y-74040000D02*
X200645000Y-76440000D01*
X200470000Y-74040000D02*
X200470000Y-76440000D01*
X200820000Y-74040000D02*
X200820000Y-76440000D01*
X195220000Y-74040000D02*
X195220000Y-76440000D01*
X200945000Y-74040000D02*
X200945000Y-76440000D01*
X201045000Y-76440000D02*
X201045000Y-74040000D01*
X200295000Y-74040000D02*
X200295000Y-76440000D01*
X195220000Y-76440000D02*
X201020000Y-76440000D01*
X201020000Y-74040000D02*
X195220000Y-74040000D01*
%TO.C,D12*%
X257645000Y-74040000D02*
X257645000Y-76440000D01*
X258020000Y-74040000D02*
X252220000Y-74040000D01*
X252220000Y-76440000D02*
X258020000Y-76440000D01*
X257945000Y-74040000D02*
X257945000Y-76440000D01*
X257820000Y-74040000D02*
X257820000Y-76440000D01*
X257295000Y-74040000D02*
X257295000Y-76440000D01*
X257470000Y-74040000D02*
X257470000Y-76440000D01*
X258045000Y-76440000D02*
X258045000Y-74040000D01*
X252220000Y-74040000D02*
X252220000Y-76440000D01*
%TO.C,D13*%
X48470000Y-93040000D02*
X48470000Y-95440000D01*
X48295000Y-93040000D02*
X48295000Y-95440000D01*
X48820000Y-93040000D02*
X48820000Y-95440000D01*
X49020000Y-93040000D02*
X43220000Y-93040000D01*
X43220000Y-93040000D02*
X43220000Y-95440000D01*
X49045000Y-95440000D02*
X49045000Y-93040000D01*
X48945000Y-93040000D02*
X48945000Y-95440000D01*
X43220000Y-95440000D02*
X49020000Y-95440000D01*
X48645000Y-93040000D02*
X48645000Y-95440000D01*
%TO.C,D5*%
X124295000Y-74040000D02*
X124295000Y-76440000D01*
X119220000Y-74040000D02*
X119220000Y-76440000D01*
X125045000Y-76440000D02*
X125045000Y-74040000D01*
X124470000Y-74040000D02*
X124470000Y-76440000D01*
X124645000Y-74040000D02*
X124645000Y-76440000D01*
X124820000Y-74040000D02*
X124820000Y-76440000D01*
X124945000Y-74040000D02*
X124945000Y-76440000D01*
X125020000Y-74040000D02*
X119220000Y-74040000D01*
X119220000Y-76440000D02*
X125020000Y-76440000D01*
%TO.C,D33*%
X195220000Y-112040000D02*
X195220000Y-114440000D01*
X201020000Y-112040000D02*
X195220000Y-112040000D01*
X200945000Y-112040000D02*
X200945000Y-114440000D01*
X200645000Y-112040000D02*
X200645000Y-114440000D01*
X200470000Y-112040000D02*
X200470000Y-114440000D01*
X195220000Y-114440000D02*
X201020000Y-114440000D01*
X200295000Y-112040000D02*
X200295000Y-114440000D01*
X200820000Y-112040000D02*
X200820000Y-114440000D01*
X201045000Y-114440000D02*
X201045000Y-112040000D01*
%TO.C,D30*%
X144020000Y-112040000D02*
X138220000Y-112040000D01*
X138220000Y-112040000D02*
X138220000Y-114440000D01*
X138220000Y-114440000D02*
X144020000Y-114440000D01*
X143820000Y-112040000D02*
X143820000Y-114440000D01*
X143470000Y-112040000D02*
X143470000Y-114440000D01*
X143645000Y-112040000D02*
X143645000Y-114440000D01*
X143945000Y-112040000D02*
X143945000Y-114440000D01*
X143295000Y-112040000D02*
X143295000Y-114440000D01*
X144045000Y-114440000D02*
X144045000Y-112040000D01*
%TO.C,D27*%
X86820000Y-112040000D02*
X86820000Y-114440000D01*
X87045000Y-114440000D02*
X87045000Y-112040000D01*
X86470000Y-112040000D02*
X86470000Y-114440000D01*
X81220000Y-112040000D02*
X81220000Y-114440000D01*
X87020000Y-112040000D02*
X81220000Y-112040000D01*
X86295000Y-112040000D02*
X86295000Y-114440000D01*
X86645000Y-112040000D02*
X86645000Y-114440000D01*
X86945000Y-112040000D02*
X86945000Y-114440000D01*
X81220000Y-114440000D02*
X87020000Y-114440000D01*
%TO.C,D25*%
X49020000Y-112040000D02*
X43220000Y-112040000D01*
X48470000Y-112040000D02*
X48470000Y-114440000D01*
X48820000Y-112040000D02*
X48820000Y-114440000D01*
X48945000Y-112040000D02*
X48945000Y-114440000D01*
X48295000Y-112040000D02*
X48295000Y-114440000D01*
X48645000Y-112040000D02*
X48645000Y-114440000D01*
X49045000Y-114440000D02*
X49045000Y-112040000D01*
X43220000Y-112040000D02*
X43220000Y-114440000D01*
X43220000Y-114440000D02*
X49020000Y-114440000D01*
%TO.C,D45*%
X200645000Y-131040000D02*
X200645000Y-133440000D01*
X200945000Y-131040000D02*
X200945000Y-133440000D01*
X200295000Y-131040000D02*
X200295000Y-133440000D01*
X201020000Y-131040000D02*
X195220000Y-131040000D01*
X195220000Y-133440000D02*
X201020000Y-133440000D01*
X195220000Y-131040000D02*
X195220000Y-133440000D01*
X200820000Y-131040000D02*
X200820000Y-133440000D01*
X201045000Y-133440000D02*
X201045000Y-131040000D01*
X200470000Y-131040000D02*
X200470000Y-133440000D01*
%TO.C,D20*%
X176220000Y-95440000D02*
X182020000Y-95440000D01*
X181820000Y-93040000D02*
X181820000Y-95440000D01*
X182045000Y-95440000D02*
X182045000Y-93040000D01*
X181645000Y-93040000D02*
X181645000Y-95440000D01*
X182020000Y-93040000D02*
X176220000Y-93040000D01*
X181295000Y-93040000D02*
X181295000Y-95440000D01*
X181945000Y-93040000D02*
X181945000Y-95440000D01*
X181470000Y-93040000D02*
X181470000Y-95440000D01*
X176220000Y-93040000D02*
X176220000Y-95440000D01*
%TO.C,D38*%
X62220000Y-131040000D02*
X62220000Y-133440000D01*
X67820000Y-131040000D02*
X67820000Y-133440000D01*
X62220000Y-133440000D02*
X68020000Y-133440000D01*
X67645000Y-131040000D02*
X67645000Y-133440000D01*
X67470000Y-131040000D02*
X67470000Y-133440000D01*
X67945000Y-131040000D02*
X67945000Y-133440000D01*
X68045000Y-133440000D02*
X68045000Y-131040000D01*
X68020000Y-131040000D02*
X62220000Y-131040000D01*
X67295000Y-131040000D02*
X67295000Y-133440000D01*
%TO.C,D43*%
X157220000Y-131040000D02*
X157220000Y-133440000D01*
X162645000Y-131040000D02*
X162645000Y-133440000D01*
X162470000Y-131040000D02*
X162470000Y-133440000D01*
X157220000Y-133440000D02*
X163020000Y-133440000D01*
X162945000Y-131040000D02*
X162945000Y-133440000D01*
X162295000Y-131040000D02*
X162295000Y-133440000D01*
X162820000Y-131040000D02*
X162820000Y-133440000D01*
X163020000Y-131040000D02*
X157220000Y-131040000D01*
X163045000Y-133440000D02*
X163045000Y-131040000D01*
%TO.C,D44*%
X181470000Y-131040000D02*
X181470000Y-133440000D01*
X181645000Y-131040000D02*
X181645000Y-133440000D01*
X176220000Y-131040000D02*
X176220000Y-133440000D01*
X181295000Y-131040000D02*
X181295000Y-133440000D01*
X182020000Y-131040000D02*
X176220000Y-131040000D01*
X176220000Y-133440000D02*
X182020000Y-133440000D01*
X182045000Y-133440000D02*
X182045000Y-131040000D01*
X181945000Y-131040000D02*
X181945000Y-133440000D01*
X181820000Y-131040000D02*
X181820000Y-133440000D01*
%TO.C,D32*%
X181295000Y-112040000D02*
X181295000Y-114440000D01*
X181470000Y-112040000D02*
X181470000Y-114440000D01*
X176220000Y-114440000D02*
X182020000Y-114440000D01*
X181820000Y-112040000D02*
X181820000Y-114440000D01*
X182045000Y-114440000D02*
X182045000Y-112040000D01*
X182020000Y-112040000D02*
X176220000Y-112040000D01*
X181645000Y-112040000D02*
X181645000Y-114440000D01*
X181945000Y-112040000D02*
X181945000Y-114440000D01*
X176220000Y-112040000D02*
X176220000Y-114440000D01*
%TO.C,D22*%
X219295000Y-93040000D02*
X219295000Y-95440000D01*
X220045000Y-95440000D02*
X220045000Y-93040000D01*
X219820000Y-93040000D02*
X219820000Y-95440000D01*
X219945000Y-93040000D02*
X219945000Y-95440000D01*
X220020000Y-93040000D02*
X214220000Y-93040000D01*
X214220000Y-93040000D02*
X214220000Y-95440000D01*
X219645000Y-93040000D02*
X219645000Y-95440000D01*
X219470000Y-93040000D02*
X219470000Y-95440000D01*
X214220000Y-95440000D02*
X220020000Y-95440000D01*
%TO.C,D3*%
X81220000Y-76440000D02*
X87020000Y-76440000D01*
X87020000Y-74040000D02*
X81220000Y-74040000D01*
X86295000Y-74040000D02*
X86295000Y-76440000D01*
X86820000Y-74040000D02*
X86820000Y-76440000D01*
X86945000Y-74040000D02*
X86945000Y-76440000D01*
X81220000Y-74040000D02*
X81220000Y-76440000D01*
X87045000Y-76440000D02*
X87045000Y-74040000D01*
X86470000Y-74040000D02*
X86470000Y-76440000D01*
X86645000Y-74040000D02*
X86645000Y-76440000D01*
%TO.C,D15*%
X86470000Y-93040000D02*
X86470000Y-95440000D01*
X81220000Y-93040000D02*
X81220000Y-95440000D01*
X87020000Y-93040000D02*
X81220000Y-93040000D01*
X86295000Y-93040000D02*
X86295000Y-95440000D01*
X86645000Y-93040000D02*
X86645000Y-95440000D01*
X87045000Y-95440000D02*
X87045000Y-93040000D01*
X86945000Y-93040000D02*
X86945000Y-95440000D01*
X81220000Y-95440000D02*
X87020000Y-95440000D01*
X86820000Y-93040000D02*
X86820000Y-95440000D01*
%TO.C,D46*%
X219945000Y-131040000D02*
X219945000Y-133440000D01*
X214220000Y-133440000D02*
X220020000Y-133440000D01*
X219645000Y-131040000D02*
X219645000Y-133440000D01*
X219295000Y-131040000D02*
X219295000Y-133440000D01*
X214220000Y-131040000D02*
X214220000Y-133440000D01*
X220020000Y-131040000D02*
X214220000Y-131040000D01*
X219470000Y-131040000D02*
X219470000Y-133440000D01*
X219820000Y-131040000D02*
X219820000Y-133440000D01*
X220045000Y-133440000D02*
X220045000Y-131040000D01*
%TO.C,D16*%
X105470000Y-93040000D02*
X105470000Y-95440000D01*
X100220000Y-93040000D02*
X100220000Y-95440000D01*
X105945000Y-93040000D02*
X105945000Y-95440000D01*
X100220000Y-95440000D02*
X106020000Y-95440000D01*
X106020000Y-93040000D02*
X100220000Y-93040000D01*
X105645000Y-93040000D02*
X105645000Y-95440000D01*
X106045000Y-95440000D02*
X106045000Y-93040000D01*
X105820000Y-93040000D02*
X105820000Y-95440000D01*
X105295000Y-93040000D02*
X105295000Y-95440000D01*
%TO.C,D35*%
X238945000Y-112040000D02*
X238945000Y-114440000D01*
X238645000Y-112040000D02*
X238645000Y-114440000D01*
X238470000Y-112040000D02*
X238470000Y-114440000D01*
X238295000Y-112040000D02*
X238295000Y-114440000D01*
X239020000Y-112040000D02*
X233220000Y-112040000D01*
X233220000Y-114440000D02*
X239020000Y-114440000D01*
X239045000Y-114440000D02*
X239045000Y-112040000D01*
X238820000Y-112040000D02*
X238820000Y-114440000D01*
X233220000Y-112040000D02*
X233220000Y-114440000D01*
%TO.C,D34*%
X220045000Y-114440000D02*
X220045000Y-112040000D01*
X214220000Y-112040000D02*
X214220000Y-114440000D01*
X219470000Y-112040000D02*
X219470000Y-114440000D01*
X220020000Y-112040000D02*
X214220000Y-112040000D01*
X214220000Y-114440000D02*
X220020000Y-114440000D01*
X219295000Y-112040000D02*
X219295000Y-114440000D01*
X219645000Y-112040000D02*
X219645000Y-114440000D01*
X219820000Y-112040000D02*
X219820000Y-114440000D01*
X219945000Y-112040000D02*
X219945000Y-114440000D01*
%TO.C,D19*%
X162645000Y-93040000D02*
X162645000Y-95440000D01*
X162470000Y-93040000D02*
X162470000Y-95440000D01*
X157220000Y-93040000D02*
X157220000Y-95440000D01*
X162945000Y-93040000D02*
X162945000Y-95440000D01*
X163045000Y-95440000D02*
X163045000Y-93040000D01*
X162820000Y-93040000D02*
X162820000Y-95440000D01*
X157220000Y-95440000D02*
X163020000Y-95440000D01*
X162295000Y-93040000D02*
X162295000Y-95440000D01*
X163020000Y-93040000D02*
X157220000Y-93040000D01*
%TD*%
D12*
%TO.C,Pro-Micro1*%
X148640000Y-62975000D03*
D13*
X148640000Y-65515000D03*
X148640000Y-68055000D03*
X148640000Y-70595000D03*
X148640000Y-73135000D03*
X148640000Y-75675000D03*
X148640000Y-78215000D03*
X148640000Y-80755000D03*
X148640000Y-83295000D03*
X148640000Y-85835000D03*
X148640000Y-88375000D03*
X148640000Y-90915000D03*
X133400000Y-90915000D03*
X133400000Y-88375000D03*
X133400000Y-85835000D03*
X133400000Y-83295000D03*
X133400000Y-80755000D03*
X133400000Y-78215000D03*
X133400000Y-75675000D03*
X133400000Y-73135000D03*
X133400000Y-70595000D03*
X133400000Y-68055000D03*
X133400000Y-65515000D03*
X133400000Y-62975000D03*
%TD*%
D12*
%TO.C,D39*%
X87920000Y-132240000D03*
D13*
X80120000Y-132240000D03*
%TD*%
D12*
%TO.C,D26*%
X68920000Y-113240000D03*
D13*
X61120000Y-113240000D03*
%TD*%
D12*
%TO.C,D11*%
X239920000Y-75240000D03*
D13*
X232120000Y-75240000D03*
%TD*%
D12*
%TO.C,D18*%
X144920000Y-94240000D03*
D13*
X137120000Y-94240000D03*
%TD*%
D12*
%TO.C,D10*%
X220920000Y-75240000D03*
D13*
X213120000Y-75240000D03*
%TD*%
D12*
%TO.C,D23*%
X239920000Y-94240000D03*
D13*
X232120000Y-94240000D03*
%TD*%
D12*
%TO.C,D28*%
X106920000Y-113240000D03*
D13*
X99120000Y-113240000D03*
%TD*%
D12*
%TO.C,D7*%
X163920000Y-75240000D03*
D13*
X156120000Y-75240000D03*
%TD*%
D12*
%TO.C,D37*%
X49920000Y-132240000D03*
D13*
X42120000Y-132240000D03*
%TD*%
D12*
%TO.C,D1*%
X49920000Y-75240000D03*
D13*
X42120000Y-75240000D03*
%TD*%
D12*
%TO.C,D48*%
X258920000Y-132240000D03*
D13*
X251120000Y-132240000D03*
%TD*%
D12*
%TO.C,D47*%
X239920000Y-132240000D03*
D13*
X232120000Y-132240000D03*
%TD*%
D12*
%TO.C,D21*%
X201920000Y-94240000D03*
D13*
X194120000Y-94240000D03*
%TD*%
D12*
%TO.C,D6*%
X144920000Y-75240000D03*
D13*
X137120000Y-75240000D03*
%TD*%
D12*
%TO.C,D31*%
X163920000Y-113240000D03*
D13*
X156120000Y-113240000D03*
%TD*%
D12*
%TO.C,D4*%
X106920000Y-75240000D03*
D13*
X99120000Y-75240000D03*
%TD*%
D12*
%TO.C,D36*%
X258920000Y-113240000D03*
D13*
X251120000Y-113240000D03*
%TD*%
D12*
%TO.C,D14*%
X68920000Y-94240000D03*
D13*
X61120000Y-94240000D03*
%TD*%
D12*
%TO.C,D29*%
X125920000Y-113240000D03*
D13*
X118120000Y-113240000D03*
%TD*%
D12*
%TO.C,D42*%
X144920000Y-132240000D03*
D13*
X137120000Y-132240000D03*
%TD*%
D12*
%TO.C,D41*%
X125920000Y-132240000D03*
D13*
X118120000Y-132240000D03*
%TD*%
D12*
%TO.C,D40*%
X106920000Y-132240000D03*
D13*
X99120000Y-132240000D03*
%TD*%
D12*
%TO.C,D8*%
X182920000Y-75240000D03*
D13*
X175120000Y-75240000D03*
%TD*%
D12*
%TO.C,D17*%
X125920000Y-94240000D03*
D13*
X118120000Y-94240000D03*
%TD*%
D12*
%TO.C,D2*%
X68920000Y-75240000D03*
D13*
X61120000Y-75240000D03*
%TD*%
D12*
%TO.C,D24*%
X258920000Y-94240000D03*
D13*
X251120000Y-94240000D03*
%TD*%
D12*
%TO.C,D9*%
X201920000Y-75240000D03*
D13*
X194120000Y-75240000D03*
%TD*%
D12*
%TO.C,D12*%
X258920000Y-75240000D03*
D13*
X251120000Y-75240000D03*
%TD*%
D12*
%TO.C,D13*%
X49920000Y-94240000D03*
D13*
X42120000Y-94240000D03*
%TD*%
D12*
%TO.C,D5*%
X125920000Y-75240000D03*
D13*
X118120000Y-75240000D03*
%TD*%
D12*
%TO.C,D33*%
X201920000Y-113240000D03*
D13*
X194120000Y-113240000D03*
%TD*%
D12*
%TO.C,D30*%
X144920000Y-113240000D03*
D13*
X137120000Y-113240000D03*
%TD*%
D12*
%TO.C,D27*%
X87920000Y-113240000D03*
D13*
X80120000Y-113240000D03*
%TD*%
D12*
%TO.C,D25*%
X49920000Y-113240000D03*
D13*
X42120000Y-113240000D03*
%TD*%
D12*
%TO.C,D45*%
X201920000Y-132240000D03*
D13*
X194120000Y-132240000D03*
%TD*%
D12*
%TO.C,D20*%
X182920000Y-94240000D03*
D13*
X175120000Y-94240000D03*
%TD*%
D12*
%TO.C,D38*%
X68920000Y-132240000D03*
D13*
X61120000Y-132240000D03*
%TD*%
D12*
%TO.C,D43*%
X163920000Y-132240000D03*
D13*
X156120000Y-132240000D03*
%TD*%
D12*
%TO.C,D44*%
X182920000Y-132240000D03*
D13*
X175120000Y-132240000D03*
%TD*%
D12*
%TO.C,D32*%
X182920000Y-113240000D03*
D13*
X175120000Y-113240000D03*
%TD*%
D12*
%TO.C,D22*%
X220920000Y-94240000D03*
D13*
X213120000Y-94240000D03*
%TD*%
D12*
%TO.C,D3*%
X87920000Y-75240000D03*
D13*
X80120000Y-75240000D03*
%TD*%
D12*
%TO.C,D15*%
X87920000Y-94240000D03*
D13*
X80120000Y-94240000D03*
%TD*%
D12*
%TO.C,D46*%
X220920000Y-132240000D03*
D13*
X213120000Y-132240000D03*
%TD*%
D12*
%TO.C,D16*%
X106920000Y-94240000D03*
D13*
X99120000Y-94240000D03*
%TD*%
D12*
%TO.C,D35*%
X239920000Y-113240000D03*
D13*
X232120000Y-113240000D03*
%TD*%
D12*
%TO.C,D34*%
X220920000Y-113240000D03*
D13*
X213120000Y-113240000D03*
%TD*%
D12*
%TO.C,D19*%
X163920000Y-94240000D03*
D13*
X156120000Y-94240000D03*
%TD*%
M02*
