%TF.GenerationSoftware,KiCad,Pcbnew,6.0.3-a3aad9c10e~116~ubuntu21.10.1*%
%TF.CreationDate,2022-04-17T15:15:34+01:00*%
%TF.ProjectId,PCB,5043422e-6b69-4636-9164-5f7063625858,rev?*%
%TF.SameCoordinates,Original*%
%TF.FileFunction,Paste,Top*%
%TF.FilePolarity,Positive*%
%FSLAX46Y46*%
G04 Gerber Fmt 4.6, Leading zero omitted, Abs format (unit mm)*
G04 Created by KiCad (PCBNEW 6.0.3-a3aad9c10e~116~ubuntu21.10.1) date 2022-04-17 15:15:34*
%MOMM*%
%LPD*%
G01*
G04 APERTURE LIST*
G04 Aperture macros list*
%AMFreePoly0*
4,1,13,0.142022,-1.501900,-0.191750,-1.501900,-0.191750,-0.834357,-2.194378,-0.834357,-2.194378,-0.500586,-0.191750,-0.500586,-0.191750,0.500728,-2.194378,0.500728,-2.194378,0.834500,-0.191750,0.834500,-0.191750,1.502042,0.142022,1.502042,0.142022,-1.501900,0.142022,-1.501900,$1*%
%AMFreePoly1*
4,1,13,2.154428,1.148229,0.151800,1.148229,0.151800,0.146915,2.154428,0.146915,2.154428,-0.186856,0.151800,-0.186856,0.151800,-1.188170,2.154428,-1.188170,2.154428,-1.521942,-0.181971,-1.521942,-0.181971,1.482000,2.154428,1.482000,2.154428,1.148229,2.154428,1.148229,$1*%
G04 Aperture macros list end*
%ADD10FreePoly0,0.000000*%
%ADD11FreePoly1,0.000000*%
G04 APERTURE END LIST*
D10*
%TO.C,K2*%
X66380000Y-70940000D03*
D11*
X63700000Y-70920000D03*
%TD*%
D10*
%TO.C,K40*%
X104380000Y-127940000D03*
D11*
X101700000Y-127920000D03*
%TD*%
D10*
%TO.C,K42*%
X142380000Y-127940000D03*
D11*
X139700000Y-127920000D03*
%TD*%
D10*
%TO.C,K35*%
X237380000Y-108940000D03*
D11*
X234700000Y-108920000D03*
%TD*%
D10*
%TO.C,K25*%
X47380000Y-108940000D03*
D11*
X44700000Y-108920000D03*
%TD*%
D10*
%TO.C,K32*%
X180380000Y-108940000D03*
D11*
X177700000Y-108920000D03*
%TD*%
D10*
%TO.C,K27*%
X85380000Y-108940000D03*
D11*
X82700000Y-108920000D03*
%TD*%
D10*
%TO.C,K12*%
X256380000Y-70940000D03*
D11*
X253700000Y-70920000D03*
%TD*%
D10*
%TO.C,K5*%
X123380000Y-70940000D03*
D11*
X120700000Y-70920000D03*
%TD*%
D10*
%TO.C,K7*%
X161380000Y-70940000D03*
D11*
X158700000Y-70920000D03*
%TD*%
D10*
%TO.C,K17*%
X123380000Y-89940000D03*
D11*
X120700000Y-89920000D03*
%TD*%
D10*
%TO.C,K19*%
X161380000Y-89940000D03*
D11*
X158700000Y-89920000D03*
%TD*%
D10*
%TO.C,K4*%
X104380000Y-70940000D03*
D11*
X101700000Y-70920000D03*
%TD*%
D10*
%TO.C,K23*%
X237380000Y-89940000D03*
D11*
X234700000Y-89920000D03*
%TD*%
D10*
%TO.C,K43*%
X161380000Y-127940000D03*
D11*
X158700000Y-127920000D03*
%TD*%
D10*
%TO.C,K10*%
X218380000Y-70940000D03*
D11*
X215700000Y-70920000D03*
%TD*%
D10*
%TO.C,K1*%
X47380000Y-70940000D03*
D11*
X44700000Y-70920000D03*
%TD*%
D10*
%TO.C,K44*%
X180380000Y-127940000D03*
D11*
X177700000Y-127920000D03*
%TD*%
D10*
%TO.C,K18*%
X142380000Y-89940000D03*
D11*
X139700000Y-89920000D03*
%TD*%
D10*
%TO.C,K24*%
X256380000Y-89940000D03*
D11*
X253700000Y-89920000D03*
%TD*%
D10*
%TO.C,K22*%
X218380000Y-89940000D03*
D11*
X215700000Y-89920000D03*
%TD*%
D10*
%TO.C,K46*%
X218380000Y-127940000D03*
D11*
X215700000Y-127920000D03*
%TD*%
D10*
%TO.C,K28*%
X104380000Y-108940000D03*
D11*
X101700000Y-108920000D03*
%TD*%
D10*
%TO.C,K3*%
X85380000Y-70940000D03*
D11*
X82700000Y-70920000D03*
%TD*%
D10*
%TO.C,K9*%
X199380000Y-70940000D03*
D11*
X196700000Y-70920000D03*
%TD*%
D10*
%TO.C,K8*%
X180380000Y-70940000D03*
D11*
X177700000Y-70920000D03*
%TD*%
D10*
%TO.C,K21*%
X199380000Y-89940000D03*
D11*
X196700000Y-89920000D03*
%TD*%
D10*
%TO.C,K29*%
X123380000Y-108940000D03*
D11*
X120700000Y-108920000D03*
%TD*%
D10*
%TO.C,K14*%
X66380000Y-89940000D03*
D11*
X63700000Y-89920000D03*
%TD*%
D10*
%TO.C,K39*%
X85380000Y-127940000D03*
D11*
X82700000Y-127920000D03*
%TD*%
D10*
%TO.C,K6*%
X142380000Y-70940000D03*
D11*
X139700000Y-70920000D03*
%TD*%
D10*
%TO.C,K45*%
X199380000Y-127940000D03*
D11*
X196700000Y-127920000D03*
%TD*%
D10*
%TO.C,K31*%
X161380000Y-108940000D03*
D11*
X158700000Y-108920000D03*
%TD*%
D10*
%TO.C,K26*%
X66380000Y-108940000D03*
D11*
X63700000Y-108920000D03*
%TD*%
D10*
%TO.C,K15*%
X85380000Y-89940000D03*
D11*
X82700000Y-89920000D03*
%TD*%
D10*
%TO.C,K36*%
X256380000Y-108940000D03*
D11*
X253700000Y-108920000D03*
%TD*%
D10*
%TO.C,K30*%
X142380000Y-108940000D03*
D11*
X139700000Y-108920000D03*
%TD*%
D10*
%TO.C,K34*%
X218380000Y-108940000D03*
D11*
X215700000Y-108920000D03*
%TD*%
D10*
%TO.C,K48*%
X256380000Y-127940000D03*
D11*
X253700000Y-127920000D03*
%TD*%
D10*
%TO.C,K11*%
X237380000Y-70940000D03*
D11*
X234700000Y-70920000D03*
%TD*%
D10*
%TO.C,K20*%
X180380000Y-89940000D03*
D11*
X177700000Y-89920000D03*
%TD*%
D10*
%TO.C,K33*%
X199380000Y-108940000D03*
D11*
X196700000Y-108920000D03*
%TD*%
D10*
%TO.C,K41*%
X123380000Y-127940000D03*
D11*
X120700000Y-127920000D03*
%TD*%
D10*
%TO.C,K47*%
X237380000Y-127940000D03*
D11*
X234700000Y-127920000D03*
%TD*%
D10*
%TO.C,K37*%
X47380000Y-127940000D03*
D11*
X44700000Y-127920000D03*
%TD*%
D10*
%TO.C,K16*%
X104380000Y-89940000D03*
D11*
X101700000Y-89920000D03*
%TD*%
D10*
%TO.C,K38*%
X66380000Y-127940000D03*
D11*
X63700000Y-127920000D03*
%TD*%
D10*
%TO.C,K13*%
X47380000Y-89940000D03*
D11*
X44700000Y-89920000D03*
%TD*%
M02*
