%TF.GenerationSoftware,KiCad,Pcbnew,6.0.3-a3aad9c10e~116~ubuntu21.10.1*%
%TF.CreationDate,2022-04-17T15:15:34+01:00*%
%TF.ProjectId,PCB,5043422e-6b69-4636-9164-5f7063625858,rev?*%
%TF.SameCoordinates,Original*%
%TF.FileFunction,Legend,Top*%
%TF.FilePolarity,Positive*%
%FSLAX46Y46*%
G04 Gerber Fmt 4.6, Leading zero omitted, Abs format (unit mm)*
G04 Created by KiCad (PCBNEW 6.0.3-a3aad9c10e~116~ubuntu21.10.1) date 2022-04-17 15:15:34*
%MOMM*%
%LPD*%
G01*
G04 APERTURE LIST*
%ADD10C,0.300000*%
%ADD11C,0.200000*%
%ADD12C,0.150000*%
%ADD13C,4.000000*%
G04 APERTURE END LIST*
D10*
%TO.C,K2*%
X63895142Y-71629428D02*
X63895142Y-70105428D01*
X64766000Y-71629428D02*
X64112857Y-70758571D01*
X64766000Y-70105428D02*
X63895142Y-70976285D01*
X65346571Y-70250571D02*
X65419142Y-70178000D01*
X65564285Y-70105428D01*
X65927142Y-70105428D01*
X66072285Y-70178000D01*
X66144857Y-70250571D01*
X66217428Y-70395714D01*
X66217428Y-70540857D01*
X66144857Y-70758571D01*
X65274000Y-71629428D01*
X66217428Y-71629428D01*
%TO.C,K40*%
X101169428Y-128629428D02*
X101169428Y-127105428D01*
X102040285Y-128629428D02*
X101387142Y-127758571D01*
X102040285Y-127105428D02*
X101169428Y-127976285D01*
X103346571Y-127613428D02*
X103346571Y-128629428D01*
X102983714Y-127032857D02*
X102620857Y-128121428D01*
X103564285Y-128121428D01*
X104435142Y-127105428D02*
X104580285Y-127105428D01*
X104725428Y-127178000D01*
X104798000Y-127250571D01*
X104870571Y-127395714D01*
X104943142Y-127686000D01*
X104943142Y-128048857D01*
X104870571Y-128339142D01*
X104798000Y-128484285D01*
X104725428Y-128556857D01*
X104580285Y-128629428D01*
X104435142Y-128629428D01*
X104290000Y-128556857D01*
X104217428Y-128484285D01*
X104144857Y-128339142D01*
X104072285Y-128048857D01*
X104072285Y-127686000D01*
X104144857Y-127395714D01*
X104217428Y-127250571D01*
X104290000Y-127178000D01*
X104435142Y-127105428D01*
%TO.C,K42*%
X139169428Y-128629428D02*
X139169428Y-127105428D01*
X140040285Y-128629428D02*
X139387142Y-127758571D01*
X140040285Y-127105428D02*
X139169428Y-127976285D01*
X141346571Y-127613428D02*
X141346571Y-128629428D01*
X140983714Y-127032857D02*
X140620857Y-128121428D01*
X141564285Y-128121428D01*
X142072285Y-127250571D02*
X142144857Y-127178000D01*
X142290000Y-127105428D01*
X142652857Y-127105428D01*
X142798000Y-127178000D01*
X142870571Y-127250571D01*
X142943142Y-127395714D01*
X142943142Y-127540857D01*
X142870571Y-127758571D01*
X141999714Y-128629428D01*
X142943142Y-128629428D01*
%TO.C,K35*%
X234169428Y-109629428D02*
X234169428Y-108105428D01*
X235040285Y-109629428D02*
X234387142Y-108758571D01*
X235040285Y-108105428D02*
X234169428Y-108976285D01*
X235548285Y-108105428D02*
X236491714Y-108105428D01*
X235983714Y-108686000D01*
X236201428Y-108686000D01*
X236346571Y-108758571D01*
X236419142Y-108831142D01*
X236491714Y-108976285D01*
X236491714Y-109339142D01*
X236419142Y-109484285D01*
X236346571Y-109556857D01*
X236201428Y-109629428D01*
X235766000Y-109629428D01*
X235620857Y-109556857D01*
X235548285Y-109484285D01*
X237870571Y-108105428D02*
X237144857Y-108105428D01*
X237072285Y-108831142D01*
X237144857Y-108758571D01*
X237290000Y-108686000D01*
X237652857Y-108686000D01*
X237798000Y-108758571D01*
X237870571Y-108831142D01*
X237943142Y-108976285D01*
X237943142Y-109339142D01*
X237870571Y-109484285D01*
X237798000Y-109556857D01*
X237652857Y-109629428D01*
X237290000Y-109629428D01*
X237144857Y-109556857D01*
X237072285Y-109484285D01*
%TO.C,K25*%
X44169428Y-109629428D02*
X44169428Y-108105428D01*
X45040285Y-109629428D02*
X44387142Y-108758571D01*
X45040285Y-108105428D02*
X44169428Y-108976285D01*
X45620857Y-108250571D02*
X45693428Y-108178000D01*
X45838571Y-108105428D01*
X46201428Y-108105428D01*
X46346571Y-108178000D01*
X46419142Y-108250571D01*
X46491714Y-108395714D01*
X46491714Y-108540857D01*
X46419142Y-108758571D01*
X45548285Y-109629428D01*
X46491714Y-109629428D01*
X47870571Y-108105428D02*
X47144857Y-108105428D01*
X47072285Y-108831142D01*
X47144857Y-108758571D01*
X47290000Y-108686000D01*
X47652857Y-108686000D01*
X47798000Y-108758571D01*
X47870571Y-108831142D01*
X47943142Y-108976285D01*
X47943142Y-109339142D01*
X47870571Y-109484285D01*
X47798000Y-109556857D01*
X47652857Y-109629428D01*
X47290000Y-109629428D01*
X47144857Y-109556857D01*
X47072285Y-109484285D01*
%TO.C,K32*%
X177169428Y-109629428D02*
X177169428Y-108105428D01*
X178040285Y-109629428D02*
X177387142Y-108758571D01*
X178040285Y-108105428D02*
X177169428Y-108976285D01*
X178548285Y-108105428D02*
X179491714Y-108105428D01*
X178983714Y-108686000D01*
X179201428Y-108686000D01*
X179346571Y-108758571D01*
X179419142Y-108831142D01*
X179491714Y-108976285D01*
X179491714Y-109339142D01*
X179419142Y-109484285D01*
X179346571Y-109556857D01*
X179201428Y-109629428D01*
X178766000Y-109629428D01*
X178620857Y-109556857D01*
X178548285Y-109484285D01*
X180072285Y-108250571D02*
X180144857Y-108178000D01*
X180290000Y-108105428D01*
X180652857Y-108105428D01*
X180798000Y-108178000D01*
X180870571Y-108250571D01*
X180943142Y-108395714D01*
X180943142Y-108540857D01*
X180870571Y-108758571D01*
X179999714Y-109629428D01*
X180943142Y-109629428D01*
%TO.C,K27*%
X82169428Y-109629428D02*
X82169428Y-108105428D01*
X83040285Y-109629428D02*
X82387142Y-108758571D01*
X83040285Y-108105428D02*
X82169428Y-108976285D01*
X83620857Y-108250571D02*
X83693428Y-108178000D01*
X83838571Y-108105428D01*
X84201428Y-108105428D01*
X84346571Y-108178000D01*
X84419142Y-108250571D01*
X84491714Y-108395714D01*
X84491714Y-108540857D01*
X84419142Y-108758571D01*
X83548285Y-109629428D01*
X84491714Y-109629428D01*
X84999714Y-108105428D02*
X86015714Y-108105428D01*
X85362571Y-109629428D01*
%TO.C,K12*%
X253169428Y-71629428D02*
X253169428Y-70105428D01*
X254040285Y-71629428D02*
X253387142Y-70758571D01*
X254040285Y-70105428D02*
X253169428Y-70976285D01*
X255491714Y-71629428D02*
X254620857Y-71629428D01*
X255056285Y-71629428D02*
X255056285Y-70105428D01*
X254911142Y-70323142D01*
X254766000Y-70468285D01*
X254620857Y-70540857D01*
X256072285Y-70250571D02*
X256144857Y-70178000D01*
X256290000Y-70105428D01*
X256652857Y-70105428D01*
X256798000Y-70178000D01*
X256870571Y-70250571D01*
X256943142Y-70395714D01*
X256943142Y-70540857D01*
X256870571Y-70758571D01*
X255999714Y-71629428D01*
X256943142Y-71629428D01*
%TO.C,K5*%
X120895142Y-71629428D02*
X120895142Y-70105428D01*
X121766000Y-71629428D02*
X121112857Y-70758571D01*
X121766000Y-70105428D02*
X120895142Y-70976285D01*
X123144857Y-70105428D02*
X122419142Y-70105428D01*
X122346571Y-70831142D01*
X122419142Y-70758571D01*
X122564285Y-70686000D01*
X122927142Y-70686000D01*
X123072285Y-70758571D01*
X123144857Y-70831142D01*
X123217428Y-70976285D01*
X123217428Y-71339142D01*
X123144857Y-71484285D01*
X123072285Y-71556857D01*
X122927142Y-71629428D01*
X122564285Y-71629428D01*
X122419142Y-71556857D01*
X122346571Y-71484285D01*
%TO.C,K7*%
X158895142Y-71629428D02*
X158895142Y-70105428D01*
X159766000Y-71629428D02*
X159112857Y-70758571D01*
X159766000Y-70105428D02*
X158895142Y-70976285D01*
X160274000Y-70105428D02*
X161290000Y-70105428D01*
X160636857Y-71629428D01*
%TO.C,K17*%
X120169428Y-90629428D02*
X120169428Y-89105428D01*
X121040285Y-90629428D02*
X120387142Y-89758571D01*
X121040285Y-89105428D02*
X120169428Y-89976285D01*
X122491714Y-90629428D02*
X121620857Y-90629428D01*
X122056285Y-90629428D02*
X122056285Y-89105428D01*
X121911142Y-89323142D01*
X121766000Y-89468285D01*
X121620857Y-89540857D01*
X122999714Y-89105428D02*
X124015714Y-89105428D01*
X123362571Y-90629428D01*
%TO.C,K19*%
X158169428Y-90629428D02*
X158169428Y-89105428D01*
X159040285Y-90629428D02*
X158387142Y-89758571D01*
X159040285Y-89105428D02*
X158169428Y-89976285D01*
X160491714Y-90629428D02*
X159620857Y-90629428D01*
X160056285Y-90629428D02*
X160056285Y-89105428D01*
X159911142Y-89323142D01*
X159766000Y-89468285D01*
X159620857Y-89540857D01*
X161217428Y-90629428D02*
X161507714Y-90629428D01*
X161652857Y-90556857D01*
X161725428Y-90484285D01*
X161870571Y-90266571D01*
X161943142Y-89976285D01*
X161943142Y-89395714D01*
X161870571Y-89250571D01*
X161798000Y-89178000D01*
X161652857Y-89105428D01*
X161362571Y-89105428D01*
X161217428Y-89178000D01*
X161144857Y-89250571D01*
X161072285Y-89395714D01*
X161072285Y-89758571D01*
X161144857Y-89903714D01*
X161217428Y-89976285D01*
X161362571Y-90048857D01*
X161652857Y-90048857D01*
X161798000Y-89976285D01*
X161870571Y-89903714D01*
X161943142Y-89758571D01*
%TO.C,K4*%
X101895142Y-71629428D02*
X101895142Y-70105428D01*
X102766000Y-71629428D02*
X102112857Y-70758571D01*
X102766000Y-70105428D02*
X101895142Y-70976285D01*
X104072285Y-70613428D02*
X104072285Y-71629428D01*
X103709428Y-70032857D02*
X103346571Y-71121428D01*
X104290000Y-71121428D01*
%TO.C,K23*%
X234169428Y-90629428D02*
X234169428Y-89105428D01*
X235040285Y-90629428D02*
X234387142Y-89758571D01*
X235040285Y-89105428D02*
X234169428Y-89976285D01*
X235620857Y-89250571D02*
X235693428Y-89178000D01*
X235838571Y-89105428D01*
X236201428Y-89105428D01*
X236346571Y-89178000D01*
X236419142Y-89250571D01*
X236491714Y-89395714D01*
X236491714Y-89540857D01*
X236419142Y-89758571D01*
X235548285Y-90629428D01*
X236491714Y-90629428D01*
X236999714Y-89105428D02*
X237943142Y-89105428D01*
X237435142Y-89686000D01*
X237652857Y-89686000D01*
X237798000Y-89758571D01*
X237870571Y-89831142D01*
X237943142Y-89976285D01*
X237943142Y-90339142D01*
X237870571Y-90484285D01*
X237798000Y-90556857D01*
X237652857Y-90629428D01*
X237217428Y-90629428D01*
X237072285Y-90556857D01*
X236999714Y-90484285D01*
%TO.C,K43*%
X158169428Y-128629428D02*
X158169428Y-127105428D01*
X159040285Y-128629428D02*
X158387142Y-127758571D01*
X159040285Y-127105428D02*
X158169428Y-127976285D01*
X160346571Y-127613428D02*
X160346571Y-128629428D01*
X159983714Y-127032857D02*
X159620857Y-128121428D01*
X160564285Y-128121428D01*
X160999714Y-127105428D02*
X161943142Y-127105428D01*
X161435142Y-127686000D01*
X161652857Y-127686000D01*
X161798000Y-127758571D01*
X161870571Y-127831142D01*
X161943142Y-127976285D01*
X161943142Y-128339142D01*
X161870571Y-128484285D01*
X161798000Y-128556857D01*
X161652857Y-128629428D01*
X161217428Y-128629428D01*
X161072285Y-128556857D01*
X160999714Y-128484285D01*
%TO.C,K10*%
X215169428Y-71629428D02*
X215169428Y-70105428D01*
X216040285Y-71629428D02*
X215387142Y-70758571D01*
X216040285Y-70105428D02*
X215169428Y-70976285D01*
X217491714Y-71629428D02*
X216620857Y-71629428D01*
X217056285Y-71629428D02*
X217056285Y-70105428D01*
X216911142Y-70323142D01*
X216766000Y-70468285D01*
X216620857Y-70540857D01*
X218435142Y-70105428D02*
X218580285Y-70105428D01*
X218725428Y-70178000D01*
X218798000Y-70250571D01*
X218870571Y-70395714D01*
X218943142Y-70686000D01*
X218943142Y-71048857D01*
X218870571Y-71339142D01*
X218798000Y-71484285D01*
X218725428Y-71556857D01*
X218580285Y-71629428D01*
X218435142Y-71629428D01*
X218290000Y-71556857D01*
X218217428Y-71484285D01*
X218144857Y-71339142D01*
X218072285Y-71048857D01*
X218072285Y-70686000D01*
X218144857Y-70395714D01*
X218217428Y-70250571D01*
X218290000Y-70178000D01*
X218435142Y-70105428D01*
%TO.C,K1*%
X44895142Y-71629428D02*
X44895142Y-70105428D01*
X45766000Y-71629428D02*
X45112857Y-70758571D01*
X45766000Y-70105428D02*
X44895142Y-70976285D01*
X47217428Y-71629428D02*
X46346571Y-71629428D01*
X46782000Y-71629428D02*
X46782000Y-70105428D01*
X46636857Y-70323142D01*
X46491714Y-70468285D01*
X46346571Y-70540857D01*
%TO.C,K44*%
X177169428Y-128629428D02*
X177169428Y-127105428D01*
X178040285Y-128629428D02*
X177387142Y-127758571D01*
X178040285Y-127105428D02*
X177169428Y-127976285D01*
X179346571Y-127613428D02*
X179346571Y-128629428D01*
X178983714Y-127032857D02*
X178620857Y-128121428D01*
X179564285Y-128121428D01*
X180798000Y-127613428D02*
X180798000Y-128629428D01*
X180435142Y-127032857D02*
X180072285Y-128121428D01*
X181015714Y-128121428D01*
%TO.C,K18*%
X139169428Y-90629428D02*
X139169428Y-89105428D01*
X140040285Y-90629428D02*
X139387142Y-89758571D01*
X140040285Y-89105428D02*
X139169428Y-89976285D01*
X141491714Y-90629428D02*
X140620857Y-90629428D01*
X141056285Y-90629428D02*
X141056285Y-89105428D01*
X140911142Y-89323142D01*
X140766000Y-89468285D01*
X140620857Y-89540857D01*
X142362571Y-89758571D02*
X142217428Y-89686000D01*
X142144857Y-89613428D01*
X142072285Y-89468285D01*
X142072285Y-89395714D01*
X142144857Y-89250571D01*
X142217428Y-89178000D01*
X142362571Y-89105428D01*
X142652857Y-89105428D01*
X142798000Y-89178000D01*
X142870571Y-89250571D01*
X142943142Y-89395714D01*
X142943142Y-89468285D01*
X142870571Y-89613428D01*
X142798000Y-89686000D01*
X142652857Y-89758571D01*
X142362571Y-89758571D01*
X142217428Y-89831142D01*
X142144857Y-89903714D01*
X142072285Y-90048857D01*
X142072285Y-90339142D01*
X142144857Y-90484285D01*
X142217428Y-90556857D01*
X142362571Y-90629428D01*
X142652857Y-90629428D01*
X142798000Y-90556857D01*
X142870571Y-90484285D01*
X142943142Y-90339142D01*
X142943142Y-90048857D01*
X142870571Y-89903714D01*
X142798000Y-89831142D01*
X142652857Y-89758571D01*
%TO.C,K24*%
X253169428Y-90629428D02*
X253169428Y-89105428D01*
X254040285Y-90629428D02*
X253387142Y-89758571D01*
X254040285Y-89105428D02*
X253169428Y-89976285D01*
X254620857Y-89250571D02*
X254693428Y-89178000D01*
X254838571Y-89105428D01*
X255201428Y-89105428D01*
X255346571Y-89178000D01*
X255419142Y-89250571D01*
X255491714Y-89395714D01*
X255491714Y-89540857D01*
X255419142Y-89758571D01*
X254548285Y-90629428D01*
X255491714Y-90629428D01*
X256798000Y-89613428D02*
X256798000Y-90629428D01*
X256435142Y-89032857D02*
X256072285Y-90121428D01*
X257015714Y-90121428D01*
%TO.C,K22*%
X215169428Y-90629428D02*
X215169428Y-89105428D01*
X216040285Y-90629428D02*
X215387142Y-89758571D01*
X216040285Y-89105428D02*
X215169428Y-89976285D01*
X216620857Y-89250571D02*
X216693428Y-89178000D01*
X216838571Y-89105428D01*
X217201428Y-89105428D01*
X217346571Y-89178000D01*
X217419142Y-89250571D01*
X217491714Y-89395714D01*
X217491714Y-89540857D01*
X217419142Y-89758571D01*
X216548285Y-90629428D01*
X217491714Y-90629428D01*
X218072285Y-89250571D02*
X218144857Y-89178000D01*
X218290000Y-89105428D01*
X218652857Y-89105428D01*
X218798000Y-89178000D01*
X218870571Y-89250571D01*
X218943142Y-89395714D01*
X218943142Y-89540857D01*
X218870571Y-89758571D01*
X217999714Y-90629428D01*
X218943142Y-90629428D01*
%TO.C,K46*%
X215169428Y-128629428D02*
X215169428Y-127105428D01*
X216040285Y-128629428D02*
X215387142Y-127758571D01*
X216040285Y-127105428D02*
X215169428Y-127976285D01*
X217346571Y-127613428D02*
X217346571Y-128629428D01*
X216983714Y-127032857D02*
X216620857Y-128121428D01*
X217564285Y-128121428D01*
X218798000Y-127105428D02*
X218507714Y-127105428D01*
X218362571Y-127178000D01*
X218290000Y-127250571D01*
X218144857Y-127468285D01*
X218072285Y-127758571D01*
X218072285Y-128339142D01*
X218144857Y-128484285D01*
X218217428Y-128556857D01*
X218362571Y-128629428D01*
X218652857Y-128629428D01*
X218798000Y-128556857D01*
X218870571Y-128484285D01*
X218943142Y-128339142D01*
X218943142Y-127976285D01*
X218870571Y-127831142D01*
X218798000Y-127758571D01*
X218652857Y-127686000D01*
X218362571Y-127686000D01*
X218217428Y-127758571D01*
X218144857Y-127831142D01*
X218072285Y-127976285D01*
%TO.C,K28*%
X101169428Y-109629428D02*
X101169428Y-108105428D01*
X102040285Y-109629428D02*
X101387142Y-108758571D01*
X102040285Y-108105428D02*
X101169428Y-108976285D01*
X102620857Y-108250571D02*
X102693428Y-108178000D01*
X102838571Y-108105428D01*
X103201428Y-108105428D01*
X103346571Y-108178000D01*
X103419142Y-108250571D01*
X103491714Y-108395714D01*
X103491714Y-108540857D01*
X103419142Y-108758571D01*
X102548285Y-109629428D01*
X103491714Y-109629428D01*
X104362571Y-108758571D02*
X104217428Y-108686000D01*
X104144857Y-108613428D01*
X104072285Y-108468285D01*
X104072285Y-108395714D01*
X104144857Y-108250571D01*
X104217428Y-108178000D01*
X104362571Y-108105428D01*
X104652857Y-108105428D01*
X104798000Y-108178000D01*
X104870571Y-108250571D01*
X104943142Y-108395714D01*
X104943142Y-108468285D01*
X104870571Y-108613428D01*
X104798000Y-108686000D01*
X104652857Y-108758571D01*
X104362571Y-108758571D01*
X104217428Y-108831142D01*
X104144857Y-108903714D01*
X104072285Y-109048857D01*
X104072285Y-109339142D01*
X104144857Y-109484285D01*
X104217428Y-109556857D01*
X104362571Y-109629428D01*
X104652857Y-109629428D01*
X104798000Y-109556857D01*
X104870571Y-109484285D01*
X104943142Y-109339142D01*
X104943142Y-109048857D01*
X104870571Y-108903714D01*
X104798000Y-108831142D01*
X104652857Y-108758571D01*
%TO.C,K3*%
X82895142Y-71629428D02*
X82895142Y-70105428D01*
X83766000Y-71629428D02*
X83112857Y-70758571D01*
X83766000Y-70105428D02*
X82895142Y-70976285D01*
X84274000Y-70105428D02*
X85217428Y-70105428D01*
X84709428Y-70686000D01*
X84927142Y-70686000D01*
X85072285Y-70758571D01*
X85144857Y-70831142D01*
X85217428Y-70976285D01*
X85217428Y-71339142D01*
X85144857Y-71484285D01*
X85072285Y-71556857D01*
X84927142Y-71629428D01*
X84491714Y-71629428D01*
X84346571Y-71556857D01*
X84274000Y-71484285D01*
%TO.C,K9*%
X196895142Y-71629428D02*
X196895142Y-70105428D01*
X197766000Y-71629428D02*
X197112857Y-70758571D01*
X197766000Y-70105428D02*
X196895142Y-70976285D01*
X198491714Y-71629428D02*
X198782000Y-71629428D01*
X198927142Y-71556857D01*
X198999714Y-71484285D01*
X199144857Y-71266571D01*
X199217428Y-70976285D01*
X199217428Y-70395714D01*
X199144857Y-70250571D01*
X199072285Y-70178000D01*
X198927142Y-70105428D01*
X198636857Y-70105428D01*
X198491714Y-70178000D01*
X198419142Y-70250571D01*
X198346571Y-70395714D01*
X198346571Y-70758571D01*
X198419142Y-70903714D01*
X198491714Y-70976285D01*
X198636857Y-71048857D01*
X198927142Y-71048857D01*
X199072285Y-70976285D01*
X199144857Y-70903714D01*
X199217428Y-70758571D01*
%TO.C,K8*%
X177895142Y-71629428D02*
X177895142Y-70105428D01*
X178766000Y-71629428D02*
X178112857Y-70758571D01*
X178766000Y-70105428D02*
X177895142Y-70976285D01*
X179636857Y-70758571D02*
X179491714Y-70686000D01*
X179419142Y-70613428D01*
X179346571Y-70468285D01*
X179346571Y-70395714D01*
X179419142Y-70250571D01*
X179491714Y-70178000D01*
X179636857Y-70105428D01*
X179927142Y-70105428D01*
X180072285Y-70178000D01*
X180144857Y-70250571D01*
X180217428Y-70395714D01*
X180217428Y-70468285D01*
X180144857Y-70613428D01*
X180072285Y-70686000D01*
X179927142Y-70758571D01*
X179636857Y-70758571D01*
X179491714Y-70831142D01*
X179419142Y-70903714D01*
X179346571Y-71048857D01*
X179346571Y-71339142D01*
X179419142Y-71484285D01*
X179491714Y-71556857D01*
X179636857Y-71629428D01*
X179927142Y-71629428D01*
X180072285Y-71556857D01*
X180144857Y-71484285D01*
X180217428Y-71339142D01*
X180217428Y-71048857D01*
X180144857Y-70903714D01*
X180072285Y-70831142D01*
X179927142Y-70758571D01*
%TO.C,K21*%
X196169428Y-90629428D02*
X196169428Y-89105428D01*
X197040285Y-90629428D02*
X196387142Y-89758571D01*
X197040285Y-89105428D02*
X196169428Y-89976285D01*
X197620857Y-89250571D02*
X197693428Y-89178000D01*
X197838571Y-89105428D01*
X198201428Y-89105428D01*
X198346571Y-89178000D01*
X198419142Y-89250571D01*
X198491714Y-89395714D01*
X198491714Y-89540857D01*
X198419142Y-89758571D01*
X197548285Y-90629428D01*
X198491714Y-90629428D01*
X199943142Y-90629428D02*
X199072285Y-90629428D01*
X199507714Y-90629428D02*
X199507714Y-89105428D01*
X199362571Y-89323142D01*
X199217428Y-89468285D01*
X199072285Y-89540857D01*
%TO.C,K29*%
X120169428Y-109629428D02*
X120169428Y-108105428D01*
X121040285Y-109629428D02*
X120387142Y-108758571D01*
X121040285Y-108105428D02*
X120169428Y-108976285D01*
X121620857Y-108250571D02*
X121693428Y-108178000D01*
X121838571Y-108105428D01*
X122201428Y-108105428D01*
X122346571Y-108178000D01*
X122419142Y-108250571D01*
X122491714Y-108395714D01*
X122491714Y-108540857D01*
X122419142Y-108758571D01*
X121548285Y-109629428D01*
X122491714Y-109629428D01*
X123217428Y-109629428D02*
X123507714Y-109629428D01*
X123652857Y-109556857D01*
X123725428Y-109484285D01*
X123870571Y-109266571D01*
X123943142Y-108976285D01*
X123943142Y-108395714D01*
X123870571Y-108250571D01*
X123798000Y-108178000D01*
X123652857Y-108105428D01*
X123362571Y-108105428D01*
X123217428Y-108178000D01*
X123144857Y-108250571D01*
X123072285Y-108395714D01*
X123072285Y-108758571D01*
X123144857Y-108903714D01*
X123217428Y-108976285D01*
X123362571Y-109048857D01*
X123652857Y-109048857D01*
X123798000Y-108976285D01*
X123870571Y-108903714D01*
X123943142Y-108758571D01*
%TO.C,K14*%
X63169428Y-90629428D02*
X63169428Y-89105428D01*
X64040285Y-90629428D02*
X63387142Y-89758571D01*
X64040285Y-89105428D02*
X63169428Y-89976285D01*
X65491714Y-90629428D02*
X64620857Y-90629428D01*
X65056285Y-90629428D02*
X65056285Y-89105428D01*
X64911142Y-89323142D01*
X64766000Y-89468285D01*
X64620857Y-89540857D01*
X66798000Y-89613428D02*
X66798000Y-90629428D01*
X66435142Y-89032857D02*
X66072285Y-90121428D01*
X67015714Y-90121428D01*
%TO.C,K39*%
X82169428Y-128629428D02*
X82169428Y-127105428D01*
X83040285Y-128629428D02*
X82387142Y-127758571D01*
X83040285Y-127105428D02*
X82169428Y-127976285D01*
X83548285Y-127105428D02*
X84491714Y-127105428D01*
X83983714Y-127686000D01*
X84201428Y-127686000D01*
X84346571Y-127758571D01*
X84419142Y-127831142D01*
X84491714Y-127976285D01*
X84491714Y-128339142D01*
X84419142Y-128484285D01*
X84346571Y-128556857D01*
X84201428Y-128629428D01*
X83766000Y-128629428D01*
X83620857Y-128556857D01*
X83548285Y-128484285D01*
X85217428Y-128629428D02*
X85507714Y-128629428D01*
X85652857Y-128556857D01*
X85725428Y-128484285D01*
X85870571Y-128266571D01*
X85943142Y-127976285D01*
X85943142Y-127395714D01*
X85870571Y-127250571D01*
X85798000Y-127178000D01*
X85652857Y-127105428D01*
X85362571Y-127105428D01*
X85217428Y-127178000D01*
X85144857Y-127250571D01*
X85072285Y-127395714D01*
X85072285Y-127758571D01*
X85144857Y-127903714D01*
X85217428Y-127976285D01*
X85362571Y-128048857D01*
X85652857Y-128048857D01*
X85798000Y-127976285D01*
X85870571Y-127903714D01*
X85943142Y-127758571D01*
%TO.C,K6*%
X139895142Y-71629428D02*
X139895142Y-70105428D01*
X140766000Y-71629428D02*
X140112857Y-70758571D01*
X140766000Y-70105428D02*
X139895142Y-70976285D01*
X142072285Y-70105428D02*
X141782000Y-70105428D01*
X141636857Y-70178000D01*
X141564285Y-70250571D01*
X141419142Y-70468285D01*
X141346571Y-70758571D01*
X141346571Y-71339142D01*
X141419142Y-71484285D01*
X141491714Y-71556857D01*
X141636857Y-71629428D01*
X141927142Y-71629428D01*
X142072285Y-71556857D01*
X142144857Y-71484285D01*
X142217428Y-71339142D01*
X142217428Y-70976285D01*
X142144857Y-70831142D01*
X142072285Y-70758571D01*
X141927142Y-70686000D01*
X141636857Y-70686000D01*
X141491714Y-70758571D01*
X141419142Y-70831142D01*
X141346571Y-70976285D01*
%TO.C,K45*%
X196169428Y-128629428D02*
X196169428Y-127105428D01*
X197040285Y-128629428D02*
X196387142Y-127758571D01*
X197040285Y-127105428D02*
X196169428Y-127976285D01*
X198346571Y-127613428D02*
X198346571Y-128629428D01*
X197983714Y-127032857D02*
X197620857Y-128121428D01*
X198564285Y-128121428D01*
X199870571Y-127105428D02*
X199144857Y-127105428D01*
X199072285Y-127831142D01*
X199144857Y-127758571D01*
X199290000Y-127686000D01*
X199652857Y-127686000D01*
X199798000Y-127758571D01*
X199870571Y-127831142D01*
X199943142Y-127976285D01*
X199943142Y-128339142D01*
X199870571Y-128484285D01*
X199798000Y-128556857D01*
X199652857Y-128629428D01*
X199290000Y-128629428D01*
X199144857Y-128556857D01*
X199072285Y-128484285D01*
%TO.C,K31*%
X158169428Y-109629428D02*
X158169428Y-108105428D01*
X159040285Y-109629428D02*
X158387142Y-108758571D01*
X159040285Y-108105428D02*
X158169428Y-108976285D01*
X159548285Y-108105428D02*
X160491714Y-108105428D01*
X159983714Y-108686000D01*
X160201428Y-108686000D01*
X160346571Y-108758571D01*
X160419142Y-108831142D01*
X160491714Y-108976285D01*
X160491714Y-109339142D01*
X160419142Y-109484285D01*
X160346571Y-109556857D01*
X160201428Y-109629428D01*
X159766000Y-109629428D01*
X159620857Y-109556857D01*
X159548285Y-109484285D01*
X161943142Y-109629428D02*
X161072285Y-109629428D01*
X161507714Y-109629428D02*
X161507714Y-108105428D01*
X161362571Y-108323142D01*
X161217428Y-108468285D01*
X161072285Y-108540857D01*
%TO.C,K26*%
X63169428Y-109629428D02*
X63169428Y-108105428D01*
X64040285Y-109629428D02*
X63387142Y-108758571D01*
X64040285Y-108105428D02*
X63169428Y-108976285D01*
X64620857Y-108250571D02*
X64693428Y-108178000D01*
X64838571Y-108105428D01*
X65201428Y-108105428D01*
X65346571Y-108178000D01*
X65419142Y-108250571D01*
X65491714Y-108395714D01*
X65491714Y-108540857D01*
X65419142Y-108758571D01*
X64548285Y-109629428D01*
X65491714Y-109629428D01*
X66798000Y-108105428D02*
X66507714Y-108105428D01*
X66362571Y-108178000D01*
X66290000Y-108250571D01*
X66144857Y-108468285D01*
X66072285Y-108758571D01*
X66072285Y-109339142D01*
X66144857Y-109484285D01*
X66217428Y-109556857D01*
X66362571Y-109629428D01*
X66652857Y-109629428D01*
X66798000Y-109556857D01*
X66870571Y-109484285D01*
X66943142Y-109339142D01*
X66943142Y-108976285D01*
X66870571Y-108831142D01*
X66798000Y-108758571D01*
X66652857Y-108686000D01*
X66362571Y-108686000D01*
X66217428Y-108758571D01*
X66144857Y-108831142D01*
X66072285Y-108976285D01*
%TO.C,K15*%
X82169428Y-90629428D02*
X82169428Y-89105428D01*
X83040285Y-90629428D02*
X82387142Y-89758571D01*
X83040285Y-89105428D02*
X82169428Y-89976285D01*
X84491714Y-90629428D02*
X83620857Y-90629428D01*
X84056285Y-90629428D02*
X84056285Y-89105428D01*
X83911142Y-89323142D01*
X83766000Y-89468285D01*
X83620857Y-89540857D01*
X85870571Y-89105428D02*
X85144857Y-89105428D01*
X85072285Y-89831142D01*
X85144857Y-89758571D01*
X85290000Y-89686000D01*
X85652857Y-89686000D01*
X85798000Y-89758571D01*
X85870571Y-89831142D01*
X85943142Y-89976285D01*
X85943142Y-90339142D01*
X85870571Y-90484285D01*
X85798000Y-90556857D01*
X85652857Y-90629428D01*
X85290000Y-90629428D01*
X85144857Y-90556857D01*
X85072285Y-90484285D01*
%TO.C,K36*%
X253169428Y-109629428D02*
X253169428Y-108105428D01*
X254040285Y-109629428D02*
X253387142Y-108758571D01*
X254040285Y-108105428D02*
X253169428Y-108976285D01*
X254548285Y-108105428D02*
X255491714Y-108105428D01*
X254983714Y-108686000D01*
X255201428Y-108686000D01*
X255346571Y-108758571D01*
X255419142Y-108831142D01*
X255491714Y-108976285D01*
X255491714Y-109339142D01*
X255419142Y-109484285D01*
X255346571Y-109556857D01*
X255201428Y-109629428D01*
X254766000Y-109629428D01*
X254620857Y-109556857D01*
X254548285Y-109484285D01*
X256798000Y-108105428D02*
X256507714Y-108105428D01*
X256362571Y-108178000D01*
X256290000Y-108250571D01*
X256144857Y-108468285D01*
X256072285Y-108758571D01*
X256072285Y-109339142D01*
X256144857Y-109484285D01*
X256217428Y-109556857D01*
X256362571Y-109629428D01*
X256652857Y-109629428D01*
X256798000Y-109556857D01*
X256870571Y-109484285D01*
X256943142Y-109339142D01*
X256943142Y-108976285D01*
X256870571Y-108831142D01*
X256798000Y-108758571D01*
X256652857Y-108686000D01*
X256362571Y-108686000D01*
X256217428Y-108758571D01*
X256144857Y-108831142D01*
X256072285Y-108976285D01*
%TO.C,K30*%
X139169428Y-109629428D02*
X139169428Y-108105428D01*
X140040285Y-109629428D02*
X139387142Y-108758571D01*
X140040285Y-108105428D02*
X139169428Y-108976285D01*
X140548285Y-108105428D02*
X141491714Y-108105428D01*
X140983714Y-108686000D01*
X141201428Y-108686000D01*
X141346571Y-108758571D01*
X141419142Y-108831142D01*
X141491714Y-108976285D01*
X141491714Y-109339142D01*
X141419142Y-109484285D01*
X141346571Y-109556857D01*
X141201428Y-109629428D01*
X140766000Y-109629428D01*
X140620857Y-109556857D01*
X140548285Y-109484285D01*
X142435142Y-108105428D02*
X142580285Y-108105428D01*
X142725428Y-108178000D01*
X142798000Y-108250571D01*
X142870571Y-108395714D01*
X142943142Y-108686000D01*
X142943142Y-109048857D01*
X142870571Y-109339142D01*
X142798000Y-109484285D01*
X142725428Y-109556857D01*
X142580285Y-109629428D01*
X142435142Y-109629428D01*
X142290000Y-109556857D01*
X142217428Y-109484285D01*
X142144857Y-109339142D01*
X142072285Y-109048857D01*
X142072285Y-108686000D01*
X142144857Y-108395714D01*
X142217428Y-108250571D01*
X142290000Y-108178000D01*
X142435142Y-108105428D01*
%TO.C,K34*%
X215169428Y-109629428D02*
X215169428Y-108105428D01*
X216040285Y-109629428D02*
X215387142Y-108758571D01*
X216040285Y-108105428D02*
X215169428Y-108976285D01*
X216548285Y-108105428D02*
X217491714Y-108105428D01*
X216983714Y-108686000D01*
X217201428Y-108686000D01*
X217346571Y-108758571D01*
X217419142Y-108831142D01*
X217491714Y-108976285D01*
X217491714Y-109339142D01*
X217419142Y-109484285D01*
X217346571Y-109556857D01*
X217201428Y-109629428D01*
X216766000Y-109629428D01*
X216620857Y-109556857D01*
X216548285Y-109484285D01*
X218798000Y-108613428D02*
X218798000Y-109629428D01*
X218435142Y-108032857D02*
X218072285Y-109121428D01*
X219015714Y-109121428D01*
%TO.C,K48*%
X253169428Y-128629428D02*
X253169428Y-127105428D01*
X254040285Y-128629428D02*
X253387142Y-127758571D01*
X254040285Y-127105428D02*
X253169428Y-127976285D01*
X255346571Y-127613428D02*
X255346571Y-128629428D01*
X254983714Y-127032857D02*
X254620857Y-128121428D01*
X255564285Y-128121428D01*
X256362571Y-127758571D02*
X256217428Y-127686000D01*
X256144857Y-127613428D01*
X256072285Y-127468285D01*
X256072285Y-127395714D01*
X256144857Y-127250571D01*
X256217428Y-127178000D01*
X256362571Y-127105428D01*
X256652857Y-127105428D01*
X256798000Y-127178000D01*
X256870571Y-127250571D01*
X256943142Y-127395714D01*
X256943142Y-127468285D01*
X256870571Y-127613428D01*
X256798000Y-127686000D01*
X256652857Y-127758571D01*
X256362571Y-127758571D01*
X256217428Y-127831142D01*
X256144857Y-127903714D01*
X256072285Y-128048857D01*
X256072285Y-128339142D01*
X256144857Y-128484285D01*
X256217428Y-128556857D01*
X256362571Y-128629428D01*
X256652857Y-128629428D01*
X256798000Y-128556857D01*
X256870571Y-128484285D01*
X256943142Y-128339142D01*
X256943142Y-128048857D01*
X256870571Y-127903714D01*
X256798000Y-127831142D01*
X256652857Y-127758571D01*
%TO.C,K11*%
X234169428Y-71629428D02*
X234169428Y-70105428D01*
X235040285Y-71629428D02*
X234387142Y-70758571D01*
X235040285Y-70105428D02*
X234169428Y-70976285D01*
X236491714Y-71629428D02*
X235620857Y-71629428D01*
X236056285Y-71629428D02*
X236056285Y-70105428D01*
X235911142Y-70323142D01*
X235766000Y-70468285D01*
X235620857Y-70540857D01*
X237943142Y-71629428D02*
X237072285Y-71629428D01*
X237507714Y-71629428D02*
X237507714Y-70105428D01*
X237362571Y-70323142D01*
X237217428Y-70468285D01*
X237072285Y-70540857D01*
%TO.C,K20*%
X177169428Y-90629428D02*
X177169428Y-89105428D01*
X178040285Y-90629428D02*
X177387142Y-89758571D01*
X178040285Y-89105428D02*
X177169428Y-89976285D01*
X178620857Y-89250571D02*
X178693428Y-89178000D01*
X178838571Y-89105428D01*
X179201428Y-89105428D01*
X179346571Y-89178000D01*
X179419142Y-89250571D01*
X179491714Y-89395714D01*
X179491714Y-89540857D01*
X179419142Y-89758571D01*
X178548285Y-90629428D01*
X179491714Y-90629428D01*
X180435142Y-89105428D02*
X180580285Y-89105428D01*
X180725428Y-89178000D01*
X180798000Y-89250571D01*
X180870571Y-89395714D01*
X180943142Y-89686000D01*
X180943142Y-90048857D01*
X180870571Y-90339142D01*
X180798000Y-90484285D01*
X180725428Y-90556857D01*
X180580285Y-90629428D01*
X180435142Y-90629428D01*
X180290000Y-90556857D01*
X180217428Y-90484285D01*
X180144857Y-90339142D01*
X180072285Y-90048857D01*
X180072285Y-89686000D01*
X180144857Y-89395714D01*
X180217428Y-89250571D01*
X180290000Y-89178000D01*
X180435142Y-89105428D01*
%TO.C,K33*%
X196169428Y-109629428D02*
X196169428Y-108105428D01*
X197040285Y-109629428D02*
X196387142Y-108758571D01*
X197040285Y-108105428D02*
X196169428Y-108976285D01*
X197548285Y-108105428D02*
X198491714Y-108105428D01*
X197983714Y-108686000D01*
X198201428Y-108686000D01*
X198346571Y-108758571D01*
X198419142Y-108831142D01*
X198491714Y-108976285D01*
X198491714Y-109339142D01*
X198419142Y-109484285D01*
X198346571Y-109556857D01*
X198201428Y-109629428D01*
X197766000Y-109629428D01*
X197620857Y-109556857D01*
X197548285Y-109484285D01*
X198999714Y-108105428D02*
X199943142Y-108105428D01*
X199435142Y-108686000D01*
X199652857Y-108686000D01*
X199798000Y-108758571D01*
X199870571Y-108831142D01*
X199943142Y-108976285D01*
X199943142Y-109339142D01*
X199870571Y-109484285D01*
X199798000Y-109556857D01*
X199652857Y-109629428D01*
X199217428Y-109629428D01*
X199072285Y-109556857D01*
X198999714Y-109484285D01*
%TO.C,K41*%
X120169428Y-128629428D02*
X120169428Y-127105428D01*
X121040285Y-128629428D02*
X120387142Y-127758571D01*
X121040285Y-127105428D02*
X120169428Y-127976285D01*
X122346571Y-127613428D02*
X122346571Y-128629428D01*
X121983714Y-127032857D02*
X121620857Y-128121428D01*
X122564285Y-128121428D01*
X123943142Y-128629428D02*
X123072285Y-128629428D01*
X123507714Y-128629428D02*
X123507714Y-127105428D01*
X123362571Y-127323142D01*
X123217428Y-127468285D01*
X123072285Y-127540857D01*
%TO.C,K47*%
X234169428Y-128629428D02*
X234169428Y-127105428D01*
X235040285Y-128629428D02*
X234387142Y-127758571D01*
X235040285Y-127105428D02*
X234169428Y-127976285D01*
X236346571Y-127613428D02*
X236346571Y-128629428D01*
X235983714Y-127032857D02*
X235620857Y-128121428D01*
X236564285Y-128121428D01*
X236999714Y-127105428D02*
X238015714Y-127105428D01*
X237362571Y-128629428D01*
%TO.C,K37*%
X44169428Y-128629428D02*
X44169428Y-127105428D01*
X45040285Y-128629428D02*
X44387142Y-127758571D01*
X45040285Y-127105428D02*
X44169428Y-127976285D01*
X45548285Y-127105428D02*
X46491714Y-127105428D01*
X45983714Y-127686000D01*
X46201428Y-127686000D01*
X46346571Y-127758571D01*
X46419142Y-127831142D01*
X46491714Y-127976285D01*
X46491714Y-128339142D01*
X46419142Y-128484285D01*
X46346571Y-128556857D01*
X46201428Y-128629428D01*
X45766000Y-128629428D01*
X45620857Y-128556857D01*
X45548285Y-128484285D01*
X46999714Y-127105428D02*
X48015714Y-127105428D01*
X47362571Y-128629428D01*
%TO.C,K16*%
X101169428Y-90629428D02*
X101169428Y-89105428D01*
X102040285Y-90629428D02*
X101387142Y-89758571D01*
X102040285Y-89105428D02*
X101169428Y-89976285D01*
X103491714Y-90629428D02*
X102620857Y-90629428D01*
X103056285Y-90629428D02*
X103056285Y-89105428D01*
X102911142Y-89323142D01*
X102766000Y-89468285D01*
X102620857Y-89540857D01*
X104798000Y-89105428D02*
X104507714Y-89105428D01*
X104362571Y-89178000D01*
X104290000Y-89250571D01*
X104144857Y-89468285D01*
X104072285Y-89758571D01*
X104072285Y-90339142D01*
X104144857Y-90484285D01*
X104217428Y-90556857D01*
X104362571Y-90629428D01*
X104652857Y-90629428D01*
X104798000Y-90556857D01*
X104870571Y-90484285D01*
X104943142Y-90339142D01*
X104943142Y-89976285D01*
X104870571Y-89831142D01*
X104798000Y-89758571D01*
X104652857Y-89686000D01*
X104362571Y-89686000D01*
X104217428Y-89758571D01*
X104144857Y-89831142D01*
X104072285Y-89976285D01*
%TO.C,K38*%
X63169428Y-128629428D02*
X63169428Y-127105428D01*
X64040285Y-128629428D02*
X63387142Y-127758571D01*
X64040285Y-127105428D02*
X63169428Y-127976285D01*
X64548285Y-127105428D02*
X65491714Y-127105428D01*
X64983714Y-127686000D01*
X65201428Y-127686000D01*
X65346571Y-127758571D01*
X65419142Y-127831142D01*
X65491714Y-127976285D01*
X65491714Y-128339142D01*
X65419142Y-128484285D01*
X65346571Y-128556857D01*
X65201428Y-128629428D01*
X64766000Y-128629428D01*
X64620857Y-128556857D01*
X64548285Y-128484285D01*
X66362571Y-127758571D02*
X66217428Y-127686000D01*
X66144857Y-127613428D01*
X66072285Y-127468285D01*
X66072285Y-127395714D01*
X66144857Y-127250571D01*
X66217428Y-127178000D01*
X66362571Y-127105428D01*
X66652857Y-127105428D01*
X66798000Y-127178000D01*
X66870571Y-127250571D01*
X66943142Y-127395714D01*
X66943142Y-127468285D01*
X66870571Y-127613428D01*
X66798000Y-127686000D01*
X66652857Y-127758571D01*
X66362571Y-127758571D01*
X66217428Y-127831142D01*
X66144857Y-127903714D01*
X66072285Y-128048857D01*
X66072285Y-128339142D01*
X66144857Y-128484285D01*
X66217428Y-128556857D01*
X66362571Y-128629428D01*
X66652857Y-128629428D01*
X66798000Y-128556857D01*
X66870571Y-128484285D01*
X66943142Y-128339142D01*
X66943142Y-128048857D01*
X66870571Y-127903714D01*
X66798000Y-127831142D01*
X66652857Y-127758571D01*
%TO.C,K13*%
X44169428Y-90629428D02*
X44169428Y-89105428D01*
X45040285Y-90629428D02*
X44387142Y-89758571D01*
X45040285Y-89105428D02*
X44169428Y-89976285D01*
X46491714Y-90629428D02*
X45620857Y-90629428D01*
X46056285Y-90629428D02*
X46056285Y-89105428D01*
X45911142Y-89323142D01*
X45766000Y-89468285D01*
X45620857Y-89540857D01*
X46999714Y-89105428D02*
X47943142Y-89105428D01*
X47435142Y-89686000D01*
X47652857Y-89686000D01*
X47798000Y-89758571D01*
X47870571Y-89831142D01*
X47943142Y-89976285D01*
X47943142Y-90339142D01*
X47870571Y-90484285D01*
X47798000Y-90556857D01*
X47652857Y-90629428D01*
X47217428Y-90629428D01*
X47072285Y-90556857D01*
X46999714Y-90484285D01*
D11*
%TO.C,K2*%
X55520000Y-61440000D02*
X74520000Y-61440000D01*
X74520000Y-61440000D02*
X74520000Y-80440000D01*
X74520000Y-80440000D02*
X55520000Y-80440000D01*
X55520000Y-80440000D02*
X55520000Y-61440000D01*
%TO.C,K40*%
X93520000Y-118440000D02*
X112520000Y-118440000D01*
X112520000Y-118440000D02*
X112520000Y-137440000D01*
X112520000Y-137440000D02*
X93520000Y-137440000D01*
X93520000Y-137440000D02*
X93520000Y-118440000D01*
%TO.C,K42*%
X131520000Y-118440000D02*
X150520000Y-118440000D01*
X150520000Y-118440000D02*
X150520000Y-137440000D01*
X150520000Y-137440000D02*
X131520000Y-137440000D01*
X131520000Y-137440000D02*
X131520000Y-118440000D01*
%TO.C,K35*%
X226520000Y-99440000D02*
X245520000Y-99440000D01*
X245520000Y-99440000D02*
X245520000Y-118440000D01*
X245520000Y-118440000D02*
X226520000Y-118440000D01*
X226520000Y-118440000D02*
X226520000Y-99440000D01*
%TO.C,K25*%
X36520000Y-99440000D02*
X55520000Y-99440000D01*
X55520000Y-99440000D02*
X55520000Y-118440000D01*
X55520000Y-118440000D02*
X36520000Y-118440000D01*
X36520000Y-118440000D02*
X36520000Y-99440000D01*
%TO.C,K32*%
X169520000Y-99440000D02*
X188520000Y-99440000D01*
X188520000Y-99440000D02*
X188520000Y-118440000D01*
X188520000Y-118440000D02*
X169520000Y-118440000D01*
X169520000Y-118440000D02*
X169520000Y-99440000D01*
%TO.C,K27*%
X74520000Y-99440000D02*
X93520000Y-99440000D01*
X93520000Y-99440000D02*
X93520000Y-118440000D01*
X93520000Y-118440000D02*
X74520000Y-118440000D01*
X74520000Y-118440000D02*
X74520000Y-99440000D01*
%TO.C,K12*%
X245520000Y-61440000D02*
X264520000Y-61440000D01*
X264520000Y-61440000D02*
X264520000Y-80440000D01*
X264520000Y-80440000D02*
X245520000Y-80440000D01*
X245520000Y-80440000D02*
X245520000Y-61440000D01*
%TO.C,K5*%
X112520000Y-61440000D02*
X131520000Y-61440000D01*
X131520000Y-61440000D02*
X131520000Y-80440000D01*
X131520000Y-80440000D02*
X112520000Y-80440000D01*
X112520000Y-80440000D02*
X112520000Y-61440000D01*
%TO.C,K7*%
X150520000Y-61440000D02*
X169520000Y-61440000D01*
X169520000Y-61440000D02*
X169520000Y-80440000D01*
X169520000Y-80440000D02*
X150520000Y-80440000D01*
X150520000Y-80440000D02*
X150520000Y-61440000D01*
%TO.C,K17*%
X112520000Y-80440000D02*
X131520000Y-80440000D01*
X131520000Y-80440000D02*
X131520000Y-99440000D01*
X131520000Y-99440000D02*
X112520000Y-99440000D01*
X112520000Y-99440000D02*
X112520000Y-80440000D01*
%TO.C,K19*%
X150520000Y-80440000D02*
X169520000Y-80440000D01*
X169520000Y-80440000D02*
X169520000Y-99440000D01*
X169520000Y-99440000D02*
X150520000Y-99440000D01*
X150520000Y-99440000D02*
X150520000Y-80440000D01*
%TO.C,K4*%
X93520000Y-61440000D02*
X112520000Y-61440000D01*
X112520000Y-61440000D02*
X112520000Y-80440000D01*
X112520000Y-80440000D02*
X93520000Y-80440000D01*
X93520000Y-80440000D02*
X93520000Y-61440000D01*
%TO.C,K23*%
X226520000Y-80440000D02*
X245520000Y-80440000D01*
X245520000Y-80440000D02*
X245520000Y-99440000D01*
X245520000Y-99440000D02*
X226520000Y-99440000D01*
X226520000Y-99440000D02*
X226520000Y-80440000D01*
%TO.C,K43*%
X150520000Y-118440000D02*
X169520000Y-118440000D01*
X169520000Y-118440000D02*
X169520000Y-137440000D01*
X169520000Y-137440000D02*
X150520000Y-137440000D01*
X150520000Y-137440000D02*
X150520000Y-118440000D01*
%TO.C,K10*%
X207520000Y-61440000D02*
X226520000Y-61440000D01*
X226520000Y-61440000D02*
X226520000Y-80440000D01*
X226520000Y-80440000D02*
X207520000Y-80440000D01*
X207520000Y-80440000D02*
X207520000Y-61440000D01*
%TO.C,K1*%
X36520000Y-61440000D02*
X55520000Y-61440000D01*
X55520000Y-61440000D02*
X55520000Y-80440000D01*
X55520000Y-80440000D02*
X36520000Y-80440000D01*
X36520000Y-80440000D02*
X36520000Y-61440000D01*
%TO.C,K44*%
X169520000Y-118440000D02*
X188520000Y-118440000D01*
X188520000Y-118440000D02*
X188520000Y-137440000D01*
X188520000Y-137440000D02*
X169520000Y-137440000D01*
X169520000Y-137440000D02*
X169520000Y-118440000D01*
%TO.C,K18*%
X131520000Y-80440000D02*
X150520000Y-80440000D01*
X150520000Y-80440000D02*
X150520000Y-99440000D01*
X150520000Y-99440000D02*
X131520000Y-99440000D01*
X131520000Y-99440000D02*
X131520000Y-80440000D01*
%TO.C,K24*%
X245520000Y-80440000D02*
X264520000Y-80440000D01*
X264520000Y-80440000D02*
X264520000Y-99440000D01*
X264520000Y-99440000D02*
X245520000Y-99440000D01*
X245520000Y-99440000D02*
X245520000Y-80440000D01*
%TO.C,K22*%
X207520000Y-80440000D02*
X226520000Y-80440000D01*
X226520000Y-80440000D02*
X226520000Y-99440000D01*
X226520000Y-99440000D02*
X207520000Y-99440000D01*
X207520000Y-99440000D02*
X207520000Y-80440000D01*
%TO.C,K46*%
X207520000Y-118440000D02*
X226520000Y-118440000D01*
X226520000Y-118440000D02*
X226520000Y-137440000D01*
X226520000Y-137440000D02*
X207520000Y-137440000D01*
X207520000Y-137440000D02*
X207520000Y-118440000D01*
%TO.C,K28*%
X93520000Y-99440000D02*
X112520000Y-99440000D01*
X112520000Y-99440000D02*
X112520000Y-118440000D01*
X112520000Y-118440000D02*
X93520000Y-118440000D01*
X93520000Y-118440000D02*
X93520000Y-99440000D01*
%TO.C,K3*%
X74520000Y-61440000D02*
X93520000Y-61440000D01*
X93520000Y-61440000D02*
X93520000Y-80440000D01*
X93520000Y-80440000D02*
X74520000Y-80440000D01*
X74520000Y-80440000D02*
X74520000Y-61440000D01*
%TO.C,K9*%
X188520000Y-61440000D02*
X207520000Y-61440000D01*
X207520000Y-61440000D02*
X207520000Y-80440000D01*
X207520000Y-80440000D02*
X188520000Y-80440000D01*
X188520000Y-80440000D02*
X188520000Y-61440000D01*
%TO.C,K8*%
X169520000Y-61440000D02*
X188520000Y-61440000D01*
X188520000Y-61440000D02*
X188520000Y-80440000D01*
X188520000Y-80440000D02*
X169520000Y-80440000D01*
X169520000Y-80440000D02*
X169520000Y-61440000D01*
%TO.C,K21*%
X188520000Y-80440000D02*
X207520000Y-80440000D01*
X207520000Y-80440000D02*
X207520000Y-99440000D01*
X207520000Y-99440000D02*
X188520000Y-99440000D01*
X188520000Y-99440000D02*
X188520000Y-80440000D01*
%TO.C,K29*%
X112520000Y-99440000D02*
X131520000Y-99440000D01*
X131520000Y-99440000D02*
X131520000Y-118440000D01*
X131520000Y-118440000D02*
X112520000Y-118440000D01*
X112520000Y-118440000D02*
X112520000Y-99440000D01*
%TO.C,K14*%
X55520000Y-80440000D02*
X74520000Y-80440000D01*
X74520000Y-80440000D02*
X74520000Y-99440000D01*
X74520000Y-99440000D02*
X55520000Y-99440000D01*
X55520000Y-99440000D02*
X55520000Y-80440000D01*
%TO.C,K39*%
X74520000Y-118440000D02*
X93520000Y-118440000D01*
X93520000Y-118440000D02*
X93520000Y-137440000D01*
X93520000Y-137440000D02*
X74520000Y-137440000D01*
X74520000Y-137440000D02*
X74520000Y-118440000D01*
%TO.C,K6*%
X131520000Y-61440000D02*
X150520000Y-61440000D01*
X150520000Y-61440000D02*
X150520000Y-80440000D01*
X150520000Y-80440000D02*
X131520000Y-80440000D01*
X131520000Y-80440000D02*
X131520000Y-61440000D01*
%TO.C,K45*%
X188520000Y-118440000D02*
X207520000Y-118440000D01*
X207520000Y-118440000D02*
X207520000Y-137440000D01*
X207520000Y-137440000D02*
X188520000Y-137440000D01*
X188520000Y-137440000D02*
X188520000Y-118440000D01*
%TO.C,K31*%
X150520000Y-99440000D02*
X169520000Y-99440000D01*
X169520000Y-99440000D02*
X169520000Y-118440000D01*
X169520000Y-118440000D02*
X150520000Y-118440000D01*
X150520000Y-118440000D02*
X150520000Y-99440000D01*
%TO.C,K26*%
X55520000Y-99440000D02*
X74520000Y-99440000D01*
X74520000Y-99440000D02*
X74520000Y-118440000D01*
X74520000Y-118440000D02*
X55520000Y-118440000D01*
X55520000Y-118440000D02*
X55520000Y-99440000D01*
%TO.C,K15*%
X74520000Y-80440000D02*
X93520000Y-80440000D01*
X93520000Y-80440000D02*
X93520000Y-99440000D01*
X93520000Y-99440000D02*
X74520000Y-99440000D01*
X74520000Y-99440000D02*
X74520000Y-80440000D01*
%TO.C,K36*%
X245520000Y-99440000D02*
X264520000Y-99440000D01*
X264520000Y-99440000D02*
X264520000Y-118440000D01*
X264520000Y-118440000D02*
X245520000Y-118440000D01*
X245520000Y-118440000D02*
X245520000Y-99440000D01*
%TO.C,K30*%
X131520000Y-99440000D02*
X150520000Y-99440000D01*
X150520000Y-99440000D02*
X150520000Y-118440000D01*
X150520000Y-118440000D02*
X131520000Y-118440000D01*
X131520000Y-118440000D02*
X131520000Y-99440000D01*
%TO.C,K34*%
X207520000Y-99440000D02*
X226520000Y-99440000D01*
X226520000Y-99440000D02*
X226520000Y-118440000D01*
X226520000Y-118440000D02*
X207520000Y-118440000D01*
X207520000Y-118440000D02*
X207520000Y-99440000D01*
%TO.C,K48*%
X245520000Y-118440000D02*
X264520000Y-118440000D01*
X264520000Y-118440000D02*
X264520000Y-137440000D01*
X264520000Y-137440000D02*
X245520000Y-137440000D01*
X245520000Y-137440000D02*
X245520000Y-118440000D01*
%TO.C,K11*%
X226520000Y-61440000D02*
X245520000Y-61440000D01*
X245520000Y-61440000D02*
X245520000Y-80440000D01*
X245520000Y-80440000D02*
X226520000Y-80440000D01*
X226520000Y-80440000D02*
X226520000Y-61440000D01*
%TO.C,K20*%
X169520000Y-80440000D02*
X188520000Y-80440000D01*
X188520000Y-80440000D02*
X188520000Y-99440000D01*
X188520000Y-99440000D02*
X169520000Y-99440000D01*
X169520000Y-99440000D02*
X169520000Y-80440000D01*
%TO.C,K33*%
X188520000Y-99440000D02*
X207520000Y-99440000D01*
X207520000Y-99440000D02*
X207520000Y-118440000D01*
X207520000Y-118440000D02*
X188520000Y-118440000D01*
X188520000Y-118440000D02*
X188520000Y-99440000D01*
%TO.C,K41*%
X112520000Y-118440000D02*
X131520000Y-118440000D01*
X131520000Y-118440000D02*
X131520000Y-137440000D01*
X131520000Y-137440000D02*
X112520000Y-137440000D01*
X112520000Y-137440000D02*
X112520000Y-118440000D01*
%TO.C,K47*%
X226520000Y-118440000D02*
X245520000Y-118440000D01*
X245520000Y-118440000D02*
X245520000Y-137440000D01*
X245520000Y-137440000D02*
X226520000Y-137440000D01*
X226520000Y-137440000D02*
X226520000Y-118440000D01*
%TO.C,K37*%
X36520000Y-118440000D02*
X55520000Y-118440000D01*
X55520000Y-118440000D02*
X55520000Y-137440000D01*
X55520000Y-137440000D02*
X36520000Y-137440000D01*
X36520000Y-137440000D02*
X36520000Y-118440000D01*
%TO.C,K16*%
X93520000Y-80440000D02*
X112520000Y-80440000D01*
X112520000Y-80440000D02*
X112520000Y-99440000D01*
X112520000Y-99440000D02*
X93520000Y-99440000D01*
X93520000Y-99440000D02*
X93520000Y-80440000D01*
%TO.C,K38*%
X55520000Y-118440000D02*
X74520000Y-118440000D01*
X74520000Y-118440000D02*
X74520000Y-137440000D01*
X74520000Y-137440000D02*
X55520000Y-137440000D01*
X55520000Y-137440000D02*
X55520000Y-118440000D01*
%TO.C,K13*%
X36520000Y-80440000D02*
X55520000Y-80440000D01*
X55520000Y-80440000D02*
X55520000Y-99440000D01*
X55520000Y-99440000D02*
X36520000Y-99440000D01*
X36520000Y-99440000D02*
X36520000Y-80440000D01*
D12*
%TO.C,Pro-Micro1*%
X137210000Y-59165000D02*
X137210000Y-61705000D01*
X132130000Y-61705000D02*
X132130000Y-92185000D01*
X149910000Y-92185000D02*
X149910000Y-61705000D01*
X132130000Y-92185000D02*
X149910000Y-92185000D01*
X149910000Y-61705000D02*
X144830000Y-61705000D01*
X144830000Y-61705000D02*
X144830000Y-59165000D01*
X144830000Y-59165000D02*
X137210000Y-59165000D01*
X137210000Y-61705000D02*
X132130000Y-61705000D01*
%TD*%
D13*
%TO.C,HOLE_M3*%
X255020000Y-80440000D03*
%TD*%
%TO.C,HOLE_M3*%
X46020000Y-118440000D03*
%TD*%
%TO.C,HOLE_M3*%
X46020000Y-80440000D03*
%TD*%
%TO.C,HOLE_M3*%
X255020000Y-118440000D03*
%TD*%
M02*
