%TF.GenerationSoftware,KiCad,Pcbnew,6.0.3-a3aad9c10e~116~ubuntu21.10.1*%
%TF.CreationDate,2022-04-17T15:15:34+01:00*%
%TF.ProjectId,PCB,5043422e-6b69-4636-9164-5f7063625858,rev?*%
%TF.SameCoordinates,Original*%
%TF.FileFunction,Copper,L1,Top*%
%TF.FilePolarity,Positive*%
%FSLAX46Y46*%
G04 Gerber Fmt 4.6, Leading zero omitted, Abs format (unit mm)*
G04 Created by KiCad (PCBNEW 6.0.3-a3aad9c10e~116~ubuntu21.10.1) date 2022-04-17 15:15:34*
%MOMM*%
%LPD*%
G01*
G04 APERTURE LIST*
G04 Aperture macros list*
%AMFreePoly0*
4,1,13,0.142022,-1.501900,-0.191750,-1.501900,-0.191750,-0.834357,-2.194378,-0.834357,-2.194378,-0.500586,-0.191750,-0.500586,-0.191750,0.500728,-2.194378,0.500728,-2.194378,0.834500,-0.191750,0.834500,-0.191750,1.502042,0.142022,1.502042,0.142022,-1.501900,0.142022,-1.501900,$1*%
%AMFreePoly1*
4,1,13,2.154428,1.148229,0.151800,1.148229,0.151800,0.146915,2.154428,0.146915,2.154428,-0.186856,0.151800,-0.186856,0.151800,-1.188170,2.154428,-1.188170,2.154428,-1.521942,-0.181971,-1.521942,-0.181971,1.482000,2.154428,1.482000,2.154428,1.148229,2.154428,1.148229,$1*%
G04 Aperture macros list end*
%TA.AperFunction,ComponentPad*%
%ADD10C,4.000000*%
%TD*%
%TA.AperFunction,SMDPad,CuDef*%
%ADD11FreePoly0,0.000000*%
%TD*%
%TA.AperFunction,SMDPad,CuDef*%
%ADD12FreePoly1,0.000000*%
%TD*%
%TA.AperFunction,ComponentPad*%
%ADD13R,1.600000X1.600000*%
%TD*%
%TA.AperFunction,ComponentPad*%
%ADD14C,1.600000*%
%TD*%
%TA.AperFunction,ViaPad*%
%ADD15C,0.800000*%
%TD*%
%TA.AperFunction,Conductor*%
%ADD16C,0.250000*%
%TD*%
G04 APERTURE END LIST*
D10*
%TO.P,HOLE_M3,1*%
%TO.N,N/C*%
X255020000Y-80440000D03*
%TD*%
D11*
%TO.P,K2,1*%
%TO.N,/col2*%
X66380000Y-70940000D03*
D12*
%TO.P,K2,2*%
%TO.N,Net-(D2-Pad2)*%
X63700000Y-70920000D03*
%TD*%
D11*
%TO.P,K40,1*%
%TO.N,/col4*%
X104380000Y-127940000D03*
D12*
%TO.P,K40,2*%
%TO.N,Net-(D40-Pad2)*%
X101700000Y-127920000D03*
%TD*%
D11*
%TO.P,K42,1*%
%TO.N,/col6*%
X142380000Y-127940000D03*
D12*
%TO.P,K42,2*%
%TO.N,Net-(D42-Pad2)*%
X139700000Y-127920000D03*
%TD*%
D11*
%TO.P,K35,1*%
%TO.N,/col11*%
X237380000Y-108940000D03*
D12*
%TO.P,K35,2*%
%TO.N,Net-(D35-Pad2)*%
X234700000Y-108920000D03*
%TD*%
D10*
%TO.P,HOLE_M3,1*%
%TO.N,N/C*%
X46020000Y-118440000D03*
%TD*%
D11*
%TO.P,K25,1*%
%TO.N,/col1*%
X47380000Y-108940000D03*
D12*
%TO.P,K25,2*%
%TO.N,Net-(D25-Pad2)*%
X44700000Y-108920000D03*
%TD*%
D11*
%TO.P,K32,1*%
%TO.N,/col8*%
X180380000Y-108940000D03*
D12*
%TO.P,K32,2*%
%TO.N,Net-(D32-Pad2)*%
X177700000Y-108920000D03*
%TD*%
D11*
%TO.P,K27,1*%
%TO.N,/col3*%
X85380000Y-108940000D03*
D12*
%TO.P,K27,2*%
%TO.N,Net-(D27-Pad2)*%
X82700000Y-108920000D03*
%TD*%
D11*
%TO.P,K12,1*%
%TO.N,/col12*%
X256380000Y-70940000D03*
D12*
%TO.P,K12,2*%
%TO.N,Net-(D12-Pad2)*%
X253700000Y-70920000D03*
%TD*%
D11*
%TO.P,K5,1*%
%TO.N,/col5*%
X123380000Y-70940000D03*
D12*
%TO.P,K5,2*%
%TO.N,Net-(D5-Pad2)*%
X120700000Y-70920000D03*
%TD*%
D11*
%TO.P,K7,1*%
%TO.N,/col7*%
X161380000Y-70940000D03*
D12*
%TO.P,K7,2*%
%TO.N,Net-(D7-Pad2)*%
X158700000Y-70920000D03*
%TD*%
D11*
%TO.P,K17,1*%
%TO.N,/col5*%
X123380000Y-89940000D03*
D12*
%TO.P,K17,2*%
%TO.N,Net-(D17-Pad2)*%
X120700000Y-89920000D03*
%TD*%
D11*
%TO.P,K19,1*%
%TO.N,/col7*%
X161380000Y-89940000D03*
D12*
%TO.P,K19,2*%
%TO.N,Net-(D19-Pad2)*%
X158700000Y-89920000D03*
%TD*%
D11*
%TO.P,K4,1*%
%TO.N,/col4*%
X104380000Y-70940000D03*
D12*
%TO.P,K4,2*%
%TO.N,Net-(D4-Pad2)*%
X101700000Y-70920000D03*
%TD*%
D11*
%TO.P,K23,1*%
%TO.N,/col11*%
X237380000Y-89940000D03*
D12*
%TO.P,K23,2*%
%TO.N,Net-(D23-Pad2)*%
X234700000Y-89920000D03*
%TD*%
D11*
%TO.P,K43,1*%
%TO.N,/col7*%
X161380000Y-127940000D03*
D12*
%TO.P,K43,2*%
%TO.N,Net-(D43-Pad2)*%
X158700000Y-127920000D03*
%TD*%
D11*
%TO.P,K10,1*%
%TO.N,/col10*%
X218380000Y-70940000D03*
D12*
%TO.P,K10,2*%
%TO.N,Net-(D10-Pad2)*%
X215700000Y-70920000D03*
%TD*%
D11*
%TO.P,K1,1*%
%TO.N,/col1*%
X47380000Y-70940000D03*
D12*
%TO.P,K1,2*%
%TO.N,Net-(D1-Pad2)*%
X44700000Y-70920000D03*
%TD*%
D11*
%TO.P,K44,1*%
%TO.N,/col8*%
X180380000Y-127940000D03*
D12*
%TO.P,K44,2*%
%TO.N,Net-(D44-Pad2)*%
X177700000Y-127920000D03*
%TD*%
D11*
%TO.P,K18,1*%
%TO.N,/col6*%
X142380000Y-89940000D03*
D12*
%TO.P,K18,2*%
%TO.N,Net-(D18-Pad2)*%
X139700000Y-89920000D03*
%TD*%
D11*
%TO.P,K24,1*%
%TO.N,/col12*%
X256380000Y-89940000D03*
D12*
%TO.P,K24,2*%
%TO.N,Net-(D24-Pad2)*%
X253700000Y-89920000D03*
%TD*%
D11*
%TO.P,K22,1*%
%TO.N,/col10*%
X218380000Y-89940000D03*
D12*
%TO.P,K22,2*%
%TO.N,Net-(D22-Pad2)*%
X215700000Y-89920000D03*
%TD*%
D11*
%TO.P,K46,1*%
%TO.N,/col10*%
X218380000Y-127940000D03*
D12*
%TO.P,K46,2*%
%TO.N,Net-(D46-Pad2)*%
X215700000Y-127920000D03*
%TD*%
D11*
%TO.P,K28,1*%
%TO.N,/col4*%
X104380000Y-108940000D03*
D12*
%TO.P,K28,2*%
%TO.N,Net-(D28-Pad2)*%
X101700000Y-108920000D03*
%TD*%
D11*
%TO.P,K3,1*%
%TO.N,/col3*%
X85380000Y-70940000D03*
D12*
%TO.P,K3,2*%
%TO.N,Net-(D3-Pad2)*%
X82700000Y-70920000D03*
%TD*%
D11*
%TO.P,K9,1*%
%TO.N,/col9*%
X199380000Y-70940000D03*
D12*
%TO.P,K9,2*%
%TO.N,Net-(D9-Pad2)*%
X196700000Y-70920000D03*
%TD*%
D11*
%TO.P,K8,1*%
%TO.N,/col8*%
X180380000Y-70940000D03*
D12*
%TO.P,K8,2*%
%TO.N,Net-(D8-Pad2)*%
X177700000Y-70920000D03*
%TD*%
D11*
%TO.P,K21,1*%
%TO.N,/col9*%
X199380000Y-89940000D03*
D12*
%TO.P,K21,2*%
%TO.N,Net-(D21-Pad2)*%
X196700000Y-89920000D03*
%TD*%
D11*
%TO.P,K29,1*%
%TO.N,/col5*%
X123380000Y-108940000D03*
D12*
%TO.P,K29,2*%
%TO.N,Net-(D29-Pad2)*%
X120700000Y-108920000D03*
%TD*%
D11*
%TO.P,K14,1*%
%TO.N,/col2*%
X66380000Y-89940000D03*
D12*
%TO.P,K14,2*%
%TO.N,Net-(D14-Pad2)*%
X63700000Y-89920000D03*
%TD*%
D11*
%TO.P,K39,1*%
%TO.N,/col3*%
X85380000Y-127940000D03*
D12*
%TO.P,K39,2*%
%TO.N,Net-(D39-Pad2)*%
X82700000Y-127920000D03*
%TD*%
D11*
%TO.P,K6,1*%
%TO.N,/col6*%
X142380000Y-70940000D03*
D12*
%TO.P,K6,2*%
%TO.N,Net-(D6-Pad2)*%
X139700000Y-70920000D03*
%TD*%
D11*
%TO.P,K45,1*%
%TO.N,/col9*%
X199380000Y-127940000D03*
D12*
%TO.P,K45,2*%
%TO.N,Net-(D45-Pad2)*%
X196700000Y-127920000D03*
%TD*%
D11*
%TO.P,K31,1*%
%TO.N,/col7*%
X161380000Y-108940000D03*
D12*
%TO.P,K31,2*%
%TO.N,Net-(D31-Pad2)*%
X158700000Y-108920000D03*
%TD*%
D11*
%TO.P,K26,1*%
%TO.N,/col2*%
X66380000Y-108940000D03*
D12*
%TO.P,K26,2*%
%TO.N,Net-(D26-Pad2)*%
X63700000Y-108920000D03*
%TD*%
D10*
%TO.P,HOLE_M3,1*%
%TO.N,N/C*%
X46020000Y-80440000D03*
%TD*%
D11*
%TO.P,K15,1*%
%TO.N,/col3*%
X85380000Y-89940000D03*
D12*
%TO.P,K15,2*%
%TO.N,Net-(D15-Pad2)*%
X82700000Y-89920000D03*
%TD*%
D11*
%TO.P,K36,1*%
%TO.N,/col12*%
X256380000Y-108940000D03*
D12*
%TO.P,K36,2*%
%TO.N,Net-(D36-Pad2)*%
X253700000Y-108920000D03*
%TD*%
D11*
%TO.P,K30,1*%
%TO.N,/col6*%
X142380000Y-108940000D03*
D12*
%TO.P,K30,2*%
%TO.N,Net-(D30-Pad2)*%
X139700000Y-108920000D03*
%TD*%
D11*
%TO.P,K34,1*%
%TO.N,/col10*%
X218380000Y-108940000D03*
D12*
%TO.P,K34,2*%
%TO.N,Net-(D34-Pad2)*%
X215700000Y-108920000D03*
%TD*%
D11*
%TO.P,K48,1*%
%TO.N,/col12*%
X256380000Y-127940000D03*
D12*
%TO.P,K48,2*%
%TO.N,Net-(D48-Pad2)*%
X253700000Y-127920000D03*
%TD*%
D10*
%TO.P,HOLE_M3,1*%
%TO.N,N/C*%
X255020000Y-118440000D03*
%TD*%
D11*
%TO.P,K11,1*%
%TO.N,/col11*%
X237380000Y-70940000D03*
D12*
%TO.P,K11,2*%
%TO.N,Net-(D11-Pad2)*%
X234700000Y-70920000D03*
%TD*%
D11*
%TO.P,K20,1*%
%TO.N,/col8*%
X180380000Y-89940000D03*
D12*
%TO.P,K20,2*%
%TO.N,Net-(D20-Pad2)*%
X177700000Y-89920000D03*
%TD*%
D11*
%TO.P,K33,1*%
%TO.N,/col9*%
X199380000Y-108940000D03*
D12*
%TO.P,K33,2*%
%TO.N,Net-(D33-Pad2)*%
X196700000Y-108920000D03*
%TD*%
D11*
%TO.P,K41,1*%
%TO.N,/col5*%
X123380000Y-127940000D03*
D12*
%TO.P,K41,2*%
%TO.N,Net-(D41-Pad2)*%
X120700000Y-127920000D03*
%TD*%
D11*
%TO.P,K47,1*%
%TO.N,/col11*%
X237380000Y-127940000D03*
D12*
%TO.P,K47,2*%
%TO.N,Net-(D47-Pad2)*%
X234700000Y-127920000D03*
%TD*%
D11*
%TO.P,K37,1*%
%TO.N,/col1*%
X47380000Y-127940000D03*
D12*
%TO.P,K37,2*%
%TO.N,Net-(D37-Pad2)*%
X44700000Y-127920000D03*
%TD*%
D11*
%TO.P,K16,1*%
%TO.N,/col4*%
X104380000Y-89940000D03*
D12*
%TO.P,K16,2*%
%TO.N,Net-(D16-Pad2)*%
X101700000Y-89920000D03*
%TD*%
D11*
%TO.P,K38,1*%
%TO.N,/col2*%
X66380000Y-127940000D03*
D12*
%TO.P,K38,2*%
%TO.N,Net-(D38-Pad2)*%
X63700000Y-127920000D03*
%TD*%
D11*
%TO.P,K13,1*%
%TO.N,/col1*%
X47380000Y-89940000D03*
D12*
%TO.P,K13,2*%
%TO.N,Net-(D13-Pad2)*%
X44700000Y-89920000D03*
%TD*%
D13*
%TO.P,Pro-Micro1,1,TX*%
%TO.N,unconnected-(Pro-Micro1-Pad1)*%
X148640000Y-62975000D03*
D14*
%TO.P,Pro-Micro1,2,RX*%
%TO.N,unconnected-(Pro-Micro1-Pad2)*%
X148640000Y-65515000D03*
%TO.P,Pro-Micro1,3,GND*%
%TO.N,unconnected-(Pro-Micro1-Pad3)*%
X148640000Y-68055000D03*
%TO.P,Pro-Micro1,4,GND*%
%TO.N,unconnected-(Pro-Micro1-Pad4)*%
X148640000Y-70595000D03*
%TO.P,Pro-Micro1,5,SDA*%
%TO.N,/col12*%
X148640000Y-73135000D03*
%TO.P,Pro-Micro1,6,SCL*%
%TO.N,/col11*%
X148640000Y-75675000D03*
%TO.P,Pro-Micro1,7,D4*%
%TO.N,/col10*%
X148640000Y-78215000D03*
%TO.P,Pro-Micro1,8,C6*%
%TO.N,/col9*%
X148640000Y-80755000D03*
%TO.P,Pro-Micro1,9,D7*%
%TO.N,/col8*%
X148640000Y-83295000D03*
%TO.P,Pro-Micro1,10,E6*%
%TO.N,/col7*%
X148640000Y-85835000D03*
%TO.P,Pro-Micro1,11,B4*%
%TO.N,/row3*%
X148640000Y-88375000D03*
%TO.P,Pro-Micro1,12,B5*%
%TO.N,/row4*%
X148640000Y-90915000D03*
%TO.P,Pro-Micro1,13,B6*%
%TO.N,/col1*%
X133400000Y-90915000D03*
%TO.P,Pro-Micro1,14,B2*%
%TO.N,/col2*%
X133400000Y-88375000D03*
%TO.P,Pro-Micro1,15,B3*%
%TO.N,/col3*%
X133400000Y-85835000D03*
%TO.P,Pro-Micro1,16,B1*%
%TO.N,/col4*%
X133400000Y-83295000D03*
%TO.P,Pro-Micro1,17,F7*%
%TO.N,/col5*%
X133400000Y-80755000D03*
%TO.P,Pro-Micro1,18,F6*%
%TO.N,/col6*%
X133400000Y-78215000D03*
%TO.P,Pro-Micro1,19,F5*%
%TO.N,/row2*%
X133400000Y-75675000D03*
%TO.P,Pro-Micro1,20,F4*%
%TO.N,/row1*%
X133400000Y-73135000D03*
%TO.P,Pro-Micro1,21,VCC*%
%TO.N,unconnected-(Pro-Micro1-Pad21)*%
X133400000Y-70595000D03*
%TO.P,Pro-Micro1,22,RST*%
%TO.N,unconnected-(Pro-Micro1-Pad22)*%
X133400000Y-68055000D03*
%TO.P,Pro-Micro1,23,GND*%
%TO.N,unconnected-(Pro-Micro1-Pad23)*%
X133400000Y-65515000D03*
%TO.P,Pro-Micro1,24,RAW*%
%TO.N,unconnected-(Pro-Micro1-Pad24)*%
X133400000Y-62975000D03*
%TD*%
D13*
%TO.P,D39,1*%
%TO.N,/row4*%
X87920000Y-132240000D03*
D14*
%TO.P,D39,2*%
%TO.N,Net-(D39-Pad2)*%
X80120000Y-132240000D03*
%TD*%
D13*
%TO.P,D26,1*%
%TO.N,/row3*%
X68920000Y-113240000D03*
D14*
%TO.P,D26,2*%
%TO.N,Net-(D26-Pad2)*%
X61120000Y-113240000D03*
%TD*%
D13*
%TO.P,D11,1*%
%TO.N,/row1*%
X239920000Y-75240000D03*
D14*
%TO.P,D11,2*%
%TO.N,Net-(D11-Pad2)*%
X232120000Y-75240000D03*
%TD*%
D13*
%TO.P,D18,1*%
%TO.N,/row2*%
X144920000Y-94240000D03*
D14*
%TO.P,D18,2*%
%TO.N,Net-(D18-Pad2)*%
X137120000Y-94240000D03*
%TD*%
D13*
%TO.P,D10,1*%
%TO.N,/row1*%
X220920000Y-75240000D03*
D14*
%TO.P,D10,2*%
%TO.N,Net-(D10-Pad2)*%
X213120000Y-75240000D03*
%TD*%
D13*
%TO.P,D23,1*%
%TO.N,/row2*%
X239920000Y-94240000D03*
D14*
%TO.P,D23,2*%
%TO.N,Net-(D23-Pad2)*%
X232120000Y-94240000D03*
%TD*%
D13*
%TO.P,D28,1*%
%TO.N,/row3*%
X106920000Y-113240000D03*
D14*
%TO.P,D28,2*%
%TO.N,Net-(D28-Pad2)*%
X99120000Y-113240000D03*
%TD*%
D13*
%TO.P,D7,1*%
%TO.N,/row1*%
X163920000Y-75240000D03*
D14*
%TO.P,D7,2*%
%TO.N,Net-(D7-Pad2)*%
X156120000Y-75240000D03*
%TD*%
D13*
%TO.P,D37,1*%
%TO.N,/row4*%
X49920000Y-132240000D03*
D14*
%TO.P,D37,2*%
%TO.N,Net-(D37-Pad2)*%
X42120000Y-132240000D03*
%TD*%
D13*
%TO.P,D1,1*%
%TO.N,/row1*%
X49920000Y-75240000D03*
D14*
%TO.P,D1,2*%
%TO.N,Net-(D1-Pad2)*%
X42120000Y-75240000D03*
%TD*%
D13*
%TO.P,D48,1*%
%TO.N,/row4*%
X258920000Y-132240000D03*
D14*
%TO.P,D48,2*%
%TO.N,Net-(D48-Pad2)*%
X251120000Y-132240000D03*
%TD*%
D13*
%TO.P,D47,1*%
%TO.N,/row4*%
X239920000Y-132240000D03*
D14*
%TO.P,D47,2*%
%TO.N,Net-(D47-Pad2)*%
X232120000Y-132240000D03*
%TD*%
D13*
%TO.P,D21,1*%
%TO.N,/row2*%
X201920000Y-94240000D03*
D14*
%TO.P,D21,2*%
%TO.N,Net-(D21-Pad2)*%
X194120000Y-94240000D03*
%TD*%
D13*
%TO.P,D6,1*%
%TO.N,/row1*%
X144920000Y-75240000D03*
D14*
%TO.P,D6,2*%
%TO.N,Net-(D6-Pad2)*%
X137120000Y-75240000D03*
%TD*%
D13*
%TO.P,D31,1*%
%TO.N,/row3*%
X163920000Y-113240000D03*
D14*
%TO.P,D31,2*%
%TO.N,Net-(D31-Pad2)*%
X156120000Y-113240000D03*
%TD*%
D13*
%TO.P,D4,1*%
%TO.N,/row1*%
X106920000Y-75240000D03*
D14*
%TO.P,D4,2*%
%TO.N,Net-(D4-Pad2)*%
X99120000Y-75240000D03*
%TD*%
D13*
%TO.P,D36,1*%
%TO.N,/row3*%
X258920000Y-113240000D03*
D14*
%TO.P,D36,2*%
%TO.N,Net-(D36-Pad2)*%
X251120000Y-113240000D03*
%TD*%
D13*
%TO.P,D14,1*%
%TO.N,/row2*%
X68920000Y-94240000D03*
D14*
%TO.P,D14,2*%
%TO.N,Net-(D14-Pad2)*%
X61120000Y-94240000D03*
%TD*%
D13*
%TO.P,D29,1*%
%TO.N,/row3*%
X125920000Y-113240000D03*
D14*
%TO.P,D29,2*%
%TO.N,Net-(D29-Pad2)*%
X118120000Y-113240000D03*
%TD*%
D13*
%TO.P,D42,1*%
%TO.N,/row4*%
X144920000Y-132240000D03*
D14*
%TO.P,D42,2*%
%TO.N,Net-(D42-Pad2)*%
X137120000Y-132240000D03*
%TD*%
D13*
%TO.P,D41,1*%
%TO.N,/row4*%
X125920000Y-132240000D03*
D14*
%TO.P,D41,2*%
%TO.N,Net-(D41-Pad2)*%
X118120000Y-132240000D03*
%TD*%
D13*
%TO.P,D40,1*%
%TO.N,/row4*%
X106920000Y-132240000D03*
D14*
%TO.P,D40,2*%
%TO.N,Net-(D40-Pad2)*%
X99120000Y-132240000D03*
%TD*%
D13*
%TO.P,D8,1*%
%TO.N,/row1*%
X182920000Y-75240000D03*
D14*
%TO.P,D8,2*%
%TO.N,Net-(D8-Pad2)*%
X175120000Y-75240000D03*
%TD*%
D13*
%TO.P,D17,1*%
%TO.N,/row2*%
X125920000Y-94240000D03*
D14*
%TO.P,D17,2*%
%TO.N,Net-(D17-Pad2)*%
X118120000Y-94240000D03*
%TD*%
D13*
%TO.P,D2,1*%
%TO.N,/row1*%
X68920000Y-75240000D03*
D14*
%TO.P,D2,2*%
%TO.N,Net-(D2-Pad2)*%
X61120000Y-75240000D03*
%TD*%
D13*
%TO.P,D24,1*%
%TO.N,/row2*%
X258920000Y-94240000D03*
D14*
%TO.P,D24,2*%
%TO.N,Net-(D24-Pad2)*%
X251120000Y-94240000D03*
%TD*%
D13*
%TO.P,D9,1*%
%TO.N,/row1*%
X201920000Y-75240000D03*
D14*
%TO.P,D9,2*%
%TO.N,Net-(D9-Pad2)*%
X194120000Y-75240000D03*
%TD*%
D13*
%TO.P,D12,1*%
%TO.N,/row1*%
X258920000Y-75240000D03*
D14*
%TO.P,D12,2*%
%TO.N,Net-(D12-Pad2)*%
X251120000Y-75240000D03*
%TD*%
D13*
%TO.P,D13,1*%
%TO.N,/row2*%
X49920000Y-94240000D03*
D14*
%TO.P,D13,2*%
%TO.N,Net-(D13-Pad2)*%
X42120000Y-94240000D03*
%TD*%
D13*
%TO.P,D5,1*%
%TO.N,/row1*%
X125920000Y-75240000D03*
D14*
%TO.P,D5,2*%
%TO.N,Net-(D5-Pad2)*%
X118120000Y-75240000D03*
%TD*%
D13*
%TO.P,D33,1*%
%TO.N,/row3*%
X201920000Y-113240000D03*
D14*
%TO.P,D33,2*%
%TO.N,Net-(D33-Pad2)*%
X194120000Y-113240000D03*
%TD*%
D13*
%TO.P,D30,1*%
%TO.N,/row3*%
X144920000Y-113240000D03*
D14*
%TO.P,D30,2*%
%TO.N,Net-(D30-Pad2)*%
X137120000Y-113240000D03*
%TD*%
D13*
%TO.P,D27,1*%
%TO.N,/row3*%
X87920000Y-113240000D03*
D14*
%TO.P,D27,2*%
%TO.N,Net-(D27-Pad2)*%
X80120000Y-113240000D03*
%TD*%
D13*
%TO.P,D25,1*%
%TO.N,/row3*%
X49920000Y-113240000D03*
D14*
%TO.P,D25,2*%
%TO.N,Net-(D25-Pad2)*%
X42120000Y-113240000D03*
%TD*%
D13*
%TO.P,D45,1*%
%TO.N,/row4*%
X201920000Y-132240000D03*
D14*
%TO.P,D45,2*%
%TO.N,Net-(D45-Pad2)*%
X194120000Y-132240000D03*
%TD*%
D13*
%TO.P,D20,1*%
%TO.N,/row2*%
X182920000Y-94240000D03*
D14*
%TO.P,D20,2*%
%TO.N,Net-(D20-Pad2)*%
X175120000Y-94240000D03*
%TD*%
D13*
%TO.P,D38,1*%
%TO.N,/row4*%
X68920000Y-132240000D03*
D14*
%TO.P,D38,2*%
%TO.N,Net-(D38-Pad2)*%
X61120000Y-132240000D03*
%TD*%
D13*
%TO.P,D43,1*%
%TO.N,/row4*%
X163920000Y-132240000D03*
D14*
%TO.P,D43,2*%
%TO.N,Net-(D43-Pad2)*%
X156120000Y-132240000D03*
%TD*%
D13*
%TO.P,D44,1*%
%TO.N,/row4*%
X182920000Y-132240000D03*
D14*
%TO.P,D44,2*%
%TO.N,Net-(D44-Pad2)*%
X175120000Y-132240000D03*
%TD*%
D13*
%TO.P,D32,1*%
%TO.N,/row3*%
X182920000Y-113240000D03*
D14*
%TO.P,D32,2*%
%TO.N,Net-(D32-Pad2)*%
X175120000Y-113240000D03*
%TD*%
D13*
%TO.P,D22,1*%
%TO.N,/row2*%
X220920000Y-94240000D03*
D14*
%TO.P,D22,2*%
%TO.N,Net-(D22-Pad2)*%
X213120000Y-94240000D03*
%TD*%
D13*
%TO.P,D3,1*%
%TO.N,/row1*%
X87920000Y-75240000D03*
D14*
%TO.P,D3,2*%
%TO.N,Net-(D3-Pad2)*%
X80120000Y-75240000D03*
%TD*%
D13*
%TO.P,D15,1*%
%TO.N,/row2*%
X87920000Y-94240000D03*
D14*
%TO.P,D15,2*%
%TO.N,Net-(D15-Pad2)*%
X80120000Y-94240000D03*
%TD*%
D13*
%TO.P,D46,1*%
%TO.N,/row4*%
X220920000Y-132240000D03*
D14*
%TO.P,D46,2*%
%TO.N,Net-(D46-Pad2)*%
X213120000Y-132240000D03*
%TD*%
D13*
%TO.P,D16,1*%
%TO.N,/row2*%
X106920000Y-94240000D03*
D14*
%TO.P,D16,2*%
%TO.N,Net-(D16-Pad2)*%
X99120000Y-94240000D03*
%TD*%
D13*
%TO.P,D35,1*%
%TO.N,/row3*%
X239920000Y-113240000D03*
D14*
%TO.P,D35,2*%
%TO.N,Net-(D35-Pad2)*%
X232120000Y-113240000D03*
%TD*%
D13*
%TO.P,D34,1*%
%TO.N,/row3*%
X220920000Y-113240000D03*
D14*
%TO.P,D34,2*%
%TO.N,Net-(D34-Pad2)*%
X213120000Y-113240000D03*
%TD*%
D13*
%TO.P,D19,1*%
%TO.N,/row2*%
X163920000Y-94240000D03*
D14*
%TO.P,D19,2*%
%TO.N,Net-(D19-Pad2)*%
X156120000Y-94240000D03*
%TD*%
D15*
%TO.N,/col1*%
X55520000Y-108440000D03*
X55520000Y-89440000D03*
X55520000Y-71440000D03*
X55520000Y-127440000D03*
%TO.N,/col2*%
X74520000Y-108440000D03*
X74520000Y-127440000D03*
X74520000Y-71440000D03*
X74520000Y-89440000D03*
%TO.N,/col3*%
X93520000Y-89440000D03*
X93520000Y-127440000D03*
X93520000Y-108440000D03*
X93520000Y-71440000D03*
%TO.N,/col4*%
X112520000Y-89440000D03*
X112520000Y-108440000D03*
X112520000Y-71440000D03*
X112520000Y-127440000D03*
%TO.N,/col5*%
X128520000Y-71440000D03*
X128520000Y-89440000D03*
X128520000Y-108440000D03*
X128520000Y-127440000D03*
%TO.N,/col6*%
X146520000Y-71440000D03*
X146520000Y-89440000D03*
X146520000Y-108440000D03*
X146520000Y-127440000D03*
%TO.N,/col7*%
X169520000Y-108440000D03*
X169520000Y-71440000D03*
X169520000Y-127440000D03*
X169520000Y-89440000D03*
%TO.N,/col8*%
X188520000Y-108440000D03*
X188520000Y-127440000D03*
X188520000Y-89440000D03*
X188520000Y-71440000D03*
%TO.N,/row4*%
X148520000Y-118440000D03*
%TO.N,/row3*%
X150520000Y-99440000D03*
%TO.N,/col12*%
X261520000Y-89440000D03*
X261520000Y-127440000D03*
X261520000Y-108440000D03*
X261520000Y-71440000D03*
%TO.N,/col11*%
X245520000Y-71440000D03*
X245520000Y-89440000D03*
X245520000Y-127440000D03*
X245520000Y-108440000D03*
%TO.N,/col10*%
X226520000Y-108440000D03*
X226520000Y-71440000D03*
X226520000Y-89440000D03*
X226520000Y-127440000D03*
%TO.N,/col9*%
X207520000Y-89440000D03*
X207520000Y-108440000D03*
X207520000Y-127440000D03*
X207520000Y-71440000D03*
%TD*%
D16*
%TO.N,/row4*%
X239920000Y-134240000D02*
X239935000Y-134225000D01*
X239935000Y-134225000D02*
X258905000Y-134225000D01*
X258905000Y-134225000D02*
X258920000Y-134240000D01*
X258920000Y-134240000D02*
X258920000Y-132240000D01*
X239920000Y-134240000D02*
X239905000Y-134225000D01*
X239905000Y-134225000D02*
X220935000Y-134225000D01*
X220935000Y-134225000D02*
X220920000Y-134240000D01*
X220920000Y-134240000D02*
X220880000Y-134200000D01*
X220880000Y-134200000D02*
X201960000Y-134200000D01*
X201960000Y-134200000D02*
X201920000Y-134240000D01*
X201920000Y-134240000D02*
X201905000Y-134225000D01*
X201905000Y-134225000D02*
X182935000Y-134225000D01*
X182935000Y-134225000D02*
X182920000Y-134240000D01*
X163920000Y-134240000D02*
X163930000Y-134250000D01*
X163930000Y-134250000D02*
X182910000Y-134250000D01*
X182910000Y-134250000D02*
X182920000Y-134240000D01*
X144920000Y-134240000D02*
X148510000Y-134240000D01*
X148510000Y-134240000D02*
X163900000Y-134240000D01*
X148520000Y-118440000D02*
X148520000Y-134230000D01*
X148520000Y-134230000D02*
X148510000Y-134240000D01*
X163900000Y-134240000D02*
X163910000Y-134250000D01*
X144920000Y-134240000D02*
X144935000Y-134225000D01*
X163910000Y-134250000D02*
X163920000Y-134240000D01*
%TO.N,/row3*%
X239920000Y-115240000D02*
X239980000Y-115300000D01*
X239980000Y-115300000D02*
X258860000Y-115300000D01*
X258920000Y-115240000D02*
X258920000Y-113240000D01*
X258860000Y-115300000D02*
X258920000Y-115240000D01*
X220920000Y-115240000D02*
X220980000Y-115300000D01*
X220980000Y-115300000D02*
X239860000Y-115300000D01*
X239860000Y-115300000D02*
X239920000Y-115240000D01*
X201920000Y-115240000D02*
X201955000Y-115275000D01*
X201955000Y-115275000D02*
X220885000Y-115275000D01*
X220885000Y-115275000D02*
X220920000Y-115240000D01*
X182920000Y-115240000D02*
X182955000Y-115275000D01*
X182955000Y-115275000D02*
X201885000Y-115275000D01*
X201885000Y-115275000D02*
X201920000Y-115240000D01*
X163920000Y-115240000D02*
X163955000Y-115275000D01*
X163955000Y-115275000D02*
X182885000Y-115275000D01*
X182885000Y-115275000D02*
X182920000Y-115240000D01*
%TO.N,/row4*%
X239920000Y-134240000D02*
X239920000Y-132240000D01*
%TO.N,/row3*%
X239920000Y-115240000D02*
X239920000Y-113240000D01*
%TO.N,/row4*%
X220920000Y-134240000D02*
X220920000Y-132240000D01*
%TO.N,/row3*%
X220920000Y-115240000D02*
X220920000Y-113240000D01*
X201920000Y-115240000D02*
X201920000Y-113240000D01*
%TO.N,/row4*%
X201920000Y-134240000D02*
X201920000Y-132240000D01*
X182920000Y-134240000D02*
X182920000Y-132240000D01*
X163920000Y-134240000D02*
X163920000Y-132240000D01*
%TO.N,/row3*%
X182920000Y-115240000D02*
X182920000Y-113240000D01*
X163885000Y-115275000D02*
X163920000Y-115240000D01*
X163920000Y-115240000D02*
X163920000Y-113240000D01*
X150520000Y-99440000D02*
X150444511Y-99515489D01*
X150444511Y-99515489D02*
X150444511Y-115275000D01*
X150444511Y-115275000D02*
X163885000Y-115275000D01*
X150475000Y-115275000D02*
X144955000Y-115275000D01*
X144955000Y-115275000D02*
X144920000Y-115240000D01*
X144920000Y-115240000D02*
X144885000Y-115275000D01*
X144885000Y-115275000D02*
X125955000Y-115275000D01*
X125955000Y-115275000D02*
X125920000Y-115240000D01*
X125920000Y-115240000D02*
X125885000Y-115275000D01*
X125885000Y-115275000D02*
X106955000Y-115275000D01*
X106955000Y-115275000D02*
X106920000Y-115240000D01*
X106920000Y-115240000D02*
X106885000Y-115275000D01*
X106885000Y-115275000D02*
X87955000Y-115275000D01*
X87955000Y-115275000D02*
X87920000Y-115240000D01*
X87920000Y-115240000D02*
X87885000Y-115275000D01*
X87885000Y-115275000D02*
X68955000Y-115275000D01*
X68955000Y-115275000D02*
X68920000Y-115240000D01*
X68920000Y-115240000D02*
X68885000Y-115275000D01*
X68885000Y-115275000D02*
X49955000Y-115275000D01*
X49920000Y-115240000D02*
X49920000Y-113240000D01*
X49955000Y-115275000D02*
X49920000Y-115240000D01*
%TO.N,Net-(D43-Pad2)*%
X158700000Y-127920000D02*
X157159633Y-127920000D01*
X157159633Y-127920000D02*
X156120000Y-128959633D01*
X156120000Y-128959633D02*
X156120000Y-132240000D01*
%TO.N,Net-(D44-Pad2)*%
X177700000Y-127920000D02*
X177677894Y-127942106D01*
X177677894Y-127942106D02*
X176137527Y-127942106D01*
X176137527Y-127942106D02*
X175120000Y-128959633D01*
X175120000Y-128959633D02*
X175120000Y-132240000D01*
%TO.N,Net-(D45-Pad2)*%
X196700000Y-127920000D02*
X195159633Y-127920000D01*
X195159633Y-127920000D02*
X194120000Y-128959633D01*
X194120000Y-128959633D02*
X194120000Y-132240000D01*
%TO.N,Net-(D46-Pad2)*%
X215700000Y-127920000D02*
X214159633Y-127920000D01*
X214159633Y-127920000D02*
X213120000Y-128959633D01*
X213120000Y-128959633D02*
X213120000Y-132240000D01*
%TO.N,Net-(D47-Pad2)*%
X234700000Y-127920000D02*
X233159633Y-127920000D01*
X233159633Y-127920000D02*
X232120000Y-128959633D01*
X232120000Y-128959633D02*
X232120000Y-132240000D01*
%TO.N,Net-(D48-Pad2)*%
X253700000Y-127920000D02*
X253677894Y-127942106D01*
X253677894Y-127942106D02*
X252137527Y-127942106D01*
X252137527Y-127942106D02*
X251120000Y-128959633D01*
X251120000Y-128959633D02*
X251120000Y-132240000D01*
%TO.N,Net-(D36-Pad2)*%
X253700000Y-108920000D02*
X253677894Y-108942106D01*
X251120000Y-109959633D02*
X251120000Y-113240000D01*
X253677894Y-108942106D02*
X252137527Y-108942106D01*
X252137527Y-108942106D02*
X251120000Y-109959633D01*
%TO.N,Net-(D35-Pad2)*%
X234700000Y-108920000D02*
X233159633Y-108920000D01*
X233159633Y-108920000D02*
X232120000Y-109959633D01*
X232120000Y-109959633D02*
X232120000Y-113240000D01*
%TO.N,Net-(D34-Pad2)*%
X215700000Y-108920000D02*
X214159633Y-108920000D01*
X214159633Y-108920000D02*
X213120000Y-109959633D01*
X213120000Y-109959633D02*
X213120000Y-113240000D01*
%TO.N,Net-(D33-Pad2)*%
X196700000Y-108920000D02*
X195159633Y-108920000D01*
X195159633Y-108920000D02*
X194120000Y-109959633D01*
X194120000Y-109959633D02*
X194120000Y-113240000D01*
%TO.N,Net-(D32-Pad2)*%
X177700000Y-108920000D02*
X177677894Y-108942106D01*
X177677894Y-108942106D02*
X176137527Y-108942106D01*
X176137527Y-108942106D02*
X175120000Y-109959633D01*
X175120000Y-109959633D02*
X175120000Y-113240000D01*
%TO.N,Net-(D31-Pad2)*%
X158700000Y-108920000D02*
X158677894Y-108942106D01*
X158677894Y-108942106D02*
X157137527Y-108942106D01*
X157137527Y-108942106D02*
X156120000Y-109959633D01*
X156120000Y-109959633D02*
X156120000Y-113240000D01*
%TO.N,/row4*%
X125920000Y-134240000D02*
X125935000Y-134225000D01*
X125935000Y-134225000D02*
X144905000Y-134225000D01*
X144905000Y-134225000D02*
X144920000Y-134240000D01*
X106920000Y-134240000D02*
X107190000Y-134240000D01*
X107190000Y-134240000D02*
X107205000Y-134225000D01*
X107205000Y-134225000D02*
X125905000Y-134225000D01*
X125905000Y-134225000D02*
X125920000Y-134240000D01*
X87920000Y-134240000D02*
X87930000Y-134250000D01*
X87930000Y-134250000D02*
X106910000Y-134250000D01*
X106910000Y-134250000D02*
X106920000Y-134240000D01*
X68920000Y-134240000D02*
X68930000Y-134250000D01*
X68930000Y-134250000D02*
X87910000Y-134250000D01*
X87910000Y-134250000D02*
X87920000Y-134240000D01*
X68920000Y-134240000D02*
X68910000Y-134250000D01*
X68910000Y-134250000D02*
X49930000Y-134250000D01*
X49930000Y-134250000D02*
X49920000Y-134240000D01*
X49920000Y-134240000D02*
X49920000Y-132240000D01*
X68920000Y-134240000D02*
X68920000Y-132240000D01*
X87920000Y-134240000D02*
X87920000Y-132240000D01*
X106920000Y-134240000D02*
X106920000Y-132240000D01*
X125920000Y-134240000D02*
X125920000Y-132240000D01*
X144920000Y-134240000D02*
X144920000Y-132240000D01*
%TO.N,/row3*%
X144920000Y-115240000D02*
X144920000Y-113240000D01*
X125920000Y-115240000D02*
X125920000Y-113240000D01*
X106920000Y-115240000D02*
X106920000Y-113240000D01*
X87920000Y-115240000D02*
X87920000Y-113240000D01*
X68920000Y-115240000D02*
X68920000Y-113240000D01*
%TO.N,Net-(D42-Pad2)*%
X139700000Y-127920000D02*
X138159633Y-127920000D01*
X138159633Y-127920000D02*
X137120000Y-128959633D01*
X137120000Y-128959633D02*
X137120000Y-132240000D01*
%TO.N,Net-(D30-Pad2)*%
X139700000Y-108920000D02*
X138159633Y-108920000D01*
X138159633Y-108920000D02*
X137120000Y-109959633D01*
X137120000Y-109959633D02*
X137120000Y-113240000D01*
%TO.N,Net-(D29-Pad2)*%
X120700000Y-108920000D02*
X119159633Y-108920000D01*
X119159633Y-108920000D02*
X118120000Y-109959633D01*
X118120000Y-109959633D02*
X118120000Y-113240000D01*
%TO.N,Net-(D41-Pad2)*%
X120700000Y-127920000D02*
X119159633Y-127920000D01*
X119159633Y-127920000D02*
X118120000Y-128959633D01*
X118120000Y-128959633D02*
X118120000Y-132240000D01*
%TO.N,Net-(D40-Pad2)*%
X101700000Y-127920000D02*
X100159633Y-127920000D01*
X100159633Y-127920000D02*
X99120000Y-128959633D01*
X99120000Y-128959633D02*
X99120000Y-132240000D01*
%TO.N,Net-(D28-Pad2)*%
X101700000Y-108920000D02*
X100159633Y-108920000D01*
X100159633Y-108920000D02*
X99120000Y-109959633D01*
X99120000Y-109959633D02*
X99120000Y-113240000D01*
%TO.N,Net-(D39-Pad2)*%
X82700000Y-127920000D02*
X81159633Y-127920000D01*
X81159633Y-127920000D02*
X80120000Y-128959633D01*
X80120000Y-128959633D02*
X80120000Y-132240000D01*
%TO.N,Net-(D27-Pad2)*%
X82700000Y-108920000D02*
X81159633Y-108920000D01*
X81159633Y-108920000D02*
X80120000Y-109959633D01*
X80120000Y-109959633D02*
X80120000Y-113240000D01*
%TO.N,Net-(D38-Pad2)*%
X63700000Y-127920000D02*
X63677894Y-127942106D01*
X63677894Y-127942106D02*
X62137527Y-127942106D01*
X62137527Y-127942106D02*
X61120000Y-128959633D01*
X61120000Y-128959633D02*
X61120000Y-132240000D01*
%TO.N,Net-(D26-Pad2)*%
X63700000Y-108920000D02*
X63677894Y-108942106D01*
X63677894Y-108942106D02*
X62137527Y-108942106D01*
X62137527Y-108942106D02*
X61120000Y-109959633D01*
X61120000Y-109959633D02*
X61120000Y-113240000D01*
%TO.N,Net-(D37-Pad2)*%
X44700000Y-127920000D02*
X44677894Y-127942106D01*
X44677894Y-127942106D02*
X43137527Y-127942106D01*
X43137527Y-127942106D02*
X42120000Y-128959633D01*
X42120000Y-128959633D02*
X42120000Y-132240000D01*
%TO.N,Net-(D25-Pad2)*%
X44700000Y-108920000D02*
X44677894Y-108942106D01*
X44677894Y-108942106D02*
X43137527Y-108942106D01*
X43137527Y-108942106D02*
X42120000Y-109959633D01*
X42120000Y-109959633D02*
X42120000Y-113240000D01*
%TO.N,/row2*%
X49920000Y-94240000D02*
X49920000Y-96240000D01*
X49920000Y-96240000D02*
X49960000Y-96200000D01*
X49960000Y-96200000D02*
X68850000Y-96200000D01*
X87880000Y-96200000D02*
X87920000Y-96240000D01*
X68850000Y-96200000D02*
X68925000Y-96125000D01*
X68925000Y-96125000D02*
X69000000Y-96200000D01*
X69000000Y-96200000D02*
X87880000Y-96200000D01*
X68900000Y-96150000D02*
X68920000Y-96130000D01*
X68920000Y-96130000D02*
X68920000Y-94240000D01*
%TO.N,Net-(D13-Pad2)*%
X44700000Y-89920000D02*
X44677894Y-89942106D01*
X44677894Y-89942106D02*
X43137527Y-89942106D01*
X43137527Y-89942106D02*
X42120000Y-90959633D01*
X42120000Y-90959633D02*
X42120000Y-94240000D01*
%TO.N,Net-(D14-Pad2)*%
X63700000Y-89920000D02*
X63677894Y-89942106D01*
X63677894Y-89942106D02*
X62137527Y-89942106D01*
X62137527Y-89942106D02*
X61120000Y-90959633D01*
X61120000Y-90959633D02*
X61120000Y-94240000D01*
%TO.N,/row2*%
X87920000Y-96240000D02*
X87935000Y-96225000D01*
X106905000Y-96225000D02*
X106920000Y-96240000D01*
X87935000Y-96225000D02*
X106905000Y-96225000D01*
X106920000Y-96240000D02*
X106935000Y-96225000D01*
X106935000Y-96225000D02*
X125905000Y-96225000D01*
X125905000Y-96225000D02*
X125920000Y-96240000D01*
X87920000Y-96240000D02*
X87920000Y-94240000D01*
X106920000Y-96240000D02*
X106920000Y-94240000D01*
%TO.N,Net-(D15-Pad2)*%
X82700000Y-89920000D02*
X82677894Y-89942106D01*
X82677894Y-89942106D02*
X81137527Y-89942106D01*
X81137527Y-89942106D02*
X80120000Y-90959633D01*
X80120000Y-90959633D02*
X80120000Y-94240000D01*
%TO.N,Net-(D16-Pad2)*%
X101700000Y-89920000D02*
X100916536Y-89920000D01*
X100916536Y-89920000D02*
X100894430Y-89942106D01*
X100894430Y-89942106D02*
X100137527Y-89942106D01*
X100137527Y-89942106D02*
X99120000Y-90959633D01*
X99120000Y-90959633D02*
X99120000Y-94240000D01*
%TO.N,Net-(D17-Pad2)*%
X120700000Y-89920000D02*
X120677894Y-89942106D01*
X120677894Y-89942106D02*
X119137527Y-89942106D01*
X119137527Y-89942106D02*
X118120000Y-90959633D01*
X118120000Y-90959633D02*
X118120000Y-94240000D01*
%TO.N,/row2*%
X125920000Y-96240000D02*
X125920000Y-94240000D01*
X133400000Y-75675000D02*
X129595489Y-79479511D01*
X129595489Y-79479511D02*
X129595489Y-96250000D01*
X129595489Y-96250000D02*
X144910000Y-96250000D01*
X144910000Y-96250000D02*
X144920000Y-96240000D01*
X125920000Y-96240000D02*
X129590000Y-96240000D01*
X129590000Y-96240000D02*
X129600000Y-96250000D01*
X144920000Y-96240000D02*
X144955000Y-96275000D01*
X144955000Y-96275000D02*
X163885000Y-96275000D01*
X163885000Y-96275000D02*
X163920000Y-96240000D01*
X144920000Y-96240000D02*
X144920000Y-94240000D01*
%TO.N,Net-(D18-Pad2)*%
X139700000Y-89920000D02*
X139677894Y-89942106D01*
X139677894Y-89942106D02*
X138137527Y-89942106D01*
X138137527Y-89942106D02*
X137120000Y-90959633D01*
X137120000Y-90959633D02*
X137120000Y-94240000D01*
%TO.N,Net-(D19-Pad2)*%
X158700000Y-89920000D02*
X157159633Y-89920000D01*
X157159633Y-89920000D02*
X156120000Y-90959633D01*
X156120000Y-90959633D02*
X156120000Y-94240000D01*
%TO.N,/row2*%
X163920000Y-96240000D02*
X163920000Y-94240000D01*
X163920000Y-96240000D02*
X163980000Y-96300000D01*
X163980000Y-96300000D02*
X182860000Y-96300000D01*
X182860000Y-96300000D02*
X182920000Y-96240000D01*
%TO.N,Net-(D20-Pad2)*%
X177700000Y-89920000D02*
X176159633Y-89920000D01*
X176159633Y-89920000D02*
X175120000Y-90959633D01*
X175120000Y-90959633D02*
X175120000Y-94240000D01*
%TO.N,/row2*%
X182980000Y-96300000D02*
X182920000Y-96240000D01*
X182920000Y-96240000D02*
X182920000Y-94240000D01*
X182980000Y-96300000D02*
X201860000Y-96300000D01*
X201860000Y-96300000D02*
X201920000Y-96240000D01*
%TO.N,Net-(D21-Pad2)*%
X196700000Y-89920000D02*
X195159633Y-89920000D01*
X195159633Y-89920000D02*
X194120000Y-90959633D01*
X194120000Y-90959633D02*
X194120000Y-94240000D01*
%TO.N,/row2*%
X201920000Y-94240000D02*
X201920000Y-96240000D01*
X201920000Y-96240000D02*
X202005000Y-96325000D01*
X220835000Y-96325000D02*
X220920000Y-96240000D01*
X202005000Y-96325000D02*
X220835000Y-96325000D01*
%TO.N,Net-(D22-Pad2)*%
X215700000Y-89920000D02*
X214159633Y-89920000D01*
X214159633Y-89920000D02*
X213120000Y-90959633D01*
X213120000Y-90959633D02*
X213120000Y-94240000D01*
%TO.N,/row2*%
X220920000Y-96240000D02*
X221005000Y-96325000D01*
X221005000Y-96325000D02*
X239835000Y-96325000D01*
X239835000Y-96325000D02*
X239920000Y-96240000D01*
%TO.N,Net-(D23-Pad2)*%
X234700000Y-89920000D02*
X233159633Y-89920000D01*
X233159633Y-89920000D02*
X232120000Y-90959633D01*
X232120000Y-90959633D02*
X232120000Y-94240000D01*
%TO.N,/row2*%
X239920000Y-96240000D02*
X239980000Y-96300000D01*
X258860000Y-96300000D02*
X258920000Y-96240000D01*
X239980000Y-96300000D02*
X258860000Y-96300000D01*
X258920000Y-96240000D02*
X258920000Y-94240000D01*
X220920000Y-96240000D02*
X220920000Y-94240000D01*
X239920000Y-96240000D02*
X239920000Y-94240000D01*
%TO.N,Net-(D24-Pad2)*%
X253700000Y-89920000D02*
X252159633Y-89920000D01*
X252159633Y-89920000D02*
X251120000Y-90959633D01*
X251120000Y-90959633D02*
X251120000Y-94240000D01*
%TO.N,/row1*%
X239920000Y-77240000D02*
X239980000Y-77300000D01*
X239980000Y-77300000D02*
X258860000Y-77300000D01*
X258860000Y-77300000D02*
X258920000Y-77240000D01*
X258920000Y-77240000D02*
X258920000Y-75240000D01*
X220920000Y-77240000D02*
X220980000Y-77300000D01*
X220980000Y-77300000D02*
X239860000Y-77300000D01*
X239860000Y-77300000D02*
X239920000Y-77240000D01*
X201920000Y-77240000D02*
X201980000Y-77300000D01*
X201980000Y-77300000D02*
X220860000Y-77300000D01*
X220860000Y-77300000D02*
X220920000Y-77240000D01*
X182920000Y-77240000D02*
X182980000Y-77300000D01*
X182980000Y-77300000D02*
X201860000Y-77300000D01*
X201860000Y-77300000D02*
X201920000Y-77240000D01*
X182920000Y-75240000D02*
X182920000Y-77240000D01*
X239920000Y-75240000D02*
X239920000Y-77240000D01*
X220920000Y-75240000D02*
X220920000Y-77240000D01*
X201920000Y-75240000D02*
X201920000Y-77240000D01*
%TO.N,Net-(D12-Pad2)*%
X253700000Y-70920000D02*
X253677894Y-70942106D01*
X251120000Y-71959633D02*
X251120000Y-75240000D01*
X253677894Y-70942106D02*
X252137527Y-70942106D01*
X252137527Y-70942106D02*
X251120000Y-71959633D01*
%TO.N,Net-(D11-Pad2)*%
X234700000Y-70920000D02*
X234677894Y-70942106D01*
X232120000Y-71959633D02*
X232120000Y-75240000D01*
X234677894Y-70942106D02*
X233137527Y-70942106D01*
X233137527Y-70942106D02*
X232120000Y-71959633D01*
%TO.N,Net-(D10-Pad2)*%
X215700000Y-70920000D02*
X215677894Y-70942106D01*
X215677894Y-70942106D02*
X214137527Y-70942106D01*
X214137527Y-70942106D02*
X213120000Y-71959633D01*
X213120000Y-71959633D02*
X213120000Y-75240000D01*
%TO.N,Net-(D9-Pad2)*%
X196700000Y-70920000D02*
X196677894Y-70942106D01*
X195137527Y-70942106D02*
X194120000Y-71959633D01*
X196677894Y-70942106D02*
X195137527Y-70942106D01*
X194120000Y-71959633D02*
X194120000Y-75240000D01*
%TO.N,/col1*%
X55520000Y-89440000D02*
X55017894Y-89942106D01*
X48902474Y-127942106D02*
X48934790Y-127909790D01*
X55017894Y-89942106D02*
X47382106Y-89942106D01*
X47410210Y-127909790D02*
X47380000Y-127940000D01*
X47382106Y-89942106D02*
X47380000Y-89940000D01*
X47382106Y-70942106D02*
X47380000Y-70940000D01*
X48934790Y-127909790D02*
X47410210Y-127909790D01*
X55022106Y-70942106D02*
X47382106Y-70942106D01*
X55520000Y-71440000D02*
X55022106Y-70942106D01*
X55520000Y-108440000D02*
X55017894Y-108942106D01*
X47382106Y-108942106D02*
X47380000Y-108940000D01*
X55017894Y-108942106D02*
X47382106Y-108942106D01*
X49404580Y-127440000D02*
X55520000Y-127440000D01*
X48934790Y-127909790D02*
X49404580Y-127440000D01*
%TO.N,/col2*%
X66382106Y-89942106D02*
X66380000Y-89940000D01*
X74017894Y-108942106D02*
X66382106Y-108942106D01*
X66382106Y-127942106D02*
X66380000Y-127940000D01*
X74017894Y-127942106D02*
X66382106Y-127942106D01*
X74520000Y-108440000D02*
X74017894Y-108942106D01*
X74520000Y-71440000D02*
X74022106Y-70942106D01*
X74017894Y-89942106D02*
X66382106Y-89942106D01*
X74022106Y-70942106D02*
X66382106Y-70942106D01*
X66382106Y-70942106D02*
X66380000Y-70940000D01*
X74520000Y-89440000D02*
X74017894Y-89942106D01*
X74520000Y-127440000D02*
X74017894Y-127942106D01*
X66382106Y-108942106D02*
X66380000Y-108940000D01*
%TO.N,/col3*%
X86902474Y-70942106D02*
X93022106Y-70942106D01*
X85382106Y-127942106D02*
X85380000Y-127940000D01*
X93520000Y-108440000D02*
X93017894Y-108942106D01*
X93520000Y-127440000D02*
X93017894Y-127942106D01*
X93017894Y-108942106D02*
X85382106Y-108942106D01*
X85382106Y-89942106D02*
X85380000Y-89940000D01*
X85380000Y-70940000D02*
X86900368Y-70940000D01*
X93022106Y-70942106D02*
X93520000Y-71440000D01*
X93520000Y-89440000D02*
X93017894Y-89942106D01*
X93017894Y-89942106D02*
X85382106Y-89942106D01*
X93017894Y-127942106D02*
X85382106Y-127942106D01*
X85382106Y-108942106D02*
X85380000Y-108940000D01*
X86900368Y-70940000D02*
X86902474Y-70942106D01*
%TO.N,/col4*%
X112017894Y-108942106D02*
X104382894Y-108942106D01*
X112017894Y-89942106D02*
X104382106Y-89942106D01*
X104382894Y-108942106D02*
X104380788Y-108940000D01*
X104380000Y-70940000D02*
X105900368Y-70940000D01*
X104382106Y-89942106D02*
X104380000Y-89940000D01*
X105902474Y-70942106D02*
X112022106Y-70942106D01*
X112520000Y-127440000D02*
X112017894Y-127942106D01*
X112520000Y-89440000D02*
X112017894Y-89942106D01*
X105900368Y-70940000D02*
X105902474Y-70942106D01*
X104382106Y-127942106D02*
X104380000Y-127940000D01*
X112017894Y-127942106D02*
X104382106Y-127942106D01*
X112022106Y-70942106D02*
X112520000Y-71440000D01*
X104380788Y-108940000D02*
X104380000Y-108940000D01*
X112520000Y-108440000D02*
X112017894Y-108942106D01*
%TO.N,/col5*%
X125140000Y-70940000D02*
X125142106Y-70942106D01*
X128520000Y-108440000D02*
X128017894Y-108942106D01*
X123382106Y-127942106D02*
X123380000Y-127940000D01*
X123380000Y-70940000D02*
X125140000Y-70940000D01*
X123382106Y-89942106D02*
X123380000Y-89940000D01*
X128017894Y-89942106D02*
X123382106Y-89942106D01*
X128017894Y-127942106D02*
X123382106Y-127942106D01*
X128017894Y-108942106D02*
X123382106Y-108942106D01*
X123382106Y-108942106D02*
X123380000Y-108940000D01*
X124902474Y-70942106D02*
X125142106Y-70942106D01*
X128022106Y-70942106D02*
X128520000Y-71440000D01*
X128520000Y-89440000D02*
X128017894Y-89942106D01*
X128520000Y-127440000D02*
X128017894Y-127942106D01*
X125142106Y-70942106D02*
X128022106Y-70942106D01*
%TO.N,/col6*%
X142382106Y-89942106D02*
X142380000Y-89940000D01*
X146520000Y-127440000D02*
X146017894Y-127942106D01*
X146017894Y-89942106D02*
X142382106Y-89942106D01*
X146022106Y-70942106D02*
X146520000Y-71440000D01*
X142380000Y-70940000D02*
X143900368Y-70940000D01*
X142382106Y-108942106D02*
X142380000Y-108940000D01*
X146520000Y-108440000D02*
X146017894Y-108942106D01*
X146017894Y-108942106D02*
X142382106Y-108942106D01*
X143902474Y-70942106D02*
X146022106Y-70942106D01*
X146520000Y-89440000D02*
X146017894Y-89942106D01*
X142382106Y-127942106D02*
X142380000Y-127940000D01*
X146017894Y-127942106D02*
X142382106Y-127942106D01*
X143900368Y-70940000D02*
X143902474Y-70942106D01*
%TO.N,/col7*%
X163007894Y-108942106D02*
X169017894Y-108942106D01*
X169017894Y-127942106D02*
X161382106Y-127942106D01*
X169017894Y-108942106D02*
X169520000Y-108440000D01*
X161380000Y-108940000D02*
X163005788Y-108940000D01*
X169017894Y-89942106D02*
X161382106Y-89942106D01*
X161382106Y-89942106D02*
X161380000Y-89940000D01*
X162900368Y-70940000D02*
X162902474Y-70942106D01*
X169520000Y-89440000D02*
X165915000Y-85835000D01*
X165915000Y-85835000D02*
X148640000Y-85835000D01*
X163005788Y-108940000D02*
X163007894Y-108942106D01*
X161382106Y-127942106D02*
X161380000Y-127940000D01*
X169520000Y-89440000D02*
X169017894Y-89942106D01*
X161380000Y-70940000D02*
X162900368Y-70940000D01*
X162902474Y-108942106D02*
X163007894Y-108942106D01*
X169520000Y-127440000D02*
X169017894Y-127942106D01*
X169022106Y-70942106D02*
X169520000Y-71440000D01*
X162902474Y-70942106D02*
X169022106Y-70942106D01*
%TO.N,/col8*%
X181900368Y-108940000D02*
X181902474Y-108942106D01*
X188520000Y-71440000D02*
X188520000Y-66440000D01*
X188520000Y-127440000D02*
X188017894Y-127942106D01*
X180382106Y-89942106D02*
X180380000Y-89940000D01*
X154520000Y-66440000D02*
X154520000Y-77415000D01*
X188017894Y-89942106D02*
X180382106Y-89942106D01*
X180380000Y-70940000D02*
X181900368Y-70940000D01*
X188520000Y-89440000D02*
X188017894Y-89942106D01*
X188520000Y-66440000D02*
X154520000Y-66440000D01*
X181900368Y-70940000D02*
X181902474Y-70942106D01*
X188017894Y-127942106D02*
X180382106Y-127942106D01*
X180380000Y-108940000D02*
X181900368Y-108940000D01*
X188022106Y-70942106D02*
X188520000Y-71440000D01*
X181902474Y-108942106D02*
X188017894Y-108942106D01*
X188017894Y-108942106D02*
X188520000Y-108440000D01*
X181902474Y-70942106D02*
X188022106Y-70942106D01*
X180382106Y-127942106D02*
X180380000Y-127940000D01*
X154520000Y-77415000D02*
X148640000Y-83295000D01*
%TO.N,/row4*%
X148595489Y-118515489D02*
X148520000Y-118440000D01*
%TO.N,/row1*%
X68925000Y-77250000D02*
X85910000Y-77250000D01*
X125920000Y-77205000D02*
X125850000Y-77275000D01*
X125920000Y-75240000D02*
X125920000Y-77205000D01*
X68920000Y-77250000D02*
X68920000Y-75240000D01*
X163920000Y-77325000D02*
X163920000Y-75240000D01*
X108955000Y-77275000D02*
X125850000Y-77275000D01*
X68920000Y-75240000D02*
X68920000Y-77245000D01*
X87920000Y-75240000D02*
X89955000Y-77275000D01*
X133400000Y-73135000D02*
X135700000Y-75435000D01*
X135700000Y-75435000D02*
X135700000Y-77075000D01*
X89955000Y-77275000D02*
X106920000Y-77275000D01*
X106920000Y-77275000D02*
X106920000Y-75240000D01*
X144920000Y-81165300D02*
X148174211Y-84419511D01*
X49920000Y-75240000D02*
X51930000Y-77250000D01*
X68920000Y-77245000D02*
X68925000Y-77250000D01*
X149105789Y-84419511D02*
X156200300Y-77325000D01*
X106920000Y-75240000D02*
X108955000Y-77275000D01*
X144920000Y-75240000D02*
X144920000Y-81165300D01*
X125850000Y-77275000D02*
X129260000Y-77275000D01*
X156200300Y-77325000D02*
X163920000Y-77325000D01*
X129260000Y-77275000D02*
X133400000Y-73135000D01*
X163920000Y-75240000D02*
X165980000Y-77300000D01*
X148174211Y-84419511D02*
X149105789Y-84419511D01*
X165980000Y-77300000D02*
X182860000Y-77300000D01*
X182860000Y-77300000D02*
X182920000Y-77240000D01*
X85910000Y-77250000D02*
X87920000Y-75240000D01*
X51930000Y-77250000D02*
X68920000Y-77250000D01*
X135700000Y-77075000D02*
X144920000Y-77075000D01*
X144920000Y-77075000D02*
X144920000Y-75240000D01*
%TO.N,/col12*%
X150520000Y-62440000D02*
X150520000Y-71255000D01*
X257902474Y-127942106D02*
X261017894Y-127942106D01*
X257902474Y-70942106D02*
X261022106Y-70942106D01*
X261022106Y-70942106D02*
X261520000Y-71440000D01*
X256380000Y-108940000D02*
X257900368Y-108940000D01*
X257902474Y-89942106D02*
X261017894Y-89942106D01*
X257900368Y-89940000D02*
X257902474Y-89942106D01*
X150520000Y-71255000D02*
X148640000Y-73135000D01*
X256380000Y-70940000D02*
X257900368Y-70940000D01*
X257900368Y-70940000D02*
X257902474Y-70942106D01*
X261017894Y-108942106D02*
X261520000Y-108440000D01*
X261017894Y-127942106D02*
X261520000Y-127440000D01*
X261520000Y-62440000D02*
X150520000Y-62440000D01*
X257900368Y-108940000D02*
X257902474Y-108942106D01*
X257900368Y-127940000D02*
X257902474Y-127942106D01*
X261520000Y-71440000D02*
X261520000Y-62440000D01*
X256380000Y-89940000D02*
X257900368Y-89940000D01*
X256380000Y-127940000D02*
X257900368Y-127940000D01*
X261017894Y-89942106D02*
X261520000Y-89440000D01*
X257902474Y-108942106D02*
X261017894Y-108942106D01*
%TO.N,/col11*%
X245520000Y-89440000D02*
X245017894Y-89942106D01*
X245017894Y-89942106D02*
X237382106Y-89942106D01*
X245017894Y-127942106D02*
X237382106Y-127942106D01*
X151520000Y-72795000D02*
X148640000Y-75675000D01*
X237382106Y-127942106D02*
X237380000Y-127940000D01*
X238902474Y-108942106D02*
X245017894Y-108942106D01*
X238900368Y-108940000D02*
X237380000Y-108940000D01*
X245017894Y-108942106D02*
X245520000Y-108440000D01*
X238902474Y-108942106D02*
X238900368Y-108940000D01*
X238900368Y-70940000D02*
X238902474Y-70942106D01*
X237380000Y-70940000D02*
X238900368Y-70940000D01*
X245022106Y-70942106D02*
X245520000Y-71440000D01*
X238902474Y-70942106D02*
X245022106Y-70942106D01*
X151520000Y-63440000D02*
X151520000Y-72795000D01*
X245520000Y-63440000D02*
X151520000Y-63440000D01*
X245520000Y-71440000D02*
X245520000Y-63440000D01*
X245520000Y-127440000D02*
X245017894Y-127942106D01*
X237382106Y-89942106D02*
X237380000Y-89940000D01*
%TO.N,/col10*%
X226520000Y-64440000D02*
X152520000Y-64440000D01*
X218382106Y-89942106D02*
X218380000Y-89940000D01*
X226520000Y-89440000D02*
X226017894Y-89942106D01*
X226520000Y-108440000D02*
X226017894Y-108942106D01*
X226017894Y-89942106D02*
X218382106Y-89942106D01*
X219902474Y-70942106D02*
X226022106Y-70942106D01*
X226520000Y-127440000D02*
X226017894Y-127942106D01*
X152520000Y-64440000D02*
X152520000Y-74335000D01*
X226520000Y-71440000D02*
X226520000Y-64440000D01*
X218382106Y-108942106D02*
X218380000Y-108940000D01*
X226022106Y-70942106D02*
X226520000Y-71440000D01*
X226017894Y-127942106D02*
X218382106Y-127942106D01*
X152520000Y-74335000D02*
X148640000Y-78215000D01*
X219900368Y-70940000D02*
X219902474Y-70942106D01*
X218380000Y-70940000D02*
X219900368Y-70940000D01*
X226017894Y-108942106D02*
X218382106Y-108942106D01*
X218382106Y-127942106D02*
X218380000Y-127940000D01*
%TO.N,/col9*%
X207017894Y-89942106D02*
X207520000Y-89440000D01*
X200902474Y-89942106D02*
X207017894Y-89942106D01*
X153520000Y-65440000D02*
X153520000Y-75875000D01*
X200900368Y-108940000D02*
X200902474Y-108942106D01*
X199380000Y-127940000D02*
X200900368Y-127940000D01*
X207022106Y-70942106D02*
X207520000Y-71440000D01*
X200902474Y-70942106D02*
X207022106Y-70942106D01*
X200900368Y-89940000D02*
X200902474Y-89942106D01*
X207017894Y-108942106D02*
X207520000Y-108440000D01*
X199380000Y-70940000D02*
X200900368Y-70940000D01*
X199380000Y-108940000D02*
X200900368Y-108940000D01*
X207520000Y-71440000D02*
X207520000Y-65440000D01*
X200900368Y-70940000D02*
X200902474Y-70942106D01*
X199380000Y-89940000D02*
X200900368Y-89940000D01*
X200902474Y-127942106D02*
X207017894Y-127942106D01*
X207520000Y-65440000D02*
X153520000Y-65440000D01*
X153520000Y-75875000D02*
X148640000Y-80755000D01*
X200902474Y-108942106D02*
X207017894Y-108942106D01*
X200900368Y-127940000D02*
X200902474Y-127942106D01*
X207017894Y-127942106D02*
X207520000Y-127440000D01*
%TO.N,Net-(D2-Pad2)*%
X61120000Y-71959633D02*
X62137527Y-70942106D01*
X62137527Y-70942106D02*
X63677894Y-70942106D01*
X63677894Y-70942106D02*
X63700000Y-70920000D01*
X61120000Y-75240000D02*
X61120000Y-71959633D01*
%TO.N,Net-(D3-Pad2)*%
X82700000Y-70920000D02*
X82677894Y-70942106D01*
X80150000Y-71929633D02*
X80150000Y-75210000D01*
X82677894Y-70942106D02*
X81137527Y-70942106D01*
X80150000Y-75210000D02*
X80120000Y-75240000D01*
X81137527Y-70942106D02*
X80150000Y-71929633D01*
%TO.N,Net-(D4-Pad2)*%
X101677894Y-70942106D02*
X100137527Y-70942106D01*
X101700000Y-70920000D02*
X101677894Y-70942106D01*
X99120000Y-71959633D02*
X99120000Y-75240000D01*
X100137527Y-70942106D02*
X99120000Y-71959633D01*
%TO.N,Net-(D5-Pad2)*%
X119137527Y-70942106D02*
X118120000Y-71959633D01*
X120677894Y-70942106D02*
X119137527Y-70942106D01*
X118120000Y-71959633D02*
X118120000Y-75240000D01*
X120700000Y-70920000D02*
X120677894Y-70942106D01*
%TO.N,Net-(D6-Pad2)*%
X138137527Y-70942106D02*
X137025000Y-72054633D01*
X137025000Y-72054633D02*
X137025000Y-75145000D01*
X137025000Y-75145000D02*
X137120000Y-75240000D01*
X139677894Y-70942106D02*
X138137527Y-70942106D01*
X139700000Y-70920000D02*
X139677894Y-70942106D01*
%TO.N,Net-(D7-Pad2)*%
X157137527Y-70942106D02*
X156120000Y-71959633D01*
X158700000Y-70920000D02*
X158677894Y-70942106D01*
X158677894Y-70942106D02*
X157137527Y-70942106D01*
X156120000Y-71959633D02*
X156120000Y-75240000D01*
%TO.N,Net-(D1-Pad2)*%
X44677894Y-70942106D02*
X43137527Y-70942106D01*
X42120000Y-71959633D02*
X42120000Y-75240000D01*
X43137527Y-70942106D02*
X42120000Y-71959633D01*
X44700000Y-70920000D02*
X44677894Y-70942106D01*
%TO.N,Net-(D8-Pad2)*%
X175120000Y-71959633D02*
X175120000Y-75240000D01*
X177700000Y-70920000D02*
X177677894Y-70942106D01*
X177677894Y-70942106D02*
X176137527Y-70942106D01*
X176137527Y-70942106D02*
X175120000Y-71959633D01*
%TD*%
M02*
