M48
; DRILL file {KiCad 6.0.3-a3aad9c10e~116~ubuntu21.10.1} date Sun 17 Apr 2022 15:16:02 BST
; FORMAT={-:-/ absolute / inch / decimal}
; #@! TF.CreationDate,2022-04-17T15:16:02+01:00
; #@! TF.GenerationSoftware,Kicad,Pcbnew,6.0.3-a3aad9c10e~116~ubuntu21.10.1
; #@! TF.FileFunction,Plated,1,2,PTH
FMAT,2
INCH
; #@! TA.AperFunction,Plated,PTH,ViaDrill
T1C0.0157
; #@! TA.AperFunction,Plated,PTH,ComponentDrill
T2C0.0276
; #@! TA.AperFunction,Plated,PTH,ComponentDrill
T3C0.0433
; #@! TA.AperFunction,Plated,PTH,ComponentDrill
T4C0.1260
%
G90
G05
T1
X2.1858Y-2.8126
X2.1858Y-3.5213
X2.1858Y-4.2693
X2.1858Y-5.0173
X2.9339Y-2.8126
X2.9339Y-3.5213
X2.9339Y-4.2693
X2.9339Y-5.0173
X3.6819Y-2.8126
X3.6819Y-3.5213
X3.6819Y-4.2693
X3.6819Y-5.0173
X4.4299Y-2.8126
X4.4299Y-3.5213
X4.4299Y-4.2693
X4.4299Y-5.0173
X5.0598Y-2.8126
X5.0598Y-3.5213
X5.0598Y-4.2693
X5.0598Y-5.0173
X5.7685Y-2.8126
X5.7685Y-3.5213
X5.7685Y-4.2693
X5.7685Y-5.0173
X5.8472Y-4.663
X5.926Y-3.915
X6.674Y-2.8126
X6.674Y-3.5213
X6.674Y-4.2693
X6.674Y-5.0173
X7.422Y-2.8126
X7.422Y-3.5213
X7.422Y-4.2693
X7.422Y-5.0173
X8.1701Y-2.8126
X8.1701Y-3.5213
X8.1701Y-4.2693
X8.1701Y-5.0173
X8.9181Y-2.8126
X8.9181Y-3.5213
X8.9181Y-4.2693
X8.9181Y-5.0173
X9.6661Y-2.8126
X9.6661Y-3.5213
X9.6661Y-4.2693
X9.6661Y-5.0173
X10.2961Y-2.8126
X10.2961Y-3.5213
X10.2961Y-4.2693
X10.2961Y-5.0173
T2
X1.6583Y-2.9622
X1.6583Y-3.7102
X1.6583Y-4.4583
X1.6583Y-5.2063
X1.9654Y-2.9622
X1.9654Y-3.7102
X1.9654Y-4.4583
X1.9654Y-5.2063
X2.4063Y-2.9622
X2.4063Y-3.7102
X2.4063Y-4.4583
X2.4063Y-5.2063
X2.7134Y-2.9622
X2.7134Y-3.7102
X2.7134Y-4.4583
X2.7134Y-5.2063
X3.1543Y-2.9622
X3.1543Y-3.7102
X3.1543Y-4.4583
X3.1543Y-5.2063
X3.4614Y-2.9622
X3.4614Y-3.7102
X3.4614Y-4.4583
X3.4614Y-5.2063
X3.9024Y-2.9622
X3.9024Y-3.7102
X3.9024Y-4.4583
X3.9024Y-5.2063
X4.2094Y-2.9622
X4.2094Y-3.7102
X4.2094Y-4.4583
X4.2094Y-5.2063
X4.6504Y-2.9622
X4.6504Y-3.7102
X4.6504Y-4.4583
X4.6504Y-5.2063
X4.9575Y-2.9622
X4.9575Y-3.7102
X4.9575Y-4.4583
X4.9575Y-5.2063
X5.3984Y-2.9622
X5.3984Y-3.7102
X5.3984Y-4.4583
X5.3984Y-5.2063
X5.7055Y-2.9622
X5.7055Y-3.7102
X5.7055Y-4.4583
X5.7055Y-5.2063
X6.1465Y-2.9622
X6.1465Y-3.7102
X6.1465Y-4.4583
X6.1465Y-5.2063
X6.4535Y-2.9622
X6.4535Y-3.7102
X6.4535Y-4.4583
X6.4535Y-5.2063
X6.8945Y-2.9622
X6.8945Y-3.7102
X6.8945Y-4.4583
X6.8945Y-5.2063
X7.2016Y-2.9622
X7.2016Y-3.7102
X7.2016Y-4.4583
X7.2016Y-5.2063
X7.6425Y-2.9622
X7.6425Y-3.7102
X7.6425Y-4.4583
X7.6425Y-5.2063
X7.9496Y-2.9622
X7.9496Y-3.7102
X7.9496Y-4.4583
X7.9496Y-5.2063
X8.3906Y-2.9622
X8.3906Y-3.7102
X8.3906Y-4.4583
X8.3906Y-5.2063
X8.6976Y-2.9622
X8.6976Y-3.7102
X8.6976Y-4.4583
X8.6976Y-5.2063
X9.1386Y-2.9622
X9.1386Y-3.7102
X9.1386Y-4.4583
X9.1386Y-5.2063
X9.4457Y-2.9622
X9.4457Y-3.7102
X9.4457Y-4.4583
X9.4457Y-5.2063
X9.8866Y-2.9622
X9.8866Y-3.7102
X9.8866Y-4.4583
X9.8866Y-5.2063
X10.1937Y-2.9622
X10.1937Y-3.7102
X10.1937Y-4.4583
X10.1937Y-5.2063
T3
X5.252Y-2.4793
X5.252Y-2.5793
X5.252Y-2.6793
X5.252Y-2.7793
X5.252Y-2.8793
X5.252Y-2.9793
X5.252Y-3.0793
X5.252Y-3.1793
X5.252Y-3.2793
X5.252Y-3.3793
X5.252Y-3.4793
X5.252Y-3.5793
X5.852Y-2.4793
X5.852Y-2.5793
X5.852Y-2.6793
X5.852Y-2.7793
X5.852Y-2.8793
X5.852Y-2.9793
X5.852Y-3.0793
X5.852Y-3.1793
X5.852Y-3.2793
X5.852Y-3.3793
X5.852Y-3.4793
X5.852Y-3.5793
T4
X1.8118Y-3.1669
X1.8118Y-4.663
X10.0402Y-3.1669
X10.0402Y-4.663
T0
M30
