%TF.GenerationSoftware,KiCad,Pcbnew,6.0.3-a3aad9c10e~116~ubuntu21.10.1*%
%TF.CreationDate,2022-04-17T15:15:34+01:00*%
%TF.ProjectId,PCB,5043422e-6b69-4636-9164-5f7063625858,rev?*%
%TF.SameCoordinates,Original*%
%TF.FileFunction,Soldermask,Bot*%
%TF.FilePolarity,Negative*%
%FSLAX46Y46*%
G04 Gerber Fmt 4.6, Leading zero omitted, Abs format (unit mm)*
G04 Created by KiCad (PCBNEW 6.0.3-a3aad9c10e~116~ubuntu21.10.1) date 2022-04-17 15:15:34*
%MOMM*%
%LPD*%
G01*
G04 APERTURE LIST*
%ADD10C,4.000000*%
%ADD11R,1.600000X1.600000*%
%ADD12C,1.600000*%
%ADD13R,1.200000X1.200000*%
G04 APERTURE END LIST*
D10*
%TO.C,HOLE_M3*%
X255020000Y-80440000D03*
%TD*%
%TO.C,HOLE_M3*%
X46020000Y-118440000D03*
%TD*%
%TO.C,HOLE_M3*%
X46020000Y-80440000D03*
%TD*%
%TO.C,HOLE_M3*%
X255020000Y-118440000D03*
%TD*%
D11*
%TO.C,Pro-Micro1*%
X148640000Y-62975000D03*
D12*
X148640000Y-65515000D03*
X148640000Y-68055000D03*
X148640000Y-70595000D03*
X148640000Y-73135000D03*
X148640000Y-75675000D03*
X148640000Y-78215000D03*
X148640000Y-80755000D03*
X148640000Y-83295000D03*
X148640000Y-85835000D03*
X148640000Y-88375000D03*
X148640000Y-90915000D03*
X133400000Y-90915000D03*
X133400000Y-88375000D03*
X133400000Y-85835000D03*
X133400000Y-83295000D03*
X133400000Y-80755000D03*
X133400000Y-78215000D03*
X133400000Y-75675000D03*
X133400000Y-73135000D03*
X133400000Y-70595000D03*
X133400000Y-68055000D03*
X133400000Y-65515000D03*
X133400000Y-62975000D03*
%TD*%
D11*
%TO.C,D39*%
X87920000Y-132240000D03*
D13*
X85595000Y-132240000D03*
X82445000Y-132240000D03*
D12*
X80120000Y-132240000D03*
%TD*%
D13*
%TO.C,D26*%
X66595000Y-113240000D03*
D11*
X68920000Y-113240000D03*
D13*
X63445000Y-113240000D03*
D12*
X61120000Y-113240000D03*
%TD*%
D11*
%TO.C,D11*%
X239920000Y-75240000D03*
D13*
X237595000Y-75240000D03*
D12*
X232120000Y-75240000D03*
D13*
X234445000Y-75240000D03*
%TD*%
D11*
%TO.C,D18*%
X144920000Y-94240000D03*
D13*
X142595000Y-94240000D03*
D12*
X137120000Y-94240000D03*
D13*
X139445000Y-94240000D03*
%TD*%
%TO.C,D10*%
X218595000Y-75240000D03*
D11*
X220920000Y-75240000D03*
D13*
X215445000Y-75240000D03*
D12*
X213120000Y-75240000D03*
%TD*%
D13*
%TO.C,D23*%
X237595000Y-94240000D03*
D11*
X239920000Y-94240000D03*
D12*
X232120000Y-94240000D03*
D13*
X234445000Y-94240000D03*
%TD*%
%TO.C,D28*%
X104595000Y-113240000D03*
D11*
X106920000Y-113240000D03*
D12*
X99120000Y-113240000D03*
D13*
X101445000Y-113240000D03*
%TD*%
%TO.C,D7*%
X161595000Y-75240000D03*
D11*
X163920000Y-75240000D03*
D12*
X156120000Y-75240000D03*
D13*
X158445000Y-75240000D03*
%TD*%
D11*
%TO.C,D37*%
X49920000Y-132240000D03*
D13*
X47595000Y-132240000D03*
X44445000Y-132240000D03*
D12*
X42120000Y-132240000D03*
%TD*%
D13*
%TO.C,D1*%
X47595000Y-75240000D03*
D11*
X49920000Y-75240000D03*
D12*
X42120000Y-75240000D03*
D13*
X44445000Y-75240000D03*
%TD*%
D11*
%TO.C,D48*%
X258920000Y-132240000D03*
D13*
X256595000Y-132240000D03*
D12*
X251120000Y-132240000D03*
D13*
X253445000Y-132240000D03*
%TD*%
D11*
%TO.C,D47*%
X239920000Y-132240000D03*
D13*
X237595000Y-132240000D03*
X234445000Y-132240000D03*
D12*
X232120000Y-132240000D03*
%TD*%
D13*
%TO.C,D21*%
X199595000Y-94240000D03*
D11*
X201920000Y-94240000D03*
D12*
X194120000Y-94240000D03*
D13*
X196445000Y-94240000D03*
%TD*%
D11*
%TO.C,D6*%
X144920000Y-75240000D03*
D13*
X142595000Y-75240000D03*
X139445000Y-75240000D03*
D12*
X137120000Y-75240000D03*
%TD*%
D11*
%TO.C,D31*%
X163920000Y-113240000D03*
D13*
X161595000Y-113240000D03*
X158445000Y-113240000D03*
D12*
X156120000Y-113240000D03*
%TD*%
D11*
%TO.C,D4*%
X106920000Y-75240000D03*
D13*
X104595000Y-75240000D03*
X101445000Y-75240000D03*
D12*
X99120000Y-75240000D03*
%TD*%
D11*
%TO.C,D36*%
X258920000Y-113240000D03*
D13*
X256595000Y-113240000D03*
D12*
X251120000Y-113240000D03*
D13*
X253445000Y-113240000D03*
%TD*%
D11*
%TO.C,D14*%
X68920000Y-94240000D03*
D13*
X66595000Y-94240000D03*
X63445000Y-94240000D03*
D12*
X61120000Y-94240000D03*
%TD*%
D11*
%TO.C,D29*%
X125920000Y-113240000D03*
D13*
X123595000Y-113240000D03*
D12*
X118120000Y-113240000D03*
D13*
X120445000Y-113240000D03*
%TD*%
D11*
%TO.C,D42*%
X144920000Y-132240000D03*
D13*
X142595000Y-132240000D03*
D12*
X137120000Y-132240000D03*
D13*
X139445000Y-132240000D03*
%TD*%
%TO.C,D41*%
X123595000Y-132240000D03*
D11*
X125920000Y-132240000D03*
D12*
X118120000Y-132240000D03*
D13*
X120445000Y-132240000D03*
%TD*%
D11*
%TO.C,D40*%
X106920000Y-132240000D03*
D13*
X104595000Y-132240000D03*
X101445000Y-132240000D03*
D12*
X99120000Y-132240000D03*
%TD*%
D13*
%TO.C,D8*%
X180595000Y-75240000D03*
D11*
X182920000Y-75240000D03*
D13*
X177445000Y-75240000D03*
D12*
X175120000Y-75240000D03*
%TD*%
D13*
%TO.C,D17*%
X123595000Y-94240000D03*
D11*
X125920000Y-94240000D03*
D12*
X118120000Y-94240000D03*
D13*
X120445000Y-94240000D03*
%TD*%
D11*
%TO.C,D2*%
X68920000Y-75240000D03*
D13*
X66595000Y-75240000D03*
X63445000Y-75240000D03*
D12*
X61120000Y-75240000D03*
%TD*%
D13*
%TO.C,D24*%
X256595000Y-94240000D03*
D11*
X258920000Y-94240000D03*
D13*
X253445000Y-94240000D03*
D12*
X251120000Y-94240000D03*
%TD*%
D11*
%TO.C,D9*%
X201920000Y-75240000D03*
D13*
X199595000Y-75240000D03*
D12*
X194120000Y-75240000D03*
D13*
X196445000Y-75240000D03*
%TD*%
D11*
%TO.C,D12*%
X258920000Y-75240000D03*
D13*
X256595000Y-75240000D03*
X253445000Y-75240000D03*
D12*
X251120000Y-75240000D03*
%TD*%
D13*
%TO.C,D13*%
X47595000Y-94240000D03*
D11*
X49920000Y-94240000D03*
D12*
X42120000Y-94240000D03*
D13*
X44445000Y-94240000D03*
%TD*%
%TO.C,D5*%
X123595000Y-75240000D03*
D11*
X125920000Y-75240000D03*
D12*
X118120000Y-75240000D03*
D13*
X120445000Y-75240000D03*
%TD*%
%TO.C,D33*%
X199595000Y-113240000D03*
D11*
X201920000Y-113240000D03*
D13*
X196445000Y-113240000D03*
D12*
X194120000Y-113240000D03*
%TD*%
D13*
%TO.C,D30*%
X142595000Y-113240000D03*
D11*
X144920000Y-113240000D03*
D13*
X139445000Y-113240000D03*
D12*
X137120000Y-113240000D03*
%TD*%
D11*
%TO.C,D27*%
X87920000Y-113240000D03*
D13*
X85595000Y-113240000D03*
X82445000Y-113240000D03*
D12*
X80120000Y-113240000D03*
%TD*%
D13*
%TO.C,D25*%
X47595000Y-113240000D03*
D11*
X49920000Y-113240000D03*
D12*
X42120000Y-113240000D03*
D13*
X44445000Y-113240000D03*
%TD*%
%TO.C,D45*%
X199595000Y-132240000D03*
D11*
X201920000Y-132240000D03*
D12*
X194120000Y-132240000D03*
D13*
X196445000Y-132240000D03*
%TD*%
D11*
%TO.C,D20*%
X182920000Y-94240000D03*
D13*
X180595000Y-94240000D03*
X177445000Y-94240000D03*
D12*
X175120000Y-94240000D03*
%TD*%
D13*
%TO.C,D38*%
X66595000Y-132240000D03*
D11*
X68920000Y-132240000D03*
D12*
X61120000Y-132240000D03*
D13*
X63445000Y-132240000D03*
%TD*%
D11*
%TO.C,D43*%
X163920000Y-132240000D03*
D13*
X161595000Y-132240000D03*
X158445000Y-132240000D03*
D12*
X156120000Y-132240000D03*
%TD*%
D11*
%TO.C,D44*%
X182920000Y-132240000D03*
D13*
X180595000Y-132240000D03*
D12*
X175120000Y-132240000D03*
D13*
X177445000Y-132240000D03*
%TD*%
D11*
%TO.C,D32*%
X182920000Y-113240000D03*
D13*
X180595000Y-113240000D03*
X177445000Y-113240000D03*
D12*
X175120000Y-113240000D03*
%TD*%
D11*
%TO.C,D22*%
X220920000Y-94240000D03*
D13*
X218595000Y-94240000D03*
X215445000Y-94240000D03*
D12*
X213120000Y-94240000D03*
%TD*%
D11*
%TO.C,D3*%
X87920000Y-75240000D03*
D13*
X85595000Y-75240000D03*
D12*
X80120000Y-75240000D03*
D13*
X82445000Y-75240000D03*
%TD*%
%TO.C,D15*%
X85595000Y-94240000D03*
D11*
X87920000Y-94240000D03*
D13*
X82445000Y-94240000D03*
D12*
X80120000Y-94240000D03*
%TD*%
D11*
%TO.C,D46*%
X220920000Y-132240000D03*
D13*
X218595000Y-132240000D03*
X215445000Y-132240000D03*
D12*
X213120000Y-132240000D03*
%TD*%
D11*
%TO.C,D16*%
X106920000Y-94240000D03*
D13*
X104595000Y-94240000D03*
X101445000Y-94240000D03*
D12*
X99120000Y-94240000D03*
%TD*%
D13*
%TO.C,D35*%
X237595000Y-113240000D03*
D11*
X239920000Y-113240000D03*
D13*
X234445000Y-113240000D03*
D12*
X232120000Y-113240000D03*
%TD*%
D11*
%TO.C,D34*%
X220920000Y-113240000D03*
D13*
X218595000Y-113240000D03*
D12*
X213120000Y-113240000D03*
D13*
X215445000Y-113240000D03*
%TD*%
%TO.C,D19*%
X161595000Y-94240000D03*
D11*
X163920000Y-94240000D03*
D13*
X158445000Y-94240000D03*
D12*
X156120000Y-94240000D03*
%TD*%
M02*
