  0
SECTION
  2
HEADER
  9
$ACADVER
  1
AC1024
  9
$ACADMAINTVER
 70
     6
  9
$DWGCODEPAGE
  3
ANSI_1252
  9
$INSBASE
 10
0.0
 20
0.0
 30
0.0
  9
$EXTMIN
 10
1.000000000000000E+20
 20
1.000000000000000E+20
 30
1.000000000000000E+20
  9
$EXTMAX
 10
-1.000000000000000E+20
 20
-1.000000000000000E+20
 30
-1.000000000000000E+20
  9
$LIMMIN
 10
0.0
 20
0.0
  9
$LIMMAX
 10
12.0
 20
9.0
  9
$ORTHOMODE
 70
     0
  9
$REGENMODE
 70
     1
  9
$FILLMODE
 70
     1
  9
$QTEXTMODE
 70
     0
  9
$MIRRTEXT
 70
     1
  9
$LTSCALE
 40
1.0
  9
$ATTMODE
 70
     1
  9
$TEXTSIZE
 40
0.2
  9
$TRACEWID
 40
0.05
  9
$TEXTSTYLE
  7
Standard
  9
$CLAYER
  8
0
  9
$CELTYPE
  6
ByLayer
  9
$CECOLOR
 62
   256
  9
$CELTSCALE
 40
1.0
  9
$DISPSILH
 70
     0
  9
$DIMSCALE
 40
1.0
  9
$DIMASZ
 40
0.18
  9
$DIMEXO
 40
0.0625
  9
$DIMDLI
 40
0.38
  9
$DIMRND
 40
0.0
  9
$DIMDLE
 40
0.0
  9
$DIMEXE
 40
0.18
  9
$DIMTP
 40
0.0
  9
$DIMTM
 40
0.0
  9
$DIMTXT
 40
0.18
  9
$DIMCEN
 40
0.09
  9
$DIMTSZ
 40
0.0
  9
$DIMTOL
 70
     0
  9
$DIMLIM
 70
     0
  9
$DIMTIH
 70
     1
  9
$DIMTOH
 70
     1
  9
$DIMSE1
 70
     0
  9
$DIMSE2
 70
     0
  9
$DIMTAD
 70
     0
  9
$DIMZIN
 70
     0
  9
$DIMBLK
  1

  9
$DIMASO
 70
     1
  9
$DIMSHO
 70
     1
  9
$DIMPOST
  1

  9
$DIMAPOST
  1

  9
$DIMALT
 70
     0
  9
$DIMALTD
 70
     2
  9
$DIMALTF
 40
25.4
  9
$DIMLFAC
 40
1.0
  9
$DIMTOFL
 70
     0
  9
$DIMTVP
 40
0.0
  9
$DIMTIX
 70
     0
  9
$DIMSOXD
 70
     0
  9
$DIMSAH
 70
     0
  9
$DIMBLK1
  1

  9
$DIMBLK2
  1

  9
$DIMSTYLE
  2
Standard
  9
$DIMCLRD
 70
     0
  9
$DIMCLRE
 70
     0
  9
$DIMCLRT
 70
     0
  9
$DIMTFAC
 40
1.0
  9
$DIMGAP
 40
0.09
  9
$DIMJUST
 70
     0
  9
$DIMSD1
 70
     0
  9
$DIMSD2
 70
     0
  9
$DIMTOLJ
 70
     1
  9
$DIMTZIN
 70
     0
  9
$DIMALTZ
 70
     0
  9
$DIMALTTZ
 70
     0
  9
$DIMUPT
 70
     0
  9
$DIMDEC
 70
     4
  9
$DIMTDEC
 70
     4
  9
$DIMALTU
 70
     2
  9
$DIMALTTD
 70
     2
  9
$DIMTXSTY
  7
Standard
  9
$DIMAUNIT
 70
     0
  9
$DIMADEC
 70
     0
  9
$DIMALTRND
 40
0.0
  9
$DIMAZIN
 70
     0
  9
$DIMDSEP
 70
    46
  9
$DIMATFIT
 70
     3
  9
$DIMFRAC
 70
     0
  9
$DIMLDRBLK
  1

  9
$DIMLUNIT
 70
     2
  9
$DIMLWD
 70
    -2
  9
$DIMLWE
 70
    -2
  9
$DIMTMOVE
 70
     0
  9
$DIMFXL
 40
1.0
  9
$DIMFXLON
 70
     0
  9
$DIMJOGANG
 40
0.7853981633974483
  9
$DIMTFILL
 70
     0
  9
$DIMTFILLCLR
 70
     0
  9
$DIMARCSYM
 70
     0
  9
$DIMLTYPE
  6

  9
$DIMLTEX1
  6

  9
$DIMLTEX2
  6

  9
$DIMTXTDIRECTION
 70
     0
  9
$LUNITS
 70
     2
  9
$LUPREC
 70
     4
  9
$SKETCHINC
 40
0.1
  9
$FILLETRAD
 40
0.5
  9
$AUNITS
 70
     0
  9
$AUPREC
 70
     0
  9
$MENU
  1
.
  9
$ELEVATION
 40
0.0
  9
$PELEVATION
 40
0.0
  9
$THICKNESS
 40
0.0
  9
$LIMCHECK
 70
     0
  9
$CHAMFERA
 40
0.5
  9
$CHAMFERB
 40
0.5
  9
$CHAMFERC
 40
1.0
  9
$CHAMFERD
 40
0.0
  9
$SKPOLY
 70
     0
  9
$TDCREATE
 40
2459024.860023032
  9
$TDUCREATE
 40
2459024.818356366
  9
$TDUPDATE
 40
2459024.86002316
  9
$TDUUPDATE
 40
2459024.818356493
  9
$TDINDWG
 40
0.0000000116
  9
$TDUSRTIMER
 40
0.0000000116
  9
$USRTIMER
 70
     1
  9
$ANGBASE
 50
0.0
  9
$ANGDIR
 70
     0
  9
$PDMODE
 70
     0
  9
$PDSIZE
 40
0.0
  9
$PLINEWID
 40
0.0
  9
$SPLFRAME
 70
     0
  9
$SPLINETYPE
 70
     6
  9
$SPLINESEGS
 70
     8
  9
$HANDSEED
  5
266
  9
$SURFTAB1
 70
     6
  9
$SURFTAB2
 70
     6
  9
$SURFTYPE
 70
     6
  9
$SURFU
 70
     6
  9
$SURFV
 70
     6
  9
$UCSBASE
  2

  9
$UCSNAME
  2

  9
$UCSORG
 10
0.0
 20
0.0
 30
0.0
  9
$UCSXDIR
 10
1.0
 20
0.0
 30
0.0
  9
$UCSYDIR
 10
0.0
 20
1.0
 30
0.0
  9
$UCSORTHOREF
  2

  9
$UCSORTHOVIEW
 70
     0
  9
$UCSORGTOP
 10
0.0
 20
0.0
 30
0.0
  9
$UCSORGBOTTOM
 10
0.0
 20
0.0
 30
0.0
  9
$UCSORGLEFT
 10
0.0
 20
0.0
 30
0.0
  9
$UCSORGRIGHT
 10
0.0
 20
0.0
 30
0.0
  9
$UCSORGFRONT
 10
0.0
 20
0.0
 30
0.0
  9
$UCSORGBACK
 10
0.0
 20
0.0
 30
0.0
  9
$PUCSBASE
  2

  9
$PUCSNAME
  2

  9
$PUCSORG
 10
0.0
 20
0.0
 30
0.0
  9
$PUCSXDIR
 10
1.0
 20
0.0
 30
0.0
  9
$PUCSYDIR
 10
0.0
 20
1.0
 30
0.0
  9
$PUCSORTHOREF
  2

  9
$PUCSORTHOVIEW
 70
     0
  9
$PUCSORGTOP
 10
0.0
 20
0.0
 30
0.0
  9
$PUCSORGBOTTOM
 10
0.0
 20
0.0
 30
0.0
  9
$PUCSORGLEFT
 10
0.0
 20
0.0
 30
0.0
  9
$PUCSORGRIGHT
 10
0.0
 20
0.0
 30
0.0
  9
$PUCSORGFRONT
 10
0.0
 20
0.0
 30
0.0
  9
$PUCSORGBACK
 10
0.0
 20
0.0
 30
0.0
  9
$USERI1
 70
     0
  9
$USERI2
 70
     0
  9
$USERI3
 70
     0
  9
$USERI4
 70
     0
  9
$USERI5
 70
     0
  9
$USERR1
 40
0.0
  9
$USERR2
 40
0.0
  9
$USERR3
 40
0.0
  9
$USERR4
 40
0.0
  9
$USERR5
 40
0.0
  9
$WORLDVIEW
 70
     1
  9
$SHADEDGE
 70
     3
  9
$SHADEDIF
 70
    70
  9
$TILEMODE
 70
     1
  9
$MAXACTVP
 70
    64
  9
$PINSBASE
 10
0.0
 20
0.0
 30
0.0
  9
$PLIMCHECK
 70
     0
  9
$PEXTMIN
 10
1.000000000000000E+20
 20
1.000000000000000E+20
 30
1.000000000000000E+20
  9
$PEXTMAX
 10
-1.000000000000000E+20
 20
-1.000000000000000E+20
 30
-1.000000000000000E+20
  9
$PLIMMIN
 10
0.0
 20
0.0
  9
$PLIMMAX
 10
12.0
 20
9.0
  9
$UNITMODE
 70
     0
  9
$VISRETAIN
 70
     1
  9
$PLINEGEN
 70
     0
  9
$PSLTSCALE
 70
     1
  9
$TREEDEPTH
 70
  3020
  9
$CMLSTYLE
  2
Standard
  9
$CMLJUST
 70
     0
  9
$CMLSCALE
 40
1.0
  9
$PROXYGRAPHICS
 70
     1
  9
$MEASUREMENT
 70
     0
  9
$CELWEIGHT
370
    -1
  9
$ENDCAPS
280
     0
  9
$JOINSTYLE
280
     0
  9
$LWDISPLAY
290
     1
  9
$INSUNITS
 70
     1
  9
$HYPERLINKBASE
  1

  9
$STYLESHEET
  1

  9
$XEDIT
290
     1
  9
$CEPSNTYPE
380
     0
  9
$PSTYLEMODE
290
     1
  9
$FINGERPRINTGUID
  2
{E8329A8A-D5AF-4EE2-BFAC-6230F76AE3B1}
  9
$VERSIONGUID
  2
{FAEB1C32-E019-11D5-929B-00C0DF256EC4}
  9
$EXTNAMES
290
     1
  9
$PSVPSCALE
 40
0.0
  9
$OLESTARTUP
290
     0
  9
$SORTENTS
280
   127
  9
$INDEXCTL
280
     0
  9
$HIDETEXT
280
     1
  9
$XCLIPFRAME
280
     2
  9
$HALOGAP
280
     0
  9
$OBSCOLOR
 70
   257
  9
$OBSLTYPE
280
     0
  9
$INTERSECTIONDISPLAY
280
     0
  9
$INTERSECTIONCOLOR
 70
   257
  9
$DIMASSOC
280
     2
  9
$PROJECTNAME
  1

  9
$CAMERADISPLAY
290
     0
  9
$LENSLENGTH
 40
50.0
  9
$CAMERAHEIGHT
 40
0.0
  9
$STEPSPERSEC
 40
2.0
  9
$STEPSIZE
 40
6.0
  9
$3DDWFPREC
 40
2.0
  9
$PSOLWIDTH
 40
0.25
  9
$PSOLHEIGHT
 40
4.0
  9
$LOFTANG1
 40
1.570796326794897
  9
$LOFTANG2
 40
1.570796326794897
  9
$LOFTMAG1
 40
0.0
  9
$LOFTMAG2
 40
0.0
  9
$LOFTPARAM
 70
     7
  9
$LOFTNORMALS
280
     1
  9
$LATITUDE
 40
37.795
  9
$LONGITUDE
 40
-122.394
  9
$NORTHDIRECTION
 40
0.0
  9
$TIMEZONE
 70
 -8000
  9
$LIGHTGLYPHDISPLAY
280
     1
  9
$TILEMODELIGHTSYNCH
280
     1
  9
$CMATERIAL
347
3C
  9
$SOLIDHIST
280
     1
  9
$SHOWHIST
280
     1
  9
$DWFFRAME
280
     2
  9
$DGNFRAME
280
     2
  9
$REALWORLDSCALE
290
     1
  9
$INTERFERECOLOR
 62
   256
  9
$CSHADOW
280
     0
  9
$SHADOWPLANELOCATION
 40
0.0
  0
ENDSEC
  0
SECTION
  2
CLASSES
  0
CLASS
  1
ACDBDICTIONARYWDFLT
  2
AcDbDictionaryWithDefault
  3
ObjectDBX Classes
 90
        0
 91
        4
280
     0
281
     0
  0
CLASS
  1
VISUALSTYLE
  2
AcDbVisualStyle
  3
ObjectDBX Classes
 90
     4095
 91
        4
280
     0
281
     0
  0
CLASS
  1
MATERIAL
  2
AcDbMaterial
  3
ObjectDBX Classes
 90
     1153
 91
        4
280
     0
281
     0
  0
CLASS
  1
SUN
  2
AcDbSun
  3
SCENEOE
 90
     1024
 91
        4
280
     0
281
     0
  0
ENDSEC
  0
SECTION
  2
TABLES
  0
TABLE
  2
VPORT
  5
8
330
0
100
AcDbSymbolTable
 70
     1
  0
VPORT
  5
29
330
8
100
AcDbSymbolTableRecord
100
AcDbViewportTableRecord
  2
*Active
 70
     0
 10
0.0
 20
0.0
 11
1.0
 21
1.0
 12
0.0
 22
0.0
 13
0.0
 23
0.0
 14
0.5
 24
0.5
 15
0.5
 25
0.5
 16
0.0
 26
0.0
 36
1.0
 17
148.5000416295416
 27
-105.0007777515277
 37
0.0
 40
210.0015555030554
 41
1.414275634995294
 42
50.0
 43
0.0
 44
0.0
 50
0.0
 51
0.0
 71
     0
 72
   100
 73
     1
 74
     3
 75
     0
 76
     0
 77
     0
 78
     0
281
     0
 65
     1
110
0.0
120
0.0
130
0.0
111
1.0
121
0.0
131
0.0
112
0.0
122
1.0
132
0.0
 79
     0
146
0.0
 60
     3
 61
     5
292
     1
282
     1
141
0.0
142
0.0
 63
   250
361
3F
  0
ENDTAB
  0
TABLE
  2
LTYPE
  5
5
330
0
100
AcDbSymbolTable
 70
     1
  0
LTYPE
  5
14
330
5
100
AcDbSymbolTableRecord
100
AcDbLinetypeTableRecord
  2
ByBlock
 70
     0
  3

 72
    65
 73
     0
 40
0.0
  0
LTYPE
  5
15
330
5
100
AcDbSymbolTableRecord
100
AcDbLinetypeTableRecord
  2
ByLayer
 70
     0
  3

 72
    65
 73
     0
 40
0.0
  0
LTYPE
  5
16
330
5
100
AcDbSymbolTableRecord
100
AcDbLinetypeTableRecord
  2
Continuous
 70
     0
  3
Solid line
 72
    65
 73
     0
 40
0.0
  0
ENDTAB
  0
TABLE
  2
LAYER
  5
2
330
0
100
AcDbSymbolTable
 70
     2
  0
LAYER
  5
10
330
2
100
AcDbSymbolTableRecord
100
AcDbLayerTableRecord
  2
0
 70
     0
 62
     7
  6
Continuous
370
    -3
390
F
347
3E
  0
LAYER
  5
40
330
2
100
AcDbSymbolTableRecord
100
AcDbLayerTableRecord
  2
Layer 1
 70
     0
 62
     7
  6
Continuous
370
    -3
390
F
347
3E
  0
ENDTAB
  0
TABLE
  2
STYLE
  5
3
330
0
100
AcDbSymbolTable
 70
     1
  0
STYLE
  5
11
330
3
100
AcDbSymbolTableRecord
100
AcDbTextStyleTableRecord
  2
Standard
 70
     0
 40
0.0
 41
1.0
 50
0.0
 71
     0
 42
0.2
  3
txt
  4

  0
ENDTAB
  0
TABLE
  2
VIEW
  5
6
330
0
100
AcDbSymbolTable
 70
     0
  0
ENDTAB
  0
TABLE
  2
UCS
  5
7
330
0
100
AcDbSymbolTable
 70
     0
  0
ENDTAB
  0
TABLE
  2
APPID
  5
9
330
0
100
AcDbSymbolTable
 70
     1
  0
APPID
  5
12
330
9
100
AcDbSymbolTableRecord
100
AcDbRegAppTableRecord
  2
ACAD
 70
     0
  0
ENDTAB
  0
TABLE
  2
DIMSTYLE
  5
A
330
0
100
AcDbSymbolTable
 70
     1
100
AcDbDimStyleTable
  0
DIMSTYLE
105
27
330
A
100
AcDbSymbolTableRecord
100
AcDbDimStyleTableRecord
  2
Standard
 70
     0
178
     0
340
11
  0
ENDTAB
  0
TABLE
  2
BLOCK_RECORD
  5
1
330
0
100
AcDbSymbolTable
 70
    52
  0
BLOCK_RECORD
  5
1F
330
1
100
AcDbSymbolTableRecord
100
AcDbBlockTableRecord
  2
*Model_Space
340
22
 70
     0
280
     1
281
     0
  0
BLOCK_RECORD
  5
1B
330
1
100
AcDbSymbolTableRecord
100
AcDbBlockTableRecord
  2
*Paper_Space
340
1E
 70
     0
280
     1
281
     0
  0
BLOCK_RECORD
  5
23
330
1
100
AcDbSymbolTableRecord
100
AcDbBlockTableRecord
  2
*Paper_Space0
340
26
 70
     0
280
     1
281
     0
  0
BLOCK_RECORD
  5
48
330
1
100
AcDbSymbolTableRecord
100
AcDbBlockTableRecord
  2
block 2
340
0
102
{BLKREFS
331
49
102
}
 70
     0
280
     1
281
     0
  0
BLOCK_RECORD
  5
4C
330
1
100
AcDbSymbolTableRecord
100
AcDbBlockTableRecord
  2
block 3
340
0
102
{BLKREFS
331
4D
102
}
 70
     0
280
     1
281
     0
  0
BLOCK_RECORD
  5
50
330
1
100
AcDbSymbolTableRecord
100
AcDbBlockTableRecord
  2
block 4
340
0
102
{BLKREFS
331
51
102
}
 70
     0
280
     1
281
     0
  0
BLOCK_RECORD
  5
5B
330
1
100
AcDbSymbolTableRecord
100
AcDbBlockTableRecord
  2
block 5
340
0
102
{BLKREFS
331
5C
102
}
 70
     0
280
     1
281
     0
  0
BLOCK_RECORD
  5
66
330
1
100
AcDbSymbolTableRecord
100
AcDbBlockTableRecord
  2
block 6
340
0
102
{BLKREFS
331
67
102
}
 70
     0
280
     1
281
     0
  0
BLOCK_RECORD
  5
71
330
1
100
AcDbSymbolTableRecord
100
AcDbBlockTableRecord
  2
block 7
340
0
102
{BLKREFS
331
72
102
}
 70
     0
280
     1
281
     0
  0
BLOCK_RECORD
  5
7C
330
1
100
AcDbSymbolTableRecord
100
AcDbBlockTableRecord
  2
block 8
340
0
102
{BLKREFS
331
7D
102
}
 70
     0
280
     1
281
     0
  0
BLOCK_RECORD
  5
87
330
1
100
AcDbSymbolTableRecord
100
AcDbBlockTableRecord
  2
block 9
340
0
102
{BLKREFS
331
88
102
}
 70
     0
280
     1
281
     0
  0
BLOCK_RECORD
  5
92
330
1
100
AcDbSymbolTableRecord
100
AcDbBlockTableRecord
  2
block 10
340
0
102
{BLKREFS
331
93
102
}
 70
     0
280
     1
281
     0
  0
BLOCK_RECORD
  5
9D
330
1
100
AcDbSymbolTableRecord
100
AcDbBlockTableRecord
  2
block 11
340
0
102
{BLKREFS
331
9E
102
}
 70
     0
280
     1
281
     0
  0
BLOCK_RECORD
  5
A8
330
1
100
AcDbSymbolTableRecord
100
AcDbBlockTableRecord
  2
block 12
340
0
102
{BLKREFS
331
A9
102
}
 70
     0
280
     1
281
     0
  0
BLOCK_RECORD
  5
B3
330
1
100
AcDbSymbolTableRecord
100
AcDbBlockTableRecord
  2
block 13
340
0
102
{BLKREFS
331
B4
102
}
 70
     0
280
     1
281
     0
  0
BLOCK_RECORD
  5
BE
330
1
100
AcDbSymbolTableRecord
100
AcDbBlockTableRecord
  2
block 14
340
0
102
{BLKREFS
331
BF
102
}
 70
     0
280
     1
281
     0
  0
BLOCK_RECORD
  5
C9
330
1
100
AcDbSymbolTableRecord
100
AcDbBlockTableRecord
  2
block 15
340
0
102
{BLKREFS
331
CA
102
}
 70
     0
280
     1
281
     0
  0
BLOCK_RECORD
  5
D4
330
1
100
AcDbSymbolTableRecord
100
AcDbBlockTableRecord
  2
block 16
340
0
102
{BLKREFS
331
D5
102
}
 70
     0
280
     1
281
     0
  0
BLOCK_RECORD
  5
D8
330
1
100
AcDbSymbolTableRecord
100
AcDbBlockTableRecord
  2
block 17
340
0
102
{BLKREFS
331
D9
102
}
 70
     0
280
     1
281
     0
  0
BLOCK_RECORD
  5
E3
330
1
100
AcDbSymbolTableRecord
100
AcDbBlockTableRecord
  2
block 18
340
0
102
{BLKREFS
331
E4
102
}
 70
     0
280
     1
281
     0
  0
BLOCK_RECORD
  5
EE
330
1
100
AcDbSymbolTableRecord
100
AcDbBlockTableRecord
  2
block 19
340
0
102
{BLKREFS
331
EF
102
}
 70
     0
280
     1
281
     0
  0
BLOCK_RECORD
  5
F9
330
1
100
AcDbSymbolTableRecord
100
AcDbBlockTableRecord
  2
block 20
340
0
102
{BLKREFS
331
FA
102
}
 70
     0
280
     1
281
     0
  0
BLOCK_RECORD
  5
104
330
1
100
AcDbSymbolTableRecord
100
AcDbBlockTableRecord
  2
block 21
340
0
102
{BLKREFS
331
105
102
}
 70
     0
280
     1
281
     0
  0
BLOCK_RECORD
  5
10F
330
1
100
AcDbSymbolTableRecord
100
AcDbBlockTableRecord
  2
block 22
340
0
102
{BLKREFS
331
110
102
}
 70
     0
280
     1
281
     0
  0
BLOCK_RECORD
  5
11A
330
1
100
AcDbSymbolTableRecord
100
AcDbBlockTableRecord
  2
block 23
340
0
102
{BLKREFS
331
11B
102
}
 70
     0
280
     1
281
     0
  0
BLOCK_RECORD
  5
125
330
1
100
AcDbSymbolTableRecord
100
AcDbBlockTableRecord
  2
block 24
340
0
102
{BLKREFS
331
126
102
}
 70
     0
280
     1
281
     0
  0
BLOCK_RECORD
  5
130
330
1
100
AcDbSymbolTableRecord
100
AcDbBlockTableRecord
  2
block 25
340
0
102
{BLKREFS
331
131
102
}
 70
     0
280
     1
281
     0
  0
BLOCK_RECORD
  5
13B
330
1
100
AcDbSymbolTableRecord
100
AcDbBlockTableRecord
  2
block 26
340
0
102
{BLKREFS
331
13C
102
}
 70
     0
280
     1
281
     0
  0
BLOCK_RECORD
  5
146
330
1
100
AcDbSymbolTableRecord
100
AcDbBlockTableRecord
  2
block 27
340
0
102
{BLKREFS
331
147
102
}
 70
     0
280
     1
281
     0
  0
BLOCK_RECORD
  5
151
330
1
100
AcDbSymbolTableRecord
100
AcDbBlockTableRecord
  2
block 28
340
0
102
{BLKREFS
331
152
102
}
 70
     0
280
     1
281
     0
  0
BLOCK_RECORD
  5
163
330
1
100
AcDbSymbolTableRecord
100
AcDbBlockTableRecord
  2
block 29
340
0
102
{BLKREFS
331
164
102
}
 70
     0
280
     1
281
     0
  0
BLOCK_RECORD
  5
167
330
1
100
AcDbSymbolTableRecord
100
AcDbBlockTableRecord
  2
block 30
340
0
102
{BLKREFS
331
168
102
}
 70
     0
280
     1
281
     0
  0
BLOCK_RECORD
  5
172
330
1
100
AcDbSymbolTableRecord
100
AcDbBlockTableRecord
  2
block 31
340
0
102
{BLKREFS
331
173
102
}
 70
     0
280
     1
281
     0
  0
BLOCK_RECORD
  5
17D
330
1
100
AcDbSymbolTableRecord
100
AcDbBlockTableRecord
  2
block 32
340
0
102
{BLKREFS
331
17E
102
}
 70
     0
280
     1
281
     0
  0
BLOCK_RECORD
  5
188
330
1
100
AcDbSymbolTableRecord
100
AcDbBlockTableRecord
  2
block 33
340
0
102
{BLKREFS
331
189
102
}
 70
     0
280
     1
281
     0
  0
BLOCK_RECORD
  5
193
330
1
100
AcDbSymbolTableRecord
100
AcDbBlockTableRecord
  2
block 34
340
0
102
{BLKREFS
331
194
102
}
 70
     0
280
     1
281
     0
  0
BLOCK_RECORD
  5
19E
330
1
100
AcDbSymbolTableRecord
100
AcDbBlockTableRecord
  2
block 35
340
0
102
{BLKREFS
331
19F
102
}
 70
     0
280
     1
281
     0
  0
BLOCK_RECORD
  5
1A9
330
1
100
AcDbSymbolTableRecord
100
AcDbBlockTableRecord
  2
block 36
340
0
102
{BLKREFS
331
1AA
102
}
 70
     0
280
     1
281
     0
  0
BLOCK_RECORD
  5
1B4
330
1
100
AcDbSymbolTableRecord
100
AcDbBlockTableRecord
  2
block 37
340
0
102
{BLKREFS
331
1B5
102
}
 70
     0
280
     1
281
     0
  0
BLOCK_RECORD
  5
1BF
330
1
100
AcDbSymbolTableRecord
100
AcDbBlockTableRecord
  2
block 38
340
0
102
{BLKREFS
331
1C0
102
}
 70
     0
280
     1
281
     0
  0
BLOCK_RECORD
  5
1CA
330
1
100
AcDbSymbolTableRecord
100
AcDbBlockTableRecord
  2
block 39
340
0
102
{BLKREFS
331
1CB
102
}
 70
     0
280
     1
281
     0
  0
BLOCK_RECORD
  5
1D5
330
1
100
AcDbSymbolTableRecord
100
AcDbBlockTableRecord
  2
block 40
340
0
102
{BLKREFS
331
1D6
102
}
 70
     0
280
     1
281
     0
  0
BLOCK_RECORD
  5
1E0
330
1
100
AcDbSymbolTableRecord
100
AcDbBlockTableRecord
  2
block 41
340
0
102
{BLKREFS
331
1E1
102
}
 70
     0
280
     1
281
     0
  0
BLOCK_RECORD
  5
1E4
330
1
100
AcDbSymbolTableRecord
100
AcDbBlockTableRecord
  2
block 42
340
0
102
{BLKREFS
331
1E5
102
}
 70
     0
280
     1
281
     0
  0
BLOCK_RECORD
  5
1EF
330
1
100
AcDbSymbolTableRecord
100
AcDbBlockTableRecord
  2
block 43
340
0
102
{BLKREFS
331
1F0
102
}
 70
     0
280
     1
281
     0
  0
BLOCK_RECORD
  5
1FA
330
1
100
AcDbSymbolTableRecord
100
AcDbBlockTableRecord
  2
block 44
340
0
102
{BLKREFS
331
1FB
102
}
 70
     0
280
     1
281
     0
  0
BLOCK_RECORD
  5
205
330
1
100
AcDbSymbolTableRecord
100
AcDbBlockTableRecord
  2
block 45
340
0
102
{BLKREFS
331
206
102
}
 70
     0
280
     1
281
     0
  0
BLOCK_RECORD
  5
210
330
1
100
AcDbSymbolTableRecord
100
AcDbBlockTableRecord
  2
block 46
340
0
102
{BLKREFS
331
211
102
}
 70
     0
280
     1
281
     0
  0
BLOCK_RECORD
  5
222
330
1
100
AcDbSymbolTableRecord
100
AcDbBlockTableRecord
  2
block 47
340
0
102
{BLKREFS
331
223
102
}
 70
     0
280
     1
281
     0
  0
BLOCK_RECORD
  5
22D
330
1
100
AcDbSymbolTableRecord
100
AcDbBlockTableRecord
  2
block 48
340
0
102
{BLKREFS
331
22E
102
}
 70
     0
280
     1
281
     0
  0
BLOCK_RECORD
  5
238
330
1
100
AcDbSymbolTableRecord
100
AcDbBlockTableRecord
  2
block 49
340
0
102
{BLKREFS
331
239
102
}
 70
     0
280
     1
281
     0
  0
BLOCK_RECORD
  5
243
330
1
100
AcDbSymbolTableRecord
100
AcDbBlockTableRecord
  2
block 50
340
0
102
{BLKREFS
331
244
102
}
 70
     0
280
     1
281
     0
  0
BLOCK_RECORD
  5
24E
330
1
100
AcDbSymbolTableRecord
100
AcDbBlockTableRecord
  2
block 51
340
0
102
{BLKREFS
331
24F
102
}
 70
     0
280
     1
281
     0
  0
BLOCK_RECORD
  5
259
330
1
100
AcDbSymbolTableRecord
100
AcDbBlockTableRecord
  2
block 52
340
0
102
{BLKREFS
331
25A
102
}
 70
     0
280
     1
281
     0
  0
ENDTAB
  0
ENDSEC
  0
SECTION
  2
BLOCKS
  0
BLOCK
  5
20
330
1F
100
AcDbEntity
  8
0
100
AcDbBlockBegin
  2
*Model_Space
 70
     0
 10
0.0
 20
0.0
 30
0.0
  3
*Model_Space
  1

  0
ENDBLK
  5
21
330
1F
100
AcDbEntity
  8
0
100
AcDbBlockEnd
  0
BLOCK
  5
1C
330
1B
100
AcDbEntity
 67
     1
  8
0
100
AcDbBlockBegin
  2
*Paper_Space
 70
     0
 10
0.0
 20
0.0
 30
0.0
  3
*Paper_Space
  1

  0
ENDBLK
  5
1D
330
1B
100
AcDbEntity
 67
     1
  8
0
100
AcDbBlockEnd
  0
BLOCK
  5
24
330
23
100
AcDbEntity
  8
0
100
AcDbBlockBegin
  2
*Paper_Space0
 70
     0
 10
0.0
 20
0.0
 30
0.0
  3
*Paper_Space0
  1

  0
ENDBLK
  5
25
330
23
100
AcDbEntity
  8
0
100
AcDbBlockEnd
  0
BLOCK
  5
4A
330
48
100
AcDbEntity
  8
0
100
AcDbBlockBegin
  2
block 2
 70
     0
 10
0.0
 20
0.0
 30
0.0
  3
block 2
  1

  0
INSERT
  5
4D
330
48
100
AcDbEntity
  8
Layer 1
100
AcDbBlockReference
  2
block 3
 10
0.0
 20
0.0
 30
0.0
  0
INSERT
  5
D5
330
48
100
AcDbEntity
  8
Layer 1
100
AcDbBlockReference
  2
block 16
 10
0.0
 20
0.0
 30
0.0
  0
INSERT
  5
164
330
48
100
AcDbEntity
  8
Layer 1
100
AcDbBlockReference
  2
block 29
 10
0.0
 20
0.0
 30
0.0
  0
INSERT
  5
1E1
330
48
100
AcDbEntity
  8
Layer 1
100
AcDbBlockReference
  2
block 41
 10
0.0
 20
0.0
 30
0.0
  0
ENDBLK
  5
4B
330
48
100
AcDbEntity
  8
0
100
AcDbBlockEnd
  0
BLOCK
  5
4E
330
4C
100
AcDbEntity
  8
0
100
AcDbBlockBegin
  2
block 3
 70
     0
 10
0.0
 20
0.0
 30
0.0
  3
block 3
  1

  0
INSERT
  5
51
330
4C
100
AcDbEntity
  8
Layer 1
100
AcDbBlockReference
  2
block 4
 10
0.0
 20
0.0
 30
0.0
  0
INSERT
  5
5C
330
4C
100
AcDbEntity
  8
Layer 1
100
AcDbBlockReference
  2
block 5
 10
0.0
 20
0.0
 30
0.0
  0
INSERT
  5
67
330
4C
100
AcDbEntity
  8
Layer 1
100
AcDbBlockReference
  2
block 6
 10
0.0
 20
0.0
 30
0.0
  0
INSERT
  5
72
330
4C
100
AcDbEntity
  8
Layer 1
100
AcDbBlockReference
  2
block 7
 10
0.0
 20
0.0
 30
0.0
  0
INSERT
  5
7D
330
4C
100
AcDbEntity
  8
Layer 1
100
AcDbBlockReference
  2
block 8
 10
0.0
 20
0.0
 30
0.0
  0
INSERT
  5
88
330
4C
100
AcDbEntity
  8
Layer 1
100
AcDbBlockReference
  2
block 9
 10
0.0
 20
0.0
 30
0.0
  0
INSERT
  5
93
330
4C
100
AcDbEntity
  8
Layer 1
100
AcDbBlockReference
  2
block 10
 10
0.0
 20
0.0
 30
0.0
  0
INSERT
  5
9E
330
4C
100
AcDbEntity
  8
Layer 1
100
AcDbBlockReference
  2
block 11
 10
0.0
 20
0.0
 30
0.0
  0
INSERT
  5
A9
330
4C
100
AcDbEntity
  8
Layer 1
100
AcDbBlockReference
  2
block 12
 10
0.0
 20
0.0
 30
0.0
  0
INSERT
  5
B4
330
4C
100
AcDbEntity
  8
Layer 1
100
AcDbBlockReference
  2
block 13
 10
0.0
 20
0.0
 30
0.0
  0
INSERT
  5
BF
330
4C
100
AcDbEntity
  8
Layer 1
100
AcDbBlockReference
  2
block 14
 10
0.0
 20
0.0
 30
0.0
  0
INSERT
  5
CA
330
4C
100
AcDbEntity
  8
Layer 1
100
AcDbBlockReference
  2
block 15
 10
0.0
 20
0.0
 30
0.0
  0
ENDBLK
  5
4F
330
4C
100
AcDbEntity
  8
0
100
AcDbBlockEnd
  0
BLOCK
  5
52
330
50
100
AcDbEntity
  8
0
100
AcDbBlockBegin
  2
block 4
 70
     0
 10
0.0
 20
0.0
 30
0.0
  3
block 4
  1

  0
POLYLINE
  5
54
330
50
100
AcDbEntity
  8
Layer 1
 62
   242
420
 12457505
370
    18
100
AcDb2dPolyline
 66
     1
 10
0.0
 20
0.0
 30
0.0
  0
VERTEX
  5
55
330
54
100
AcDbEntity
  8
Layer 1
 62
   242
420
 12457505
370
    18
100
AcDbVertex
100
AcDb2dVertex
 10
48.34379165363765
 20
-83.42577775307319
 30
0.0
  0
VERTEX
  5
56
330
54
100
AcDbEntity
  8
Layer 1
 62
   242
420
 12457505
370
    18
100
AcDbVertex
100
AcDb2dVertex
 10
34.34379165902358
 20
-83.42577775307319
 30
0.0
  0
VERTEX
  5
57
330
54
100
AcDbEntity
  8
Layer 1
 62
   242
420
 12457505
370
    18
100
AcDbVertex
100
AcDb2dVertex
 10
34.34379165902358
 20
-69.42577775657381
 30
0.0
  0
VERTEX
  5
58
330
54
100
AcDbEntity
  8
Layer 1
 62
   242
420
 12457505
370
    18
100
AcDbVertex
100
AcDb2dVertex
 10
48.34379165363765
 20
-69.42577775657381
 30
0.0
  0
VERTEX
  5
59
330
54
100
AcDbEntity
  8
Layer 1
 62
   242
420
 12457505
370
    18
100
AcDbVertex
100
AcDb2dVertex
 10
48.34379165363765
 20
-83.42577775307319
 30
0.0
  0
SEQEND
  5
5A
330
54
100
AcDbEntity
  8
Layer 1
 62
   242
420
 12457505
370
    18
  0
ENDBLK
  5
53
330
50
100
AcDbEntity
  8
0
100
AcDbBlockEnd
  0
BLOCK
  5
5D
330
5B
100
AcDbEntity
  8
0
100
AcDbBlockBegin
  2
block 5
 70
     0
 10
0.0
 20
0.0
 30
0.0
  3
block 5
  1

  0
POLYLINE
  5
5F
330
5B
100
AcDbEntity
  8
Layer 1
 62
   242
420
 12457505
370
    18
100
AcDb2dPolyline
 66
     1
 10
0.0
 20
0.0
 30
0.0
  0
VERTEX
  5
60
330
5F
100
AcDbEntity
  8
Layer 1
 62
   242
420
 12457505
370
    18
100
AcDbVertex
100
AcDb2dVertex
 10
67.39379164887515
 20
-83.42577775307319
 30
0.0
  0
VERTEX
  5
61
330
5F
100
AcDbEntity
  8
Layer 1
 62
   242
420
 12457505
370
    18
100
AcDbVertex
100
AcDb2dVertex
 10
53.39379165426108
 20
-83.42577775307319
 30
0.0
  0
VERTEX
  5
62
330
5F
100
AcDbEntity
  8
Layer 1
 62
   242
420
 12457505
370
    18
100
AcDbVertex
100
AcDb2dVertex
 10
53.39379165426108
 20
-69.42577775657381
 30
0.0
  0
VERTEX
  5
63
330
5F
100
AcDbEntity
  8
Layer 1
 62
   242
420
 12457505
370
    18
100
AcDbVertex
100
AcDb2dVertex
 10
67.39379164887515
 20
-69.42577775657381
 30
0.0
  0
VERTEX
  5
64
330
5F
100
AcDbEntity
  8
Layer 1
 62
   242
420
 12457505
370
    18
100
AcDbVertex
100
AcDb2dVertex
 10
67.39379164887515
 20
-83.42577775307319
 30
0.0
  0
SEQEND
  5
65
330
5F
100
AcDbEntity
  8
Layer 1
 62
   242
420
 12457505
370
    18
  0
ENDBLK
  5
5E
330
5B
100
AcDbEntity
  8
0
100
AcDbBlockEnd
  0
BLOCK
  5
68
330
66
100
AcDbEntity
  8
0
100
AcDbBlockBegin
  2
block 6
 70
     0
 10
0.0
 20
0.0
 30
0.0
  3
block 6
  1

  0
POLYLINE
  5
6A
330
66
100
AcDbEntity
  8
Layer 1
 62
   242
420
 12457505
370
    18
100
AcDb2dPolyline
 66
     1
 10
0.0
 20
0.0
 30
0.0
  0
VERTEX
  5
6B
330
6A
100
AcDbEntity
  8
Layer 1
 62
   242
420
 12457505
370
    18
100
AcDbVertex
100
AcDb2dVertex
 10
86.44379164411265
 20
-83.42577775307319
 30
0.0
  0
VERTEX
  5
6C
330
6A
100
AcDbEntity
  8
Layer 1
 62
   242
420
 12457505
370
    18
100
AcDbVertex
100
AcDb2dVertex
 10
72.44379164949858
 20
-83.42577775307319
 30
0.0
  0
VERTEX
  5
6D
330
6A
100
AcDbEntity
  8
Layer 1
 62
   242
420
 12457505
370
    18
100
AcDbVertex
100
AcDb2dVertex
 10
72.44379164949858
 20
-69.42577775657381
 30
0.0
  0
VERTEX
  5
6E
330
6A
100
AcDbEntity
  8
Layer 1
 62
   242
420
 12457505
370
    18
100
AcDbVertex
100
AcDb2dVertex
 10
86.44379164411265
 20
-69.42577775657381
 30
0.0
  0
VERTEX
  5
6F
330
6A
100
AcDbEntity
  8
Layer 1
 62
   242
420
 12457505
370
    18
100
AcDbVertex
100
AcDb2dVertex
 10
86.44379164411265
 20
-83.42577775307319
 30
0.0
  0
SEQEND
  5
70
330
6A
100
AcDbEntity
  8
Layer 1
 62
   242
420
 12457505
370
    18
  0
ENDBLK
  5
69
330
66
100
AcDbEntity
  8
0
100
AcDbBlockEnd
  0
BLOCK
  5
73
330
71
100
AcDbEntity
  8
0
100
AcDbBlockBegin
  2
block 7
 70
     0
 10
0.0
 20
0.0
 30
0.0
  3
block 7
  1

  0
POLYLINE
  5
75
330
71
100
AcDbEntity
  8
Layer 1
 62
   242
420
 12457505
370
    18
100
AcDb2dPolyline
 66
     1
 10
0.0
 20
0.0
 30
0.0
  0
VERTEX
  5
76
330
75
100
AcDbEntity
  8
Layer 1
 62
   242
420
 12457505
370
    18
100
AcDbVertex
100
AcDb2dVertex
 10
105.4937916393502
 20
-83.42577775307319
 30
0.0
  0
VERTEX
  5
77
330
75
100
AcDbEntity
  8
Layer 1
 62
   242
420
 12457505
370
    18
100
AcDbVertex
100
AcDb2dVertex
 10
91.49379164473608
 20
-83.42577775307319
 30
0.0
  0
VERTEX
  5
78
330
75
100
AcDbEntity
  8
Layer 1
 62
   242
420
 12457505
370
    18
100
AcDbVertex
100
AcDb2dVertex
 10
91.49379164473608
 20
-69.42577775657381
 30
0.0
  0
VERTEX
  5
79
330
75
100
AcDbEntity
  8
Layer 1
 62
   242
420
 12457505
370
    18
100
AcDbVertex
100
AcDb2dVertex
 10
105.4937916393502
 20
-69.42577775657381
 30
0.0
  0
VERTEX
  5
7A
330
75
100
AcDbEntity
  8
Layer 1
 62
   242
420
 12457505
370
    18
100
AcDbVertex
100
AcDb2dVertex
 10
105.4937916393502
 20
-83.42577775307319
 30
0.0
  0
SEQEND
  5
7B
330
75
100
AcDbEntity
  8
Layer 1
 62
   242
420
 12457505
370
    18
  0
ENDBLK
  5
74
330
71
100
AcDbEntity
  8
0
100
AcDbBlockEnd
  0
BLOCK
  5
7E
330
7C
100
AcDbEntity
  8
0
100
AcDbBlockBegin
  2
block 8
 70
     0
 10
0.0
 20
0.0
 30
0.0
  3
block 8
  1

  0
POLYLINE
  5
80
330
7C
100
AcDbEntity
  8
Layer 1
 62
   242
420
 12457505
370
    18
100
AcDb2dPolyline
 66
     1
 10
0.0
 20
0.0
 30
0.0
  0
VERTEX
  5
81
330
80
100
AcDbEntity
  8
Layer 1
 62
   242
420
 12457505
370
    18
100
AcDbVertex
100
AcDb2dVertex
 10
124.5437916345877
 20
-83.42577775307319
 30
0.0
  0
VERTEX
  5
82
330
80
100
AcDbEntity
  8
Layer 1
 62
   242
420
 12457505
370
    18
100
AcDbVertex
100
AcDb2dVertex
 10
110.5437916399736
 20
-83.42577775307319
 30
0.0
  0
VERTEX
  5
83
330
80
100
AcDbEntity
  8
Layer 1
 62
   242
420
 12457505
370
    18
100
AcDbVertex
100
AcDb2dVertex
 10
110.5437916399736
 20
-69.42577775657381
 30
0.0
  0
VERTEX
  5
84
330
80
100
AcDbEntity
  8
Layer 1
 62
   242
420
 12457505
370
    18
100
AcDbVertex
100
AcDb2dVertex
 10
124.5437916345877
 20
-69.42577775657381
 30
0.0
  0
VERTEX
  5
85
330
80
100
AcDbEntity
  8
Layer 1
 62
   242
420
 12457505
370
    18
100
AcDbVertex
100
AcDb2dVertex
 10
124.5437916345877
 20
-83.42577775307319
 30
0.0
  0
SEQEND
  5
86
330
80
100
AcDbEntity
  8
Layer 1
 62
   242
420
 12457505
370
    18
  0
ENDBLK
  5
7F
330
7C
100
AcDbEntity
  8
0
100
AcDbBlockEnd
  0
BLOCK
  5
89
330
87
100
AcDbEntity
  8
0
100
AcDbBlockBegin
  2
block 9
 70
     0
 10
0.0
 20
0.0
 30
0.0
  3
block 9
  1

  0
POLYLINE
  5
8B
330
87
100
AcDbEntity
  8
Layer 1
 62
   242
420
 12457505
370
    18
100
AcDb2dPolyline
 66
     1
 10
0.0
 20
0.0
 30
0.0
  0
VERTEX
  5
8C
330
8B
100
AcDbEntity
  8
Layer 1
 62
   242
420
 12457505
370
    18
100
AcDbVertex
100
AcDb2dVertex
 10
143.5937916298251
 20
-83.42577775307319
 30
0.0
  0
VERTEX
  5
8D
330
8B
100
AcDbEntity
  8
Layer 1
 62
   242
420
 12457505
370
    18
100
AcDbVertex
100
AcDb2dVertex
 10
129.5937916352111
 20
-83.42577775307319
 30
0.0
  0
VERTEX
  5
8E
330
8B
100
AcDbEntity
  8
Layer 1
 62
   242
420
 12457505
370
    18
100
AcDbVertex
100
AcDb2dVertex
 10
129.5937916352111
 20
-69.42577775657381
 30
0.0
  0
VERTEX
  5
8F
330
8B
100
AcDbEntity
  8
Layer 1
 62
   242
420
 12457505
370
    18
100
AcDbVertex
100
AcDb2dVertex
 10
143.5937916298251
 20
-69.42577775657381
 30
0.0
  0
VERTEX
  5
90
330
8B
100
AcDbEntity
  8
Layer 1
 62
   242
420
 12457505
370
    18
100
AcDbVertex
100
AcDb2dVertex
 10
143.5937916298251
 20
-83.42577775307319
 30
0.0
  0
SEQEND
  5
91
330
8B
100
AcDbEntity
  8
Layer 1
 62
   242
420
 12457505
370
    18
  0
ENDBLK
  5
8A
330
87
100
AcDbEntity
  8
0
100
AcDbBlockEnd
  0
BLOCK
  5
94
330
92
100
AcDbEntity
  8
0
100
AcDbBlockBegin
  2
block 10
 70
     0
 10
0.0
 20
0.0
 30
0.0
  3
block 10
  1

  0
POLYLINE
  5
96
330
92
100
AcDbEntity
  8
Layer 1
 62
   242
420
 12457505
370
    18
100
AcDb2dPolyline
 66
     1
 10
0.0
 20
0.0
 30
0.0
  0
VERTEX
  5
97
330
96
100
AcDbEntity
  8
Layer 1
 62
   242
420
 12457505
370
    18
100
AcDbVertex
100
AcDb2dVertex
 10
162.6437916250626
 20
-83.42577775307319
 30
0.0
  0
VERTEX
  5
98
330
96
100
AcDbEntity
  8
Layer 1
 62
   242
420
 12457505
370
    18
100
AcDbVertex
100
AcDb2dVertex
 10
148.6437916304486
 20
-83.42577775307319
 30
0.0
  0
VERTEX
  5
99
330
96
100
AcDbEntity
  8
Layer 1
 62
   242
420
 12457505
370
    18
100
AcDbVertex
100
AcDb2dVertex
 10
148.6437916304486
 20
-69.42577775657381
 30
0.0
  0
VERTEX
  5
9A
330
96
100
AcDbEntity
  8
Layer 1
 62
   242
420
 12457505
370
    18
100
AcDbVertex
100
AcDb2dVertex
 10
162.6437916250626
 20
-69.42577775657381
 30
0.0
  0
VERTEX
  5
9B
330
96
100
AcDbEntity
  8
Layer 1
 62
   242
420
 12457505
370
    18
100
AcDbVertex
100
AcDb2dVertex
 10
162.6437916250626
 20
-83.42577775307319
 30
0.0
  0
SEQEND
  5
9C
330
96
100
AcDbEntity
  8
Layer 1
 62
   242
420
 12457505
370
    18
  0
ENDBLK
  5
95
330
92
100
AcDbEntity
  8
0
100
AcDbBlockEnd
  0
BLOCK
  5
9F
330
9D
100
AcDbEntity
  8
0
100
AcDbBlockBegin
  2
block 11
 70
     0
 10
0.0
 20
0.0
 30
0.0
  3
block 11
  1

  0
POLYLINE
  5
A1
330
9D
100
AcDbEntity
  8
Layer 1
 62
   242
420
 12457505
370
    18
100
AcDb2dPolyline
 66
     1
 10
0.0
 20
0.0
 30
0.0
  0
VERTEX
  5
A2
330
A1
100
AcDbEntity
  8
Layer 1
 62
   242
420
 12457505
370
    18
100
AcDbVertex
100
AcDb2dVertex
 10
181.6937916203001
 20
-83.42577775307319
 30
0.0
  0
VERTEX
  5
A3
330
A1
100
AcDbEntity
  8
Layer 1
 62
   242
420
 12457505
370
    18
100
AcDbVertex
100
AcDb2dVertex
 10
167.6937916256861
 20
-83.42577775307319
 30
0.0
  0
VERTEX
  5
A4
330
A1
100
AcDbEntity
  8
Layer 1
 62
   242
420
 12457505
370
    18
100
AcDbVertex
100
AcDb2dVertex
 10
167.6937916256861
 20
-69.42577775657381
 30
0.0
  0
VERTEX
  5
A5
330
A1
100
AcDbEntity
  8
Layer 1
 62
   242
420
 12457505
370
    18
100
AcDbVertex
100
AcDb2dVertex
 10
181.6937916203001
 20
-69.42577775657381
 30
0.0
  0
VERTEX
  5
A6
330
A1
100
AcDbEntity
  8
Layer 1
 62
   242
420
 12457505
370
    18
100
AcDbVertex
100
AcDb2dVertex
 10
181.6937916203001
 20
-83.42577775307319
 30
0.0
  0
SEQEND
  5
A7
330
A1
100
AcDbEntity
  8
Layer 1
 62
   242
420
 12457505
370
    18
  0
ENDBLK
  5
A0
330
9D
100
AcDbEntity
  8
0
100
AcDbBlockEnd
  0
BLOCK
  5
AA
330
A8
100
AcDbEntity
  8
0
100
AcDbBlockBegin
  2
block 12
 70
     0
 10
0.0
 20
0.0
 30
0.0
  3
block 12
  1

  0
POLYLINE
  5
AC
330
A8
100
AcDbEntity
  8
Layer 1
 62
   242
420
 12457505
370
    18
100
AcDb2dPolyline
 66
     1
 10
0.0
 20
0.0
 30
0.0
  0
VERTEX
  5
AD
330
AC
100
AcDbEntity
  8
Layer 1
 62
   242
420
 12457505
370
    18
100
AcDbVertex
100
AcDb2dVertex
 10
200.7437916155377
 20
-83.42577775307319
 30
0.0
  0
VERTEX
  5
AE
330
AC
100
AcDbEntity
  8
Layer 1
 62
   242
420
 12457505
370
    18
100
AcDbVertex
100
AcDb2dVertex
 10
186.7437916209236
 20
-83.42577775307319
 30
0.0
  0
VERTEX
  5
AF
330
AC
100
AcDbEntity
  8
Layer 1
 62
   242
420
 12457505
370
    18
100
AcDbVertex
100
AcDb2dVertex
 10
186.7437916209236
 20
-69.42577775657381
 30
0.0
  0
VERTEX
  5
B0
330
AC
100
AcDbEntity
  8
Layer 1
 62
   242
420
 12457505
370
    18
100
AcDbVertex
100
AcDb2dVertex
 10
200.7437916155377
 20
-69.42577775657381
 30
0.0
  0
VERTEX
  5
B1
330
AC
100
AcDbEntity
  8
Layer 1
 62
   242
420
 12457505
370
    18
100
AcDbVertex
100
AcDb2dVertex
 10
200.7437916155377
 20
-83.42577775307319
 30
0.0
  0
SEQEND
  5
B2
330
AC
100
AcDbEntity
  8
Layer 1
 62
   242
420
 12457505
370
    18
  0
ENDBLK
  5
AB
330
A8
100
AcDbEntity
  8
0
100
AcDbBlockEnd
  0
BLOCK
  5
B5
330
B3
100
AcDbEntity
  8
0
100
AcDbBlockBegin
  2
block 13
 70
     0
 10
0.0
 20
0.0
 30
0.0
  3
block 13
  1

  0
POLYLINE
  5
B7
330
B3
100
AcDbEntity
  8
Layer 1
 62
   242
420
 12457505
370
    18
100
AcDb2dPolyline
 66
     1
 10
0.0
 20
0.0
 30
0.0
  0
VERTEX
  5
B8
330
B7
100
AcDbEntity
  8
Layer 1
 62
   242
420
 12457505
370
    18
100
AcDbVertex
100
AcDb2dVertex
 10
219.7937916107752
 20
-83.42577775307319
 30
0.0
  0
VERTEX
  5
B9
330
B7
100
AcDbEntity
  8
Layer 1
 62
   242
420
 12457505
370
    18
100
AcDbVertex
100
AcDb2dVertex
 10
205.7937916161611
 20
-83.42577775307319
 30
0.0
  0
VERTEX
  5
BA
330
B7
100
AcDbEntity
  8
Layer 1
 62
   242
420
 12457505
370
    18
100
AcDbVertex
100
AcDb2dVertex
 10
205.7937916161611
 20
-69.42577775657381
 30
0.0
  0
VERTEX
  5
BB
330
B7
100
AcDbEntity
  8
Layer 1
 62
   242
420
 12457505
370
    18
100
AcDbVertex
100
AcDb2dVertex
 10
219.7937916107752
 20
-69.42577775657381
 30
0.0
  0
VERTEX
  5
BC
330
B7
100
AcDbEntity
  8
Layer 1
 62
   242
420
 12457505
370
    18
100
AcDbVertex
100
AcDb2dVertex
 10
219.7937916107752
 20
-83.42577775307319
 30
0.0
  0
SEQEND
  5
BD
330
B7
100
AcDbEntity
  8
Layer 1
 62
   242
420
 12457505
370
    18
  0
ENDBLK
  5
B6
330
B3
100
AcDbEntity
  8
0
100
AcDbBlockEnd
  0
BLOCK
  5
C0
330
BE
100
AcDbEntity
  8
0
100
AcDbBlockBegin
  2
block 14
 70
     0
 10
0.0
 20
0.0
 30
0.0
  3
block 14
  1

  0
POLYLINE
  5
C2
330
BE
100
AcDbEntity
  8
Layer 1
 62
   242
420
 12457505
370
    18
100
AcDb2dPolyline
 66
     1
 10
0.0
 20
0.0
 30
0.0
  0
VERTEX
  5
C3
330
C2
100
AcDbEntity
  8
Layer 1
 62
   242
420
 12457505
370
    18
100
AcDbVertex
100
AcDb2dVertex
 10
238.8437916060127
 20
-83.42577775307319
 30
0.0
  0
VERTEX
  5
C4
330
C2
100
AcDbEntity
  8
Layer 1
 62
   242
420
 12457505
370
    18
100
AcDbVertex
100
AcDb2dVertex
 10
224.8437916113986
 20
-83.42577775307319
 30
0.0
  0
VERTEX
  5
C5
330
C2
100
AcDbEntity
  8
Layer 1
 62
   242
420
 12457505
370
    18
100
AcDbVertex
100
AcDb2dVertex
 10
224.8437916113986
 20
-69.42577775657381
 30
0.0
  0
VERTEX
  5
C6
330
C2
100
AcDbEntity
  8
Layer 1
 62
   242
420
 12457505
370
    18
100
AcDbVertex
100
AcDb2dVertex
 10
238.8437916060127
 20
-69.42577775657381
 30
0.0
  0
VERTEX
  5
C7
330
C2
100
AcDbEntity
  8
Layer 1
 62
   242
420
 12457505
370
    18
100
AcDbVertex
100
AcDb2dVertex
 10
238.8437916060127
 20
-83.42577775307319
 30
0.0
  0
SEQEND
  5
C8
330
C2
100
AcDbEntity
  8
Layer 1
 62
   242
420
 12457505
370
    18
  0
ENDBLK
  5
C1
330
BE
100
AcDbEntity
  8
0
100
AcDbBlockEnd
  0
BLOCK
  5
CB
330
C9
100
AcDbEntity
  8
0
100
AcDbBlockBegin
  2
block 15
 70
     0
 10
0.0
 20
0.0
 30
0.0
  3
block 15
  1

  0
POLYLINE
  5
CD
330
C9
100
AcDbEntity
  8
Layer 1
 62
   242
420
 12457505
370
    18
100
AcDb2dPolyline
 66
     1
 10
0.0
 20
0.0
 30
0.0
  0
VERTEX
  5
CE
330
CD
100
AcDbEntity
  8
Layer 1
 62
   242
420
 12457505
370
    18
100
AcDbVertex
100
AcDb2dVertex
 10
257.8937916012501
 20
-83.42577775307319
 30
0.0
  0
VERTEX
  5
CF
330
CD
100
AcDbEntity
  8
Layer 1
 62
   242
420
 12457505
370
    18
100
AcDbVertex
100
AcDb2dVertex
 10
243.8937916066361
 20
-83.42577775307319
 30
0.0
  0
VERTEX
  5
D0
330
CD
100
AcDbEntity
  8
Layer 1
 62
   242
420
 12457505
370
    18
100
AcDbVertex
100
AcDb2dVertex
 10
243.8937916066361
 20
-69.42577775657381
 30
0.0
  0
VERTEX
  5
D1
330
CD
100
AcDbEntity
  8
Layer 1
 62
   242
420
 12457505
370
    18
100
AcDbVertex
100
AcDb2dVertex
 10
257.8937916012501
 20
-69.42577775657381
 30
0.0
  0
VERTEX
  5
D2
330
CD
100
AcDbEntity
  8
Layer 1
 62
   242
420
 12457505
370
    18
100
AcDbVertex
100
AcDb2dVertex
 10
257.8937916012501
 20
-83.42577775307319
 30
0.0
  0
SEQEND
  5
D3
330
CD
100
AcDbEntity
  8
Layer 1
 62
   242
420
 12457505
370
    18
  0
ENDBLK
  5
CC
330
C9
100
AcDbEntity
  8
0
100
AcDbBlockEnd
  0
BLOCK
  5
D6
330
D4
100
AcDbEntity
  8
0
100
AcDbBlockBegin
  2
block 16
 70
     0
 10
0.0
 20
0.0
 30
0.0
  3
block 16
  1

  0
INSERT
  5
D9
330
D4
100
AcDbEntity
  8
Layer 1
100
AcDbBlockReference
  2
block 17
 10
0.0
 20
0.0
 30
0.0
  0
INSERT
  5
E4
330
D4
100
AcDbEntity
  8
Layer 1
100
AcDbBlockReference
  2
block 18
 10
0.0
 20
0.0
 30
0.0
  0
INSERT
  5
EF
330
D4
100
AcDbEntity
  8
Layer 1
100
AcDbBlockReference
  2
block 19
 10
0.0
 20
0.0
 30
0.0
  0
INSERT
  5
FA
330
D4
100
AcDbEntity
  8
Layer 1
100
AcDbBlockReference
  2
block 20
 10
0.0
 20
0.0
 30
0.0
  0
INSERT
  5
105
330
D4
100
AcDbEntity
  8
Layer 1
100
AcDbBlockReference
  2
block 21
 10
0.0
 20
0.0
 30
0.0
  0
INSERT
  5
110
330
D4
100
AcDbEntity
  8
Layer 1
100
AcDbBlockReference
  2
block 22
 10
0.0
 20
0.0
 30
0.0
  0
INSERT
  5
11B
330
D4
100
AcDbEntity
  8
Layer 1
100
AcDbBlockReference
  2
block 23
 10
0.0
 20
0.0
 30
0.0
  0
INSERT
  5
126
330
D4
100
AcDbEntity
  8
Layer 1
100
AcDbBlockReference
  2
block 24
 10
0.0
 20
0.0
 30
0.0
  0
INSERT
  5
131
330
D4
100
AcDbEntity
  8
Layer 1
100
AcDbBlockReference
  2
block 25
 10
0.0
 20
0.0
 30
0.0
  0
INSERT
  5
13C
330
D4
100
AcDbEntity
  8
Layer 1
100
AcDbBlockReference
  2
block 26
 10
0.0
 20
0.0
 30
0.0
  0
INSERT
  5
147
330
D4
100
AcDbEntity
  8
Layer 1
100
AcDbBlockReference
  2
block 27
 10
0.0
 20
0.0
 30
0.0
  0
ENDBLK
  5
D7
330
D4
100
AcDbEntity
  8
0
100
AcDbBlockEnd
  0
BLOCK
  5
DA
330
D8
100
AcDbEntity
  8
0
100
AcDbBlockBegin
  2
block 17
 70
     0
 10
0.0
 20
0.0
 30
0.0
  3
block 17
  1

  0
POLYLINE
  5
DC
330
D8
100
AcDbEntity
  8
Layer 1
 62
   242
420
 12457505
370
    18
100
AcDb2dPolyline
 66
     1
 10
0.0
 20
0.0
 30
0.0
  0
VERTEX
  5
DD
330
DC
100
AcDbEntity
  8
Layer 1
 62
   242
420
 12457505
370
    18
100
AcDbVertex
100
AcDb2dVertex
 10
72.15629164768453
 20
-102.4757777508769
 30
0.0
  0
VERTEX
  5
DE
330
DC
100
AcDbEntity
  8
Layer 1
 62
   242
420
 12457505
370
    18
100
AcDbVertex
100
AcDb2dVertex
 10
58.15629165307046
 20
-102.4757777508769
 30
0.0
  0
VERTEX
  5
DF
330
DC
100
AcDbEntity
  8
Layer 1
 62
   242
420
 12457505
370
    18
100
AcDbVertex
100
AcDb2dVertex
 10
58.15629165307046
 20
-88.47577775437682
 30
0.0
  0
VERTEX
  5
E0
330
DC
100
AcDbEntity
  8
Layer 1
 62
   242
420
 12457505
370
    18
100
AcDbVertex
100
AcDb2dVertex
 10
72.15629164768453
 20
-88.47577775437682
 30
0.0
  0
VERTEX
  5
E1
330
DC
100
AcDbEntity
  8
Layer 1
 62
   242
420
 12457505
370
    18
100
AcDbVertex
100
AcDb2dVertex
 10
72.15629164768453
 20
-102.4757777508769
 30
0.0
  0
SEQEND
  5
E2
330
DC
100
AcDbEntity
  8
Layer 1
 62
   242
420
 12457505
370
    18
  0
ENDBLK
  5
DB
330
D8
100
AcDbEntity
  8
0
100
AcDbBlockEnd
  0
BLOCK
  5
E5
330
E3
100
AcDbEntity
  8
0
100
AcDbBlockBegin
  2
block 18
 70
     0
 10
0.0
 20
0.0
 30
0.0
  3
block 18
  1

  0
POLYLINE
  5
E7
330
E3
100
AcDbEntity
  8
Layer 1
 62
   242
420
 12457505
370
    18
100
AcDb2dPolyline
 66
     1
 10
0.0
 20
0.0
 30
0.0
  0
VERTEX
  5
E8
330
E7
100
AcDbEntity
  8
Layer 1
 62
   242
420
 12457505
370
    18
100
AcDbVertex
100
AcDb2dVertex
 10
91.20629164292203
 20
-102.4757777508769
 30
0.0
  0
VERTEX
  5
E9
330
E7
100
AcDbEntity
  8
Layer 1
 62
   242
420
 12457505
370
    18
100
AcDbVertex
100
AcDb2dVertex
 10
77.20629164830795
 20
-102.4757777508769
 30
0.0
  0
VERTEX
  5
EA
330
E7
100
AcDbEntity
  8
Layer 1
 62
   242
420
 12457505
370
    18
100
AcDbVertex
100
AcDb2dVertex
 10
77.20629164830795
 20
-88.47577775437682
 30
0.0
  0
VERTEX
  5
EB
330
E7
100
AcDbEntity
  8
Layer 1
 62
   242
420
 12457505
370
    18
100
AcDbVertex
100
AcDb2dVertex
 10
91.20629164292203
 20
-88.47577775437682
 30
0.0
  0
VERTEX
  5
EC
330
E7
100
AcDbEntity
  8
Layer 1
 62
   242
420
 12457505
370
    18
100
AcDbVertex
100
AcDb2dVertex
 10
91.20629164292203
 20
-102.4757777508769
 30
0.0
  0
SEQEND
  5
ED
330
E7
100
AcDbEntity
  8
Layer 1
 62
   242
420
 12457505
370
    18
  0
ENDBLK
  5
E6
330
E3
100
AcDbEntity
  8
0
100
AcDbBlockEnd
  0
BLOCK
  5
F0
330
EE
100
AcDbEntity
  8
0
100
AcDbBlockBegin
  2
block 19
 70
     0
 10
0.0
 20
0.0
 30
0.0
  3
block 19
  1

  0
POLYLINE
  5
F2
330
EE
100
AcDbEntity
  8
Layer 1
 62
   242
420
 12457505
370
    18
100
AcDb2dPolyline
 66
     1
 10
0.0
 20
0.0
 30
0.0
  0
VERTEX
  5
F3
330
F2
100
AcDbEntity
  8
Layer 1
 62
   242
420
 12457505
370
    18
100
AcDbVertex
100
AcDb2dVertex
 10
110.2562916381595
 20
-102.4757777508769
 30
0.0
  0
VERTEX
  5
F4
330
F2
100
AcDbEntity
  8
Layer 1
 62
   242
420
 12457505
370
    18
100
AcDbVertex
100
AcDb2dVertex
 10
96.25629164354545
 20
-102.4757777508769
 30
0.0
  0
VERTEX
  5
F5
330
F2
100
AcDbEntity
  8
Layer 1
 62
   242
420
 12457505
370
    18
100
AcDbVertex
100
AcDb2dVertex
 10
96.25629164354545
 20
-88.47577775437682
 30
0.0
  0
VERTEX
  5
F6
330
F2
100
AcDbEntity
  8
Layer 1
 62
   242
420
 12457505
370
    18
100
AcDbVertex
100
AcDb2dVertex
 10
110.2562916381595
 20
-88.47577775437682
 30
0.0
  0
VERTEX
  5
F7
330
F2
100
AcDbEntity
  8
Layer 1
 62
   242
420
 12457505
370
    18
100
AcDbVertex
100
AcDb2dVertex
 10
110.2562916381595
 20
-102.4757777508769
 30
0.0
  0
SEQEND
  5
F8
330
F2
100
AcDbEntity
  8
Layer 1
 62
   242
420
 12457505
370
    18
  0
ENDBLK
  5
F1
330
EE
100
AcDbEntity
  8
0
100
AcDbBlockEnd
  0
BLOCK
  5
FB
330
F9
100
AcDbEntity
  8
0
100
AcDbBlockBegin
  2
block 20
 70
     0
 10
0.0
 20
0.0
 30
0.0
  3
block 20
  1

  0
POLYLINE
  5
FD
330
F9
100
AcDbEntity
  8
Layer 1
 62
   242
420
 12457505
370
    18
100
AcDb2dPolyline
 66
     1
 10
0.0
 20
0.0
 30
0.0
  0
VERTEX
  5
FE
330
FD
100
AcDbEntity
  8
Layer 1
 62
   242
420
 12457505
370
    18
100
AcDbVertex
100
AcDb2dVertex
 10
129.306291633397
 20
-102.4757777508769
 30
0.0
  0
VERTEX
  5
FF
330
FD
100
AcDbEntity
  8
Layer 1
 62
   242
420
 12457505
370
    18
100
AcDbVertex
100
AcDb2dVertex
 10
115.306291638783
 20
-102.4757777508769
 30
0.0
  0
VERTEX
  5
100
330
FD
100
AcDbEntity
  8
Layer 1
 62
   242
420
 12457505
370
    18
100
AcDbVertex
100
AcDb2dVertex
 10
115.306291638783
 20
-88.47577775437682
 30
0.0
  0
VERTEX
  5
101
330
FD
100
AcDbEntity
  8
Layer 1
 62
   242
420
 12457505
370
    18
100
AcDbVertex
100
AcDb2dVertex
 10
129.306291633397
 20
-88.47577775437682
 30
0.0
  0
VERTEX
  5
102
330
FD
100
AcDbEntity
  8
Layer 1
 62
   242
420
 12457505
370
    18
100
AcDbVertex
100
AcDb2dVertex
 10
129.306291633397
 20
-102.4757777508769
 30
0.0
  0
SEQEND
  5
103
330
FD
100
AcDbEntity
  8
Layer 1
 62
   242
420
 12457505
370
    18
  0
ENDBLK
  5
FC
330
F9
100
AcDbEntity
  8
0
100
AcDbBlockEnd
  0
BLOCK
  5
106
330
104
100
AcDbEntity
  8
0
100
AcDbBlockBegin
  2
block 21
 70
     0
 10
0.0
 20
0.0
 30
0.0
  3
block 21
  1

  0
POLYLINE
  5
108
330
104
100
AcDbEntity
  8
Layer 1
 62
   242
420
 12457505
370
    18
100
AcDb2dPolyline
 66
     1
 10
0.0
 20
0.0
 30
0.0
  0
VERTEX
  5
109
330
108
100
AcDbEntity
  8
Layer 1
 62
   242
420
 12457505
370
    18
100
AcDbVertex
100
AcDb2dVertex
 10
148.3562916286345
 20
-102.4757777508769
 30
0.0
  0
VERTEX
  5
10A
330
108
100
AcDbEntity
  8
Layer 1
 62
   242
420
 12457505
370
    18
100
AcDbVertex
100
AcDb2dVertex
 10
134.3562916340205
 20
-102.4757777508769
 30
0.0
  0
VERTEX
  5
10B
330
108
100
AcDbEntity
  8
Layer 1
 62
   242
420
 12457505
370
    18
100
AcDbVertex
100
AcDb2dVertex
 10
134.3562916340205
 20
-88.47577775437682
 30
0.0
  0
VERTEX
  5
10C
330
108
100
AcDbEntity
  8
Layer 1
 62
   242
420
 12457505
370
    18
100
AcDbVertex
100
AcDb2dVertex
 10
148.3562916286345
 20
-88.47577775437682
 30
0.0
  0
VERTEX
  5
10D
330
108
100
AcDbEntity
  8
Layer 1
 62
   242
420
 12457505
370
    18
100
AcDbVertex
100
AcDb2dVertex
 10
148.3562916286345
 20
-102.4757777508769
 30
0.0
  0
SEQEND
  5
10E
330
108
100
AcDbEntity
  8
Layer 1
 62
   242
420
 12457505
370
    18
  0
ENDBLK
  5
107
330
104
100
AcDbEntity
  8
0
100
AcDbBlockEnd
  0
BLOCK
  5
111
330
10F
100
AcDbEntity
  8
0
100
AcDbBlockBegin
  2
block 22
 70
     0
 10
0.0
 20
0.0
 30
0.0
  3
block 22
  1

  0
POLYLINE
  5
113
330
10F
100
AcDbEntity
  8
Layer 1
 62
   242
420
 12457505
370
    18
100
AcDb2dPolyline
 66
     1
 10
0.0
 20
0.0
 30
0.0
  0
VERTEX
  5
114
330
113
100
AcDbEntity
  8
Layer 1
 62
   242
420
 12457505
370
    18
100
AcDbVertex
100
AcDb2dVertex
 10
167.406291623872
 20
-102.4757777508769
 30
0.0
  0
VERTEX
  5
115
330
113
100
AcDbEntity
  8
Layer 1
 62
   242
420
 12457505
370
    18
100
AcDbVertex
100
AcDb2dVertex
 10
153.406291629258
 20
-102.4757777508769
 30
0.0
  0
VERTEX
  5
116
330
113
100
AcDbEntity
  8
Layer 1
 62
   242
420
 12457505
370
    18
100
AcDbVertex
100
AcDb2dVertex
 10
153.406291629258
 20
-88.47577775437682
 30
0.0
  0
VERTEX
  5
117
330
113
100
AcDbEntity
  8
Layer 1
 62
   242
420
 12457505
370
    18
100
AcDbVertex
100
AcDb2dVertex
 10
167.406291623872
 20
-88.47577775437682
 30
0.0
  0
VERTEX
  5
118
330
113
100
AcDbEntity
  8
Layer 1
 62
   242
420
 12457505
370
    18
100
AcDbVertex
100
AcDb2dVertex
 10
167.406291623872
 20
-102.4757777508769
 30
0.0
  0
SEQEND
  5
119
330
113
100
AcDbEntity
  8
Layer 1
 62
   242
420
 12457505
370
    18
  0
ENDBLK
  5
112
330
10F
100
AcDbEntity
  8
0
100
AcDbBlockEnd
  0
BLOCK
  5
11C
330
11A
100
AcDbEntity
  8
0
100
AcDbBlockBegin
  2
block 23
 70
     0
 10
0.0
 20
0.0
 30
0.0
  3
block 23
  1

  0
POLYLINE
  5
11E
330
11A
100
AcDbEntity
  8
Layer 1
 62
   242
420
 12457505
370
    18
100
AcDb2dPolyline
 66
     1
 10
0.0
 20
0.0
 30
0.0
  0
VERTEX
  5
11F
330
11E
100
AcDbEntity
  8
Layer 1
 62
   242
420
 12457505
370
    18
100
AcDbVertex
100
AcDb2dVertex
 10
186.4562916191095
 20
-102.4757777508769
 30
0.0
  0
VERTEX
  5
120
330
11E
100
AcDbEntity
  8
Layer 1
 62
   242
420
 12457505
370
    18
100
AcDbVertex
100
AcDb2dVertex
 10
172.4562916244955
 20
-102.4757777508769
 30
0.0
  0
VERTEX
  5
121
330
11E
100
AcDbEntity
  8
Layer 1
 62
   242
420
 12457505
370
    18
100
AcDbVertex
100
AcDb2dVertex
 10
172.4562916244955
 20
-88.47577775437682
 30
0.0
  0
VERTEX
  5
122
330
11E
100
AcDbEntity
  8
Layer 1
 62
   242
420
 12457505
370
    18
100
AcDbVertex
100
AcDb2dVertex
 10
186.4562916191095
 20
-88.47577775437682
 30
0.0
  0
VERTEX
  5
123
330
11E
100
AcDbEntity
  8
Layer 1
 62
   242
420
 12457505
370
    18
100
AcDbVertex
100
AcDb2dVertex
 10
186.4562916191095
 20
-102.4757777508769
 30
0.0
  0
SEQEND
  5
124
330
11E
100
AcDbEntity
  8
Layer 1
 62
   242
420
 12457505
370
    18
  0
ENDBLK
  5
11D
330
11A
100
AcDbEntity
  8
0
100
AcDbBlockEnd
  0
BLOCK
  5
127
330
125
100
AcDbEntity
  8
0
100
AcDbBlockBegin
  2
block 24
 70
     0
 10
0.0
 20
0.0
 30
0.0
  3
block 24
  1

  0
POLYLINE
  5
129
330
125
100
AcDbEntity
  8
Layer 1
 62
   242
420
 12457505
370
    18
100
AcDb2dPolyline
 66
     1
 10
0.0
 20
0.0
 30
0.0
  0
VERTEX
  5
12A
330
129
100
AcDbEntity
  8
Layer 1
 62
   242
420
 12457505
370
    18
100
AcDbVertex
100
AcDb2dVertex
 10
205.506291614347
 20
-102.4757777508769
 30
0.0
  0
VERTEX
  5
12B
330
129
100
AcDbEntity
  8
Layer 1
 62
   242
420
 12457505
370
    18
100
AcDbVertex
100
AcDb2dVertex
 10
191.506291619733
 20
-102.4757777508769
 30
0.0
  0
VERTEX
  5
12C
330
129
100
AcDbEntity
  8
Layer 1
 62
   242
420
 12457505
370
    18
100
AcDbVertex
100
AcDb2dVertex
 10
191.506291619733
 20
-88.47577775437682
 30
0.0
  0
VERTEX
  5
12D
330
129
100
AcDbEntity
  8
Layer 1
 62
   242
420
 12457505
370
    18
100
AcDbVertex
100
AcDb2dVertex
 10
205.506291614347
 20
-88.47577775437682
 30
0.0
  0
VERTEX
  5
12E
330
129
100
AcDbEntity
  8
Layer 1
 62
   242
420
 12457505
370
    18
100
AcDbVertex
100
AcDb2dVertex
 10
205.506291614347
 20
-102.4757777508769
 30
0.0
  0
SEQEND
  5
12F
330
129
100
AcDbEntity
  8
Layer 1
 62
   242
420
 12457505
370
    18
  0
ENDBLK
  5
128
330
125
100
AcDbEntity
  8
0
100
AcDbBlockEnd
  0
BLOCK
  5
132
330
130
100
AcDbEntity
  8
0
100
AcDbBlockBegin
  2
block 25
 70
     0
 10
0.0
 20
0.0
 30
0.0
  3
block 25
  1

  0
POLYLINE
  5
134
330
130
100
AcDbEntity
  8
Layer 1
 62
   242
420
 12457505
370
    18
100
AcDb2dPolyline
 66
     1
 10
0.0
 20
0.0
 30
0.0
  0
VERTEX
  5
135
330
134
100
AcDbEntity
  8
Layer 1
 62
   242
420
 12457505
370
    18
100
AcDbVertex
100
AcDb2dVertex
 10
224.5562916095845
 20
-102.4757777508769
 30
0.0
  0
VERTEX
  5
136
330
134
100
AcDbEntity
  8
Layer 1
 62
   242
420
 12457505
370
    18
100
AcDbVertex
100
AcDb2dVertex
 10
210.5562916149705
 20
-102.4757777508769
 30
0.0
  0
VERTEX
  5
137
330
134
100
AcDbEntity
  8
Layer 1
 62
   242
420
 12457505
370
    18
100
AcDbVertex
100
AcDb2dVertex
 10
210.5562916149705
 20
-88.47577775437682
 30
0.0
  0
VERTEX
  5
138
330
134
100
AcDbEntity
  8
Layer 1
 62
   242
420
 12457505
370
    18
100
AcDbVertex
100
AcDb2dVertex
 10
224.5562916095845
 20
-88.47577775437682
 30
0.0
  0
VERTEX
  5
139
330
134
100
AcDbEntity
  8
Layer 1
 62
   242
420
 12457505
370
    18
100
AcDbVertex
100
AcDb2dVertex
 10
224.5562916095845
 20
-102.4757777508769
 30
0.0
  0
SEQEND
  5
13A
330
134
100
AcDbEntity
  8
Layer 1
 62
   242
420
 12457505
370
    18
  0
ENDBLK
  5
133
330
130
100
AcDbEntity
  8
0
100
AcDbBlockEnd
  0
BLOCK
  5
13D
330
13B
100
AcDbEntity
  8
0
100
AcDbBlockBegin
  2
block 26
 70
     0
 10
0.0
 20
0.0
 30
0.0
  3
block 26
  1

  0
POLYLINE
  5
13F
330
13B
100
AcDbEntity
  8
Layer 1
 62
   242
420
 12457505
370
    18
100
AcDb2dPolyline
 66
     1
 10
0.0
 20
0.0
 30
0.0
  0
VERTEX
  5
140
330
13F
100
AcDbEntity
  8
Layer 1
 62
   242
420
 12457505
370
    18
100
AcDbVertex
100
AcDb2dVertex
 10
50.72504165304234
 20
-102.4757777508769
 30
0.0
  0
VERTEX
  5
141
330
13F
100
AcDbEntity
  8
Layer 1
 62
   242
420
 12457505
370
    18
100
AcDbVertex
100
AcDb2dVertex
 10
36.72504165842827
 20
-102.4757777508769
 30
0.0
  0
VERTEX
  5
142
330
13F
100
AcDbEntity
  8
Layer 1
 62
   242
420
 12457505
370
    18
100
AcDbVertex
100
AcDb2dVertex
 10
36.72504165842827
 20
-88.47577775437682
 30
0.0
  0
VERTEX
  5
143
330
13F
100
AcDbEntity
  8
Layer 1
 62
   242
420
 12457505
370
    18
100
AcDbVertex
100
AcDb2dVertex
 10
50.72504165304234
 20
-88.47577775437682
 30
0.0
  0
VERTEX
  5
144
330
13F
100
AcDbEntity
  8
Layer 1
 62
   242
420
 12457505
370
    18
100
AcDbVertex
100
AcDb2dVertex
 10
50.72504165304234
 20
-102.4757777508769
 30
0.0
  0
SEQEND
  5
145
330
13F
100
AcDbEntity
  8
Layer 1
 62
   242
420
 12457505
370
    18
  0
ENDBLK
  5
13E
330
13B
100
AcDbEntity
  8
0
100
AcDbBlockEnd
  0
BLOCK
  5
148
330
146
100
AcDbEntity
  8
0
100
AcDbBlockBegin
  2
block 27
 70
     0
 10
0.0
 20
0.0
 30
0.0
  3
block 27
  1

  0
POLYLINE
  5
14A
330
146
100
AcDbEntity
  8
Layer 1
 62
   242
420
 12457505
370
    18
100
AcDb2dPolyline
 66
     1
 10
0.0
 20
0.0
 30
0.0
  0
VERTEX
  5
14B
330
14A
100
AcDbEntity
  8
Layer 1
 62
   242
420
 12457505
370
    18
100
AcDbVertex
100
AcDb2dVertex
 10
253.1312916024408
 20
-102.4757777508762
 30
0.0
  0
VERTEX
  5
14C
330
14A
100
AcDbEntity
  8
Layer 1
 62
   242
420
 12457505
370
    18
100
AcDbVertex
100
AcDb2dVertex
 10
239.1312916078267
 20
-102.4757777508762
 30
0.0
  0
VERTEX
  5
14D
330
14A
100
AcDbEntity
  8
Layer 1
 62
   242
420
 12457505
370
    18
100
AcDbVertex
100
AcDb2dVertex
 10
239.1312916078267
 20
-88.47577775437682
 30
0.0
  0
VERTEX
  5
14E
330
14A
100
AcDbEntity
  8
Layer 1
 62
   242
420
 12457505
370
    18
100
AcDbVertex
100
AcDb2dVertex
 10
253.1312916024408
 20
-88.47577775437682
 30
0.0
  0
VERTEX
  5
14F
330
14A
100
AcDbEntity
  8
Layer 1
 62
   242
420
 12457505
370
    18
100
AcDbVertex
100
AcDb2dVertex
 10
253.1312916024408
 20
-102.4757777508762
 30
0.0
  0
SEQEND
  5
150
330
14A
100
AcDbEntity
  8
Layer 1
 62
   242
420
 12457505
370
    18
  0
INSERT
  5
152
330
146
100
AcDbEntity
  8
Layer 1
100
AcDbBlockReference
  2
block 28
 10
0.0
 20
0.0
 30
0.0
  0
ENDBLK
  5
149
330
146
100
AcDbEntity
  8
0
100
AcDbBlockEnd
  0
BLOCK
  5
153
330
151
100
AcDbEntity
  8
0
100
AcDbBlockBegin
  2
block 28
 70
     0
 10
0.0
 20
0.0
 30
0.0
  3
block 28
  1

  0
POLYLINE
  5
155
330
151
100
AcDbEntity
  8
Layer 1
 62
   242
420
 12457505
370
    18
100
AcDb2dPolyline
 66
     1
 10
0.0
 20
0.0
 30
0.0
  0
VERTEX
  5
156
330
155
100
AcDbEntity
  8
Layer 1
 62
   242
420
 12457505
370
    18
100
AcDbVertex
100
AcDb2dVertex
 10
259.6312916017586
 20
-100.4757777513773
 30
0.0
  0
VERTEX
  5
157
330
155
100
AcDbEntity
  8
Layer 1
 62
   242
420
 12457505
370
    18
100
AcDbVertex
100
AcDb2dVertex
 10
256.1312916026334
 20
-100.4757777513773
 30
0.0
  0
VERTEX
  5
158
330
155
100
AcDbEntity
  8
Layer 1
 62
   242
420
 12457505
370
    18
100
AcDbVertex
100
AcDb2dVertex
 10
256.1312916026334
 20
-90.47577775387701
 30
0.0
  0
VERTEX
  5
159
330
155
100
AcDbEntity
  8
Layer 1
 62
   242
420
 12457505
370
    18
100
AcDbVertex
100
AcDb2dVertex
 10
259.6312916017586
 20
-90.47577775387701
 30
0.0
  0
VERTEX
  5
15A
330
155
100
AcDbEntity
  8
Layer 1
 62
   242
420
 12457505
370
    18
100
AcDbVertex
100
AcDb2dVertex
 10
259.6312916017586
 20
-100.4757777513773
 30
0.0
  0
SEQEND
  5
15B
330
155
100
AcDbEntity
  8
Layer 1
 62
   242
420
 12457505
370
    18
  0
POLYLINE
  5
15C
330
151
100
AcDbEntity
  8
Layer 1
 62
   242
420
 12457505
370
    18
100
AcDb2dPolyline
 66
     1
 10
0.0
 20
0.0
 30
0.0
  0
VERTEX
  5
15D
330
15C
100
AcDbEntity
  8
Layer 1
 62
   242
420
 12457505
370
    18
100
AcDbVertex
100
AcDb2dVertex
 10
236.1312916076341
 20
-100.4757777513773
 30
0.0
  0
VERTEX
  5
15E
330
15C
100
AcDbEntity
  8
Layer 1
 62
   242
420
 12457505
370
    18
100
AcDbVertex
100
AcDb2dVertex
 10
232.6312916085083
 20
-100.4757777513773
 30
0.0
  0
VERTEX
  5
15F
330
15C
100
AcDbEntity
  8
Layer 1
 62
   242
420
 12457505
370
    18
100
AcDbVertex
100
AcDb2dVertex
 10
232.6312916085083
 20
-90.47577775387701
 30
0.0
  0
VERTEX
  5
160
330
15C
100
AcDbEntity
  8
Layer 1
 62
   242
420
 12457505
370
    18
100
AcDbVertex
100
AcDb2dVertex
 10
236.1312916076341
 20
-90.47577775387701
 30
0.0
  0
VERTEX
  5
161
330
15C
100
AcDbEntity
  8
Layer 1
 62
   242
420
 12457505
370
    18
100
AcDbVertex
100
AcDb2dVertex
 10
236.1312916076341
 20
-100.4757777513773
 30
0.0
  0
SEQEND
  5
162
330
15C
100
AcDbEntity
  8
Layer 1
 62
   242
420
 12457505
370
    18
  0
ENDBLK
  5
154
330
151
100
AcDbEntity
  8
0
100
AcDbBlockEnd
  0
BLOCK
  5
165
330
163
100
AcDbEntity
  8
0
100
AcDbBlockBegin
  2
block 29
 70
     0
 10
0.0
 20
0.0
 30
0.0
  3
block 29
  1

  0
INSERT
  5
168
330
163
100
AcDbEntity
  8
Layer 1
100
AcDbBlockReference
  2
block 30
 10
0.0
 20
0.0
 30
0.0
  0
INSERT
  5
173
330
163
100
AcDbEntity
  8
Layer 1
100
AcDbBlockReference
  2
block 31
 10
0.0
 20
0.0
 30
0.0
  0
INSERT
  5
17E
330
163
100
AcDbEntity
  8
Layer 1
100
AcDbBlockReference
  2
block 32
 10
0.0
 20
0.0
 30
0.0
  0
INSERT
  5
189
330
163
100
AcDbEntity
  8
Layer 1
100
AcDbBlockReference
  2
block 33
 10
0.0
 20
0.0
 30
0.0
  0
INSERT
  5
194
330
163
100
AcDbEntity
  8
Layer 1
100
AcDbBlockReference
  2
block 34
 10
0.0
 20
0.0
 30
0.0
  0
INSERT
  5
19F
330
163
100
AcDbEntity
  8
Layer 1
100
AcDbBlockReference
  2
block 35
 10
0.0
 20
0.0
 30
0.0
  0
INSERT
  5
1AA
330
163
100
AcDbEntity
  8
Layer 1
100
AcDbBlockReference
  2
block 36
 10
0.0
 20
0.0
 30
0.0
  0
INSERT
  5
1B5
330
163
100
AcDbEntity
  8
Layer 1
100
AcDbBlockReference
  2
block 37
 10
0.0
 20
0.0
 30
0.0
  0
INSERT
  5
1C0
330
163
100
AcDbEntity
  8
Layer 1
100
AcDbBlockReference
  2
block 38
 10
0.0
 20
0.0
 30
0.0
  0
INSERT
  5
1CB
330
163
100
AcDbEntity
  8
Layer 1
100
AcDbBlockReference
  2
block 39
 10
0.0
 20
0.0
 30
0.0
  0
INSERT
  5
1D6
330
163
100
AcDbEntity
  8
Layer 1
100
AcDbBlockReference
  2
block 40
 10
0.0
 20
0.0
 30
0.0
  0
ENDBLK
  5
166
330
163
100
AcDbEntity
  8
0
100
AcDbBlockEnd
  0
BLOCK
  5
169
330
167
100
AcDbEntity
  8
0
100
AcDbBlockBegin
  2
block 30
 70
     0
 10
0.0
 20
0.0
 30
0.0
  3
block 30
  1

  0
POLYLINE
  5
16B
330
167
100
AcDbEntity
  8
Layer 1
 62
   242
420
 12457505
370
    18
100
AcDb2dPolyline
 66
     1
 10
0.0
 20
0.0
 30
0.0
  0
VERTEX
  5
16C
330
16B
100
AcDbEntity
  8
Layer 1
 62
   242
420
 12457505
370
    18
100
AcDbVertex
100
AcDb2dVertex
 10
79.93959003847077
 20
-121.5257777486792
 30
0.0
  0
VERTEX
  5
16D
330
16B
100
AcDbEntity
  8
Layer 1
 62
   242
420
 12457505
370
    18
100
AcDbVertex
100
AcDb2dVertex
 10
65.93959004385702
 20
-121.5257777486792
 30
0.0
  0
VERTEX
  5
16E
330
16B
100
AcDbEntity
  8
Layer 1
 62
   242
420
 12457505
370
    18
100
AcDbVertex
100
AcDb2dVertex
 10
65.93959004385702
 20
-107.5257777521798
 30
0.0
  0
VERTEX
  5
16F
330
16B
100
AcDbEntity
  8
Layer 1
 62
   242
420
 12457505
370
    18
100
AcDbVertex
100
AcDb2dVertex
 10
79.93959003847077
 20
-107.5257777521798
 30
0.0
  0
VERTEX
  5
170
330
16B
100
AcDbEntity
  8
Layer 1
 62
   242
420
 12457505
370
    18
100
AcDbVertex
100
AcDb2dVertex
 10
79.93959003847077
 20
-121.5257777486792
 30
0.0
  0
SEQEND
  5
171
330
16B
100
AcDbEntity
  8
Layer 1
 62
   242
420
 12457505
370
    18
  0
ENDBLK
  5
16A
330
167
100
AcDbEntity
  8
0
100
AcDbBlockEnd
  0
BLOCK
  5
174
330
172
100
AcDbEntity
  8
0
100
AcDbBlockBegin
  2
block 31
 70
     0
 10
0.0
 20
0.0
 30
0.0
  3
block 31
  1

  0
POLYLINE
  5
176
330
172
100
AcDbEntity
  8
Layer 1
 62
   242
420
 12457505
370
    18
100
AcDb2dPolyline
 66
     1
 10
0.0
 20
0.0
 30
0.0
  0
VERTEX
  5
177
330
176
100
AcDbEntity
  8
Layer 1
 62
   242
420
 12457505
370
    18
100
AcDbVertex
100
AcDb2dVertex
 10
98.98959003370828
 20
-121.5257777486792
 30
0.0
  0
VERTEX
  5
178
330
176
100
AcDbEntity
  8
Layer 1
 62
   242
420
 12457505
370
    18
100
AcDbVertex
100
AcDb2dVertex
 10
84.98959003909452
 20
-121.5257777486792
 30
0.0
  0
VERTEX
  5
179
330
176
100
AcDbEntity
  8
Layer 1
 62
   242
420
 12457505
370
    18
100
AcDbVertex
100
AcDb2dVertex
 10
84.98959003909452
 20
-107.5257777521798
 30
0.0
  0
VERTEX
  5
17A
330
176
100
AcDbEntity
  8
Layer 1
 62
   242
420
 12457505
370
    18
100
AcDbVertex
100
AcDb2dVertex
 10
98.98959003370828
 20
-107.5257777521798
 30
0.0
  0
VERTEX
  5
17B
330
176
100
AcDbEntity
  8
Layer 1
 62
   242
420
 12457505
370
    18
100
AcDbVertex
100
AcDb2dVertex
 10
98.98959003370828
 20
-121.5257777486792
 30
0.0
  0
SEQEND
  5
17C
330
176
100
AcDbEntity
  8
Layer 1
 62
   242
420
 12457505
370
    18
  0
ENDBLK
  5
175
330
172
100
AcDbEntity
  8
0
100
AcDbBlockEnd
  0
BLOCK
  5
17F
330
17D
100
AcDbEntity
  8
0
100
AcDbBlockBegin
  2
block 32
 70
     0
 10
0.0
 20
0.0
 30
0.0
  3
block 32
  1

  0
POLYLINE
  5
181
330
17D
100
AcDbEntity
  8
Layer 1
 62
   242
420
 12457505
370
    18
100
AcDb2dPolyline
 66
     1
 10
0.0
 20
0.0
 30
0.0
  0
VERTEX
  5
182
330
181
100
AcDbEntity
  8
Layer 1
 62
   242
420
 12457505
370
    18
100
AcDbVertex
100
AcDb2dVertex
 10
118.0395900289458
 20
-121.5257777486792
 30
0.0
  0
VERTEX
  5
183
330
181
100
AcDbEntity
  8
Layer 1
 62
   242
420
 12457505
370
    18
100
AcDbVertex
100
AcDb2dVertex
 10
104.039590034332
 20
-121.5257777486792
 30
0.0
  0
VERTEX
  5
184
330
181
100
AcDbEntity
  8
Layer 1
 62
   242
420
 12457505
370
    18
100
AcDbVertex
100
AcDb2dVertex
 10
104.039590034332
 20
-107.5257777521798
 30
0.0
  0
VERTEX
  5
185
330
181
100
AcDbEntity
  8
Layer 1
 62
   242
420
 12457505
370
    18
100
AcDbVertex
100
AcDb2dVertex
 10
118.0395900289458
 20
-107.5257777521798
 30
0.0
  0
VERTEX
  5
186
330
181
100
AcDbEntity
  8
Layer 1
 62
   242
420
 12457505
370
    18
100
AcDbVertex
100
AcDb2dVertex
 10
118.0395900289458
 20
-121.5257777486792
 30
0.0
  0
SEQEND
  5
187
330
181
100
AcDbEntity
  8
Layer 1
 62
   242
420
 12457505
370
    18
  0
ENDBLK
  5
180
330
17D
100
AcDbEntity
  8
0
100
AcDbBlockEnd
  0
BLOCK
  5
18A
330
188
100
AcDbEntity
  8
0
100
AcDbBlockBegin
  2
block 33
 70
     0
 10
0.0
 20
0.0
 30
0.0
  3
block 33
  1

  0
POLYLINE
  5
18C
330
188
100
AcDbEntity
  8
Layer 1
 62
   242
420
 12457505
370
    18
100
AcDb2dPolyline
 66
     1
 10
0.0
 20
0.0
 30
0.0
  0
VERTEX
  5
18D
330
18C
100
AcDbEntity
  8
Layer 1
 62
   242
420
 12457505
370
    18
100
AcDbVertex
100
AcDb2dVertex
 10
137.0895900241833
 20
-121.5257777486792
 30
0.0
  0
VERTEX
  5
18E
330
18C
100
AcDbEntity
  8
Layer 1
 62
   242
420
 12457505
370
    18
100
AcDbVertex
100
AcDb2dVertex
 10
123.0895900295695
 20
-121.5257777486792
 30
0.0
  0
VERTEX
  5
18F
330
18C
100
AcDbEntity
  8
Layer 1
 62
   242
420
 12457505
370
    18
100
AcDbVertex
100
AcDb2dVertex
 10
123.0895900295695
 20
-107.5257777521798
 30
0.0
  0
VERTEX
  5
190
330
18C
100
AcDbEntity
  8
Layer 1
 62
   242
420
 12457505
370
    18
100
AcDbVertex
100
AcDb2dVertex
 10
137.0895900241833
 20
-107.5257777521798
 30
0.0
  0
VERTEX
  5
191
330
18C
100
AcDbEntity
  8
Layer 1
 62
   242
420
 12457505
370
    18
100
AcDbVertex
100
AcDb2dVertex
 10
137.0895900241833
 20
-121.5257777486792
 30
0.0
  0
SEQEND
  5
192
330
18C
100
AcDbEntity
  8
Layer 1
 62
   242
420
 12457505
370
    18
  0
ENDBLK
  5
18B
330
188
100
AcDbEntity
  8
0
100
AcDbBlockEnd
  0
BLOCK
  5
195
330
193
100
AcDbEntity
  8
0
100
AcDbBlockBegin
  2
block 34
 70
     0
 10
0.0
 20
0.0
 30
0.0
  3
block 34
  1

  0
POLYLINE
  5
197
330
193
100
AcDbEntity
  8
Layer 1
 62
   242
420
 12457505
370
    18
100
AcDb2dPolyline
 66
     1
 10
0.0
 20
0.0
 30
0.0
  0
VERTEX
  5
198
330
197
100
AcDbEntity
  8
Layer 1
 62
   242
420
 12457505
370
    18
100
AcDbVertex
100
AcDb2dVertex
 10
156.1395900194214
 20
-121.5257777486792
 30
0.0
  0
VERTEX
  5
199
330
197
100
AcDbEntity
  8
Layer 1
 62
   242
420
 12457505
370
    18
100
AcDbVertex
100
AcDb2dVertex
 10
142.139590024807
 20
-121.5257777486792
 30
0.0
  0
VERTEX
  5
19A
330
197
100
AcDbEntity
  8
Layer 1
 62
   242
420
 12457505
370
    18
100
AcDbVertex
100
AcDb2dVertex
 10
142.139590024807
 20
-107.5257777521798
 30
0.0
  0
VERTEX
  5
19B
330
197
100
AcDbEntity
  8
Layer 1
 62
   242
420
 12457505
370
    18
100
AcDbVertex
100
AcDb2dVertex
 10
156.1395900194214
 20
-107.5257777521798
 30
0.0
  0
VERTEX
  5
19C
330
197
100
AcDbEntity
  8
Layer 1
 62
   242
420
 12457505
370
    18
100
AcDbVertex
100
AcDb2dVertex
 10
156.1395900194214
 20
-121.5257777486792
 30
0.0
  0
SEQEND
  5
19D
330
197
100
AcDbEntity
  8
Layer 1
 62
   242
420
 12457505
370
    18
  0
ENDBLK
  5
196
330
193
100
AcDbEntity
  8
0
100
AcDbBlockEnd
  0
BLOCK
  5
1A0
330
19E
100
AcDbEntity
  8
0
100
AcDbBlockBegin
  2
block 35
 70
     0
 10
0.0
 20
0.0
 30
0.0
  3
block 35
  1

  0
POLYLINE
  5
1A2
330
19E
100
AcDbEntity
  8
Layer 1
 62
   242
420
 12457505
370
    18
100
AcDb2dPolyline
 66
     1
 10
0.0
 20
0.0
 30
0.0
  0
VERTEX
  5
1A3
330
1A2
100
AcDbEntity
  8
Layer 1
 62
   242
420
 12457505
370
    18
100
AcDbVertex
100
AcDb2dVertex
 10
175.1895900146589
 20
-121.5257777486792
 30
0.0
  0
VERTEX
  5
1A4
330
1A2
100
AcDbEntity
  8
Layer 1
 62
   242
420
 12457505
370
    18
100
AcDbVertex
100
AcDb2dVertex
 10
161.1895900200448
 20
-121.5257777486792
 30
0.0
  0
VERTEX
  5
1A5
330
1A2
100
AcDbEntity
  8
Layer 1
 62
   242
420
 12457505
370
    18
100
AcDbVertex
100
AcDb2dVertex
 10
161.1895900200448
 20
-107.5257777521798
 30
0.0
  0
VERTEX
  5
1A6
330
1A2
100
AcDbEntity
  8
Layer 1
 62
   242
420
 12457505
370
    18
100
AcDbVertex
100
AcDb2dVertex
 10
175.1895900146589
 20
-107.5257777521798
 30
0.0
  0
VERTEX
  5
1A7
330
1A2
100
AcDbEntity
  8
Layer 1
 62
   242
420
 12457505
370
    18
100
AcDbVertex
100
AcDb2dVertex
 10
175.1895900146589
 20
-121.5257777486792
 30
0.0
  0
SEQEND
  5
1A8
330
1A2
100
AcDbEntity
  8
Layer 1
 62
   242
420
 12457505
370
    18
  0
ENDBLK
  5
1A1
330
19E
100
AcDbEntity
  8
0
100
AcDbBlockEnd
  0
BLOCK
  5
1AB
330
1A9
100
AcDbEntity
  8
0
100
AcDbBlockBegin
  2
block 36
 70
     0
 10
0.0
 20
0.0
 30
0.0
  3
block 36
  1

  0
POLYLINE
  5
1AD
330
1A9
100
AcDbEntity
  8
Layer 1
 62
   242
420
 12457505
370
    18
100
AcDb2dPolyline
 66
     1
 10
0.0
 20
0.0
 30
0.0
  0
VERTEX
  5
1AE
330
1AD
100
AcDbEntity
  8
Layer 1
 62
   242
420
 12457505
370
    18
100
AcDbVertex
100
AcDb2dVertex
 10
194.2395900098964
 20
-121.5257777486792
 30
0.0
  0
VERTEX
  5
1AF
330
1AD
100
AcDbEntity
  8
Layer 1
 62
   242
420
 12457505
370
    18
100
AcDbVertex
100
AcDb2dVertex
 10
180.2395900152823
 20
-121.5257777486792
 30
0.0
  0
VERTEX
  5
1B0
330
1AD
100
AcDbEntity
  8
Layer 1
 62
   242
420
 12457505
370
    18
100
AcDbVertex
100
AcDb2dVertex
 10
180.2395900152823
 20
-107.5257777521798
 30
0.0
  0
VERTEX
  5
1B1
330
1AD
100
AcDbEntity
  8
Layer 1
 62
   242
420
 12457505
370
    18
100
AcDbVertex
100
AcDb2dVertex
 10
194.2395900098964
 20
-107.5257777521798
 30
0.0
  0
VERTEX
  5
1B2
330
1AD
100
AcDbEntity
  8
Layer 1
 62
   242
420
 12457505
370
    18
100
AcDbVertex
100
AcDb2dVertex
 10
194.2395900098964
 20
-121.5257777486792
 30
0.0
  0
SEQEND
  5
1B3
330
1AD
100
AcDbEntity
  8
Layer 1
 62
   242
420
 12457505
370
    18
  0
ENDBLK
  5
1AC
330
1A9
100
AcDbEntity
  8
0
100
AcDbBlockEnd
  0
BLOCK
  5
1B6
330
1B4
100
AcDbEntity
  8
0
100
AcDbBlockBegin
  2
block 37
 70
     0
 10
0.0
 20
0.0
 30
0.0
  3
block 37
  1

  0
POLYLINE
  5
1B8
330
1B4
100
AcDbEntity
  8
Layer 1
 62
   242
420
 12457505
370
    18
100
AcDb2dPolyline
 66
     1
 10
0.0
 20
0.0
 30
0.0
  0
VERTEX
  5
1B9
330
1B8
100
AcDbEntity
  8
Layer 1
 62
   242
420
 12457505
370
    18
100
AcDbVertex
100
AcDb2dVertex
 10
213.2895900051339
 20
-121.5257777486792
 30
0.0
  0
VERTEX
  5
1BA
330
1B8
100
AcDbEntity
  8
Layer 1
 62
   242
420
 12457505
370
    18
100
AcDbVertex
100
AcDb2dVertex
 10
199.2895900105198
 20
-121.5257777486792
 30
0.0
  0
VERTEX
  5
1BB
330
1B8
100
AcDbEntity
  8
Layer 1
 62
   242
420
 12457505
370
    18
100
AcDbVertex
100
AcDb2dVertex
 10
199.2895900105198
 20
-107.5257777521798
 30
0.0
  0
VERTEX
  5
1BC
330
1B8
100
AcDbEntity
  8
Layer 1
 62
   242
420
 12457505
370
    18
100
AcDbVertex
100
AcDb2dVertex
 10
213.2895900051339
 20
-107.5257777521798
 30
0.0
  0
VERTEX
  5
1BD
330
1B8
100
AcDbEntity
  8
Layer 1
 62
   242
420
 12457505
370
    18
100
AcDbVertex
100
AcDb2dVertex
 10
213.2895900051339
 20
-121.5257777486792
 30
0.0
  0
SEQEND
  5
1BE
330
1B8
100
AcDbEntity
  8
Layer 1
 62
   242
420
 12457505
370
    18
  0
ENDBLK
  5
1B7
330
1B4
100
AcDbEntity
  8
0
100
AcDbBlockEnd
  0
BLOCK
  5
1C1
330
1BF
100
AcDbEntity
  8
0
100
AcDbBlockBegin
  2
block 38
 70
     0
 10
0.0
 20
0.0
 30
0.0
  3
block 38
  1

  0
POLYLINE
  5
1C3
330
1BF
100
AcDbEntity
  8
Layer 1
 62
   242
420
 12457505
370
    18
100
AcDb2dPolyline
 66
     1
 10
0.0
 20
0.0
 30
0.0
  0
VERTEX
  5
1C4
330
1C3
100
AcDbEntity
  8
Layer 1
 62
   242
420
 12457505
370
    18
100
AcDbVertex
100
AcDb2dVertex
 10
232.3395900003714
 20
-121.5257777486792
 30
0.0
  0
VERTEX
  5
1C5
330
1C3
100
AcDbEntity
  8
Layer 1
 62
   242
420
 12457505
370
    18
100
AcDbVertex
100
AcDb2dVertex
 10
218.3395900057573
 20
-121.5257777486792
 30
0.0
  0
VERTEX
  5
1C6
330
1C3
100
AcDbEntity
  8
Layer 1
 62
   242
420
 12457505
370
    18
100
AcDbVertex
100
AcDb2dVertex
 10
218.3395900057573
 20
-107.5257777521798
 30
0.0
  0
VERTEX
  5
1C7
330
1C3
100
AcDbEntity
  8
Layer 1
 62
   242
420
 12457505
370
    18
100
AcDbVertex
100
AcDb2dVertex
 10
232.3395900003714
 20
-107.5257777521798
 30
0.0
  0
VERTEX
  5
1C8
330
1C3
100
AcDbEntity
  8
Layer 1
 62
   242
420
 12457505
370
    18
100
AcDbVertex
100
AcDb2dVertex
 10
232.3395900003714
 20
-121.5257777486792
 30
0.0
  0
SEQEND
  5
1C9
330
1C3
100
AcDbEntity
  8
Layer 1
 62
   242
420
 12457505
370
    18
  0
ENDBLK
  5
1C2
330
1BF
100
AcDbEntity
  8
0
100
AcDbBlockEnd
  0
BLOCK
  5
1CC
330
1CA
100
AcDbEntity
  8
0
100
AcDbBlockBegin
  2
block 39
 70
     0
 10
0.0
 20
0.0
 30
0.0
  3
block 39
  1

  0
POLYLINE
  5
1CE
330
1CA
100
AcDbEntity
  8
Layer 1
 62
   242
420
 12457505
370
    18
100
AcDb2dPolyline
 66
     1
 10
0.0
 20
0.0
 30
0.0
  0
VERTEX
  5
1CF
330
1CE
100
AcDbEntity
  8
Layer 1
 62
   242
420
 12457505
370
    18
100
AcDbVertex
100
AcDb2dVertex
 10
50.72504165304234
 20
-121.5257777486792
 30
0.0
  0
VERTEX
  5
1D0
330
1CE
100
AcDbEntity
  8
Layer 1
 62
   242
420
 12457505
370
    18
100
AcDbVertex
100
AcDb2dVertex
 10
36.72504165842827
 20
-121.5257777486792
 30
0.0
  0
VERTEX
  5
1D1
330
1CE
100
AcDbEntity
  8
Layer 1
 62
   242
420
 12457505
370
    18
100
AcDbVertex
100
AcDb2dVertex
 10
36.72504165842827
 20
-107.5257777521798
 30
0.0
  0
VERTEX
  5
1D2
330
1CE
100
AcDbEntity
  8
Layer 1
 62
   242
420
 12457505
370
    18
100
AcDbVertex
100
AcDb2dVertex
 10
50.72504165304234
 20
-107.5257777521798
 30
0.0
  0
VERTEX
  5
1D3
330
1CE
100
AcDbEntity
  8
Layer 1
 62
   242
420
 12457505
370
    18
100
AcDbVertex
100
AcDb2dVertex
 10
50.72504165304234
 20
-121.5257777486792
 30
0.0
  0
SEQEND
  5
1D4
330
1CE
100
AcDbEntity
  8
Layer 1
 62
   242
420
 12457505
370
    18
  0
ENDBLK
  5
1CD
330
1CA
100
AcDbEntity
  8
0
100
AcDbBlockEnd
  0
BLOCK
  5
1D7
330
1D5
100
AcDbEntity
  8
0
100
AcDbBlockBegin
  2
block 40
 70
     0
 10
0.0
 20
0.0
 30
0.0
  3
block 40
  1

  0
POLYLINE
  5
1D9
330
1D5
100
AcDbEntity
  8
Layer 1
 62
   242
420
 12457505
370
    18
100
AcDb2dPolyline
 66
     1
 10
0.0
 20
0.0
 30
0.0
  0
VERTEX
  5
1DA
330
1D9
100
AcDbEntity
  8
Layer 1
 62
   242
420
 12457505
370
    18
100
AcDbVertex
100
AcDb2dVertex
 10
253.7708399950136
 20
-121.5257777486792
 30
0.0
  0
VERTEX
  5
1DB
330
1D9
100
AcDbEntity
  8
Layer 1
 62
   242
420
 12457505
370
    18
100
AcDbVertex
100
AcDb2dVertex
 10
239.7708400003995
 20
-121.5257777486792
 30
0.0
  0
VERTEX
  5
1DC
330
1D9
100
AcDbEntity
  8
Layer 1
 62
   242
420
 12457505
370
    18
100
AcDbVertex
100
AcDb2dVertex
 10
239.7708400003995
 20
-107.5257777521798
 30
0.0
  0
VERTEX
  5
1DD
330
1D9
100
AcDbEntity
  8
Layer 1
 62
   242
420
 12457505
370
    18
100
AcDbVertex
100
AcDb2dVertex
 10
253.7708399950136
 20
-107.5257777521798
 30
0.0
  0
VERTEX
  5
1DE
330
1D9
100
AcDbEntity
  8
Layer 1
 62
   242
420
 12457505
370
    18
100
AcDbVertex
100
AcDb2dVertex
 10
253.7708399950136
 20
-121.5257777486792
 30
0.0
  0
SEQEND
  5
1DF
330
1D9
100
AcDbEntity
  8
Layer 1
 62
   242
420
 12457505
370
    18
  0
ENDBLK
  5
1D8
330
1D5
100
AcDbEntity
  8
0
100
AcDbBlockEnd
  0
BLOCK
  5
1E2
330
1E0
100
AcDbEntity
  8
0
100
AcDbBlockBegin
  2
block 41
 70
     0
 10
0.0
 20
0.0
 30
0.0
  3
block 41
  1

  0
INSERT
  5
1E5
330
1E0
100
AcDbEntity
  8
Layer 1
100
AcDbBlockReference
  2
block 42
 10
0.0
 20
0.0
 30
0.0
  0
INSERT
  5
1F0
330
1E0
100
AcDbEntity
  8
Layer 1
100
AcDbBlockReference
  2
block 43
 10
0.0
 20
0.0
 30
0.0
  0
INSERT
  5
1FB
330
1E0
100
AcDbEntity
  8
Layer 1
100
AcDbBlockReference
  2
block 44
 10
0.0
 20
0.0
 30
0.0
  0
INSERT
  5
206
330
1E0
100
AcDbEntity
  8
Layer 1
100
AcDbBlockReference
  2
block 45
 10
0.0
 20
0.0
 30
0.0
  0
INSERT
  5
223
330
1E0
100
AcDbEntity
  8
Layer 1
100
AcDbBlockReference
  2
block 47
 10
0.0
 20
0.0
 30
0.0
  0
INSERT
  5
22E
330
1E0
100
AcDbEntity
  8
Layer 1
100
AcDbBlockReference
  2
block 48
 10
0.0
 20
0.0
 30
0.0
  0
INSERT
  5
239
330
1E0
100
AcDbEntity
  8
Layer 1
100
AcDbBlockReference
  2
block 49
 10
0.0
 20
0.0
 30
0.0
  0
INSERT
  5
244
330
1E0
100
AcDbEntity
  8
Layer 1
100
AcDbBlockReference
  2
block 50
 10
0.0
 20
0.0
 30
0.0
  0
INSERT
  5
24F
330
1E0
100
AcDbEntity
  8
Layer 1
100
AcDbBlockReference
  2
block 51
 10
0.0
 20
0.0
 30
0.0
  0
INSERT
  5
25A
330
1E0
100
AcDbEntity
  8
Layer 1
100
AcDbBlockReference
  2
block 52
 10
0.0
 20
0.0
 30
0.0
  0
ENDBLK
  5
1E3
330
1E0
100
AcDbEntity
  8
0
100
AcDbBlockEnd
  0
BLOCK
  5
1E6
330
1E4
100
AcDbEntity
  8
0
100
AcDbBlockBegin
  2
block 42
 70
     0
 10
0.0
 20
0.0
 30
0.0
  3
block 42
  1

  0
POLYLINE
  5
1E8
330
1E4
100
AcDbEntity
  8
Layer 1
 62
   242
420
 12457505
370
    18
100
AcDb2dPolyline
 66
     1
 10
0.0
 20
0.0
 30
0.0
  0
VERTEX
  5
1E9
330
1E8
100
AcDbEntity
  8
Layer 1
 62
   242
420
 12457505
370
    18
100
AcDbVertex
100
AcDb2dVertex
 10
72.15629164768453
 20
-140.5757777464816
 30
0.0
  0
VERTEX
  5
1EA
330
1E8
100
AcDbEntity
  8
Layer 1
 62
   242
420
 12457505
370
    18
100
AcDbVertex
100
AcDb2dVertex
 10
58.15629165307046
 20
-140.5757777464816
 30
0.0
  0
VERTEX
  5
1EB
330
1E8
100
AcDbEntity
  8
Layer 1
 62
   242
420
 12457505
370
    18
100
AcDbVertex
100
AcDb2dVertex
 10
58.15629165307046
 20
-126.5757777499822
 30
0.0
  0
VERTEX
  5
1EC
330
1E8
100
AcDbEntity
  8
Layer 1
 62
   242
420
 12457505
370
    18
100
AcDbVertex
100
AcDb2dVertex
 10
72.15629164768453
 20
-126.5757777499822
 30
0.0
  0
VERTEX
  5
1ED
330
1E8
100
AcDbEntity
  8
Layer 1
 62
   242
420
 12457505
370
    18
100
AcDbVertex
100
AcDb2dVertex
 10
72.15629164768453
 20
-140.5757777464816
 30
0.0
  0
SEQEND
  5
1EE
330
1E8
100
AcDbEntity
  8
Layer 1
 62
   242
420
 12457505
370
    18
  0
ENDBLK
  5
1E7
330
1E4
100
AcDbEntity
  8
0
100
AcDbBlockEnd
  0
BLOCK
  5
1F1
330
1EF
100
AcDbEntity
  8
0
100
AcDbBlockBegin
  2
block 43
 70
     0
 10
0.0
 20
0.0
 30
0.0
  3
block 43
  1

  0
POLYLINE
  5
1F3
330
1EF
100
AcDbEntity
  8
Layer 1
 62
   242
420
 12457505
370
    18
100
AcDb2dPolyline
 66
     1
 10
0.0
 20
0.0
 30
0.0
  0
VERTEX
  5
1F4
330
1F3
100
AcDbEntity
  8
Layer 1
 62
   242
420
 12457505
370
    18
100
AcDbVertex
100
AcDb2dVertex
 10
91.20629164292203
 20
-140.5757777464816
 30
0.0
  0
VERTEX
  5
1F5
330
1F3
100
AcDbEntity
  8
Layer 1
 62
   242
420
 12457505
370
    18
100
AcDbVertex
100
AcDb2dVertex
 10
77.20629164830795
 20
-140.5757777464816
 30
0.0
  0
VERTEX
  5
1F6
330
1F3
100
AcDbEntity
  8
Layer 1
 62
   242
420
 12457505
370
    18
100
AcDbVertex
100
AcDb2dVertex
 10
77.20629164830795
 20
-126.5757777499822
 30
0.0
  0
VERTEX
  5
1F7
330
1F3
100
AcDbEntity
  8
Layer 1
 62
   242
420
 12457505
370
    18
100
AcDbVertex
100
AcDb2dVertex
 10
91.20629164292203
 20
-126.5757777499822
 30
0.0
  0
VERTEX
  5
1F8
330
1F3
100
AcDbEntity
  8
Layer 1
 62
   242
420
 12457505
370
    18
100
AcDbVertex
100
AcDb2dVertex
 10
91.20629164292203
 20
-140.5757777464816
 30
0.0
  0
SEQEND
  5
1F9
330
1F3
100
AcDbEntity
  8
Layer 1
 62
   242
420
 12457505
370
    18
  0
ENDBLK
  5
1F2
330
1EF
100
AcDbEntity
  8
0
100
AcDbBlockEnd
  0
BLOCK
  5
1FC
330
1FA
100
AcDbEntity
  8
0
100
AcDbBlockBegin
  2
block 44
 70
     0
 10
0.0
 20
0.0
 30
0.0
  3
block 44
  1

  0
POLYLINE
  5
1FE
330
1FA
100
AcDbEntity
  8
Layer 1
 62
   242
420
 12457505
370
    18
100
AcDb2dPolyline
 66
     1
 10
0.0
 20
0.0
 30
0.0
  0
VERTEX
  5
1FF
330
1FE
100
AcDbEntity
  8
Layer 1
 62
   242
420
 12457505
370
    18
100
AcDbVertex
100
AcDb2dVertex
 10
110.2562916381595
 20
-140.5757777464816
 30
0.0
  0
VERTEX
  5
200
330
1FE
100
AcDbEntity
  8
Layer 1
 62
   242
420
 12457505
370
    18
100
AcDbVertex
100
AcDb2dVertex
 10
96.25629164354545
 20
-140.5757777464816
 30
0.0
  0
VERTEX
  5
201
330
1FE
100
AcDbEntity
  8
Layer 1
 62
   242
420
 12457505
370
    18
100
AcDbVertex
100
AcDb2dVertex
 10
96.25629164354545
 20
-126.5757777499822
 30
0.0
  0
VERTEX
  5
202
330
1FE
100
AcDbEntity
  8
Layer 1
 62
   242
420
 12457505
370
    18
100
AcDbVertex
100
AcDb2dVertex
 10
110.2562916381595
 20
-126.5757777499822
 30
0.0
  0
VERTEX
  5
203
330
1FE
100
AcDbEntity
  8
Layer 1
 62
   242
420
 12457505
370
    18
100
AcDbVertex
100
AcDb2dVertex
 10
110.2562916381595
 20
-140.5757777464816
 30
0.0
  0
SEQEND
  5
204
330
1FE
100
AcDbEntity
  8
Layer 1
 62
   242
420
 12457505
370
    18
  0
ENDBLK
  5
1FD
330
1FA
100
AcDbEntity
  8
0
100
AcDbBlockEnd
  0
BLOCK
  5
207
330
205
100
AcDbEntity
  8
0
100
AcDbBlockBegin
  2
block 45
 70
     0
 10
0.0
 20
0.0
 30
0.0
  3
block 45
  1

  0
POLYLINE
  5
209
330
205
100
AcDbEntity
  8
Layer 1
 62
   242
420
 12457505
370
    18
100
AcDb2dPolyline
 66
     1
 10
0.0
 20
0.0
 30
0.0
  0
VERTEX
  5
20A
330
209
100
AcDbEntity
  8
Layer 1
 62
   242
420
 12457505
370
    18
100
AcDbVertex
100
AcDb2dVertex
 10
145.9750416292298
 20
-140.5757777464816
 30
0.0
  0
VERTEX
  5
20B
330
209
100
AcDbEntity
  8
Layer 1
 62
   242
420
 12457505
370
    18
100
AcDbVertex
100
AcDb2dVertex
 10
131.9750416346158
 20
-140.5757777464816
 30
0.0
  0
VERTEX
  5
20C
330
209
100
AcDbEntity
  8
Layer 1
 62
   242
420
 12457505
370
    18
100
AcDbVertex
100
AcDb2dVertex
 10
131.9750416346158
 20
-126.5757777499822
 30
0.0
  0
VERTEX
  5
20D
330
209
100
AcDbEntity
  8
Layer 1
 62
   242
420
 12457505
370
    18
100
AcDbVertex
100
AcDb2dVertex
 10
145.9750416292298
 20
-126.5757777499822
 30
0.0
  0
VERTEX
  5
20E
330
209
100
AcDbEntity
  8
Layer 1
 62
   242
420
 12457505
370
    18
100
AcDbVertex
100
AcDb2dVertex
 10
145.9750416292298
 20
-140.5757777464816
 30
0.0
  0
SEQEND
  5
20F
330
209
100
AcDbEntity
  8
Layer 1
 62
   242
420
 12457505
370
    18
  0
INSERT
  5
211
330
205
100
AcDbEntity
  8
Layer 1
100
AcDbBlockReference
  2
block 46
 10
0.0
 20
0.0
 30
0.0
  0
ENDBLK
  5
208
330
205
100
AcDbEntity
  8
0
100
AcDbBlockEnd
  0
BLOCK
  5
212
330
210
100
AcDbEntity
  8
0
100
AcDbBlockBegin
  2
block 46
 70
     0
 10
0.0
 20
0.0
 30
0.0
  3
block 46
  1

  0
POLYLINE
  5
214
330
210
100
AcDbEntity
  8
Layer 1
 62
   242
420
 12457505
370
    18
100
AcDb2dPolyline
 66
     1
 10
0.0
 20
0.0
 30
0.0
  0
VERTEX
  5
215
330
214
100
AcDbEntity
  8
Layer 1
 62
   242
420
 12457505
370
    18
100
AcDbVertex
100
AcDb2dVertex
 10
156.5229408239026
 20
-138.5757777469821
 30
0.0
  0
VERTEX
  5
216
330
214
100
AcDbEntity
  8
Layer 1
 62
   242
420
 12457505
370
    18
100
AcDbVertex
100
AcDb2dVertex
 10
153.0229408247774
 20
-138.5757777469821
 30
0.0
  0
VERTEX
  5
217
330
214
100
AcDbEntity
  8
Layer 1
 62
   242
420
 12457505
370
    18
100
AcDbVertex
100
AcDb2dVertex
 10
153.0229408247774
 20
-128.5757777494817
 30
0.0
  0
VERTEX
  5
218
330
214
100
AcDbEntity
  8
Layer 1
 62
   242
420
 12457505
370
    18
100
AcDbVertex
100
AcDb2dVertex
 10
156.5229408239026
 20
-128.5757777494817
 30
0.0
  0
VERTEX
  5
219
330
214
100
AcDbEntity
  8
Layer 1
 62
   242
420
 12457505
370
    18
100
AcDbVertex
100
AcDb2dVertex
 10
156.5229408239026
 20
-138.5757777469821
 30
0.0
  0
SEQEND
  5
21A
330
214
100
AcDbEntity
  8
Layer 1
 62
   242
420
 12457505
370
    18
  0
POLYLINE
  5
21B
330
210
100
AcDbEntity
  8
Layer 1
 62
   242
420
 12457505
370
    18
100
AcDb2dPolyline
 66
     1
 10
0.0
 20
0.0
 30
0.0
  0
VERTEX
  5
21C
330
21B
100
AcDbEntity
  8
Layer 1
 62
   242
420
 12457505
370
    18
100
AcDbVertex
100
AcDb2dVertex
 10
124.9271424390682
 20
-138.5757777469821
 30
0.0
  0
VERTEX
  5
21D
330
21B
100
AcDbEntity
  8
Layer 1
 62
   242
420
 12457505
370
    18
100
AcDbVertex
100
AcDb2dVertex
 10
121.427142439943
 20
-138.5757777469821
 30
0.0
  0
VERTEX
  5
21E
330
21B
100
AcDbEntity
  8
Layer 1
 62
   242
420
 12457505
370
    18
100
AcDbVertex
100
AcDb2dVertex
 10
121.427142439943
 20
-128.5757777494817
 30
0.0
  0
VERTEX
  5
21F
330
21B
100
AcDbEntity
  8
Layer 1
 62
   242
420
 12457505
370
    18
100
AcDbVertex
100
AcDb2dVertex
 10
124.9271424390682
 20
-128.5757777494817
 30
0.0
  0
VERTEX
  5
220
330
21B
100
AcDbEntity
  8
Layer 1
 62
   242
420
 12457505
370
    18
100
AcDbVertex
100
AcDb2dVertex
 10
124.9271424390682
 20
-138.5757777469821
 30
0.0
  0
SEQEND
  5
221
330
21B
100
AcDbEntity
  8
Layer 1
 62
   242
420
 12457505
370
    18
  0
ENDBLK
  5
213
330
210
100
AcDbEntity
  8
0
100
AcDbBlockEnd
  0
BLOCK
  5
224
330
222
100
AcDbEntity
  8
0
100
AcDbBlockBegin
  2
block 47
 70
     0
 10
0.0
 20
0.0
 30
0.0
  3
block 47
  1

  0
POLYLINE
  5
226
330
222
100
AcDbEntity
  8
Layer 1
 62
   242
420
 12457505
370
    18
100
AcDb2dPolyline
 66
     1
 10
0.0
 20
0.0
 30
0.0
  0
VERTEX
  5
227
330
226
100
AcDbEntity
  8
Layer 1
 62
   242
420
 12457505
370
    18
100
AcDbVertex
100
AcDb2dVertex
 10
181.6937916203001
 20
-140.5757777464816
 30
0.0
  0
VERTEX
  5
228
330
226
100
AcDbEntity
  8
Layer 1
 62
   242
420
 12457505
370
    18
100
AcDbVertex
100
AcDb2dVertex
 10
167.6937916256861
 20
-140.5757777464816
 30
0.0
  0
VERTEX
  5
229
330
226
100
AcDbEntity
  8
Layer 1
 62
   242
420
 12457505
370
    18
100
AcDbVertex
100
AcDb2dVertex
 10
167.6937916256861
 20
-126.5757777499822
 30
0.0
  0
VERTEX
  5
22A
330
226
100
AcDbEntity
  8
Layer 1
 62
   242
420
 12457505
370
    18
100
AcDbVertex
100
AcDb2dVertex
 10
181.6937916203001
 20
-126.5757777499822
 30
0.0
  0
VERTEX
  5
22B
330
226
100
AcDbEntity
  8
Layer 1
 62
   242
420
 12457505
370
    18
100
AcDbVertex
100
AcDb2dVertex
 10
181.6937916203001
 20
-140.5757777464816
 30
0.0
  0
SEQEND
  5
22C
330
226
100
AcDbEntity
  8
Layer 1
 62
   242
420
 12457505
370
    18
  0
ENDBLK
  5
225
330
222
100
AcDbEntity
  8
0
100
AcDbBlockEnd
  0
BLOCK
  5
22F
330
22D
100
AcDbEntity
  8
0
100
AcDbBlockBegin
  2
block 48
 70
     0
 10
0.0
 20
0.0
 30
0.0
  3
block 48
  1

  0
POLYLINE
  5
231
330
22D
100
AcDbEntity
  8
Layer 1
 62
   242
420
 12457505
370
    18
100
AcDb2dPolyline
 66
     1
 10
0.0
 20
0.0
 30
0.0
  0
VERTEX
  5
232
330
231
100
AcDbEntity
  8
Layer 1
 62
   242
420
 12457505
370
    18
100
AcDbVertex
100
AcDb2dVertex
 10
200.7437916155377
 20
-140.5757777464816
 30
0.0
  0
VERTEX
  5
233
330
231
100
AcDbEntity
  8
Layer 1
 62
   242
420
 12457505
370
    18
100
AcDbVertex
100
AcDb2dVertex
 10
186.7437916209236
 20
-140.5757777464816
 30
0.0
  0
VERTEX
  5
234
330
231
100
AcDbEntity
  8
Layer 1
 62
   242
420
 12457505
370
    18
100
AcDbVertex
100
AcDb2dVertex
 10
186.7437916209236
 20
-126.5757777499822
 30
0.0
  0
VERTEX
  5
235
330
231
100
AcDbEntity
  8
Layer 1
 62
   242
420
 12457505
370
    18
100
AcDbVertex
100
AcDb2dVertex
 10
200.7437916155377
 20
-126.5757777499822
 30
0.0
  0
VERTEX
  5
236
330
231
100
AcDbEntity
  8
Layer 1
 62
   242
420
 12457505
370
    18
100
AcDbVertex
100
AcDb2dVertex
 10
200.7437916155377
 20
-140.5757777464816
 30
0.0
  0
SEQEND
  5
237
330
231
100
AcDbEntity
  8
Layer 1
 62
   242
420
 12457505
370
    18
  0
ENDBLK
  5
230
330
22D
100
AcDbEntity
  8
0
100
AcDbBlockEnd
  0
BLOCK
  5
23A
330
238
100
AcDbEntity
  8
0
100
AcDbBlockBegin
  2
block 49
 70
     0
 10
0.0
 20
0.0
 30
0.0
  3
block 49
  1

  0
POLYLINE
  5
23C
330
238
100
AcDbEntity
  8
Layer 1
 62
   242
420
 12457505
370
    18
100
AcDb2dPolyline
 66
     1
 10
0.0
 20
0.0
 30
0.0
  0
VERTEX
  5
23D
330
23C
100
AcDbEntity
  8
Layer 1
 62
   242
420
 12457505
370
    18
100
AcDbVertex
100
AcDb2dVertex
 10
219.7937916107752
 20
-140.5757777464816
 30
0.0
  0
VERTEX
  5
23E
330
23C
100
AcDbEntity
  8
Layer 1
 62
   242
420
 12457505
370
    18
100
AcDbVertex
100
AcDb2dVertex
 10
205.7937916161611
 20
-140.5757777464816
 30
0.0
  0
VERTEX
  5
23F
330
23C
100
AcDbEntity
  8
Layer 1
 62
   242
420
 12457505
370
    18
100
AcDbVertex
100
AcDb2dVertex
 10
205.7937916161611
 20
-126.5757777499822
 30
0.0
  0
VERTEX
  5
240
330
23C
100
AcDbEntity
  8
Layer 1
 62
   242
420
 12457505
370
    18
100
AcDbVertex
100
AcDb2dVertex
 10
219.7937916107752
 20
-126.5757777499822
 30
0.0
  0
VERTEX
  5
241
330
23C
100
AcDbEntity
  8
Layer 1
 62
   242
420
 12457505
370
    18
100
AcDbVertex
100
AcDb2dVertex
 10
219.7937916107752
 20
-140.5757777464816
 30
0.0
  0
SEQEND
  5
242
330
23C
100
AcDbEntity
  8
Layer 1
 62
   242
420
 12457505
370
    18
  0
ENDBLK
  5
23B
330
238
100
AcDbEntity
  8
0
100
AcDbBlockEnd
  0
BLOCK
  5
245
330
243
100
AcDbEntity
  8
0
100
AcDbBlockBegin
  2
block 50
 70
     0
 10
0.0
 20
0.0
 30
0.0
  3
block 50
  1

  0
POLYLINE
  5
247
330
243
100
AcDbEntity
  8
Layer 1
 62
   242
420
 12457505
370
    18
100
AcDb2dPolyline
 66
     1
 10
0.0
 20
0.0
 30
0.0
  0
VERTEX
  5
248
330
247
100
AcDbEntity
  8
Layer 1
 62
   242
420
 12457505
370
    18
100
AcDbVertex
100
AcDb2dVertex
 10
238.8437916060127
 20
-140.5757777464816
 30
0.0
  0
VERTEX
  5
249
330
247
100
AcDbEntity
  8
Layer 1
 62
   242
420
 12457505
370
    18
100
AcDbVertex
100
AcDb2dVertex
 10
224.8437916113986
 20
-140.5757777464816
 30
0.0
  0
VERTEX
  5
24A
330
247
100
AcDbEntity
  8
Layer 1
 62
   242
420
 12457505
370
    18
100
AcDbVertex
100
AcDb2dVertex
 10
224.8437916113986
 20
-126.5757777499822
 30
0.0
  0
VERTEX
  5
24B
330
247
100
AcDbEntity
  8
Layer 1
 62
   242
420
 12457505
370
    18
100
AcDbVertex
100
AcDb2dVertex
 10
238.8437916060127
 20
-126.5757777499822
 30
0.0
  0
VERTEX
  5
24C
330
247
100
AcDbEntity
  8
Layer 1
 62
   242
420
 12457505
370
    18
100
AcDbVertex
100
AcDb2dVertex
 10
238.8437916060127
 20
-140.5757777464816
 30
0.0
  0
SEQEND
  5
24D
330
247
100
AcDbEntity
  8
Layer 1
 62
   242
420
 12457505
370
    18
  0
ENDBLK
  5
246
330
243
100
AcDbEntity
  8
0
100
AcDbBlockEnd
  0
BLOCK
  5
250
330
24E
100
AcDbEntity
  8
0
100
AcDbBlockBegin
  2
block 51
 70
     0
 10
0.0
 20
0.0
 30
0.0
  3
block 51
  1

  0
POLYLINE
  5
252
330
24E
100
AcDbEntity
  8
Layer 1
 62
   242
420
 12457505
370
    18
100
AcDb2dPolyline
 66
     1
 10
0.0
 20
0.0
 30
0.0
  0
VERTEX
  5
253
330
252
100
AcDbEntity
  8
Layer 1
 62
   242
420
 12457505
370
    18
100
AcDbVertex
100
AcDb2dVertex
 10
50.72504165304234
 20
-140.5757777464816
 30
0.0
  0
VERTEX
  5
254
330
252
100
AcDbEntity
  8
Layer 1
 62
   242
420
 12457505
370
    18
100
AcDbVertex
100
AcDb2dVertex
 10
36.72504165842827
 20
-140.5757777464816
 30
0.0
  0
VERTEX
  5
255
330
252
100
AcDbEntity
  8
Layer 1
 62
   242
420
 12457505
370
    18
100
AcDbVertex
100
AcDb2dVertex
 10
36.72504165842827
 20
-126.5757777499822
 30
0.0
  0
VERTEX
  5
256
330
252
100
AcDbEntity
  8
Layer 1
 62
   242
420
 12457505
370
    18
100
AcDbVertex
100
AcDb2dVertex
 10
50.72504165304234
 20
-126.5757777499822
 30
0.0
  0
VERTEX
  5
257
330
252
100
AcDbEntity
  8
Layer 1
 62
   242
420
 12457505
370
    18
100
AcDbVertex
100
AcDb2dVertex
 10
50.72504165304234
 20
-140.5757777464816
 30
0.0
  0
SEQEND
  5
258
330
252
100
AcDbEntity
  8
Layer 1
 62
   242
420
 12457505
370
    18
  0
ENDBLK
  5
251
330
24E
100
AcDbEntity
  8
0
100
AcDbBlockEnd
  0
BLOCK
  5
25B
330
259
100
AcDbEntity
  8
0
100
AcDbBlockBegin
  2
block 52
 70
     0
 10
0.0
 20
0.0
 30
0.0
  3
block 52
  1

  0
POLYLINE
  5
25D
330
259
100
AcDbEntity
  8
Layer 1
 62
   242
420
 12457505
370
    18
100
AcDb2dPolyline
 66
     1
 10
0.0
 20
0.0
 30
0.0
  0
VERTEX
  5
25E
330
25D
100
AcDbEntity
  8
Layer 1
 62
   242
420
 12457505
370
    18
100
AcDbVertex
100
AcDb2dVertex
 10
257.8937916012501
 20
-140.5757777464816
 30
0.0
  0
VERTEX
  5
25F
330
25D
100
AcDbEntity
  8
Layer 1
 62
   242
420
 12457505
370
    18
100
AcDbVertex
100
AcDb2dVertex
 10
243.8937916066361
 20
-140.5757777464816
 30
0.0
  0
VERTEX
  5
260
330
25D
100
AcDbEntity
  8
Layer 1
 62
   242
420
 12457505
370
    18
100
AcDbVertex
100
AcDb2dVertex
 10
243.8937916066361
 20
-126.5757777499822
 30
0.0
  0
VERTEX
  5
261
330
25D
100
AcDbEntity
  8
Layer 1
 62
   242
420
 12457505
370
    18
100
AcDbVertex
100
AcDb2dVertex
 10
257.8937916012501
 20
-126.5757777499822
 30
0.0
  0
VERTEX
  5
262
330
25D
100
AcDbEntity
  8
Layer 1
 62
   242
420
 12457505
370
    18
100
AcDbVertex
100
AcDb2dVertex
 10
257.8937916012501
 20
-140.5757777464816
 30
0.0
  0
SEQEND
  5
263
330
25D
100
AcDbEntity
  8
Layer 1
 62
   242
420
 12457505
370
    18
  0
ENDBLK
  5
25C
330
259
100
AcDbEntity
  8
0
100
AcDbBlockEnd
  0
ENDSEC
  0
SECTION
  2
ENTITIES
  0
POLYLINE
  5
41
330
1F
100
AcDbEntity
  8
Layer 1
 62
   242
420
 12457505
370
    18
100
AcDb2dPolyline
 66
     1
 10
0.0
 20
0.0
 30
0.0
  0
VERTEX
  5
42
330
41
100
AcDbEntity
  8
Layer 1
 62
   242
420
 12457505
370
    18
100
AcDbVertex
100
AcDb2dVertex
 10
268.0476110440991
 20
-146.5109629263355
 30
0.0
  0
VERTEX
  5
43
330
41
100
AcDbEntity
  8
Layer 1
 62
   242
420
 12457505
370
    18
100
AcDbVertex
100
AcDb2dVertex
 10
28.952472214984
 20
-146.5109629263355
 30
0.0
  0
VERTEX
  5
44
330
41
100
AcDbEntity
  8
Layer 1
 62
   242
420
 12457505
370
    18
100
AcDbVertex
100
AcDb2dVertex
 10
28.952472214984
 20
-63.49059257671995
 30
0.0
  0
VERTEX
  5
45
330
41
100
AcDbEntity
  8
Layer 1
 62
   242
420
 12457505
370
    18
100
AcDbVertex
100
AcDb2dVertex
 10
268.0476110440991
 20
-63.49059257671995
 30
0.0
  0
VERTEX
  5
46
330
41
100
AcDbEntity
  8
Layer 1
 62
   242
420
 12457505
370
    18
100
AcDbVertex
100
AcDb2dVertex
 10
268.0476110440991
 20
-146.5109629263355
 30
0.0
  0
SEQEND
  5
47
330
41
100
AcDbEntity
  8
Layer 1
 62
   242
420
 12457505
370
    18
  0
INSERT
  5
49
330
1F
100
AcDbEntity
  8
Layer 1
100
AcDbBlockReference
  2
block 2
 10
0.0
 20
0.0
 30
0.0
  0
ENDSEC
  0
SECTION
  2
OBJECTS
  0
DICTIONARY
  5
C
330
0
100
AcDbDictionary
281
     1
  3
ACAD_GROUP
350
D
  3
ACAD_LAYOUT
350
1A
  3
ACAD_MATERIAL
350
3B
  3
ACAD_MLEADERSTYLE
350
265
  3
ACAD_MLINESTYLE
350
17
  3
ACAD_PLOTSETTINGS
350
19
  3
ACAD_PLOTSTYLENAME
350
E
  3
ACAD_TABLESTYLE
350
264
  3
ACAD_VISUALSTYLE
350
2A
  0
SUN
  5
3F
330
29
100
AcDbSun
 90
        1
290
     0
 63
     7
421
 16777215
 40
1.0
291
     1
 91
  2455826
 92
 54000000
292
     0
 70
     2
 71
   256
280
     1
  0
DICTIONARY
  5
D
102
{ACAD_REACTORS
330
C
102
}
330
C
100
AcDbDictionary
281
     1
  0
DICTIONARY
  5
1A
102
{ACAD_REACTORS
330
C
102
}
330
C
100
AcDbDictionary
281
     1
  3
Layout1
350
1E
  3
Layout2
350
26
  3
Model
350
22
  0
DICTIONARY
  5
3B
102
{ACAD_REACTORS
330
C
102
}
330
C
100
AcDbDictionary
281
     1
  3
ByBlock
350
3D
  3
ByLayer
350
3C
  3
Global
350
3E
  0
DICTIONARY
  5
265
102
{ACAD_REACTORS
330
C
102
}
330
C
100
AcDbDictionary
281
     1
  0
DICTIONARY
  5
17
102
{ACAD_REACTORS
330
C
102
}
330
C
100
AcDbDictionary
281
     1
  3
Standard
350
18
  0
DICTIONARY
  5
19
102
{ACAD_REACTORS
330
C
102
}
330
C
100
AcDbDictionary
281
     1
  0
ACDBDICTIONARYWDFLT
  5
E
102
{ACAD_REACTORS
330
C
102
}
330
C
100
AcDbDictionary
281
     1
  3
Normal
350
F
100
AcDbDictionaryWithDefault
340
F
  0
DICTIONARY
  5
264
102
{ACAD_REACTORS
330
C
102
}
330
C
100
AcDbDictionary
281
     1
  0
DICTIONARY
  5
2A
102
{ACAD_REACTORS
330
C
102
}
330
C
100
AcDbDictionary
281
     1
  3
2dWireframe
350
2F
  3
3D Hidden
350
31
  3
3dWireframe
350
30
  3
Basic
350
32
  3
Brighten
350
36
  3
ColorChange
350
3A
  3
Conceptual
350
34
  3
Dim
350
35
  3
Facepattern
350
39
  3
Flat
350
2B
  3
FlatWithEdges
350
2C
  3
Gouraud
350
2D
  3
GouraudWithEdges
350
2E
  3
Linepattern
350
38
  3
Realistic
350
33
  3
Thicken
350
37
  0
LAYOUT
  5
1E
102
{ACAD_REACTORS
330
1A
102
}
330
1A
100
AcDbPlotSettings
  1

  2
none_device
  4

  6

 40
0.0
 41
0.0
 42
0.0
 43
0.0
 44
0.0
 45
0.0
 46
0.0
 47
0.0
 48
0.0
 49
0.0
140
0.0
141
0.0
142
1.0
143
1.0
 70
   688
 72
     0
 73
     0
 74
     5
  7

 75
    16
 76
     0
 77
     2
 78
   300
147
1.0
148
0.0
149
0.0
100
AcDbLayout
  1
Layout1
 70
     1
 71
     1
 10
0.0
 20
0.0
 11
12.0
 21
9.0
 12
0.0
 22
0.0
 32
0.0
 14
1.000000000000000E+20
 24
1.000000000000000E+20
 34
1.000000000000000E+20
 15
-1.000000000000000E+20
 25
-1.000000000000000E+20
 35
-1.000000000000000E+20
146
0.0
 13
0.0
 23
0.0
 33
0.0
 16
1.0
 26
0.0
 36
0.0
 17
0.0
 27
1.0
 37
0.0
 76
     0
330
1B
  0
LAYOUT
  5
26
102
{ACAD_REACTORS
330
1A
102
}
330
1A
100
AcDbPlotSettings
  1

  2
none_device
  4

  6

 40
0.0
 41
0.0
 42
0.0
 43
0.0
 44
0.0
 45
0.0
 46
0.0
 47
0.0
 48
0.0
 49
0.0
140
0.0
141
0.0
142
1.0
143
1.0
 70
   688
 72
     0
 73
     0
 74
     5
  7

 75
    16
 76
     0
 77
     2
 78
   300
147
1.0
148
0.0
149
0.0
100
AcDbLayout
  1
Layout2
 70
     1
 71
     2
 10
0.0
 20
0.0
 11
0.0
 21
0.0
 12
0.0
 22
0.0
 32
0.0
 14
0.0
 24
0.0
 34
0.0
 15
0.0
 25
0.0
 35
0.0
146
0.0
 13
0.0
 23
0.0
 33
0.0
 16
1.0
 26
0.0
 36
0.0
 17
0.0
 27
1.0
 37
0.0
 76
     0
330
23
  0
LAYOUT
  5
22
102
{ACAD_REACTORS
330
1A
102
}
330
1A
100
AcDbPlotSettings
  1

  2
none_device
  4

  6

 40
0.0
 41
0.0
 42
0.0
 43
0.0
 44
0.0
 45
0.0
 46
0.0
 47
0.0
 48
0.0
 49
0.0
140
0.0
141
0.0
142
1.0
143
1.0
 70
  1712
 72
     0
 73
     0
 74
     0
  7

 75
     0
 76
     0
 77
     2
 78
   300
147
1.0
148
0.0
149
0.0
100
AcDbLayout
  1
Model
 70
     1
 71
     0
 10
0.0
 20
0.0
 11
12.0
 21
9.0
 12
0.0
 22
0.0
 32
0.0
 14
1.000000000000000E+20
 24
1.000000000000000E+20
 34
1.000000000000000E+20
 15
-1.000000000000000E+20
 25
-1.000000000000000E+20
 35
-1.000000000000000E+20
146
0.0
 13
0.0
 23
0.0
 33
0.0
 16
1.0
 26
0.0
 36
0.0
 17
0.0
 27
1.0
 37
0.0
 76
     0
330
1F
331
29
  0
MATERIAL
  5
3D
102
{ACAD_REACTORS
330
3B
102
}
330
3B
100
AcDbMaterial
  1
ByBlock
 72
     1
 94
      127
  0
MATERIAL
  5
3C
102
{ACAD_REACTORS
330
3B
102
}
330
3B
100
AcDbMaterial
  1
ByLayer
 72
     1
 94
      127
  0
MATERIAL
  5
3E
102
{ACAD_REACTORS
330
3B
102
}
330
3B
100
AcDbMaterial
  1
Global
 72
     1
 94
      127
  0
MLINESTYLE
  5
18
102
{ACAD_REACTORS
330
17
102
}
330
17
100
AcDbMlineStyle
  2
Standard
 70
     0
  3

 62
   256
 51
90.0
 52
90.0
 71
     2
 49
0.5
 62
   256
  6
BYLAYER
 49
-0.5
 62
   256
  6
BYLAYER
  0
ACDBPLACEHOLDER
  5
F
102
{ACAD_REACTORS
330
E
102
}
330
E
  0
VISUALSTYLE
  5
2F
102
{ACAD_REACTORS
330
2A
102
}
330
2A
100
AcDbVisualStyle
  2
2dWireframe
 70
     4
177
     2
291
     0
 71
     0
176
     1
 72
     2
176
     1
 73
     0
176
     1
 90
        0
176
     1
 40
-0.6
176
     1
 41
-30.0
176
     1
 62
     5
 63
     7
421
 16777215
176
     1
 74
     1
176
     1
 91
        4
176
     1
 64
     7
176
     1
 65
   257
176
     1
 75
     1
176
     1
175
     1
176
     1
 42
1.0
176
     1
 92
        0
176
     1
 66
   257
176
     1
 43
1.0
176
     1
 76
     1
176
     1
 77
     6
176
     1
 78
     2
176
     1
 67
     7
176
     1
 79
     5
176
     1
170
     0
176
     1
171
     0
176
     1
290
     0
176
     1
 93
        1
176
     1
 44
0.0
176
     1
173
     0
176
     1
  0
VISUALSTYLE
  5
31
102
{ACAD_REACTORS
330
2A
102
}
330
2A
100
AcDbVisualStyle
  2
3D Hidden
 70
     6
177
     2
291
     0
 71
     1
176
     1
 72
     2
176
     1
 73
     2
176
     1
 90
        0
176
     1
 40
-0.6
176
     1
 41
-30.0
176
     1
 62
     5
 63
     7
421
 16777215
176
     1
 74
     2
176
     1
 91
        2
176
     1
 64
     7
176
     1
 65
   257
176
     1
 75
     2
176
     1
175
     1
176
     1
 42
40.0
176
     1
 92
        0
176
     1
 66
   257
176
     1
 43
1.0
176
     1
 76
     1
176
     1
 77
     6
176
     1
 78
     2
176
     1
 67
     7
176
     1
 79
     3
176
     1
170
     0
176
     1
171
     0
176
     1
290
     0
176
     1
 93
        1
176
     1
 44
0.0
176
     1
173
     0
176
     1
  0
VISUALSTYLE
  5
30
102
{ACAD_REACTORS
330
2A
102
}
330
2A
100
AcDbVisualStyle
  2
3dWireframe
 70
     5
177
     2
291
     0
 71
     0
176
     1
 72
     2
176
     1
 73
     0
176
     1
 90
        0
176
     1
 40
-0.6
176
     1
 41
-30.0
176
     1
 62
     5
 63
     7
421
 16777215
176
     1
 74
     1
176
     1
 91
        4
176
     1
 64
     7
176
     1
 65
   257
176
     1
 75
     1
176
     1
175
     1
176
     1
 42
1.0
176
     1
 92
        0
176
     1
 66
   257
176
     1
 43
1.0
176
     1
 76
     1
176
     1
 77
     6
176
     1
 78
     2
176
     1
 67
     7
176
     1
 79
     5
176
     1
170
     0
176
     1
171
     0
176
     1
290
     0
176
     1
 93
        1
176
     1
 44
0.0
176
     1
173
     0
176
     1
  0
VISUALSTYLE
  5
32
102
{ACAD_REACTORS
330
2A
102
}
330
2A
100
AcDbVisualStyle
  2
Basic
 70
     7
177
     2
291
     1
 71
     1
176
     1
 72
     0
176
     1
 73
     1
176
     1
 90
        0
176
     1
 40
-0.6
176
     1
 41
-30.0
176
     1
 62
     5
 63
     7
421
 16777215
176
     1
 74
     0
176
     1
 91
        4
176
     1
 64
     7
176
     1
 65
   257
176
     1
 75
     1
176
     1
175
     1
176
     1
 42
1.0
176
     1
 92
        8
176
     1
 66
     7
176
     1
 43
1.0
176
     1
 76
     1
176
     1
 77
     6
176
     1
 78
     2
176
     1
 67
     7
176
     1
 79
     5
176
     1
170
     0
176
     1
171
     0
176
     1
290
     0
176
     1
 93
        1
176
     1
 44
0.0
176
     1
173
     0
176
     1
  0
VISUALSTYLE
  5
36
102
{ACAD_REACTORS
330
2A
102
}
330
2A
100
AcDbVisualStyle
  2
Brighten
 70
    12
177
     2
291
     1
 71
     2
176
     1
 72
     2
176
     1
 73
     0
176
     1
 90
        0
176
     1
 40
-0.6
176
     1
 41
-30.0
176
     1
 62
     5
 63
     7
421
 16777215
176
     1
 74
     1
176
     1
 91
        4
176
     1
 64
     7
176
     1
 65
   257
176
     1
 75
     1
176
     1
175
     1
176
     1
 42
1.0
176
     1
 92
        8
176
     1
 66
     7
176
     1
 43
1.0
176
     1
 76
     1
176
     1
 77
     6
176
     1
 78
     2
176
     1
 67
     7
176
     1
 79
     5
176
     1
170
     0
176
     1
171
     0
176
     1
290
     0
176
     1
 93
        1
176
     1
 44
50.0
176
     1
173
     0
176
     1
  0
VISUALSTYLE
  5
3A
102
{ACAD_REACTORS
330
2A
102
}
330
2A
100
AcDbVisualStyle
  2
ColorChange
 70
    16
177
     2
291
     1
 71
     2
176
     1
 72
     2
176
     1
 73
     3
176
     1
 90
        0
176
     1
 40
-0.6
176
     1
 41
-30.0
176
     1
 62
     5
 63
     8
421
  8421504
176
     1
 74
     1
176
     1
 91
        4
176
     1
 64
     7
176
     1
 65
   257
176
     1
 75
     1
176
     1
175
     1
176
     1
 42
1.0
176
     1
 92
        8
176
     1
 66
     8
424
  8421504
176
     1
 43
1.0
176
     1
 76
     1
176
     1
 77
     6
176
     1
 78
     2
176
     1
 67
     7
176
     1
 79
     5
176
     1
170
     0
176
     1
171
     0
176
     1
290
     0
176
     1
 93
        1
176
     1
 44
0.0
176
     1
173
     0
176
     1
  0
VISUALSTYLE
  5
34
102
{ACAD_REACTORS
330
2A
102
}
330
2A
100
AcDbVisualStyle
  2
Conceptual
 70
     9
177
     2
291
     0
 71
     3
176
     1
 72
     2
176
     1
 73
     0
176
     1
 90
        0
176
     1
 40
-0.6
176
     1
 41
-30.0
176
     1
 62
     5
 63
     7
421
 16777215
176
     1
 74
     2
176
     1
 91
        2
176
     1
 64
     7
176
     1
 65
   257
176
     1
 75
     1
176
     1
175
     1
176
     1
 42
40.0
176
     1
 92
        8
176
     1
 66
     7
176
     1
 43
1.0
176
     1
 76
     1
176
     1
 77
     6
176
     1
 78
     2
176
     1
 67
     7
176
     1
 79
     3
176
     1
170
     0
176
     1
171
     0
176
     1
290
     0
176
     1
 93
        1
176
     1
 44
0.0
176
     1
173
     0
176
     1
  0
VISUALSTYLE
  5
35
102
{ACAD_REACTORS
330
2A
102
}
330
2A
100
AcDbVisualStyle
  2
Dim
 70
    11
177
     2
291
     1
 71
     2
176
     1
 72
     2
176
     1
 73
     0
176
     1
 90
        0
176
     1
 40
-0.6
176
     1
 41
-30.0
176
     1
 62
     5
 63
     7
421
 16777215
176
     1
 74
     1
176
     1
 91
        4
176
     1
 64
     7
176
     1
 65
   257
176
     1
 75
     1
176
     1
175
     1
176
     1
 42
1.0
176
     1
 92
        8
176
     1
 66
     7
176
     1
 43
1.0
176
     1
 76
     1
176
     1
 77
     6
176
     1
 78
     2
176
     1
 67
     7
176
     1
 79
     5
176
     1
170
     0
176
     1
171
     0
176
     1
290
     0
176
     1
 93
        1
176
     1
 44
-50.0
176
     1
173
     0
176
     1
  0
VISUALSTYLE
  5
39
102
{ACAD_REACTORS
330
2A
102
}
330
2A
100
AcDbVisualStyle
  2
Facepattern
 70
    15
177
     2
291
     1
 71
     2
176
     1
 72
     2
176
     1
 73
     0
176
     1
 90
        0
176
     1
 40
-0.6
176
     1
 41
-30.0
176
     1
 62
     5
 63
     7
421
 16777215
176
     1
 74
     1
176
     1
 91
        4
176
     1
 64
     7
176
     1
 65
   257
176
     1
 75
     1
176
     1
175
     1
176
     1
 42
1.0
176
     1
 92
        8
176
     1
 66
     7
176
     1
 43
1.0
176
     1
 76
     1
176
     1
 77
     6
176
     1
 78
     2
176
     1
 67
     7
176
     1
 79
     5
176
     1
170
     0
176
     1
171
     0
176
     1
290
     0
176
     1
 93
        1
176
     1
 44
0.0
176
     1
173
     0
176
     1
  0
VISUALSTYLE
  5
2B
102
{ACAD_REACTORS
330
2A
102
}
330
2A
100
AcDbVisualStyle
  2
Flat
 70
     0
177
     2
291
     1
 71
     2
176
     1
 72
     1
176
     1
 73
     1
176
     1
 90
        2
176
     1
 40
-0.6
176
     1
 41
30.0
176
     1
 62
     5
 63
     7
421
 16777215
176
     1
 74
     0
176
     1
 91
        4
176
     1
 64
     7
176
     1
 65
   257
176
     1
 75
     1
176
     1
175
     1
176
     1
 42
1.0
176
     1
 92
        8
176
     1
 66
     7
176
     1
 43
1.0
176
     1
 76
     1
176
     1
 77
     6
176
     1
 78
     2
176
     1
 67
     7
176
     1
 79
     5
176
     1
170
     0
176
     1
171
     0
176
     1
290
     0
176
     1
 93
       13
176
     1
 44
0.0
176
     1
173
     0
176
     1
  0
VISUALSTYLE
  5
2C
102
{ACAD_REACTORS
330
2A
102
}
330
2A
100
AcDbVisualStyle
  2
FlatWithEdges
 70
     1
177
     2
291
     1
 71
     2
176
     1
 72
     1
176
     1
 73
     1
176
     1
 90
        2
176
     1
 40
-0.6
176
     1
 41
30.0
176
     1
 62
     5
 63
     7
421
 16777215
176
     1
 74
     1
176
     1
 91
        4
176
     1
 64
     7
176
     1
 65
   257
176
     1
 75
     1
176
     1
175
     1
176
     1
 42
1.0
176
     1
 92
        0
176
     1
 66
   257
176
     1
 43
1.0
176
     1
 76
     1
176
     1
 77
     6
176
     1
 78
     2
176
     1
 67
     7
176
     1
 79
     5
176
     1
170
     0
176
     1
171
     0
176
     1
290
     0
176
     1
 93
       13
176
     1
 44
0.0
176
     1
173
     0
176
     1
  0
VISUALSTYLE
  5
2D
102
{ACAD_REACTORS
330
2A
102
}
330
2A
100
AcDbVisualStyle
  2
Gouraud
 70
     2
177
     2
291
     1
 71
     2
176
     1
 72
     2
176
     1
 73
     1
176
     1
 90
        2
176
     1
 40
-0.6
176
     1
 41
30.0
176
     1
 62
     5
 63
     7
421
 16777215
176
     1
 74
     0
176
     1
 91
        4
176
     1
 64
     7
176
     1
 65
   257
176
     1
 75
     1
176
     1
175
     1
176
     1
 42
1.0
176
     1
 92
        0
176
     1
 66
     7
176
     1
 43
1.0
176
     1
 76
     1
176
     1
 77
     6
176
     1
 78
     2
176
     1
 67
     7
176
     1
 79
     5
176
     1
170
     0
176
     1
171
     0
176
     1
290
     0
176
     1
 93
       13
176
     1
 44
0.0
176
     1
173
     0
176
     1
  0
VISUALSTYLE
  5
2E
102
{ACAD_REACTORS
330
2A
102
}
330
2A
100
AcDbVisualStyle
  2
GouraudWithEdges
 70
     3
177
     2
291
     1
 71
     2
176
     1
 72
     2
176
     1
 73
     1
176
     1
 90
        2
176
     1
 40
-0.6
176
     1
 41
30.0
176
     1
 62
     5
 63
     7
421
 16777215
176
     1
 74
     1
176
     1
 91
        4
176
     1
 64
     7
176
     1
 65
   257
176
     1
 75
     1
176
     1
175
     1
176
     1
 42
1.0
176
     1
 92
        0
176
     1
 66
   257
176
     1
 43
1.0
176
     1
 76
     1
176
     1
 77
     6
176
     1
 78
     2
176
     1
 67
     7
176
     1
 79
     5
176
     1
170
     0
176
     1
171
     0
176
     1
290
     0
176
     1
 93
       13
176
     1
 44
0.0
176
     1
173
     0
176
     1
  0
VISUALSTYLE
  5
38
102
{ACAD_REACTORS
330
2A
102
}
330
2A
100
AcDbVisualStyle
  2
Linepattern
 70
    14
177
     2
291
     1
 71
     2
176
     1
 72
     2
176
     1
 73
     0
176
     1
 90
        0
176
     1
 40
-0.6
176
     1
 41
-30.0
176
     1
 62
     5
 63
     7
421
 16777215
176
     1
 74
     1
176
     1
 91
        4
176
     1
 64
     7
176
     1
 65
   257
176
     1
 75
     7
176
     1
175
     7
176
     1
 42
1.0
176
     1
 92
        8
176
     1
 66
     7
176
     1
 43
1.0
176
     1
 76
     1
176
     1
 77
     6
176
     1
 78
     2
176
     1
 67
     7
176
     1
 79
     5
176
     1
170
     0
176
     1
171
     0
176
     1
290
     0
176
     1
 93
        1
176
     1
 44
0.0
176
     1
173
     0
176
     1
  0
VISUALSTYLE
  5
33
102
{ACAD_REACTORS
330
2A
102
}
330
2A
100
AcDbVisualStyle
  2
Realistic
 70
     8
177
     2
291
     0
 71
     2
176
     1
 72
     2
176
     1
 73
     0
176
     1
 90
        0
176
     1
 40
-0.6
176
     1
 41
-30.0
176
     1
 62
     5
 63
     7
421
 16777215
176
     1
 74
     1
176
     1
 91
        0
176
     1
 64
     7
176
     1
 65
   257
176
     1
 75
     1
176
     1
175
     1
176
     1
 42
1.0
176
     1
 92
        8
176
     1
 66
     8
424
  7895160
176
     1
 43
1.0
176
     1
 76
     1
176
     1
 77
     6
176
     1
 78
     2
176
     1
 67
     7
176
     1
 79
     5
176
     1
170
     0
176
     1
171
     0
176
     1
290
     0
176
     1
 93
       13
176
     1
 44
0.0
176
     1
173
     0
176
     1
  0
VISUALSTYLE
  5
37
102
{ACAD_REACTORS
330
2A
102
}
330
2A
100
AcDbVisualStyle
  2
Thicken
 70
    13
177
     2
291
     1
 71
     2
176
     1
 72
     2
176
     1
 73
     0
176
     1
 90
        0
176
     1
 40
-0.6
176
     1
 41
-30.0
176
     1
 62
     5
 63
     7
421
 16777215
176
     1
 74
     1
176
     1
 91
        4
176
     1
 64
     7
176
     1
 65
   257
176
     1
 75
     1
176
     1
175
     1
176
     1
 42
1.0
176
     1
 92
       12
176
     1
 66
     7
176
     1
 43
1.0
176
     1
 76
     1
176
     1
 77
     6
176
     1
 78
     2
176
     1
 67
     7
176
     1
 79
     5
176
     1
170
     0
176
     1
171
     0
176
     1
290
     0
176
     1
 93
        1
176
     1
 44
0.0
176
     1
173
     0
176
     1
  0
ENDSEC
  0
EOF
